<?xml version="1.0" encoding="utf-8" standalone="no"?>
<!DOCTYPE svg PUBLIC "-//W3C//DTD SVG 1.1//EN"
  "http://www.w3.org/Graphics/SVG/1.1/DTD/svg11.dtd">
<svg xmlns:xlink="http://www.w3.org/1999/xlink" width="798.803125pt" height="335.97625pt" viewBox="0 0 798.803125 335.97625" xmlns="http://www.w3.org/2000/svg" version="1.1">
 <metadata>
  <rdf:RDF xmlns:dc="http://purl.org/dc/elements/1.1/" xmlns:cc="http://creativecommons.org/ns#" xmlns:rdf="http://www.w3.org/1999/02/22-rdf-syntax-ns#">
   <cc:Work>
    <dc:type rdf:resource="http://purl.org/dc/dcmitype/StillImage"/>
    <dc:date>2025-03-14T09:54:38.711933</dc:date>
    <dc:format>image/svg+xml</dc:format>
    <dc:creator>
     <cc:Agent>
      <dc:title>Matplotlib v3.10.1, https://matplotlib.org/</dc:title>
     </cc:Agent>
    </dc:creator>
   </cc:Work>
  </rdf:RDF>
 </metadata>
 <defs>
  <style type="text/css">*{stroke-linejoin: round; stroke-linecap: butt}</style>
 </defs>
 <g id="figure_1">
  <g id="patch_1">
   <path d="M -0 335.97625 
L 798.803125 335.97625 
L 798.803125 0 
L -0 0 
z
" style="fill: #ffffff"/>
  </g>
  <g id="axes_1">
   <g id="patch_2">
    <path d="M 57.113125 287.2 
L 379.513125 287.2 
L 379.513125 35.2 
L 57.113125 35.2 
z
" style="fill: #ffffff"/>
   </g>
   <g id="matplotlib.axis_1">
    <g id="xtick_1">
     <g id="line2d_1">
      <path d="M 57.113125 287.2 
L 57.113125 35.2 
" clip-path="url(#pe041d8b1b3)" style="fill: none; stroke-dasharray: 0.8,1.32; stroke-dashoffset: 0; stroke: #b0b0b0; stroke-opacity: 0.6; stroke-width: 0.8"/>
     </g>
     <g id="line2d_2">
      <defs>
       <path id="m31a9c6d5ab" d="M 0 0 
L 0 3.5 
" style="stroke: #000000; stroke-width: 0.8"/>
      </defs>
      <g>
       <use xlink:href="#m31a9c6d5ab" x="57.113125" y="287.2" style="stroke: #000000; stroke-width: 0.8"/>
      </g>
     </g>
     <g id="text_1">
      <!-- 0.6 -->
      <g transform="translate(45.980937 304.837813) scale(0.14 -0.14)">
       <defs>
        <path id="DejaVuSans-30" d="M 2034 4250 
Q 1547 4250 1301 3770 
Q 1056 3291 1056 2328 
Q 1056 1369 1301 889 
Q 1547 409 2034 409 
Q 2525 409 2770 889 
Q 3016 1369 3016 2328 
Q 3016 3291 2770 3770 
Q 2525 4250 2034 4250 
z
M 2034 4750 
Q 2819 4750 3233 4129 
Q 3647 3509 3647 2328 
Q 3647 1150 3233 529 
Q 2819 -91 2034 -91 
Q 1250 -91 836 529 
Q 422 1150 422 2328 
Q 422 3509 836 4129 
Q 1250 4750 2034 4750 
z
" transform="scale(0.015625)"/>
        <path id="DejaVuSans-2e" d="M 684 794 
L 1344 794 
L 1344 0 
L 684 0 
L 684 794 
z
" transform="scale(0.015625)"/>
        <path id="DejaVuSans-36" d="M 2113 2584 
Q 1688 2584 1439 2293 
Q 1191 2003 1191 1497 
Q 1191 994 1439 701 
Q 1688 409 2113 409 
Q 2538 409 2786 701 
Q 3034 994 3034 1497 
Q 3034 2003 2786 2293 
Q 2538 2584 2113 2584 
z
M 3366 4563 
L 3366 3988 
Q 3128 4100 2886 4159 
Q 2644 4219 2406 4219 
Q 1781 4219 1451 3797 
Q 1122 3375 1075 2522 
Q 1259 2794 1537 2939 
Q 1816 3084 2150 3084 
Q 2853 3084 3261 2657 
Q 3669 2231 3669 1497 
Q 3669 778 3244 343 
Q 2819 -91 2113 -91 
Q 1303 -91 875 529 
Q 447 1150 447 2328 
Q 447 3434 972 4092 
Q 1497 4750 2381 4750 
Q 2619 4750 2861 4703 
Q 3103 4656 3366 4563 
z
" transform="scale(0.015625)"/>
       </defs>
       <use xlink:href="#DejaVuSans-30"/>
       <use xlink:href="#DejaVuSans-2e" transform="translate(63.623047 0)"/>
       <use xlink:href="#DejaVuSans-36" transform="translate(95.410156 0)"/>
      </g>
     </g>
    </g>
    <g id="xtick_2">
     <g id="line2d_3">
      <path d="M 135.747271 287.2 
L 135.747271 35.2 
" clip-path="url(#pe041d8b1b3)" style="fill: none; stroke-dasharray: 0.8,1.32; stroke-dashoffset: 0; stroke: #b0b0b0; stroke-opacity: 0.6; stroke-width: 0.8"/>
     </g>
     <g id="line2d_4">
      <g>
       <use xlink:href="#m31a9c6d5ab" x="135.747271" y="287.2" style="stroke: #000000; stroke-width: 0.8"/>
      </g>
     </g>
     <g id="text_2">
      <!-- 0.7 -->
      <g transform="translate(124.615084 304.837813) scale(0.14 -0.14)">
       <defs>
        <path id="DejaVuSans-37" d="M 525 4666 
L 3525 4666 
L 3525 4397 
L 1831 0 
L 1172 0 
L 2766 4134 
L 525 4134 
L 525 4666 
z
" transform="scale(0.015625)"/>
       </defs>
       <use xlink:href="#DejaVuSans-30"/>
       <use xlink:href="#DejaVuSans-2e" transform="translate(63.623047 0)"/>
       <use xlink:href="#DejaVuSans-37" transform="translate(95.410156 0)"/>
      </g>
     </g>
    </g>
    <g id="xtick_3">
     <g id="line2d_5">
      <path d="M 214.381418 287.2 
L 214.381418 35.2 
" clip-path="url(#pe041d8b1b3)" style="fill: none; stroke-dasharray: 0.8,1.32; stroke-dashoffset: 0; stroke: #b0b0b0; stroke-opacity: 0.6; stroke-width: 0.8"/>
     </g>
     <g id="line2d_6">
      <g>
       <use xlink:href="#m31a9c6d5ab" x="214.381418" y="287.2" style="stroke: #000000; stroke-width: 0.8"/>
      </g>
     </g>
     <g id="text_3">
      <!-- 0.8 -->
      <g transform="translate(203.24923 304.837813) scale(0.14 -0.14)">
       <defs>
        <path id="DejaVuSans-38" d="M 2034 2216 
Q 1584 2216 1326 1975 
Q 1069 1734 1069 1313 
Q 1069 891 1326 650 
Q 1584 409 2034 409 
Q 2484 409 2743 651 
Q 3003 894 3003 1313 
Q 3003 1734 2745 1975 
Q 2488 2216 2034 2216 
z
M 1403 2484 
Q 997 2584 770 2862 
Q 544 3141 544 3541 
Q 544 4100 942 4425 
Q 1341 4750 2034 4750 
Q 2731 4750 3128 4425 
Q 3525 4100 3525 3541 
Q 3525 3141 3298 2862 
Q 3072 2584 2669 2484 
Q 3125 2378 3379 2068 
Q 3634 1759 3634 1313 
Q 3634 634 3220 271 
Q 2806 -91 2034 -91 
Q 1263 -91 848 271 
Q 434 634 434 1313 
Q 434 1759 690 2068 
Q 947 2378 1403 2484 
z
M 1172 3481 
Q 1172 3119 1398 2916 
Q 1625 2713 2034 2713 
Q 2441 2713 2670 2916 
Q 2900 3119 2900 3481 
Q 2900 3844 2670 4047 
Q 2441 4250 2034 4250 
Q 1625 4250 1398 4047 
Q 1172 3844 1172 3481 
z
" transform="scale(0.015625)"/>
       </defs>
       <use xlink:href="#DejaVuSans-30"/>
       <use xlink:href="#DejaVuSans-2e" transform="translate(63.623047 0)"/>
       <use xlink:href="#DejaVuSans-38" transform="translate(95.410156 0)"/>
      </g>
     </g>
    </g>
    <g id="xtick_4">
     <g id="line2d_7">
      <path d="M 293.015564 287.2 
L 293.015564 35.2 
" clip-path="url(#pe041d8b1b3)" style="fill: none; stroke-dasharray: 0.8,1.32; stroke-dashoffset: 0; stroke: #b0b0b0; stroke-opacity: 0.6; stroke-width: 0.8"/>
     </g>
     <g id="line2d_8">
      <g>
       <use xlink:href="#m31a9c6d5ab" x="293.015564" y="287.2" style="stroke: #000000; stroke-width: 0.8"/>
      </g>
     </g>
     <g id="text_4">
      <!-- 0.9 -->
      <g transform="translate(281.883377 304.837813) scale(0.14 -0.14)">
       <defs>
        <path id="DejaVuSans-39" d="M 703 97 
L 703 672 
Q 941 559 1184 500 
Q 1428 441 1663 441 
Q 2288 441 2617 861 
Q 2947 1281 2994 2138 
Q 2813 1869 2534 1725 
Q 2256 1581 1919 1581 
Q 1219 1581 811 2004 
Q 403 2428 403 3163 
Q 403 3881 828 4315 
Q 1253 4750 1959 4750 
Q 2769 4750 3195 4129 
Q 3622 3509 3622 2328 
Q 3622 1225 3098 567 
Q 2575 -91 1691 -91 
Q 1453 -91 1209 -44 
Q 966 3 703 97 
z
M 1959 2075 
Q 2384 2075 2632 2365 
Q 2881 2656 2881 3163 
Q 2881 3666 2632 3958 
Q 2384 4250 1959 4250 
Q 1534 4250 1286 3958 
Q 1038 3666 1038 3163 
Q 1038 2656 1286 2365 
Q 1534 2075 1959 2075 
z
" transform="scale(0.015625)"/>
       </defs>
       <use xlink:href="#DejaVuSans-30"/>
       <use xlink:href="#DejaVuSans-2e" transform="translate(63.623047 0)"/>
       <use xlink:href="#DejaVuSans-39" transform="translate(95.410156 0)"/>
      </g>
     </g>
    </g>
    <g id="xtick_5">
     <g id="line2d_9">
      <path d="M 371.64971 287.2 
L 371.64971 35.2 
" clip-path="url(#pe041d8b1b3)" style="fill: none; stroke-dasharray: 0.8,1.32; stroke-dashoffset: 0; stroke: #b0b0b0; stroke-opacity: 0.6; stroke-width: 0.8"/>
     </g>
     <g id="line2d_10">
      <g>
       <use xlink:href="#m31a9c6d5ab" x="371.64971" y="287.2" style="stroke: #000000; stroke-width: 0.8"/>
      </g>
     </g>
     <g id="text_5">
      <!-- 1.0 -->
      <g transform="translate(360.517523 304.837813) scale(0.14 -0.14)">
       <defs>
        <path id="DejaVuSans-31" d="M 794 531 
L 1825 531 
L 1825 4091 
L 703 3866 
L 703 4441 
L 1819 4666 
L 2450 4666 
L 2450 531 
L 3481 531 
L 3481 0 
L 794 0 
L 794 531 
z
" transform="scale(0.015625)"/>
       </defs>
       <use xlink:href="#DejaVuSans-31"/>
       <use xlink:href="#DejaVuSans-2e" transform="translate(63.623047 0)"/>
       <use xlink:href="#DejaVuSans-30" transform="translate(95.410156 0)"/>
      </g>
     </g>
    </g>
    <g id="text_6">
     <!-- (a) Recall@10 (milvus) -->
     <g transform="translate(135.836562 324.312813) scale(0.18 -0.18)">
      <defs>
       <path id="LinLibertineO-28" d="M 282 1613 
C 282 1325 307 -154 1638 -1306 
C 1702 -1293 1754 -1248 1773 -1197 
C 1562 -954 813 -70 813 1613 
C 813 3296 1568 4179 1773 4410 
C 1747 4474 1709 4518 1638 4525 
C 877 3872 282 2803 282 1613 
z
" transform="scale(0.015625)"/>
       <path id="LinLibertineO-61" d="M 1875 1491 
L 1875 646 
C 1875 563 1837 518 1786 480 
C 1619 346 1402 198 1222 198 
C 902 198 762 454 762 653 
C 762 941 896 1235 1370 1357 
L 1875 1491 
z
M 1875 307 
C 1914 109 1978 -64 2304 -64 
C 2547 -64 2778 45 2912 173 
C 2899 250 2874 301 2803 346 
C 2752 301 2643 243 2566 243 
C 2381 243 2374 493 2374 787 
L 2374 1728 
C 2374 2637 1875 2810 1408 2810 
C 883 2810 352 2464 352 2099 
C 352 1946 429 1869 576 1869 
C 762 1869 877 2003 877 2086 
C 877 2131 870 2176 858 2202 
C 851 2221 845 2259 845 2330 
C 845 2528 1114 2598 1357 2598 
C 1574 2598 1875 2490 1875 1766 
C 1875 1722 1856 1696 1837 1690 
L 1286 1555 
C 672 1402 230 1062 230 627 
C 230 102 589 -64 1037 -64 
C 1254 -64 1453 -13 1734 205 
L 1862 307 
L 1875 307 
z
" transform="scale(0.015625)"/>
       <path id="LinLibertineO-29" d="M 1626 1613 
C 1626 1901 1600 3379 269 4531 
C 205 4518 154 4474 134 4422 
C 346 4179 1094 3296 1094 1613 
C 1094 -70 339 -954 134 -1184 
C 154 -1254 192 -1299 269 -1299 
C 1030 -646 1626 422 1626 1613 
z
" transform="scale(0.015625)"/>
       <path id="LinLibertineO-20" transform="scale(0.015625)"/>
       <path id="LinLibertineO-52" d="M 1741 3955 
C 2131 3955 2592 3814 2592 3059 
C 2592 2259 2138 2080 1517 2080 
L 1210 2080 
L 1210 3546 
C 1210 3731 1286 3955 1741 3955 
z
M 1210 781 
L 1210 1862 
C 1747 1862 1862 1766 1958 1619 
L 2643 506 
C 2822 205 3104 -64 3488 -64 
C 3584 -64 3693 -51 3757 -19 
C 3776 19 3776 83 3750 134 
C 3462 134 3302 346 3136 627 
L 2330 1971 
C 2605 2061 3181 2394 3181 3066 
C 3181 3386 3072 3648 2842 3866 
C 2534 4154 2138 4173 1734 4173 
C 1434 4173 1165 4128 934 4128 
C 710 4128 410 4134 109 4141 
C 70 4102 70 3968 109 3930 
C 557 3910 666 3878 666 3347 
L 666 781 
C 666 250 557 218 109 198 
C 70 160 70 26 109 -13 
C 397 -6 691 0 941 0 
C 1178 0 1485 -6 1766 -13 
C 1805 26 1805 160 1766 198 
C 1318 218 1210 250 1210 781 
z
" transform="scale(0.015625)"/>
       <path id="LinLibertineO-65" d="M 794 1805 
C 915 2528 1363 2586 1517 2586 
C 1760 2586 2048 2451 2048 1914 
C 2048 1856 2022 1824 1952 1824 
L 794 1805 
z
M 2470 595 
C 2234 352 2048 250 1677 250 
C 1446 250 1178 384 979 710 
C 851 922 774 1216 774 1587 
L 2477 1574 
C 2554 1574 2598 1613 2598 1683 
C 2598 2221 2406 2797 1517 2797 
C 960 2797 237 2266 237 1293 
C 237 934 326 589 538 346 
C 755 90 1056 -64 1517 -64 
C 2003 -64 2349 160 2605 493 
C 2586 557 2547 589 2470 595 
z
" transform="scale(0.015625)"/>
       <path id="LinLibertineO-63" d="M 2547 582 
C 2522 640 2470 666 2413 672 
C 2195 390 1920 250 1645 250 
C 1178 250 787 723 787 1472 
C 787 2176 1094 2598 1517 2598 
C 1894 2598 1946 2374 1971 2150 
C 1990 1978 2080 1920 2214 1920 
C 2349 1920 2528 2003 2528 2202 
C 2528 2554 2163 2810 1549 2810 
C 915 2810 237 2240 237 1331 
C 237 506 698 -64 1504 -64 
C 1888 -64 2227 58 2547 582 
z
" transform="scale(0.015625)"/>
       <path id="LinLibertineO-6c" d="M 608 781 
C 608 250 538 218 147 198 
C 109 160 109 26 147 -13 
C 371 -6 608 0 864 0 
C 1120 0 1363 -6 1574 -13 
C 1613 26 1613 160 1574 198 
C 1184 218 1114 250 1114 781 
L 1114 3731 
C 1114 4147 1139 4403 1139 4403 
C 1139 4448 1114 4467 1056 4467 
C 896 4403 416 4314 160 4294 
C 147 4243 160 4141 198 4102 
C 570 4077 608 4058 608 3578 
L 608 781 
z
" transform="scale(0.015625)"/>
       <path id="LinLibertineO-40" d="M 3642 2022 
C 3642 1805 3533 1478 3450 1280 
C 3251 813 2938 448 2714 448 
C 2310 448 2214 730 2214 1037 
C 2214 1434 2323 1843 2650 2170 
C 2842 2368 3117 2426 3226 2426 
C 3456 2426 3642 2266 3642 2022 
z
M 3731 474 
C 3731 512 3776 730 3814 902 
L 4198 2554 
L 4102 2586 
L 3763 2502 
L 3731 2349 
C 3667 2515 3450 2624 3238 2624 
C 2560 2624 1747 1894 1747 979 
C 1747 723 1888 186 2528 186 
C 2752 186 3098 371 3379 845 
L 3392 838 
C 3341 678 3296 531 3296 435 
C 3296 333 3341 173 3526 173 
C 4922 173 5370 1075 5370 1805 
C 5370 3002 4378 3910 3002 3910 
C 1562 3910 378 2803 378 1427 
C 378 64 1376 -1011 2906 -1011 
C 3629 -1011 4013 -787 4397 -493 
L 4314 -378 
C 3968 -653 3571 -800 3027 -800 
C 1376 -800 890 582 890 1542 
C 890 3059 1965 3712 2938 3712 
C 3738 3712 4858 3078 4858 1760 
C 4858 698 4454 397 3802 397 
C 3789 397 3731 410 3731 474 
z
" transform="scale(0.015625)"/>
       <path id="LinLibertineO-31" d="M 1843 781 
L 1843 3002 
C 1843 3386 1850 3776 1862 3859 
C 1862 3885 1843 3891 1824 3891 
C 1466 3667 1133 3514 570 3251 
C 576 3174 608 3117 666 3078 
C 954 3200 1101 3238 1222 3238 
C 1325 3238 1350 3085 1350 2867 
L 1350 781 
C 1350 250 1178 218 730 198 
C 691 160 691 26 730 -13 
C 1043 -6 1267 0 1619 0 
C 1920 0 2080 -6 2400 -13 
C 2438 26 2438 160 2400 198 
C 1952 218 1843 250 1843 781 
z
" transform="scale(0.015625)"/>
       <path id="LinLibertineO-30" d="M 1485 3680 
C 1594 3680 1696 3642 1773 3571 
C 1971 3405 2144 2918 2144 2061 
C 2144 1472 2125 1069 2035 742 
C 1894 218 1581 160 1466 160 
C 870 160 806 1254 806 1811 
C 806 3386 1197 3680 1485 3680 
z
M 1459 -64 
C 1952 -64 2701 435 2701 1939 
C 2701 2573 2547 3117 2266 3488 
C 2093 3706 1830 3904 1485 3904 
C 851 3904 250 3149 250 1882 
C 250 1197 454 550 806 205 
C 992 19 1210 -64 1459 -64 
z
" transform="scale(0.015625)"/>
       <path id="LinLibertineO-6d" d="M 1088 2291 
C 1075 2477 1062 2707 1037 2778 
C 1018 2803 1011 2829 960 2829 
C 781 2758 614 2701 173 2643 
C 160 2605 173 2502 186 2464 
C 531 2432 602 2400 602 2029 
L 602 781 
C 602 256 518 224 166 198 
C 128 160 128 26 166 -13 
C 358 -6 602 0 858 0 
C 1114 0 1306 -6 1498 -13 
C 1536 26 1536 160 1498 198 
C 1178 230 1107 256 1107 781 
L 1107 1830 
C 1107 1965 1165 2042 1216 2099 
C 1466 2342 1709 2477 1907 2477 
C 2150 2477 2330 2323 2330 1894 
L 2330 781 
C 2330 256 2278 224 1933 198 
C 1901 160 1901 26 1933 -13 
C 2093 -6 2330 0 2586 0 
C 2842 0 3053 -6 3213 -13 
C 3245 26 3245 160 3213 198 
C 2893 224 2835 256 2835 781 
L 2835 1798 
C 2835 1888 2835 1978 2829 2054 
C 3136 2394 3424 2477 3674 2477 
C 3917 2477 4058 2336 4058 1907 
L 4058 781 
C 4058 256 3994 224 3661 198 
C 3629 160 3629 26 3661 -13 
C 3821 -6 4058 0 4314 0 
C 4570 0 4794 -6 4973 -13 
C 5005 26 5005 160 4973 198 
C 4621 224 4563 256 4563 781 
L 4563 1792 
C 4563 2362 4467 2810 3904 2810 
C 3571 2810 3181 2688 2848 2336 
C 2829 2317 2790 2285 2778 2336 
C 2714 2598 2470 2810 2138 2810 
C 1766 2810 1427 2586 1165 2291 
C 1133 2253 1088 2214 1088 2291 
z
" transform="scale(0.015625)"/>
       <path id="LinLibertineO-69" d="M 576 3834 
C 576 3667 730 3501 883 3501 
C 1062 3501 1216 3667 1216 3808 
C 1216 3962 1082 4141 909 4141 
C 755 4141 576 3987 576 3834 
z
M 1158 781 
L 1158 2054 
C 1158 2374 1184 2784 1184 2784 
C 1184 2810 1152 2829 1101 2829 
C 915 2758 666 2701 224 2643 
C 211 2605 224 2502 237 2464 
C 582 2426 653 2394 653 2029 
L 653 781 
C 653 250 582 230 192 198 
C 154 160 154 26 192 -13 
C 403 -6 653 0 909 0 
C 1165 0 1408 -6 1619 -13 
C 1658 26 1658 160 1619 198 
C 1229 224 1158 250 1158 781 
z
" transform="scale(0.015625)"/>
       <path id="LinLibertineO-76" d="M 2080 2547 
C 2426 2522 2458 2438 2323 2118 
L 1811 864 
C 1702 608 1670 614 1574 883 
L 1107 2118 
C 998 2426 966 2502 1312 2547 
C 1350 2586 1350 2720 1312 2758 
C 1101 2752 877 2746 666 2746 
C 454 2746 262 2752 70 2758 
C 32 2720 32 2586 70 2547 
C 410 2502 454 2400 582 2080 
L 1402 58 
C 1440 -38 1478 -77 1562 -77 
C 1626 -77 1664 -38 1715 70 
L 2566 2074 
C 2688 2349 2758 2515 3117 2547 
C 3155 2586 3155 2720 3117 2758 
C 2989 2752 2835 2746 2669 2746 
C 2458 2746 2240 2752 2080 2758 
C 2042 2720 2042 2586 2080 2547 
z
" transform="scale(0.015625)"/>
       <path id="LinLibertineO-75" d="M 1389 -64 
C 1638 -64 1939 64 2253 320 
C 2285 346 2342 358 2349 314 
C 2362 147 2419 -64 2419 -64 
C 2470 -83 2496 -83 2541 -64 
C 2682 51 2906 147 3296 192 
C 3334 230 3334 326 3296 365 
C 2886 397 2829 518 2829 832 
L 2829 2061 
C 2829 2253 2854 2720 2854 2720 
C 2854 2739 2835 2758 2803 2758 
C 2771 2752 2675 2746 2579 2746 
C 2374 2746 2144 2752 1926 2758 
C 1888 2720 1888 2586 1926 2547 
C 2240 2528 2323 2451 2323 2029 
L 2323 794 
C 2323 672 2310 621 2221 544 
C 1984 339 1741 237 1581 237 
C 1389 237 1069 326 1069 896 
L 1069 2061 
C 1069 2253 1094 2720 1094 2720 
C 1094 2739 1075 2758 1043 2758 
C 1011 2752 915 2746 819 2746 
C 614 2746 384 2752 166 2758 
C 128 2720 128 2586 166 2547 
C 474 2522 563 2451 563 2035 
L 563 806 
C 563 365 755 -64 1389 -64 
z
" transform="scale(0.015625)"/>
       <path id="LinLibertineO-73" d="M 307 883 
C 333 570 352 269 352 0 
C 416 13 480 19 512 19 
C 557 19 595 19 640 6 
C 813 -38 986 -64 1222 -64 
C 1581 -64 2240 109 2240 742 
C 2240 1178 1926 1434 1491 1594 
C 1101 1734 851 1837 851 2189 
C 851 2451 1082 2598 1299 2598 
C 1440 2598 1811 2547 1894 2003 
C 1933 1965 2061 1971 2099 2010 
C 2118 2240 2131 2477 2138 2688 
C 1939 2720 1632 2810 1299 2810 
C 826 2810 397 2502 397 2093 
C 397 1626 608 1427 1101 1222 
C 1632 1005 1754 870 1754 595 
C 1754 282 1446 147 1210 147 
C 960 147 819 230 755 301 
C 614 448 544 730 506 890 
C 467 928 346 922 307 883 
z
" transform="scale(0.015625)"/>
      </defs>
      <use xlink:href="#LinLibertineO-28"/>
      <use xlink:href="#LinLibertineO-61" transform="translate(29.799988 0)"/>
      <use xlink:href="#LinLibertineO-29" transform="translate(75.499985 0)"/>
      <use xlink:href="#LinLibertineO-20" transform="translate(105.299973 0)"/>
      <use xlink:href="#LinLibertineO-52" transform="translate(130.299957 0)"/>
      <use xlink:href="#LinLibertineO-65" transform="translate(188.999954 0)"/>
      <use xlink:href="#LinLibertineO-63" transform="translate(233.699951 0)"/>
      <use xlink:href="#LinLibertineO-61" transform="translate(276.499939 0)"/>
      <use xlink:href="#LinLibertineO-6c" transform="translate(322.199936 0)"/>
      <use xlink:href="#LinLibertineO-6c" transform="translate(348.59993 0)"/>
      <use xlink:href="#LinLibertineO-40" transform="translate(374.999924 0)"/>
      <use xlink:href="#LinLibertineO-31" transform="translate(464.499908 0)"/>
      <use xlink:href="#LinLibertineO-30" transform="translate(510.999893 0)"/>
      <use xlink:href="#LinLibertineO-20" transform="translate(557.499878 0)"/>
      <use xlink:href="#LinLibertineO-28" transform="translate(582.499863 0)"/>
      <use xlink:href="#LinLibertineO-6d" transform="translate(612.29985 0)"/>
      <use xlink:href="#LinLibertineO-69" transform="translate(691.299835 0)"/>
      <use xlink:href="#LinLibertineO-6c" transform="translate(718.399826 0)"/>
      <use xlink:href="#LinLibertineO-76" transform="translate(744.79982 0)"/>
      <use xlink:href="#LinLibertineO-75" transform="translate(794.499817 0)"/>
      <use xlink:href="#LinLibertineO-73" transform="translate(847.599808 0)"/>
      <use xlink:href="#LinLibertineO-29" transform="translate(886.599792 0)"/>
     </g>
    </g>
   </g>
   <g id="matplotlib.axis_2">
    <g id="ytick_1">
     <g id="line2d_11">
      <path d="M 57.113125 254.382687 
L 379.513125 254.382687 
" clip-path="url(#pe041d8b1b3)" style="fill: none; stroke-dasharray: 0.8,1.32; stroke-dashoffset: 0; stroke: #b0b0b0; stroke-opacity: 0.6; stroke-width: 0.8"/>
     </g>
     <g id="line2d_12">
      <defs>
       <path id="mef521b997e" d="M 0 0 
L -3.5 0 
" style="stroke: #000000; stroke-width: 0.8"/>
      </defs>
      <g>
       <use xlink:href="#mef521b997e" x="57.113125" y="254.382687" style="stroke: #000000; stroke-width: 0.8"/>
      </g>
     </g>
     <g id="text_7">
      <!-- 10² -->
      <g transform="translate(26.685 259.701593) scale(0.14 -0.14)">
       <defs>
        <path id="DejaVuSans-b2" d="M 838 2444 
L 2163 2444 
L 2163 2088 
L 294 2088 
L 294 2431 
Q 400 2528 597 2703 
Q 1672 3656 1672 3950 
Q 1672 4156 1509 4282 
Q 1347 4409 1081 4409 
Q 919 4409 728 4354 
Q 538 4300 313 4191 
L 313 4575 
Q 553 4663 761 4706 
Q 969 4750 1147 4750 
Q 1600 4750 1872 4544 
Q 2144 4338 2144 4000 
Q 2144 3566 1109 2678 
Q 934 2528 838 2444 
z
" transform="scale(0.015625)"/>
       </defs>
       <use xlink:href="#DejaVuSans-31"/>
       <use xlink:href="#DejaVuSans-30" transform="translate(63.623047 0)"/>
       <use xlink:href="#DejaVuSans-b2" transform="translate(127.246094 0)"/>
      </g>
     </g>
    </g>
    <g id="ytick_2">
     <g id="line2d_13">
      <path d="M 57.113125 68.017313 
L 379.513125 68.017313 
" clip-path="url(#pe041d8b1b3)" style="fill: none; stroke-dasharray: 0.8,1.32; stroke-dashoffset: 0; stroke: #b0b0b0; stroke-opacity: 0.6; stroke-width: 0.8"/>
     </g>
     <g id="line2d_14">
      <g>
       <use xlink:href="#mef521b997e" x="57.113125" y="68.017313" style="stroke: #000000; stroke-width: 0.8"/>
      </g>
     </g>
     <g id="text_8">
      <!-- 10³ -->
      <g transform="translate(26.685 73.33622) scale(0.14 -0.14)">
       <defs>
        <path id="DejaVuSans-b3" d="M 1638 3500 
Q 1925 3444 2083 3273 
Q 2241 3103 2241 2847 
Q 2241 2459 1944 2250 
Q 1647 2041 1094 2041 
Q 916 2041 720 2073 
Q 525 2106 306 2169 
L 306 2547 
Q 469 2463 655 2422 
Q 841 2381 1050 2381 
Q 1391 2381 1578 2504 
Q 1766 2628 1766 2847 
Q 1766 3078 1592 3197 
Q 1419 3316 1081 3316 
L 813 3316 
L 813 3653 
L 1106 3653 
Q 1400 3653 1551 3751 
Q 1703 3850 1703 4038 
Q 1703 4219 1547 4314 
Q 1391 4409 1094 4409 
Q 969 4409 809 4381 
Q 650 4353 397 4281 
L 397 4641 
Q 625 4694 825 4722 
Q 1025 4750 1197 4750 
Q 1647 4750 1911 4565 
Q 2175 4381 2175 4072 
Q 2175 3856 2034 3706 
Q 1894 3556 1638 3500 
z
" transform="scale(0.015625)"/>
       </defs>
       <use xlink:href="#DejaVuSans-31"/>
       <use xlink:href="#DejaVuSans-30" transform="translate(63.623047 0)"/>
       <use xlink:href="#DejaVuSans-b3" transform="translate(127.246094 0)"/>
      </g>
     </g>
    </g>
    <g id="text_9">
     <!-- QPS -->
     <g transform="translate(19.3575 177.4) rotate(-90) scale(0.16 -0.16)">
      <defs>
       <path id="DejaVuSans-51" d="M 2522 4238 
Q 1834 4238 1429 3725 
Q 1025 3213 1025 2328 
Q 1025 1447 1429 934 
Q 1834 422 2522 422 
Q 3209 422 3611 934 
Q 4013 1447 4013 2328 
Q 4013 3213 3611 3725 
Q 3209 4238 2522 4238 
z
M 3406 84 
L 4238 -825 
L 3475 -825 
L 2784 -78 
Q 2681 -84 2626 -87 
Q 2572 -91 2522 -91 
Q 1538 -91 948 567 
Q 359 1225 359 2328 
Q 359 3434 948 4092 
Q 1538 4750 2522 4750 
Q 3503 4750 4090 4092 
Q 4678 3434 4678 2328 
Q 4678 1516 4351 937 
Q 4025 359 3406 84 
z
" transform="scale(0.015625)"/>
       <path id="DejaVuSans-50" d="M 1259 4147 
L 1259 2394 
L 2053 2394 
Q 2494 2394 2734 2622 
Q 2975 2850 2975 3272 
Q 2975 3691 2734 3919 
Q 2494 4147 2053 4147 
L 1259 4147 
z
M 628 4666 
L 2053 4666 
Q 2838 4666 3239 4311 
Q 3641 3956 3641 3272 
Q 3641 2581 3239 2228 
Q 2838 1875 2053 1875 
L 1259 1875 
L 1259 0 
L 628 0 
L 628 4666 
z
" transform="scale(0.015625)"/>
       <path id="DejaVuSans-53" d="M 3425 4513 
L 3425 3897 
Q 3066 4069 2747 4153 
Q 2428 4238 2131 4238 
Q 1616 4238 1336 4038 
Q 1056 3838 1056 3469 
Q 1056 3159 1242 3001 
Q 1428 2844 1947 2747 
L 2328 2669 
Q 3034 2534 3370 2195 
Q 3706 1856 3706 1288 
Q 3706 609 3251 259 
Q 2797 -91 1919 -91 
Q 1588 -91 1214 -16 
Q 841 59 441 206 
L 441 856 
Q 825 641 1194 531 
Q 1563 422 1919 422 
Q 2459 422 2753 634 
Q 3047 847 3047 1241 
Q 3047 1584 2836 1778 
Q 2625 1972 2144 2069 
L 1759 2144 
Q 1053 2284 737 2584 
Q 422 2884 422 3419 
Q 422 4038 858 4394 
Q 1294 4750 2059 4750 
Q 2388 4750 2728 4690 
Q 3069 4631 3425 4513 
z
" transform="scale(0.015625)"/>
      </defs>
      <use xlink:href="#DejaVuSans-51"/>
      <use xlink:href="#DejaVuSans-50" transform="translate(78.710938 0)"/>
      <use xlink:href="#DejaVuSans-53" transform="translate(139.013672 0)"/>
     </g>
    </g>
   </g>
   <g id="line2d_15">
    <path d="M 60.415759 139.430386 
L 102.170491 140.182969 
L 176.401125 141.929034 
L 224.053418 143.643516 
L 279.647759 144.469806 
L 333.040345 147.40961 
L 363.629027 150.328096 
" clip-path="url(#pe041d8b1b3)" style="fill: none; stroke: #1f77b4; stroke-width: 1.2; stroke-linecap: square"/>
    <defs>
     <path id="m72de7d6592" d="M 0 2 
C 0.530406 2 1.03916 1.789267 1.414214 1.414214 
C 1.789267 1.03916 2 0.530406 2 0 
C 2 -0.530406 1.789267 -1.03916 1.414214 -1.414214 
C 1.03916 -1.789267 0.530406 -2 0 -2 
C -0.530406 -2 -1.03916 -1.789267 -1.414214 -1.414214 
C -1.789267 -1.03916 -2 -0.530406 -2 0 
C -2 0.530406 -1.789267 1.03916 -1.414214 1.414214 
C -1.03916 1.789267 -0.530406 2 0 2 
z
" style="stroke: #1f77b4; stroke-opacity: 0.8"/>
    </defs>
    <g clip-path="url(#pe041d8b1b3)">
     <use xlink:href="#m72de7d6592" x="60.415759" y="139.430386" style="fill: #ffffff; fill-opacity: 0.8; stroke: #1f77b4; stroke-opacity: 0.8"/>
     <use xlink:href="#m72de7d6592" x="102.170491" y="140.182969" style="fill: #ffffff; fill-opacity: 0.8; stroke: #1f77b4; stroke-opacity: 0.8"/>
     <use xlink:href="#m72de7d6592" x="176.401125" y="141.929034" style="fill: #ffffff; fill-opacity: 0.8; stroke: #1f77b4; stroke-opacity: 0.8"/>
     <use xlink:href="#m72de7d6592" x="224.053418" y="143.643516" style="fill: #ffffff; fill-opacity: 0.8; stroke: #1f77b4; stroke-opacity: 0.8"/>
     <use xlink:href="#m72de7d6592" x="279.647759" y="144.469806" style="fill: #ffffff; fill-opacity: 0.8; stroke: #1f77b4; stroke-opacity: 0.8"/>
     <use xlink:href="#m72de7d6592" x="333.040345" y="147.40961" style="fill: #ffffff; fill-opacity: 0.8; stroke: #1f77b4; stroke-opacity: 0.8"/>
     <use xlink:href="#m72de7d6592" x="363.629027" y="150.328096" style="fill: #ffffff; fill-opacity: 0.8; stroke: #1f77b4; stroke-opacity: 0.8"/>
    </g>
   </g>
   <g id="line2d_16">
    <path d="M 124.659857 146.95115 
L 200.934979 151.816378 
L 231.68093 153.084426 
L 282.950393 153.581418 
L 308.506491 154.471519 
L 337.286588 165.267097 
L 359.382784 173.180127 
L 370.077027 194.189689 
" clip-path="url(#pe041d8b1b3)" style="fill: none; stroke-dasharray: 4.44,1.92; stroke-dashoffset: 0; stroke: #ff7f0e; stroke-width: 1.2"/>
    <defs>
     <path id="m575b3444c7" d="M -2 2 
L 2 2 
L 2 -2 
L -2 -2 
z
" style="stroke: #ff7f0e; stroke-opacity: 0.8; stroke-linejoin: miter"/>
    </defs>
    <g clip-path="url(#pe041d8b1b3)">
     <use xlink:href="#m575b3444c7" x="124.659857" y="146.95115" style="fill: #ffffff; fill-opacity: 0.8; stroke: #ff7f0e; stroke-opacity: 0.8; stroke-linejoin: miter"/>
     <use xlink:href="#m575b3444c7" x="200.934979" y="151.816378" style="fill: #ffffff; fill-opacity: 0.8; stroke: #ff7f0e; stroke-opacity: 0.8; stroke-linejoin: miter"/>
     <use xlink:href="#m575b3444c7" x="231.68093" y="153.084426" style="fill: #ffffff; fill-opacity: 0.8; stroke: #ff7f0e; stroke-opacity: 0.8; stroke-linejoin: miter"/>
     <use xlink:href="#m575b3444c7" x="282.950393" y="153.581418" style="fill: #ffffff; fill-opacity: 0.8; stroke: #ff7f0e; stroke-opacity: 0.8; stroke-linejoin: miter"/>
     <use xlink:href="#m575b3444c7" x="308.506491" y="154.471519" style="fill: #ffffff; fill-opacity: 0.8; stroke: #ff7f0e; stroke-opacity: 0.8; stroke-linejoin: miter"/>
     <use xlink:href="#m575b3444c7" x="337.286588" y="165.267097" style="fill: #ffffff; fill-opacity: 0.8; stroke: #ff7f0e; stroke-opacity: 0.8; stroke-linejoin: miter"/>
     <use xlink:href="#m575b3444c7" x="359.382784" y="173.180127" style="fill: #ffffff; fill-opacity: 0.8; stroke: #ff7f0e; stroke-opacity: 0.8; stroke-linejoin: miter"/>
     <use xlink:href="#m575b3444c7" x="370.077027" y="194.189689" style="fill: #ffffff; fill-opacity: 0.8; stroke: #ff7f0e; stroke-opacity: 0.8; stroke-linejoin: miter"/>
    </g>
   </g>
   <g id="line2d_17">
    <path d="M 147.935564 149.130844 
L 220.12171 155.304859 
L 251.496735 161.591974 
L 298.519954 164.517001 
L 323.761515 165.80175 
L 348.059466 179.588373 
L 370.706101 210.875127 
" clip-path="url(#pe041d8b1b3)" style="fill: none; stroke-dasharray: 7.68,1.92,1.2,1.92; stroke-dashoffset: 0; stroke: #2ca02c; stroke-width: 1.2"/>
    <defs>
     <path id="m135fd002a5" d="M 0 -2 
L -2 2 
L 2 2 
z
" style="stroke: #2ca02c; stroke-opacity: 0.8; stroke-linejoin: miter"/>
    </defs>
    <g clip-path="url(#pe041d8b1b3)">
     <use xlink:href="#m135fd002a5" x="147.935564" y="149.130844" style="fill: #ffffff; fill-opacity: 0.8; stroke: #2ca02c; stroke-opacity: 0.8; stroke-linejoin: miter"/>
     <use xlink:href="#m135fd002a5" x="220.12171" y="155.304859" style="fill: #ffffff; fill-opacity: 0.8; stroke: #2ca02c; stroke-opacity: 0.8; stroke-linejoin: miter"/>
     <use xlink:href="#m135fd002a5" x="251.496735" y="161.591974" style="fill: #ffffff; fill-opacity: 0.8; stroke: #2ca02c; stroke-opacity: 0.8; stroke-linejoin: miter"/>
     <use xlink:href="#m135fd002a5" x="298.519954" y="164.517001" style="fill: #ffffff; fill-opacity: 0.8; stroke: #2ca02c; stroke-opacity: 0.8; stroke-linejoin: miter"/>
     <use xlink:href="#m135fd002a5" x="323.761515" y="165.80175" style="fill: #ffffff; fill-opacity: 0.8; stroke: #2ca02c; stroke-opacity: 0.8; stroke-linejoin: miter"/>
     <use xlink:href="#m135fd002a5" x="348.059466" y="179.588373" style="fill: #ffffff; fill-opacity: 0.8; stroke: #2ca02c; stroke-opacity: 0.8; stroke-linejoin: miter"/>
     <use xlink:href="#m135fd002a5" x="370.706101" y="210.875127" style="fill: #ffffff; fill-opacity: 0.8; stroke: #2ca02c; stroke-opacity: 0.8; stroke-linejoin: miter"/>
    </g>
   </g>
   <g id="line2d_18">
    <path d="M 160.045223 153.964366 
L 230.108247 156.211818 
L 262.190979 160.043177 
L 305.125223 165.544784 
L 329.108637 182.189954 
L 351.283466 190.086439 
L 371.020637 225.258159 
" clip-path="url(#pe041d8b1b3)" style="fill: none; stroke: #d62728; stroke-width: 1.2; stroke-linecap: square"/>
    <defs>
     <path id="m33243a3e16" d="M -0 2.828427 
L 2.828427 0 
L 0 -2.828427 
L -2.828427 -0 
z
" style="stroke: #d62728; stroke-opacity: 0.8; stroke-linejoin: miter"/>
    </defs>
    <g clip-path="url(#pe041d8b1b3)">
     <use xlink:href="#m33243a3e16" x="160.045223" y="153.964366" style="fill: #ffffff; fill-opacity: 0.8; stroke: #d62728; stroke-opacity: 0.8; stroke-linejoin: miter"/>
     <use xlink:href="#m33243a3e16" x="230.108247" y="156.211818" style="fill: #ffffff; fill-opacity: 0.8; stroke: #d62728; stroke-opacity: 0.8; stroke-linejoin: miter"/>
     <use xlink:href="#m33243a3e16" x="262.190979" y="160.043177" style="fill: #ffffff; fill-opacity: 0.8; stroke: #d62728; stroke-opacity: 0.8; stroke-linejoin: miter"/>
     <use xlink:href="#m33243a3e16" x="305.125223" y="165.544784" style="fill: #ffffff; fill-opacity: 0.8; stroke: #d62728; stroke-opacity: 0.8; stroke-linejoin: miter"/>
     <use xlink:href="#m33243a3e16" x="329.108637" y="182.189954" style="fill: #ffffff; fill-opacity: 0.8; stroke: #d62728; stroke-opacity: 0.8; stroke-linejoin: miter"/>
     <use xlink:href="#m33243a3e16" x="351.283466" y="190.086439" style="fill: #ffffff; fill-opacity: 0.8; stroke: #d62728; stroke-opacity: 0.8; stroke-linejoin: miter"/>
     <use xlink:href="#m33243a3e16" x="371.020637" y="225.258159" style="fill: #ffffff; fill-opacity: 0.8; stroke: #d62728; stroke-opacity: 0.8; stroke-linejoin: miter"/>
    </g>
   </g>
   <g id="line2d_19">
    <path d="M 332.332637 287.2 
L 332.332637 35.2 
" clip-path="url(#pe041d8b1b3)" style="fill: none; stroke-dasharray: 5.55,2.4; stroke-dashoffset: 0; stroke: #808080; stroke-opacity: 0.7; stroke-width: 1.5"/>
   </g>
   <g id="patch_3">
    <path d="M 57.113125 287.2 
L 57.113125 35.2 
" style="fill: none; stroke: #000000; stroke-width: 0.8; stroke-linejoin: miter; stroke-linecap: square"/>
   </g>
   <g id="patch_4">
    <path d="M 379.513125 287.2 
L 379.513125 35.2 
" style="fill: none; stroke: #000000; stroke-width: 0.8; stroke-linejoin: miter; stroke-linecap: square"/>
   </g>
   <g id="patch_5">
    <path d="M 57.113125 287.2 
L 379.513125 287.2 
" style="fill: none; stroke: #000000; stroke-width: 0.8; stroke-linejoin: miter; stroke-linecap: square"/>
   </g>
   <g id="patch_6">
    <path d="M 57.113125 35.2 
L 379.513125 35.2 
" style="fill: none; stroke: #000000; stroke-width: 0.8; stroke-linejoin: miter; stroke-linecap: square"/>
   </g>
  </g>
  <g id="axes_2">
   <g id="patch_7">
    <path d="M 460.113125 287.2 
L 782.513125 287.2 
L 782.513125 35.2 
L 460.113125 35.2 
z
" style="fill: #ffffff"/>
   </g>
   <g id="matplotlib.axis_3">
    <g id="xtick_6">
     <g id="line2d_20">
      <path d="M 460.113125 287.2 
L 460.113125 35.2 
" clip-path="url(#p0b998b7209)" style="fill: none; stroke-dasharray: 0.8,1.32; stroke-dashoffset: 0; stroke: #b0b0b0; stroke-opacity: 0.6; stroke-width: 0.8"/>
     </g>
     <g id="line2d_21">
      <g>
       <use xlink:href="#m31a9c6d5ab" x="460.113125" y="287.2" style="stroke: #000000; stroke-width: 0.8"/>
      </g>
     </g>
     <g id="text_10">
      <!-- 0.6 -->
      <g transform="translate(448.980937 304.837813) scale(0.14 -0.14)">
       <use xlink:href="#DejaVuSans-30"/>
       <use xlink:href="#DejaVuSans-2e" transform="translate(63.623047 0)"/>
       <use xlink:href="#DejaVuSans-36" transform="translate(95.410156 0)"/>
      </g>
     </g>
    </g>
    <g id="xtick_7">
     <g id="line2d_22">
      <path d="M 538.747271 287.2 
L 538.747271 35.2 
" clip-path="url(#p0b998b7209)" style="fill: none; stroke-dasharray: 0.8,1.32; stroke-dashoffset: 0; stroke: #b0b0b0; stroke-opacity: 0.6; stroke-width: 0.8"/>
     </g>
     <g id="line2d_23">
      <g>
       <use xlink:href="#m31a9c6d5ab" x="538.747271" y="287.2" style="stroke: #000000; stroke-width: 0.8"/>
      </g>
     </g>
     <g id="text_11">
      <!-- 0.7 -->
      <g transform="translate(527.615084 304.837813) scale(0.14 -0.14)">
       <use xlink:href="#DejaVuSans-30"/>
       <use xlink:href="#DejaVuSans-2e" transform="translate(63.623047 0)"/>
       <use xlink:href="#DejaVuSans-37" transform="translate(95.410156 0)"/>
      </g>
     </g>
    </g>
    <g id="xtick_8">
     <g id="line2d_24">
      <path d="M 617.381418 287.2 
L 617.381418 35.2 
" clip-path="url(#p0b998b7209)" style="fill: none; stroke-dasharray: 0.8,1.32; stroke-dashoffset: 0; stroke: #b0b0b0; stroke-opacity: 0.6; stroke-width: 0.8"/>
     </g>
     <g id="line2d_25">
      <g>
       <use xlink:href="#m31a9c6d5ab" x="617.381418" y="287.2" style="stroke: #000000; stroke-width: 0.8"/>
      </g>
     </g>
     <g id="text_12">
      <!-- 0.8 -->
      <g transform="translate(606.24923 304.837813) scale(0.14 -0.14)">
       <use xlink:href="#DejaVuSans-30"/>
       <use xlink:href="#DejaVuSans-2e" transform="translate(63.623047 0)"/>
       <use xlink:href="#DejaVuSans-38" transform="translate(95.410156 0)"/>
      </g>
     </g>
    </g>
    <g id="xtick_9">
     <g id="line2d_26">
      <path d="M 696.015564 287.2 
L 696.015564 35.2 
" clip-path="url(#p0b998b7209)" style="fill: none; stroke-dasharray: 0.8,1.32; stroke-dashoffset: 0; stroke: #b0b0b0; stroke-opacity: 0.6; stroke-width: 0.8"/>
     </g>
     <g id="line2d_27">
      <g>
       <use xlink:href="#m31a9c6d5ab" x="696.015564" y="287.2" style="stroke: #000000; stroke-width: 0.8"/>
      </g>
     </g>
     <g id="text_13">
      <!-- 0.9 -->
      <g transform="translate(684.883377 304.837813) scale(0.14 -0.14)">
       <use xlink:href="#DejaVuSans-30"/>
       <use xlink:href="#DejaVuSans-2e" transform="translate(63.623047 0)"/>
       <use xlink:href="#DejaVuSans-39" transform="translate(95.410156 0)"/>
      </g>
     </g>
    </g>
    <g id="xtick_10">
     <g id="line2d_28">
      <path d="M 774.64971 287.2 
L 774.64971 35.2 
" clip-path="url(#p0b998b7209)" style="fill: none; stroke-dasharray: 0.8,1.32; stroke-dashoffset: 0; stroke: #b0b0b0; stroke-opacity: 0.6; stroke-width: 0.8"/>
     </g>
     <g id="line2d_29">
      <g>
       <use xlink:href="#m31a9c6d5ab" x="774.64971" y="287.2" style="stroke: #000000; stroke-width: 0.8"/>
      </g>
     </g>
     <g id="text_14">
      <!-- 1.0 -->
      <g transform="translate(763.517523 304.837813) scale(0.14 -0.14)">
       <use xlink:href="#DejaVuSans-31"/>
       <use xlink:href="#DejaVuSans-2e" transform="translate(63.623047 0)"/>
       <use xlink:href="#DejaVuSans-30" transform="translate(95.410156 0)"/>
      </g>
     </g>
    </g>
    <g id="text_15">
     <!-- (b) Recall@10 (ACORN-gama) -->
     <g transform="translate(510.36 324.492813) scale(0.18 -0.18)">
      <defs>
       <path id="LinLibertineO-62" d="M 1114 2323 
C 1280 2470 1472 2528 1658 2528 
C 2048 2528 2368 2054 2368 1434 
C 2368 704 2074 154 1466 154 
C 1267 154 1133 294 1005 454 
L 1005 2054 
C 1005 2189 1030 2246 1114 2323 
z
M 1069 2522 
C 1024 2483 1005 2496 1005 2554 
L 1005 3731 
C 1005 4147 1030 4403 1030 4403 
C 1030 4448 1005 4467 947 4467 
C 787 4403 307 4314 51 4294 
C 38 4243 51 4141 90 4102 
C 422 4083 499 4115 499 3578 
L 499 454 
C 499 205 493 90 474 0 
C 506 -51 538 -77 614 -77 
C 653 -45 717 19 762 77 
C 832 154 870 154 941 90 
C 1082 -32 1274 -64 1504 -64 
C 2157 -64 2918 531 2918 1549 
C 2918 2330 2342 2810 1786 2810 
C 1510 2810 1267 2701 1069 2522 
z
" transform="scale(0.015625)"/>
       <path id="LinLibertineO-41" d="M 1683 1811 
C 1542 1811 1498 1830 1517 1894 
L 2176 3552 
L 2214 3552 
L 2816 1811 
L 1683 1811 
z
M 992 506 
L 1344 1434 
C 1376 1517 1414 1542 1568 1542 
L 2918 1542 
L 3290 461 
C 3360 237 3117 218 2816 198 
C 2778 160 2778 26 2816 -13 
C 3053 -6 3405 0 3654 0 
C 3917 0 4160 -6 4384 -13 
C 4422 26 4422 160 4384 198 
C 4134 218 3917 237 3808 550 
L 2490 4211 
C 2394 4154 2221 4083 2138 4083 
L 685 653 
C 518 256 320 218 45 198 
C 6 160 6 26 45 -13 
C 211 -6 416 0 614 0 
C 877 0 1197 -6 1434 -13 
C 1472 26 1472 160 1434 198 
C 1190 211 890 237 992 506 
z
" transform="scale(0.015625)"/>
       <path id="LinLibertineO-43" d="M 2285 -64 
C 2906 -64 3475 230 3910 800 
C 3878 858 3834 896 3763 896 
C 3309 397 2874 198 2278 198 
C 1414 198 819 1171 819 2106 
C 819 2656 960 3117 1197 3405 
C 1517 3795 1888 3974 2221 3974 
C 3104 3974 3456 3450 3622 2899 
C 3699 2874 3757 2893 3834 2931 
C 3802 3264 3757 3571 3693 3923 
C 3366 3955 3078 4211 2291 4211 
C 1747 4211 1293 4013 915 3667 
C 486 3277 237 2650 237 1984 
C 237 870 909 -64 2285 -64 
z
" transform="scale(0.015625)"/>
       <path id="LinLibertineO-4f" d="M 2118 3981 
C 2963 3981 3648 3277 3648 1984 
C 3648 838 3098 166 2368 166 
C 1587 166 851 864 851 2093 
C 851 3437 1485 3981 2118 3981 
z
M 4262 2106 
C 4262 3430 3347 4211 2202 4211 
C 960 4211 237 3219 237 1984 
C 237 723 1152 -64 2240 -64 
C 2944 -64 3514 237 3866 742 
C 4122 1101 4262 1568 4262 2106 
z
" transform="scale(0.015625)"/>
       <path id="LinLibertineO-4e" d="M 3558 3277 
L 3558 1184 
C 3558 1062 3558 992 3514 992 
C 3488 992 3392 1107 3206 1344 
L 1011 4128 
L 147 4141 
C 109 4102 109 3968 147 3930 
C 422 3910 614 3686 653 3520 
L 653 851 
C 653 282 544 243 96 198 
C 58 160 58 26 96 -13 
C 371 -6 659 0 813 0 
C 960 0 1254 -6 1523 -13 
C 1562 26 1562 160 1523 198 
C 1075 243 966 269 966 851 
L 966 2810 
C 966 3027 966 3123 1018 3123 
C 1056 3123 1126 3053 1235 2912 
L 3469 90 
C 3539 -6 3622 -64 3725 -64 
C 3814 -64 3872 13 3872 134 
L 3872 3277 
C 3872 3846 3981 3885 4429 3930 
C 4467 3968 4467 4102 4429 4141 
C 4166 4134 3859 4128 3712 4128 
C 3571 4128 3283 4134 3002 4141 
C 2963 4102 2963 3968 3002 3930 
C 3450 3885 3558 3859 3558 3277 
z
" transform="scale(0.015625)"/>
       <path id="LinLibertineO-2d" d="M 1734 1427 
C 1818 1427 1907 1606 1907 1683 
C 1907 1747 1882 1811 1818 1811 
L 416 1811 
C 339 1811 256 1664 256 1549 
C 256 1485 294 1427 352 1427 
L 1734 1427 
z
" transform="scale(0.015625)"/>
       <path id="LinLibertineO-67" d="M 2042 1786 
C 2042 1190 1741 1069 1504 1069 
C 966 1069 909 1523 909 1933 
C 909 2381 1069 2611 1421 2611 
C 1824 2611 2042 2317 2042 1786 
z
M 845 -64 
C 915 -83 1018 -96 1101 -96 
C 1299 -96 1478 -77 1568 -77 
C 1888 -77 2157 -83 2342 -186 
C 2592 -326 2669 -416 2669 -582 
C 2669 -1043 1990 -1286 1414 -1286 
C 1184 -1286 646 -1101 646 -666 
C 646 -448 659 -288 845 -64 
z
M 2842 2477 
C 2963 2477 3078 2592 3078 2720 
C 3078 2854 2957 2957 2784 2957 
C 2618 2957 2310 2848 2144 2630 
C 2067 2682 1856 2810 1478 2810 
C 909 2810 384 2426 384 1837 
C 384 1491 538 1293 717 1120 
C 538 966 435 691 435 474 
C 435 243 563 64 730 -19 
C 384 -224 205 -518 205 -794 
C 205 -1350 730 -1523 1222 -1523 
C 2086 -1523 3021 -1107 3021 -416 
C 3021 -211 2925 -51 2739 102 
C 2490 307 2042 314 1805 314 
C 1690 314 1530 301 1376 282 
C 1280 275 1216 269 1184 269 
C 998 269 774 358 774 634 
C 774 762 813 896 890 1005 
C 1043 915 1222 870 1472 870 
C 2035 870 2554 1222 2554 1850 
C 2554 2150 2464 2323 2278 2515 
C 2323 2579 2451 2669 2534 2669 
C 2579 2669 2624 2650 2662 2592 
C 2688 2541 2771 2477 2842 2477 
z
" transform="scale(0.015625)"/>
      </defs>
      <use xlink:href="#LinLibertineO-28"/>
      <use xlink:href="#LinLibertineO-62" transform="translate(29.799988 0)"/>
      <use xlink:href="#LinLibertineO-29" transform="translate(79.099976 0)"/>
      <use xlink:href="#LinLibertineO-20" transform="translate(108.899963 0)"/>
      <use xlink:href="#LinLibertineO-52" transform="translate(133.899948 0)"/>
      <use xlink:href="#LinLibertineO-65" transform="translate(192.599945 0)"/>
      <use xlink:href="#LinLibertineO-63" transform="translate(237.299942 0)"/>
      <use xlink:href="#LinLibertineO-61" transform="translate(280.09993 0)"/>
      <use xlink:href="#LinLibertineO-6c" transform="translate(325.799927 0)"/>
      <use xlink:href="#LinLibertineO-6c" transform="translate(352.199921 0)"/>
      <use xlink:href="#LinLibertineO-40" transform="translate(378.599915 0)"/>
      <use xlink:href="#LinLibertineO-31" transform="translate(468.099899 0)"/>
      <use xlink:href="#LinLibertineO-30" transform="translate(514.599884 0)"/>
      <use xlink:href="#LinLibertineO-20" transform="translate(561.099869 0)"/>
      <use xlink:href="#LinLibertineO-28" transform="translate(586.099854 0)"/>
      <use xlink:href="#LinLibertineO-41" transform="translate(615.899841 0)"/>
      <use xlink:href="#LinLibertineO-43" transform="translate(685.399826 0)"/>
      <use xlink:href="#LinLibertineO-4f" transform="translate(749.999817 0)"/>
      <use xlink:href="#LinLibertineO-52" transform="translate(820.199799 0)"/>
      <use xlink:href="#LinLibertineO-4e" transform="translate(878.899796 0)"/>
      <use xlink:href="#LinLibertineO-2d" transform="translate(948.799789 0)"/>
      <use xlink:href="#LinLibertineO-67" transform="translate(982.599777 0)"/>
      <use xlink:href="#LinLibertineO-61" transform="translate(1032.599762 0)"/>
      <use xlink:href="#LinLibertineO-6d" transform="translate(1078.299759 0)"/>
      <use xlink:href="#LinLibertineO-61" transform="translate(1157.299744 0)"/>
      <use xlink:href="#LinLibertineO-29" transform="translate(1202.999741 0)"/>
     </g>
    </g>
   </g>
   <g id="matplotlib.axis_4">
    <g id="ytick_3">
     <g id="line2d_30">
      <path d="M 460.113125 273.962356 
L 782.513125 273.962356 
" clip-path="url(#p0b998b7209)" style="fill: none; stroke-dasharray: 0.8,1.32; stroke-dashoffset: 0; stroke: #b0b0b0; stroke-opacity: 0.6; stroke-width: 0.8"/>
     </g>
     <g id="line2d_31">
      <g>
       <use xlink:href="#mef521b997e" x="460.113125" y="273.962356" style="stroke: #000000; stroke-width: 0.8"/>
      </g>
     </g>
     <g id="text_16">
      <!-- 10¹ -->
      <g transform="translate(429.685 279.281263) scale(0.14 -0.14)">
       <defs>
        <path id="DejaVuSans-b9" d="M 488 2431 
L 1125 2431 
L 1125 4341 
L 428 4213 
L 428 4575 
L 1147 4697 
L 1575 4697 
L 1575 2431 
L 2216 2431 
L 2216 2088 
L 488 2088 
L 488 2431 
z
" transform="scale(0.015625)"/>
       </defs>
       <use xlink:href="#DejaVuSans-31"/>
       <use xlink:href="#DejaVuSans-30" transform="translate(63.623047 0)"/>
       <use xlink:href="#DejaVuSans-b9" transform="translate(127.246094 0)"/>
      </g>
     </g>
    </g>
    <g id="ytick_4">
     <g id="line2d_32">
      <path d="M 460.113125 198.787452 
L 782.513125 198.787452 
" clip-path="url(#p0b998b7209)" style="fill: none; stroke-dasharray: 0.8,1.32; stroke-dashoffset: 0; stroke: #b0b0b0; stroke-opacity: 0.6; stroke-width: 0.8"/>
     </g>
     <g id="line2d_33">
      <g>
       <use xlink:href="#mef521b997e" x="460.113125" y="198.787452" style="stroke: #000000; stroke-width: 0.8"/>
      </g>
     </g>
     <g id="text_17">
      <!-- 10² -->
      <g transform="translate(429.685 204.106358) scale(0.14 -0.14)">
       <use xlink:href="#DejaVuSans-31"/>
       <use xlink:href="#DejaVuSans-30" transform="translate(63.623047 0)"/>
       <use xlink:href="#DejaVuSans-b2" transform="translate(127.246094 0)"/>
      </g>
     </g>
    </g>
    <g id="ytick_5">
     <g id="line2d_34">
      <path d="M 460.113125 123.612548 
L 782.513125 123.612548 
" clip-path="url(#p0b998b7209)" style="fill: none; stroke-dasharray: 0.8,1.32; stroke-dashoffset: 0; stroke: #b0b0b0; stroke-opacity: 0.6; stroke-width: 0.8"/>
     </g>
     <g id="line2d_35">
      <g>
       <use xlink:href="#mef521b997e" x="460.113125" y="123.612548" style="stroke: #000000; stroke-width: 0.8"/>
      </g>
     </g>
     <g id="text_18">
      <!-- 10³ -->
      <g transform="translate(429.685 128.931454) scale(0.14 -0.14)">
       <use xlink:href="#DejaVuSans-31"/>
       <use xlink:href="#DejaVuSans-30" transform="translate(63.623047 0)"/>
       <use xlink:href="#DejaVuSans-b3" transform="translate(127.246094 0)"/>
      </g>
     </g>
    </g>
    <g id="ytick_6">
     <g id="line2d_36">
      <path d="M 460.113125 48.437644 
L 782.513125 48.437644 
" clip-path="url(#p0b998b7209)" style="fill: none; stroke-dasharray: 0.8,1.32; stroke-dashoffset: 0; stroke: #b0b0b0; stroke-opacity: 0.6; stroke-width: 0.8"/>
     </g>
     <g id="line2d_37">
      <g>
       <use xlink:href="#mef521b997e" x="460.113125" y="48.437644" style="stroke: #000000; stroke-width: 0.8"/>
      </g>
     </g>
     <g id="text_19">
      <!-- 10⁴ -->
      <g transform="translate(429.685 53.75655) scale(0.14 -0.14)">
       <defs>
        <path id="DejaVuSans-2074" d="M 1491 4319 
L 525 3009 
L 1491 3009 
L 1491 4319 
z
M 1422 4697 
L 1941 4697 
L 1941 3009 
L 2363 3009 
L 2363 2669 
L 1941 2669 
L 1941 2088 
L 1491 2088 
L 1491 2669 
L 197 2669 
L 197 3047 
L 1422 4697 
z
" transform="scale(0.015625)"/>
       </defs>
       <use xlink:href="#DejaVuSans-31"/>
       <use xlink:href="#DejaVuSans-30" transform="translate(63.623047 0)"/>
       <use xlink:href="#DejaVuSans-2074" transform="translate(127.246094 0)"/>
      </g>
     </g>
    </g>
   </g>
   <g id="line2d_38">
    <path d="M 467.544052 93.007683 
L 527.927213 99.452301 
L 571.317535 103.75408 
L 601.678179 108.106232 
L 625.65373 111.514839 
L 682.639896 121.870427 
L 709.50132 130.649185 
L 746.20774 148.178686 
L 768.579154 181.169817 
L 771.339213 201.888009 
" clip-path="url(#p0b998b7209)" style="fill: none; stroke: #1f77b4; stroke-width: 1.2; stroke-linecap: square"/>
    <g clip-path="url(#p0b998b7209)">
     <use xlink:href="#m72de7d6592" x="467.544052" y="93.007683" style="fill: #ffffff; fill-opacity: 0.8; stroke: #1f77b4; stroke-opacity: 0.8"/>
     <use xlink:href="#m72de7d6592" x="527.927213" y="99.452301" style="fill: #ffffff; fill-opacity: 0.8; stroke: #1f77b4; stroke-opacity: 0.8"/>
     <use xlink:href="#m72de7d6592" x="571.317535" y="103.75408" style="fill: #ffffff; fill-opacity: 0.8; stroke: #1f77b4; stroke-opacity: 0.8"/>
     <use xlink:href="#m72de7d6592" x="601.678179" y="108.106232" style="fill: #ffffff; fill-opacity: 0.8; stroke: #1f77b4; stroke-opacity: 0.8"/>
     <use xlink:href="#m72de7d6592" x="625.65373" y="111.514839" style="fill: #ffffff; fill-opacity: 0.8; stroke: #1f77b4; stroke-opacity: 0.8"/>
     <use xlink:href="#m72de7d6592" x="682.639896" y="121.870427" style="fill: #ffffff; fill-opacity: 0.8; stroke: #1f77b4; stroke-opacity: 0.8"/>
     <use xlink:href="#m72de7d6592" x="709.50132" y="130.649185" style="fill: #ffffff; fill-opacity: 0.8; stroke: #1f77b4; stroke-opacity: 0.8"/>
     <use xlink:href="#m72de7d6592" x="746.20774" y="148.178686" style="fill: #ffffff; fill-opacity: 0.8; stroke: #1f77b4; stroke-opacity: 0.8"/>
     <use xlink:href="#m72de7d6592" x="768.579154" y="181.169817" style="fill: #ffffff; fill-opacity: 0.8; stroke: #1f77b4; stroke-opacity: 0.8"/>
     <use xlink:href="#m72de7d6592" x="771.339213" y="201.888009" style="fill: #ffffff; fill-opacity: 0.8; stroke: #1f77b4; stroke-opacity: 0.8"/>
    </g>
   </g>
   <g id="line2d_39">
    <path d="M 464.894081 80.879601 
L 523.885418 85.090404 
L 594.75051 95.215462 
L 636.898413 100.097902 
L 664.333866 101.150562 
L 684.267623 105.610439 
L 709.634998 126.150041 
L 731.707603 127.730344 
L 755.179896 142.794029 
L 774.366627 204.959964 
" clip-path="url(#p0b998b7209)" style="fill: none; stroke-dasharray: 4.44,1.92; stroke-dashoffset: 0; stroke: #ff7f0e; stroke-width: 1.2"/>
    <g clip-path="url(#p0b998b7209)">
     <use xlink:href="#m575b3444c7" x="464.894081" y="80.879601" style="fill: #ffffff; fill-opacity: 0.8; stroke: #ff7f0e; stroke-opacity: 0.8; stroke-linejoin: miter"/>
     <use xlink:href="#m575b3444c7" x="523.885418" y="85.090404" style="fill: #ffffff; fill-opacity: 0.8; stroke: #ff7f0e; stroke-opacity: 0.8; stroke-linejoin: miter"/>
     <use xlink:href="#m575b3444c7" x="594.75051" y="95.215462" style="fill: #ffffff; fill-opacity: 0.8; stroke: #ff7f0e; stroke-opacity: 0.8; stroke-linejoin: miter"/>
     <use xlink:href="#m575b3444c7" x="636.898413" y="100.097902" style="fill: #ffffff; fill-opacity: 0.8; stroke: #ff7f0e; stroke-opacity: 0.8; stroke-linejoin: miter"/>
     <use xlink:href="#m575b3444c7" x="664.333866" y="101.150562" style="fill: #ffffff; fill-opacity: 0.8; stroke: #ff7f0e; stroke-opacity: 0.8; stroke-linejoin: miter"/>
     <use xlink:href="#m575b3444c7" x="684.267623" y="105.610439" style="fill: #ffffff; fill-opacity: 0.8; stroke: #ff7f0e; stroke-opacity: 0.8; stroke-linejoin: miter"/>
     <use xlink:href="#m575b3444c7" x="709.634998" y="126.150041" style="fill: #ffffff; fill-opacity: 0.8; stroke: #ff7f0e; stroke-opacity: 0.8; stroke-linejoin: miter"/>
     <use xlink:href="#m575b3444c7" x="731.707603" y="127.730344" style="fill: #ffffff; fill-opacity: 0.8; stroke: #ff7f0e; stroke-opacity: 0.8; stroke-linejoin: miter"/>
     <use xlink:href="#m575b3444c7" x="755.179896" y="142.794029" style="fill: #ffffff; fill-opacity: 0.8; stroke: #ff7f0e; stroke-opacity: 0.8; stroke-linejoin: miter"/>
     <use xlink:href="#m575b3444c7" x="774.366627" y="204.959964" style="fill: #ffffff; fill-opacity: 0.8; stroke: #ff7f0e; stroke-opacity: 0.8; stroke-linejoin: miter"/>
    </g>
   </g>
   <g id="line2d_40">
    <path d="M 490.969164 77.759084 
L 557.344247 87.39774 
L 598.406998 88.743027 
L 627.014101 92.306151 
L 646.93213 96.417989 
L 675.130335 103.002063 
L 700.788657 110.649428 
L 731.644696 124.342729 
L 759.968715 148.53509 
L 772.935486 186.957244 
" clip-path="url(#p0b998b7209)" style="fill: none; stroke-dasharray: 7.68,1.92,1.2,1.92; stroke-dashoffset: 0; stroke: #2ca02c; stroke-width: 1.2"/>
    <g clip-path="url(#p0b998b7209)">
     <use xlink:href="#m135fd002a5" x="490.969164" y="77.759084" style="fill: #ffffff; fill-opacity: 0.8; stroke: #2ca02c; stroke-opacity: 0.8; stroke-linejoin: miter"/>
     <use xlink:href="#m135fd002a5" x="557.344247" y="87.39774" style="fill: #ffffff; fill-opacity: 0.8; stroke: #2ca02c; stroke-opacity: 0.8; stroke-linejoin: miter"/>
     <use xlink:href="#m135fd002a5" x="598.406998" y="88.743027" style="fill: #ffffff; fill-opacity: 0.8; stroke: #2ca02c; stroke-opacity: 0.8; stroke-linejoin: miter"/>
     <use xlink:href="#m135fd002a5" x="627.014101" y="92.306151" style="fill: #ffffff; fill-opacity: 0.8; stroke: #2ca02c; stroke-opacity: 0.8; stroke-linejoin: miter"/>
     <use xlink:href="#m135fd002a5" x="646.93213" y="96.417989" style="fill: #ffffff; fill-opacity: 0.8; stroke: #2ca02c; stroke-opacity: 0.8; stroke-linejoin: miter"/>
     <use xlink:href="#m135fd002a5" x="675.130335" y="103.002063" style="fill: #ffffff; fill-opacity: 0.8; stroke: #2ca02c; stroke-opacity: 0.8; stroke-linejoin: miter"/>
     <use xlink:href="#m135fd002a5" x="700.788657" y="110.649428" style="fill: #ffffff; fill-opacity: 0.8; stroke: #2ca02c; stroke-opacity: 0.8; stroke-linejoin: miter"/>
     <use xlink:href="#m135fd002a5" x="731.644696" y="124.342729" style="fill: #ffffff; fill-opacity: 0.8; stroke: #2ca02c; stroke-opacity: 0.8; stroke-linejoin: miter"/>
     <use xlink:href="#m135fd002a5" x="759.968715" y="148.53509" style="fill: #ffffff; fill-opacity: 0.8; stroke: #2ca02c; stroke-opacity: 0.8; stroke-linejoin: miter"/>
     <use xlink:href="#m135fd002a5" x="772.935486" y="186.957244" style="fill: #ffffff; fill-opacity: 0.8; stroke: #2ca02c; stroke-opacity: 0.8; stroke-linejoin: miter"/>
    </g>
   </g>
   <g id="line2d_41">
    <path d="M 499.351564 85.521641 
L 559.899857 96.034596 
L 597.888013 102.099149 
L 624.049593 105.484842 
L 657.492696 108.807922 
L 691.863681 118.814524 
L 722.876988 135.906256 
L 752.962413 165.890679 
L 770.529281 202.54136 
" clip-path="url(#p0b998b7209)" style="fill: none; stroke: #d62728; stroke-width: 1.2; stroke-linecap: square"/>
    <g clip-path="url(#p0b998b7209)">
     <use xlink:href="#m33243a3e16" x="499.351564" y="85.521641" style="fill: #ffffff; fill-opacity: 0.8; stroke: #d62728; stroke-opacity: 0.8; stroke-linejoin: miter"/>
     <use xlink:href="#m33243a3e16" x="559.899857" y="96.034596" style="fill: #ffffff; fill-opacity: 0.8; stroke: #d62728; stroke-opacity: 0.8; stroke-linejoin: miter"/>
     <use xlink:href="#m33243a3e16" x="597.888013" y="102.099149" style="fill: #ffffff; fill-opacity: 0.8; stroke: #d62728; stroke-opacity: 0.8; stroke-linejoin: miter"/>
     <use xlink:href="#m33243a3e16" x="624.049593" y="105.484842" style="fill: #ffffff; fill-opacity: 0.8; stroke: #d62728; stroke-opacity: 0.8; stroke-linejoin: miter"/>
     <use xlink:href="#m33243a3e16" x="657.492696" y="108.807922" style="fill: #ffffff; fill-opacity: 0.8; stroke: #d62728; stroke-opacity: 0.8; stroke-linejoin: miter"/>
     <use xlink:href="#m33243a3e16" x="691.863681" y="118.814524" style="fill: #ffffff; fill-opacity: 0.8; stroke: #d62728; stroke-opacity: 0.8; stroke-linejoin: miter"/>
     <use xlink:href="#m33243a3e16" x="722.876988" y="135.906256" style="fill: #ffffff; fill-opacity: 0.8; stroke: #d62728; stroke-opacity: 0.8; stroke-linejoin: miter"/>
     <use xlink:href="#m33243a3e16" x="752.962413" y="165.890679" style="fill: #ffffff; fill-opacity: 0.8; stroke: #d62728; stroke-opacity: 0.8; stroke-linejoin: miter"/>
     <use xlink:href="#m33243a3e16" x="770.529281" y="202.54136" style="fill: #ffffff; fill-opacity: 0.8; stroke: #d62728; stroke-opacity: 0.8; stroke-linejoin: miter"/>
    </g>
   </g>
   <g id="line2d_42">
    <path d="M 735.332637 287.2 
L 735.332637 35.2 
" clip-path="url(#p0b998b7209)" style="fill: none; stroke-dasharray: 5.55,2.4; stroke-dashoffset: 0; stroke: #808080; stroke-opacity: 0.7; stroke-width: 1.5"/>
   </g>
   <g id="patch_8">
    <path d="M 460.113125 287.2 
L 460.113125 35.2 
" style="fill: none; stroke: #000000; stroke-width: 0.8; stroke-linejoin: miter; stroke-linecap: square"/>
   </g>
   <g id="patch_9">
    <path d="M 782.513125 287.2 
L 782.513125 35.2 
" style="fill: none; stroke: #000000; stroke-width: 0.8; stroke-linejoin: miter; stroke-linecap: square"/>
   </g>
   <g id="patch_10">
    <path d="M 460.113125 287.2 
L 782.513125 287.2 
" style="fill: none; stroke: #000000; stroke-width: 0.8; stroke-linejoin: miter; stroke-linecap: square"/>
   </g>
   <g id="patch_11">
    <path d="M 460.113125 35.2 
L 782.513125 35.2 
" style="fill: none; stroke: #000000; stroke-width: 0.8; stroke-linejoin: miter; stroke-linecap: square"/>
   </g>
  </g>
  <g id="legend_1">
   <g id="line2d_43">
    <path d="M 31.023125 20.1575 
L 47.023125 20.1575 
L 63.023125 20.1575 
" style="fill: none; stroke: #1f77b4; stroke-width: 1.2; stroke-linecap: square"/>
    <g>
     <use xlink:href="#m72de7d6592" x="47.023125" y="20.1575" style="fill: #ffffff; fill-opacity: 0.8; stroke: #1f77b4; stroke-opacity: 0.8"/>
    </g>
   </g>
   <g id="text_20">
    <!-- selectivity 1% -->
    <g transform="translate(75.823125 25.7575) scale(0.16 -0.16)">
     <defs>
      <path id="DejaVuSans-73" d="M 2834 3397 
L 2834 2853 
Q 2591 2978 2328 3040 
Q 2066 3103 1784 3103 
Q 1356 3103 1142 2972 
Q 928 2841 928 2578 
Q 928 2378 1081 2264 
Q 1234 2150 1697 2047 
L 1894 2003 
Q 2506 1872 2764 1633 
Q 3022 1394 3022 966 
Q 3022 478 2636 193 
Q 2250 -91 1575 -91 
Q 1294 -91 989 -36 
Q 684 19 347 128 
L 347 722 
Q 666 556 975 473 
Q 1284 391 1588 391 
Q 1994 391 2212 530 
Q 2431 669 2431 922 
Q 2431 1156 2273 1281 
Q 2116 1406 1581 1522 
L 1381 1569 
Q 847 1681 609 1914 
Q 372 2147 372 2553 
Q 372 3047 722 3315 
Q 1072 3584 1716 3584 
Q 2034 3584 2315 3537 
Q 2597 3491 2834 3397 
z
" transform="scale(0.015625)"/>
      <path id="DejaVuSans-65" d="M 3597 1894 
L 3597 1613 
L 953 1613 
Q 991 1019 1311 708 
Q 1631 397 2203 397 
Q 2534 397 2845 478 
Q 3156 559 3463 722 
L 3463 178 
Q 3153 47 2828 -22 
Q 2503 -91 2169 -91 
Q 1331 -91 842 396 
Q 353 884 353 1716 
Q 353 2575 817 3079 
Q 1281 3584 2069 3584 
Q 2775 3584 3186 3129 
Q 3597 2675 3597 1894 
z
M 3022 2063 
Q 3016 2534 2758 2815 
Q 2500 3097 2075 3097 
Q 1594 3097 1305 2825 
Q 1016 2553 972 2059 
L 3022 2063 
z
" transform="scale(0.015625)"/>
      <path id="DejaVuSans-6c" d="M 603 4863 
L 1178 4863 
L 1178 0 
L 603 0 
L 603 4863 
z
" transform="scale(0.015625)"/>
      <path id="DejaVuSans-63" d="M 3122 3366 
L 3122 2828 
Q 2878 2963 2633 3030 
Q 2388 3097 2138 3097 
Q 1578 3097 1268 2742 
Q 959 2388 959 1747 
Q 959 1106 1268 751 
Q 1578 397 2138 397 
Q 2388 397 2633 464 
Q 2878 531 3122 666 
L 3122 134 
Q 2881 22 2623 -34 
Q 2366 -91 2075 -91 
Q 1284 -91 818 406 
Q 353 903 353 1747 
Q 353 2603 823 3093 
Q 1294 3584 2113 3584 
Q 2378 3584 2631 3529 
Q 2884 3475 3122 3366 
z
" transform="scale(0.015625)"/>
      <path id="DejaVuSans-74" d="M 1172 4494 
L 1172 3500 
L 2356 3500 
L 2356 3053 
L 1172 3053 
L 1172 1153 
Q 1172 725 1289 603 
Q 1406 481 1766 481 
L 2356 481 
L 2356 0 
L 1766 0 
Q 1100 0 847 248 
Q 594 497 594 1153 
L 594 3053 
L 172 3053 
L 172 3500 
L 594 3500 
L 594 4494 
L 1172 4494 
z
" transform="scale(0.015625)"/>
      <path id="DejaVuSans-69" d="M 603 3500 
L 1178 3500 
L 1178 0 
L 603 0 
L 603 3500 
z
M 603 4863 
L 1178 4863 
L 1178 4134 
L 603 4134 
L 603 4863 
z
" transform="scale(0.015625)"/>
      <path id="DejaVuSans-76" d="M 191 3500 
L 800 3500 
L 1894 563 
L 2988 3500 
L 3597 3500 
L 2284 0 
L 1503 0 
L 191 3500 
z
" transform="scale(0.015625)"/>
      <path id="DejaVuSans-79" d="M 2059 -325 
Q 1816 -950 1584 -1140 
Q 1353 -1331 966 -1331 
L 506 -1331 
L 506 -850 
L 844 -850 
Q 1081 -850 1212 -737 
Q 1344 -625 1503 -206 
L 1606 56 
L 191 3500 
L 800 3500 
L 1894 763 
L 2988 3500 
L 3597 3500 
L 2059 -325 
z
" transform="scale(0.015625)"/>
      <path id="DejaVuSans-20" transform="scale(0.015625)"/>
      <path id="DejaVuSans-25" d="M 4653 2053 
Q 4381 2053 4226 1822 
Q 4072 1591 4072 1178 
Q 4072 772 4226 539 
Q 4381 306 4653 306 
Q 4919 306 5073 539 
Q 5228 772 5228 1178 
Q 5228 1588 5073 1820 
Q 4919 2053 4653 2053 
z
M 4653 2450 
Q 5147 2450 5437 2106 
Q 5728 1763 5728 1178 
Q 5728 594 5436 251 
Q 5144 -91 4653 -91 
Q 4153 -91 3862 251 
Q 3572 594 3572 1178 
Q 3572 1766 3864 2108 
Q 4156 2450 4653 2450 
z
M 1428 4353 
Q 1159 4353 1004 4120 
Q 850 3888 850 3481 
Q 850 3069 1003 2837 
Q 1156 2606 1428 2606 
Q 1700 2606 1854 2837 
Q 2009 3069 2009 3481 
Q 2009 3884 1853 4118 
Q 1697 4353 1428 4353 
z
M 4250 4750 
L 4750 4750 
L 1831 -91 
L 1331 -91 
L 4250 4750 
z
M 1428 4750 
Q 1922 4750 2215 4408 
Q 2509 4066 2509 3481 
Q 2509 2891 2217 2550 
Q 1925 2209 1428 2209 
Q 931 2209 642 2551 
Q 353 2894 353 3481 
Q 353 4063 643 4406 
Q 934 4750 1428 4750 
z
" transform="scale(0.015625)"/>
     </defs>
     <use xlink:href="#DejaVuSans-73"/>
     <use xlink:href="#DejaVuSans-65" transform="translate(52.099609 0)"/>
     <use xlink:href="#DejaVuSans-6c" transform="translate(113.623047 0)"/>
     <use xlink:href="#DejaVuSans-65" transform="translate(141.40625 0)"/>
     <use xlink:href="#DejaVuSans-63" transform="translate(202.929688 0)"/>
     <use xlink:href="#DejaVuSans-74" transform="translate(257.910156 0)"/>
     <use xlink:href="#DejaVuSans-69" transform="translate(297.119141 0)"/>
     <use xlink:href="#DejaVuSans-76" transform="translate(324.902344 0)"/>
     <use xlink:href="#DejaVuSans-69" transform="translate(384.082031 0)"/>
     <use xlink:href="#DejaVuSans-74" transform="translate(411.865234 0)"/>
     <use xlink:href="#DejaVuSans-79" transform="translate(451.074219 0)"/>
     <use xlink:href="#DejaVuSans-20" transform="translate(510.253906 0)"/>
     <use xlink:href="#DejaVuSans-31" transform="translate(542.041016 0)"/>
     <use xlink:href="#DejaVuSans-25" transform="translate(605.664062 0)"/>
    </g>
   </g>
   <g id="line2d_44">
    <path d="M 219.933125 20.1575 
L 235.933125 20.1575 
L 251.933125 20.1575 
" style="fill: none; stroke-dasharray: 4.44,1.92; stroke-dashoffset: 0; stroke: #ff7f0e; stroke-width: 1.2"/>
    <g>
     <use xlink:href="#m575b3444c7" x="235.933125" y="20.1575" style="fill: #ffffff; fill-opacity: 0.8; stroke: #ff7f0e; stroke-opacity: 0.8; stroke-linejoin: miter"/>
    </g>
   </g>
   <g id="text_21">
    <!-- selectivity 25% -->
    <g transform="translate(264.733125 25.7575) scale(0.16 -0.16)">
     <defs>
      <path id="DejaVuSans-32" d="M 1228 531 
L 3431 531 
L 3431 0 
L 469 0 
L 469 531 
Q 828 903 1448 1529 
Q 2069 2156 2228 2338 
Q 2531 2678 2651 2914 
Q 2772 3150 2772 3378 
Q 2772 3750 2511 3984 
Q 2250 4219 1831 4219 
Q 1534 4219 1204 4116 
Q 875 4013 500 3803 
L 500 4441 
Q 881 4594 1212 4672 
Q 1544 4750 1819 4750 
Q 2544 4750 2975 4387 
Q 3406 4025 3406 3419 
Q 3406 3131 3298 2873 
Q 3191 2616 2906 2266 
Q 2828 2175 2409 1742 
Q 1991 1309 1228 531 
z
" transform="scale(0.015625)"/>
      <path id="DejaVuSans-35" d="M 691 4666 
L 3169 4666 
L 3169 4134 
L 1269 4134 
L 1269 2991 
Q 1406 3038 1543 3061 
Q 1681 3084 1819 3084 
Q 2600 3084 3056 2656 
Q 3513 2228 3513 1497 
Q 3513 744 3044 326 
Q 2575 -91 1722 -91 
Q 1428 -91 1123 -41 
Q 819 9 494 109 
L 494 744 
Q 775 591 1075 516 
Q 1375 441 1709 441 
Q 2250 441 2565 725 
Q 2881 1009 2881 1497 
Q 2881 1984 2565 2268 
Q 2250 2553 1709 2553 
Q 1456 2553 1204 2497 
Q 953 2441 691 2322 
L 691 4666 
z
" transform="scale(0.015625)"/>
     </defs>
     <use xlink:href="#DejaVuSans-73"/>
     <use xlink:href="#DejaVuSans-65" transform="translate(52.099609 0)"/>
     <use xlink:href="#DejaVuSans-6c" transform="translate(113.623047 0)"/>
     <use xlink:href="#DejaVuSans-65" transform="translate(141.40625 0)"/>
     <use xlink:href="#DejaVuSans-63" transform="translate(202.929688 0)"/>
     <use xlink:href="#DejaVuSans-74" transform="translate(257.910156 0)"/>
     <use xlink:href="#DejaVuSans-69" transform="translate(297.119141 0)"/>
     <use xlink:href="#DejaVuSans-76" transform="translate(324.902344 0)"/>
     <use xlink:href="#DejaVuSans-69" transform="translate(384.082031 0)"/>
     <use xlink:href="#DejaVuSans-74" transform="translate(411.865234 0)"/>
     <use xlink:href="#DejaVuSans-79" transform="translate(451.074219 0)"/>
     <use xlink:href="#DejaVuSans-20" transform="translate(510.253906 0)"/>
     <use xlink:href="#DejaVuSans-32" transform="translate(542.041016 0)"/>
     <use xlink:href="#DejaVuSans-35" transform="translate(605.664062 0)"/>
     <use xlink:href="#DejaVuSans-25" transform="translate(669.287109 0)"/>
    </g>
   </g>
   <g id="line2d_45">
    <path d="M 419.023125 20.1575 
L 435.023125 20.1575 
L 451.023125 20.1575 
" style="fill: none; stroke-dasharray: 7.68,1.92,1.2,1.92; stroke-dashoffset: 0; stroke: #2ca02c; stroke-width: 1.2"/>
    <g>
     <use xlink:href="#m135fd002a5" x="435.023125" y="20.1575" style="fill: #ffffff; fill-opacity: 0.8; stroke: #2ca02c; stroke-opacity: 0.8; stroke-linejoin: miter"/>
    </g>
   </g>
   <g id="text_22">
    <!-- selectivity 50% -->
    <g transform="translate(463.823125 25.7575) scale(0.16 -0.16)">
     <use xlink:href="#DejaVuSans-73"/>
     <use xlink:href="#DejaVuSans-65" transform="translate(52.099609 0)"/>
     <use xlink:href="#DejaVuSans-6c" transform="translate(113.623047 0)"/>
     <use xlink:href="#DejaVuSans-65" transform="translate(141.40625 0)"/>
     <use xlink:href="#DejaVuSans-63" transform="translate(202.929688 0)"/>
     <use xlink:href="#DejaVuSans-74" transform="translate(257.910156 0)"/>
     <use xlink:href="#DejaVuSans-69" transform="translate(297.119141 0)"/>
     <use xlink:href="#DejaVuSans-76" transform="translate(324.902344 0)"/>
     <use xlink:href="#DejaVuSans-69" transform="translate(384.082031 0)"/>
     <use xlink:href="#DejaVuSans-74" transform="translate(411.865234 0)"/>
     <use xlink:href="#DejaVuSans-79" transform="translate(451.074219 0)"/>
     <use xlink:href="#DejaVuSans-20" transform="translate(510.253906 0)"/>
     <use xlink:href="#DejaVuSans-35" transform="translate(542.041016 0)"/>
     <use xlink:href="#DejaVuSans-30" transform="translate(605.664062 0)"/>
     <use xlink:href="#DejaVuSans-25" transform="translate(669.287109 0)"/>
    </g>
   </g>
   <g id="line2d_46">
    <path d="M 618.113125 20.1575 
L 634.113125 20.1575 
L 650.113125 20.1575 
" style="fill: none; stroke: #d62728; stroke-width: 1.2; stroke-linecap: square"/>
    <g>
     <use xlink:href="#m33243a3e16" x="634.113125" y="20.1575" style="fill: #ffffff; fill-opacity: 0.8; stroke: #d62728; stroke-opacity: 0.8; stroke-linejoin: miter"/>
    </g>
   </g>
   <g id="text_23">
    <!-- selectivity 75% -->
    <g transform="translate(662.913125 25.7575) scale(0.16 -0.16)">
     <use xlink:href="#DejaVuSans-73"/>
     <use xlink:href="#DejaVuSans-65" transform="translate(52.099609 0)"/>
     <use xlink:href="#DejaVuSans-6c" transform="translate(113.623047 0)"/>
     <use xlink:href="#DejaVuSans-65" transform="translate(141.40625 0)"/>
     <use xlink:href="#DejaVuSans-63" transform="translate(202.929688 0)"/>
     <use xlink:href="#DejaVuSans-74" transform="translate(257.910156 0)"/>
     <use xlink:href="#DejaVuSans-69" transform="translate(297.119141 0)"/>
     <use xlink:href="#DejaVuSans-76" transform="translate(324.902344 0)"/>
     <use xlink:href="#DejaVuSans-69" transform="translate(384.082031 0)"/>
     <use xlink:href="#DejaVuSans-74" transform="translate(411.865234 0)"/>
     <use xlink:href="#DejaVuSans-79" transform="translate(451.074219 0)"/>
     <use xlink:href="#DejaVuSans-20" transform="translate(510.253906 0)"/>
     <use xlink:href="#DejaVuSans-37" transform="translate(542.041016 0)"/>
     <use xlink:href="#DejaVuSans-35" transform="translate(605.664062 0)"/>
     <use xlink:href="#DejaVuSans-25" transform="translate(669.287109 0)"/>
    </g>
   </g>
  </g>
 </g>
 <defs>
  <clipPath id="pe041d8b1b3">
   <rect x="57.113125" y="35.2" width="322.4" height="252"/>
  </clipPath>
  <clipPath id="p0b998b7209">
   <rect x="460.113125" y="35.2" width="322.4" height="252"/>
  </clipPath>
 </defs>
</svg>
