<?xml version="1.0" encoding="utf-8" standalone="no"?>
<!DOCTYPE svg PUBLIC "-//W3C//DTD SVG 1.1//EN"
  "http://www.w3.org/Graphics/SVG/1.1/DTD/svg11.dtd">
<svg xmlns:xlink="http://www.w3.org/1999/xlink" width="1130.4pt" height="162.51pt" viewBox="0 0 1130.4 162.51" xmlns="http://www.w3.org/2000/svg" version="1.1">
 <metadata>
  <rdf:RDF xmlns:dc="http://purl.org/dc/elements/1.1/" xmlns:cc="http://creativecommons.org/ns#" xmlns:rdf="http://www.w3.org/1999/02/22-rdf-syntax-ns#">
   <cc:Work>
    <dc:type rdf:resource="http://purl.org/dc/dcmitype/StillImage"/>
    <dc:date>2025-03-30T14:58:36.360351</dc:date>
    <dc:format>image/svg+xml</dc:format>
    <dc:creator>
     <cc:Agent>
      <dc:title>Matplotlib v3.10.1, https://matplotlib.org/</dc:title>
     </cc:Agent>
    </dc:creator>
   </cc:Work>
  </rdf:RDF>
 </metadata>
 <defs>
  <style type="text/css">*{stroke-linejoin: round; stroke-linecap: butt}</style>
 </defs>
 <g id="figure_1">
  <g id="patch_1">
   <path d="M 0 162.51 
L 1130.4 162.51 
L 1130.4 0 
L 0 0 
z
" style="fill: #ffffff"/>
  </g>
  <g id="axes_1">
   <g id="legend_1">
    <g id="line2d_1">
     <path d="M 54.669375 26.63625 
L 90.669375 26.63625 
L 126.669375 26.63625 
" style="fill: none; stroke: #f39c12; stroke-width: 1.4; stroke-linecap: square"/>
     <defs>
      <path id="m12e874b7f3" d="M 0 6 
C 1.591219 6 3.117479 5.367802 4.242641 4.242641 
C 5.367802 3.117479 6 1.591219 6 0 
C 6 -1.591219 5.367802 -3.117479 4.242641 -4.242641 
C 3.117479 -5.367802 1.591219 -6 0 -6 
C -1.591219 -6 -3.117479 -5.367802 -4.242641 -4.242641 
C -5.367802 -3.117479 -6 -1.591219 -6 0 
C -6 1.591219 -5.367802 3.117479 -4.242641 4.242641 
C -3.117479 5.367802 -1.591219 6 0 6 
z
" style="stroke: #f39c12; stroke-opacity: 0.8; stroke-width: 2"/>
     </defs>
     <g>
      <use xlink:href="#m12e874b7f3" x="90.669375" y="26.63625" style="fill: #ffffff; fill-opacity: 0.8; stroke: #f39c12; stroke-opacity: 0.8; stroke-width: 2"/>
     </g>
    </g>
    <g id="text_1">
     <!-- FilteredVamana (S) -->
     <g transform="translate(162.669375 35.03625) scale(0.24 -0.24)">
      <defs>
       <path id="DejaVuSans-46" d="M 628 4666 
L 3309 4666 
L 3309 4134 
L 1259 4134 
L 1259 2759 
L 3109 2759 
L 3109 2228 
L 1259 2228 
L 1259 0 
L 628 0 
L 628 4666 
z
" transform="scale(0.015625)"/>
       <path id="DejaVuSans-69" d="M 603 3500 
L 1178 3500 
L 1178 0 
L 603 0 
L 603 3500 
z
M 603 4863 
L 1178 4863 
L 1178 4134 
L 603 4134 
L 603 4863 
z
" transform="scale(0.015625)"/>
       <path id="DejaVuSans-6c" d="M 603 4863 
L 1178 4863 
L 1178 0 
L 603 0 
L 603 4863 
z
" transform="scale(0.015625)"/>
       <path id="DejaVuSans-74" d="M 1172 4494 
L 1172 3500 
L 2356 3500 
L 2356 3053 
L 1172 3053 
L 1172 1153 
Q 1172 725 1289 603 
Q 1406 481 1766 481 
L 2356 481 
L 2356 0 
L 1766 0 
Q 1100 0 847 248 
Q 594 497 594 1153 
L 594 3053 
L 172 3053 
L 172 3500 
L 594 3500 
L 594 4494 
L 1172 4494 
z
" transform="scale(0.015625)"/>
       <path id="DejaVuSans-65" d="M 3597 1894 
L 3597 1613 
L 953 1613 
Q 991 1019 1311 708 
Q 1631 397 2203 397 
Q 2534 397 2845 478 
Q 3156 559 3463 722 
L 3463 178 
Q 3153 47 2828 -22 
Q 2503 -91 2169 -91 
Q 1331 -91 842 396 
Q 353 884 353 1716 
Q 353 2575 817 3079 
Q 1281 3584 2069 3584 
Q 2775 3584 3186 3129 
Q 3597 2675 3597 1894 
z
M 3022 2063 
Q 3016 2534 2758 2815 
Q 2500 3097 2075 3097 
Q 1594 3097 1305 2825 
Q 1016 2553 972 2059 
L 3022 2063 
z
" transform="scale(0.015625)"/>
       <path id="DejaVuSans-72" d="M 2631 2963 
Q 2534 3019 2420 3045 
Q 2306 3072 2169 3072 
Q 1681 3072 1420 2755 
Q 1159 2438 1159 1844 
L 1159 0 
L 581 0 
L 581 3500 
L 1159 3500 
L 1159 2956 
Q 1341 3275 1631 3429 
Q 1922 3584 2338 3584 
Q 2397 3584 2469 3576 
Q 2541 3569 2628 3553 
L 2631 2963 
z
" transform="scale(0.015625)"/>
       <path id="DejaVuSans-64" d="M 2906 2969 
L 2906 4863 
L 3481 4863 
L 3481 0 
L 2906 0 
L 2906 525 
Q 2725 213 2448 61 
Q 2172 -91 1784 -91 
Q 1150 -91 751 415 
Q 353 922 353 1747 
Q 353 2572 751 3078 
Q 1150 3584 1784 3584 
Q 2172 3584 2448 3432 
Q 2725 3281 2906 2969 
z
M 947 1747 
Q 947 1113 1208 752 
Q 1469 391 1925 391 
Q 2381 391 2643 752 
Q 2906 1113 2906 1747 
Q 2906 2381 2643 2742 
Q 2381 3103 1925 3103 
Q 1469 3103 1208 2742 
Q 947 2381 947 1747 
z
" transform="scale(0.015625)"/>
       <path id="DejaVuSans-56" d="M 1831 0 
L 50 4666 
L 709 4666 
L 2188 738 
L 3669 4666 
L 4325 4666 
L 2547 0 
L 1831 0 
z
" transform="scale(0.015625)"/>
       <path id="DejaVuSans-61" d="M 2194 1759 
Q 1497 1759 1228 1600 
Q 959 1441 959 1056 
Q 959 750 1161 570 
Q 1363 391 1709 391 
Q 2188 391 2477 730 
Q 2766 1069 2766 1631 
L 2766 1759 
L 2194 1759 
z
M 3341 1997 
L 3341 0 
L 2766 0 
L 2766 531 
Q 2569 213 2275 61 
Q 1981 -91 1556 -91 
Q 1019 -91 701 211 
Q 384 513 384 1019 
Q 384 1609 779 1909 
Q 1175 2209 1959 2209 
L 2766 2209 
L 2766 2266 
Q 2766 2663 2505 2880 
Q 2244 3097 1772 3097 
Q 1472 3097 1187 3025 
Q 903 2953 641 2809 
L 641 3341 
Q 956 3463 1253 3523 
Q 1550 3584 1831 3584 
Q 2591 3584 2966 3190 
Q 3341 2797 3341 1997 
z
" transform="scale(0.015625)"/>
       <path id="DejaVuSans-6d" d="M 3328 2828 
Q 3544 3216 3844 3400 
Q 4144 3584 4550 3584 
Q 5097 3584 5394 3201 
Q 5691 2819 5691 2113 
L 5691 0 
L 5113 0 
L 5113 2094 
Q 5113 2597 4934 2840 
Q 4756 3084 4391 3084 
Q 3944 3084 3684 2787 
Q 3425 2491 3425 1978 
L 3425 0 
L 2847 0 
L 2847 2094 
Q 2847 2600 2669 2842 
Q 2491 3084 2119 3084 
Q 1678 3084 1418 2786 
Q 1159 2488 1159 1978 
L 1159 0 
L 581 0 
L 581 3500 
L 1159 3500 
L 1159 2956 
Q 1356 3278 1631 3431 
Q 1906 3584 2284 3584 
Q 2666 3584 2933 3390 
Q 3200 3197 3328 2828 
z
" transform="scale(0.015625)"/>
       <path id="DejaVuSans-6e" d="M 3513 2113 
L 3513 0 
L 2938 0 
L 2938 2094 
Q 2938 2591 2744 2837 
Q 2550 3084 2163 3084 
Q 1697 3084 1428 2787 
Q 1159 2491 1159 1978 
L 1159 0 
L 581 0 
L 581 3500 
L 1159 3500 
L 1159 2956 
Q 1366 3272 1645 3428 
Q 1925 3584 2291 3584 
Q 2894 3584 3203 3211 
Q 3513 2838 3513 2113 
z
" transform="scale(0.015625)"/>
       <path id="DejaVuSans-20" transform="scale(0.015625)"/>
       <path id="DejaVuSans-28" d="M 1984 4856 
Q 1566 4138 1362 3434 
Q 1159 2731 1159 2009 
Q 1159 1288 1364 580 
Q 1569 -128 1984 -844 
L 1484 -844 
Q 1016 -109 783 600 
Q 550 1309 550 2009 
Q 550 2706 781 3412 
Q 1013 4119 1484 4856 
L 1984 4856 
z
" transform="scale(0.015625)"/>
       <path id="DejaVuSans-53" d="M 3425 4513 
L 3425 3897 
Q 3066 4069 2747 4153 
Q 2428 4238 2131 4238 
Q 1616 4238 1336 4038 
Q 1056 3838 1056 3469 
Q 1056 3159 1242 3001 
Q 1428 2844 1947 2747 
L 2328 2669 
Q 3034 2534 3370 2195 
Q 3706 1856 3706 1288 
Q 3706 609 3251 259 
Q 2797 -91 1919 -91 
Q 1588 -91 1214 -16 
Q 841 59 441 206 
L 441 856 
Q 825 641 1194 531 
Q 1563 422 1919 422 
Q 2459 422 2753 634 
Q 3047 847 3047 1241 
Q 3047 1584 2836 1778 
Q 2625 1972 2144 2069 
L 1759 2144 
Q 1053 2284 737 2584 
Q 422 2884 422 3419 
Q 422 4038 858 4394 
Q 1294 4750 2059 4750 
Q 2388 4750 2728 4690 
Q 3069 4631 3425 4513 
z
" transform="scale(0.015625)"/>
       <path id="DejaVuSans-29" d="M 513 4856 
L 1013 4856 
Q 1481 4119 1714 3412 
Q 1947 2706 1947 2009 
Q 1947 1309 1714 600 
Q 1481 -109 1013 -844 
L 513 -844 
Q 928 -128 1133 580 
Q 1338 1288 1338 2009 
Q 1338 2731 1133 3434 
Q 928 4138 513 4856 
z
" transform="scale(0.015625)"/>
      </defs>
      <use xlink:href="#DejaVuSans-46"/>
      <use xlink:href="#DejaVuSans-69" transform="translate(50.269531 0)"/>
      <use xlink:href="#DejaVuSans-6c" transform="translate(78.052734 0)"/>
      <use xlink:href="#DejaVuSans-74" transform="translate(105.835938 0)"/>
      <use xlink:href="#DejaVuSans-65" transform="translate(145.044922 0)"/>
      <use xlink:href="#DejaVuSans-72" transform="translate(206.568359 0)"/>
      <use xlink:href="#DejaVuSans-65" transform="translate(245.431641 0)"/>
      <use xlink:href="#DejaVuSans-64" transform="translate(306.955078 0)"/>
      <use xlink:href="#DejaVuSans-56" transform="translate(370.431641 0)"/>
      <use xlink:href="#DejaVuSans-61" transform="translate(431.089844 0)"/>
      <use xlink:href="#DejaVuSans-6d" transform="translate(492.369141 0)"/>
      <use xlink:href="#DejaVuSans-61" transform="translate(589.78125 0)"/>
      <use xlink:href="#DejaVuSans-6e" transform="translate(651.060547 0)"/>
      <use xlink:href="#DejaVuSans-61" transform="translate(714.439453 0)"/>
      <use xlink:href="#DejaVuSans-20" transform="translate(775.71875 0)"/>
      <use xlink:href="#DejaVuSans-28" transform="translate(807.505859 0)"/>
      <use xlink:href="#DejaVuSans-53" transform="translate(846.519531 0)"/>
      <use xlink:href="#DejaVuSans-29" transform="translate(909.996094 0)"/>
     </g>
    </g>
    <g id="line2d_2">
     <path d="M 54.669375 61.86375 
L 90.669375 61.86375 
L 126.669375 61.86375 
" style="fill: none; stroke-dasharray: 5.18,2.24; stroke-dashoffset: 0; stroke: #f39c12; stroke-width: 1.4"/>
     <defs>
      <path id="m0ba748c803" d="M 0 -6 
L -6 6 
L 6 6 
z
" style="stroke: #f39c12; stroke-opacity: 0.8; stroke-width: 2; stroke-linejoin: miter"/>
     </defs>
     <g>
      <use xlink:href="#m0ba748c803" x="90.669375" y="61.86375" style="fill: #ffffff; fill-opacity: 0.8; stroke: #f39c12; stroke-opacity: 0.8; stroke-width: 2; stroke-linejoin: miter"/>
     </g>
    </g>
    <g id="text_2">
     <!-- FilteredVamana (M) -->
     <g transform="translate(162.669375 70.26375) scale(0.24 -0.24)">
      <defs>
       <path id="DejaVuSans-4d" d="M 628 4666 
L 1569 4666 
L 2759 1491 
L 3956 4666 
L 4897 4666 
L 4897 0 
L 4281 0 
L 4281 4097 
L 3078 897 
L 2444 897 
L 1241 4097 
L 1241 0 
L 628 0 
L 628 4666 
z
" transform="scale(0.015625)"/>
      </defs>
      <use xlink:href="#DejaVuSans-46"/>
      <use xlink:href="#DejaVuSans-69" transform="translate(50.269531 0)"/>
      <use xlink:href="#DejaVuSans-6c" transform="translate(78.052734 0)"/>
      <use xlink:href="#DejaVuSans-74" transform="translate(105.835938 0)"/>
      <use xlink:href="#DejaVuSans-65" transform="translate(145.044922 0)"/>
      <use xlink:href="#DejaVuSans-72" transform="translate(206.568359 0)"/>
      <use xlink:href="#DejaVuSans-65" transform="translate(245.431641 0)"/>
      <use xlink:href="#DejaVuSans-64" transform="translate(306.955078 0)"/>
      <use xlink:href="#DejaVuSans-56" transform="translate(370.431641 0)"/>
      <use xlink:href="#DejaVuSans-61" transform="translate(431.089844 0)"/>
      <use xlink:href="#DejaVuSans-6d" transform="translate(492.369141 0)"/>
      <use xlink:href="#DejaVuSans-61" transform="translate(589.78125 0)"/>
      <use xlink:href="#DejaVuSans-6e" transform="translate(651.060547 0)"/>
      <use xlink:href="#DejaVuSans-61" transform="translate(714.439453 0)"/>
      <use xlink:href="#DejaVuSans-20" transform="translate(775.71875 0)"/>
      <use xlink:href="#DejaVuSans-28" transform="translate(807.505859 0)"/>
      <use xlink:href="#DejaVuSans-4d" transform="translate(846.519531 0)"/>
      <use xlink:href="#DejaVuSans-29" transform="translate(932.798828 0)"/>
     </g>
    </g>
    <g id="line2d_3">
     <path d="M 54.669375 97.09125 
L 90.669375 97.09125 
L 126.669375 97.09125 
" style="fill: none; stroke: #6ec1e0; stroke-width: 1.4; stroke-linecap: square"/>
     <defs>
      <path id="mbd2384cdc8" d="M 0 6 
C 1.591219 6 3.117479 5.367802 4.242641 4.242641 
C 5.367802 3.117479 6 1.591219 6 0 
C 6 -1.591219 5.367802 -3.117479 4.242641 -4.242641 
C 3.117479 -5.367802 1.591219 -6 0 -6 
C -1.591219 -6 -3.117479 -5.367802 -4.242641 -4.242641 
C -5.367802 -3.117479 -6 -1.591219 -6 0 
C -6 1.591219 -5.367802 3.117479 -4.242641 4.242641 
C -3.117479 5.367802 -1.591219 6 0 6 
z
" style="stroke: #6ec1e0; stroke-opacity: 0.8; stroke-width: 2"/>
     </defs>
     <g>
      <use xlink:href="#mbd2384cdc8" x="90.669375" y="97.09125" style="fill: #ffffff; fill-opacity: 0.8; stroke: #6ec1e0; stroke-opacity: 0.8; stroke-width: 2"/>
     </g>
    </g>
    <g id="text_3">
     <!-- StitchedVamana (S) -->
     <g transform="translate(162.669375 105.49125) scale(0.24 -0.24)">
      <defs>
       <path id="DejaVuSans-63" d="M 3122 3366 
L 3122 2828 
Q 2878 2963 2633 3030 
Q 2388 3097 2138 3097 
Q 1578 3097 1268 2742 
Q 959 2388 959 1747 
Q 959 1106 1268 751 
Q 1578 397 2138 397 
Q 2388 397 2633 464 
Q 2878 531 3122 666 
L 3122 134 
Q 2881 22 2623 -34 
Q 2366 -91 2075 -91 
Q 1284 -91 818 406 
Q 353 903 353 1747 
Q 353 2603 823 3093 
Q 1294 3584 2113 3584 
Q 2378 3584 2631 3529 
Q 2884 3475 3122 3366 
z
" transform="scale(0.015625)"/>
       <path id="DejaVuSans-68" d="M 3513 2113 
L 3513 0 
L 2938 0 
L 2938 2094 
Q 2938 2591 2744 2837 
Q 2550 3084 2163 3084 
Q 1697 3084 1428 2787 
Q 1159 2491 1159 1978 
L 1159 0 
L 581 0 
L 581 4863 
L 1159 4863 
L 1159 2956 
Q 1366 3272 1645 3428 
Q 1925 3584 2291 3584 
Q 2894 3584 3203 3211 
Q 3513 2838 3513 2113 
z
" transform="scale(0.015625)"/>
      </defs>
      <use xlink:href="#DejaVuSans-53"/>
      <use xlink:href="#DejaVuSans-74" transform="translate(63.476562 0)"/>
      <use xlink:href="#DejaVuSans-69" transform="translate(102.685547 0)"/>
      <use xlink:href="#DejaVuSans-74" transform="translate(130.46875 0)"/>
      <use xlink:href="#DejaVuSans-63" transform="translate(169.677734 0)"/>
      <use xlink:href="#DejaVuSans-68" transform="translate(224.658203 0)"/>
      <use xlink:href="#DejaVuSans-65" transform="translate(288.037109 0)"/>
      <use xlink:href="#DejaVuSans-64" transform="translate(349.560547 0)"/>
      <use xlink:href="#DejaVuSans-56" transform="translate(413.037109 0)"/>
      <use xlink:href="#DejaVuSans-61" transform="translate(473.695312 0)"/>
      <use xlink:href="#DejaVuSans-6d" transform="translate(534.974609 0)"/>
      <use xlink:href="#DejaVuSans-61" transform="translate(632.386719 0)"/>
      <use xlink:href="#DejaVuSans-6e" transform="translate(693.666016 0)"/>
      <use xlink:href="#DejaVuSans-61" transform="translate(757.044922 0)"/>
      <use xlink:href="#DejaVuSans-20" transform="translate(818.324219 0)"/>
      <use xlink:href="#DejaVuSans-28" transform="translate(850.111328 0)"/>
      <use xlink:href="#DejaVuSans-53" transform="translate(889.125 0)"/>
      <use xlink:href="#DejaVuSans-29" transform="translate(952.601562 0)"/>
     </g>
    </g>
    <g id="line2d_4">
     <path d="M 54.669375 132.31875 
L 90.669375 132.31875 
L 126.669375 132.31875 
" style="fill: none; stroke-dasharray: 5.18,2.24; stroke-dashoffset: 0; stroke: #6ec1e0; stroke-width: 1.4"/>
     <defs>
      <path id="mbbdc9a4725" d="M 0 -6 
L -6 6 
L 6 6 
z
" style="stroke: #6ec1e0; stroke-opacity: 0.8; stroke-width: 2; stroke-linejoin: miter"/>
     </defs>
     <g>
      <use xlink:href="#mbbdc9a4725" x="90.669375" y="132.31875" style="fill: #ffffff; fill-opacity: 0.8; stroke: #6ec1e0; stroke-opacity: 0.8; stroke-width: 2; stroke-linejoin: miter"/>
     </g>
    </g>
    <g id="text_4">
     <!-- StitchedVamana (M) -->
     <g transform="translate(162.669375 140.71875) scale(0.24 -0.24)">
      <use xlink:href="#DejaVuSans-53"/>
      <use xlink:href="#DejaVuSans-74" transform="translate(63.476562 0)"/>
      <use xlink:href="#DejaVuSans-69" transform="translate(102.685547 0)"/>
      <use xlink:href="#DejaVuSans-74" transform="translate(130.46875 0)"/>
      <use xlink:href="#DejaVuSans-63" transform="translate(169.677734 0)"/>
      <use xlink:href="#DejaVuSans-68" transform="translate(224.658203 0)"/>
      <use xlink:href="#DejaVuSans-65" transform="translate(288.037109 0)"/>
      <use xlink:href="#DejaVuSans-64" transform="translate(349.560547 0)"/>
      <use xlink:href="#DejaVuSans-56" transform="translate(413.037109 0)"/>
      <use xlink:href="#DejaVuSans-61" transform="translate(473.695312 0)"/>
      <use xlink:href="#DejaVuSans-6d" transform="translate(534.974609 0)"/>
      <use xlink:href="#DejaVuSans-61" transform="translate(632.386719 0)"/>
      <use xlink:href="#DejaVuSans-6e" transform="translate(693.666016 0)"/>
      <use xlink:href="#DejaVuSans-61" transform="translate(757.044922 0)"/>
      <use xlink:href="#DejaVuSans-20" transform="translate(818.324219 0)"/>
      <use xlink:href="#DejaVuSans-28" transform="translate(850.111328 0)"/>
      <use xlink:href="#DejaVuSans-4d" transform="translate(889.125 0)"/>
      <use xlink:href="#DejaVuSans-29" transform="translate(975.404297 0)"/>
     </g>
    </g>
   </g>
   <g id="legend_2">
    <g id="line2d_5">
     <path d="M 459.49125 26.63625 
L 495.49125 26.63625 
L 531.49125 26.63625 
" style="fill: none; stroke: #8fcb6b; stroke-width: 1.4; stroke-linecap: square"/>
     <defs>
      <path id="mc98738a9b0" d="M 0 6 
C 1.591219 6 3.117479 5.367802 4.242641 4.242641 
C 5.367802 3.117479 6 1.591219 6 0 
C 6 -1.591219 5.367802 -3.117479 4.242641 -4.242641 
C 3.117479 -5.367802 1.591219 -6 0 -6 
C -1.591219 -6 -3.117479 -5.367802 -4.242641 -4.242641 
C -5.367802 -3.117479 -6 -1.591219 -6 0 
C -6 1.591219 -5.367802 3.117479 -4.242641 4.242641 
C -3.117479 5.367802 -1.591219 6 0 6 
z
" style="stroke: #8fcb6b; stroke-opacity: 0.8; stroke-width: 2"/>
     </defs>
     <g>
      <use xlink:href="#mc98738a9b0" x="495.49125" y="26.63625" style="fill: #ffffff; fill-opacity: 0.8; stroke: #8fcb6b; stroke-opacity: 0.8; stroke-width: 2"/>
     </g>
    </g>
    <g id="text_5">
     <!-- NHQ (S) -->
     <g transform="translate(567.49125 35.03625) scale(0.24 -0.24)">
      <defs>
       <path id="DejaVuSans-4e" d="M 628 4666 
L 1478 4666 
L 3547 763 
L 3547 4666 
L 4159 4666 
L 4159 0 
L 3309 0 
L 1241 3903 
L 1241 0 
L 628 0 
L 628 4666 
z
" transform="scale(0.015625)"/>
       <path id="DejaVuSans-48" d="M 628 4666 
L 1259 4666 
L 1259 2753 
L 3553 2753 
L 3553 4666 
L 4184 4666 
L 4184 0 
L 3553 0 
L 3553 2222 
L 1259 2222 
L 1259 0 
L 628 0 
L 628 4666 
z
" transform="scale(0.015625)"/>
       <path id="DejaVuSans-51" d="M 2522 4238 
Q 1834 4238 1429 3725 
Q 1025 3213 1025 2328 
Q 1025 1447 1429 934 
Q 1834 422 2522 422 
Q 3209 422 3611 934 
Q 4013 1447 4013 2328 
Q 4013 3213 3611 3725 
Q 3209 4238 2522 4238 
z
M 3406 84 
L 4238 -825 
L 3475 -825 
L 2784 -78 
Q 2681 -84 2626 -87 
Q 2572 -91 2522 -91 
Q 1538 -91 948 567 
Q 359 1225 359 2328 
Q 359 3434 948 4092 
Q 1538 4750 2522 4750 
Q 3503 4750 4090 4092 
Q 4678 3434 4678 2328 
Q 4678 1516 4351 937 
Q 4025 359 3406 84 
z
" transform="scale(0.015625)"/>
      </defs>
      <use xlink:href="#DejaVuSans-4e"/>
      <use xlink:href="#DejaVuSans-48" transform="translate(74.804688 0)"/>
      <use xlink:href="#DejaVuSans-51" transform="translate(150 0)"/>
      <use xlink:href="#DejaVuSans-20" transform="translate(228.710938 0)"/>
      <use xlink:href="#DejaVuSans-28" transform="translate(260.498047 0)"/>
      <use xlink:href="#DejaVuSans-53" transform="translate(299.511719 0)"/>
      <use xlink:href="#DejaVuSans-29" transform="translate(362.988281 0)"/>
     </g>
    </g>
    <g id="line2d_6">
     <path d="M 459.49125 61.86375 
L 495.49125 61.86375 
L 531.49125 61.86375 
" style="fill: none; stroke-dasharray: 5.18,2.24; stroke-dashoffset: 0; stroke: #8fcb6b; stroke-width: 1.4"/>
     <defs>
      <path id="m20cd11d9af" d="M 0 -6 
L -6 6 
L 6 6 
z
" style="stroke: #8fcb6b; stroke-opacity: 0.8; stroke-width: 2; stroke-linejoin: miter"/>
     </defs>
     <g>
      <use xlink:href="#m20cd11d9af" x="495.49125" y="61.86375" style="fill: #ffffff; fill-opacity: 0.8; stroke: #8fcb6b; stroke-opacity: 0.8; stroke-width: 2; stroke-linejoin: miter"/>
     </g>
    </g>
    <g id="text_6">
     <!-- NHQ (M) -->
     <g transform="translate(567.49125 70.26375) scale(0.24 -0.24)">
      <use xlink:href="#DejaVuSans-4e"/>
      <use xlink:href="#DejaVuSans-48" transform="translate(74.804688 0)"/>
      <use xlink:href="#DejaVuSans-51" transform="translate(150 0)"/>
      <use xlink:href="#DejaVuSans-20" transform="translate(228.710938 0)"/>
      <use xlink:href="#DejaVuSans-28" transform="translate(260.498047 0)"/>
      <use xlink:href="#DejaVuSans-4d" transform="translate(299.511719 0)"/>
      <use xlink:href="#DejaVuSans-29" transform="translate(385.791016 0)"/>
     </g>
    </g>
    <g id="line2d_7">
     <path d="M 459.49125 97.09125 
L 495.49125 97.09125 
L 531.49125 97.09125 
" style="fill: none; stroke: #e74c3c; stroke-width: 1.4; stroke-linecap: square"/>
     <defs>
      <path id="m9e15c46647" d="M 0 6 
C 1.591219 6 3.117479 5.367802 4.242641 4.242641 
C 5.367802 3.117479 6 1.591219 6 0 
C 6 -1.591219 5.367802 -3.117479 4.242641 -4.242641 
C 3.117479 -5.367802 1.591219 -6 0 -6 
C -1.591219 -6 -3.117479 -5.367802 -4.242641 -4.242641 
C -5.367802 -3.117479 -6 -1.591219 -6 0 
C -6 1.591219 -5.367802 3.117479 -4.242641 4.242641 
C -3.117479 5.367802 -1.591219 6 0 6 
z
" style="stroke: #e74c3c; stroke-opacity: 0.8; stroke-width: 2"/>
     </defs>
     <g>
      <use xlink:href="#m9e15c46647" x="495.49125" y="97.09125" style="fill: #ffffff; fill-opacity: 0.8; stroke: #e74c3c; stroke-opacity: 0.8; stroke-width: 2"/>
     </g>
    </g>
    <g id="text_7">
     <!-- Puck (S) -->
     <g transform="translate(567.49125 105.49125) scale(0.24 -0.24)">
      <defs>
       <path id="DejaVuSans-50" d="M 1259 4147 
L 1259 2394 
L 2053 2394 
Q 2494 2394 2734 2622 
Q 2975 2850 2975 3272 
Q 2975 3691 2734 3919 
Q 2494 4147 2053 4147 
L 1259 4147 
z
M 628 4666 
L 2053 4666 
Q 2838 4666 3239 4311 
Q 3641 3956 3641 3272 
Q 3641 2581 3239 2228 
Q 2838 1875 2053 1875 
L 1259 1875 
L 1259 0 
L 628 0 
L 628 4666 
z
" transform="scale(0.015625)"/>
       <path id="DejaVuSans-75" d="M 544 1381 
L 544 3500 
L 1119 3500 
L 1119 1403 
Q 1119 906 1312 657 
Q 1506 409 1894 409 
Q 2359 409 2629 706 
Q 2900 1003 2900 1516 
L 2900 3500 
L 3475 3500 
L 3475 0 
L 2900 0 
L 2900 538 
Q 2691 219 2414 64 
Q 2138 -91 1772 -91 
Q 1169 -91 856 284 
Q 544 659 544 1381 
z
M 1991 3584 
L 1991 3584 
z
" transform="scale(0.015625)"/>
       <path id="DejaVuSans-6b" d="M 581 4863 
L 1159 4863 
L 1159 1991 
L 2875 3500 
L 3609 3500 
L 1753 1863 
L 3688 0 
L 2938 0 
L 1159 1709 
L 1159 0 
L 581 0 
L 581 4863 
z
" transform="scale(0.015625)"/>
      </defs>
      <use xlink:href="#DejaVuSans-50"/>
      <use xlink:href="#DejaVuSans-75" transform="translate(58.552734 0)"/>
      <use xlink:href="#DejaVuSans-63" transform="translate(121.931641 0)"/>
      <use xlink:href="#DejaVuSans-6b" transform="translate(176.912109 0)"/>
      <use xlink:href="#DejaVuSans-20" transform="translate(234.822266 0)"/>
      <use xlink:href="#DejaVuSans-28" transform="translate(266.609375 0)"/>
      <use xlink:href="#DejaVuSans-53" transform="translate(305.623047 0)"/>
      <use xlink:href="#DejaVuSans-29" transform="translate(369.099609 0)"/>
     </g>
    </g>
    <g id="line2d_8">
     <path d="M 459.49125 132.31875 
L 495.49125 132.31875 
L 531.49125 132.31875 
" style="fill: none; stroke-dasharray: 5.18,2.24; stroke-dashoffset: 0; stroke: #e74c3c; stroke-width: 1.4"/>
     <defs>
      <path id="me35d9a28b8" d="M 0 -6 
L -6 6 
L 6 6 
z
" style="stroke: #e74c3c; stroke-opacity: 0.8; stroke-width: 2; stroke-linejoin: miter"/>
     </defs>
     <g>
      <use xlink:href="#me35d9a28b8" x="495.49125" y="132.31875" style="fill: #ffffff; fill-opacity: 0.8; stroke: #e74c3c; stroke-opacity: 0.8; stroke-width: 2; stroke-linejoin: miter"/>
     </g>
    </g>
    <g id="text_8">
     <!-- Puck (M) -->
     <g transform="translate(567.49125 140.71875) scale(0.24 -0.24)">
      <use xlink:href="#DejaVuSans-50"/>
      <use xlink:href="#DejaVuSans-75" transform="translate(58.552734 0)"/>
      <use xlink:href="#DejaVuSans-63" transform="translate(121.931641 0)"/>
      <use xlink:href="#DejaVuSans-6b" transform="translate(176.912109 0)"/>
      <use xlink:href="#DejaVuSans-20" transform="translate(234.822266 0)"/>
      <use xlink:href="#DejaVuSans-28" transform="translate(266.609375 0)"/>
      <use xlink:href="#DejaVuSans-4d" transform="translate(305.623047 0)"/>
      <use xlink:href="#DejaVuSans-29" transform="translate(391.902344 0)"/>
     </g>
    </g>
   </g>
   <g id="legend_3">
    <g id="line2d_9">
     <path d="M 739.610625 61.86375 
L 775.610625 61.86375 
L 811.610625 61.86375 
" style="fill: none; stroke: #34495e; stroke-width: 1.4; stroke-linecap: square"/>
     <defs>
      <path id="m4937cbc16e" d="M 0 6 
C 1.591219 6 3.117479 5.367802 4.242641 4.242641 
C 5.367802 3.117479 6 1.591219 6 0 
C 6 -1.591219 5.367802 -3.117479 4.242641 -4.242641 
C 3.117479 -5.367802 1.591219 -6 0 -6 
C -1.591219 -6 -3.117479 -5.367802 -4.242641 -4.242641 
C -5.367802 -3.117479 -6 -1.591219 -6 0 
C -6 1.591219 -5.367802 3.117479 -4.242641 4.242641 
C -3.117479 5.367802 -1.591219 6 0 6 
z
" style="stroke: #34495e; stroke-opacity: 0.8; stroke-width: 2"/>
     </defs>
     <g>
      <use xlink:href="#m4937cbc16e" x="775.610625" y="61.86375" style="fill: #ffffff; fill-opacity: 0.8; stroke: #34495e; stroke-opacity: 0.8; stroke-width: 2"/>
     </g>
    </g>
    <g id="text_9">
     <!-- UNG (S) -->
     <g transform="translate(847.610625 70.26375) scale(0.24 -0.24)">
      <defs>
       <path id="DejaVuSans-55" d="M 556 4666 
L 1191 4666 
L 1191 1831 
Q 1191 1081 1462 751 
Q 1734 422 2344 422 
Q 2950 422 3222 751 
Q 3494 1081 3494 1831 
L 3494 4666 
L 4128 4666 
L 4128 1753 
Q 4128 841 3676 375 
Q 3225 -91 2344 -91 
Q 1459 -91 1007 375 
Q 556 841 556 1753 
L 556 4666 
z
" transform="scale(0.015625)"/>
       <path id="DejaVuSans-47" d="M 3809 666 
L 3809 1919 
L 2778 1919 
L 2778 2438 
L 4434 2438 
L 4434 434 
Q 4069 175 3628 42 
Q 3188 -91 2688 -91 
Q 1594 -91 976 548 
Q 359 1188 359 2328 
Q 359 3472 976 4111 
Q 1594 4750 2688 4750 
Q 3144 4750 3555 4637 
Q 3966 4525 4313 4306 
L 4313 3634 
Q 3963 3931 3569 4081 
Q 3175 4231 2741 4231 
Q 1884 4231 1454 3753 
Q 1025 3275 1025 2328 
Q 1025 1384 1454 906 
Q 1884 428 2741 428 
Q 3075 428 3337 486 
Q 3600 544 3809 666 
z
" transform="scale(0.015625)"/>
      </defs>
      <use xlink:href="#DejaVuSans-55"/>
      <use xlink:href="#DejaVuSans-4e" transform="translate(73.193359 0)"/>
      <use xlink:href="#DejaVuSans-47" transform="translate(147.998047 0)"/>
      <use xlink:href="#DejaVuSans-20" transform="translate(225.488281 0)"/>
      <use xlink:href="#DejaVuSans-28" transform="translate(257.275391 0)"/>
      <use xlink:href="#DejaVuSans-53" transform="translate(296.289062 0)"/>
      <use xlink:href="#DejaVuSans-29" transform="translate(359.765625 0)"/>
     </g>
    </g>
    <g id="line2d_10">
     <path d="M 739.610625 97.09125 
L 775.610625 97.09125 
L 811.610625 97.09125 
" style="fill: none; stroke-dasharray: 5.18,2.24; stroke-dashoffset: 0; stroke: #34495e; stroke-width: 1.4"/>
     <defs>
      <path id="ma6ed327cb5" d="M 0 -6 
L -6 6 
L 6 6 
z
" style="stroke: #34495e; stroke-opacity: 0.8; stroke-width: 2; stroke-linejoin: miter"/>
     </defs>
     <g>
      <use xlink:href="#ma6ed327cb5" x="775.610625" y="97.09125" style="fill: #ffffff; fill-opacity: 0.8; stroke: #34495e; stroke-opacity: 0.8; stroke-width: 2; stroke-linejoin: miter"/>
     </g>
    </g>
    <g id="text_10">
     <!-- UNG (M) -->
     <g transform="translate(847.610625 105.49125) scale(0.24 -0.24)">
      <use xlink:href="#DejaVuSans-55"/>
      <use xlink:href="#DejaVuSans-4e" transform="translate(73.193359 0)"/>
      <use xlink:href="#DejaVuSans-47" transform="translate(147.998047 0)"/>
      <use xlink:href="#DejaVuSans-20" transform="translate(225.488281 0)"/>
      <use xlink:href="#DejaVuSans-28" transform="translate(257.275391 0)"/>
      <use xlink:href="#DejaVuSans-4d" transform="translate(296.289062 0)"/>
      <use xlink:href="#DejaVuSans-29" transform="translate(382.568359 0)"/>
     </g>
    </g>
   </g>
   <g id="legend_4">
    <g id="line2d_11">
     <path d="M 739.610625 61.86375 
L 775.610625 61.86375 
L 811.610625 61.86375 
" style="fill: none; stroke: #34495e; stroke-width: 1.4; stroke-linecap: square"/>
     <g>
      <use xlink:href="#m4937cbc16e" x="775.610625" y="61.86375" style="fill: #ffffff; fill-opacity: 0.8; stroke: #34495e; stroke-opacity: 0.8; stroke-width: 2"/>
     </g>
    </g>
    <g id="text_11">
     <!-- UNG (S) -->
     <g transform="translate(847.610625 70.26375) scale(0.24 -0.24)">
      <use xlink:href="#DejaVuSans-55"/>
      <use xlink:href="#DejaVuSans-4e" transform="translate(73.193359 0)"/>
      <use xlink:href="#DejaVuSans-47" transform="translate(147.998047 0)"/>
      <use xlink:href="#DejaVuSans-20" transform="translate(225.488281 0)"/>
      <use xlink:href="#DejaVuSans-28" transform="translate(257.275391 0)"/>
      <use xlink:href="#DejaVuSans-53" transform="translate(296.289062 0)"/>
      <use xlink:href="#DejaVuSans-29" transform="translate(359.765625 0)"/>
     </g>
    </g>
    <g id="line2d_12">
     <path d="M 739.610625 97.09125 
L 775.610625 97.09125 
L 811.610625 97.09125 
" style="fill: none; stroke-dasharray: 5.18,2.24; stroke-dashoffset: 0; stroke: #34495e; stroke-width: 1.4"/>
     <g>
      <use xlink:href="#ma6ed327cb5" x="775.610625" y="97.09125" style="fill: #ffffff; fill-opacity: 0.8; stroke: #34495e; stroke-opacity: 0.8; stroke-width: 2; stroke-linejoin: miter"/>
     </g>
    </g>
    <g id="text_12">
     <!-- UNG (M) -->
     <g transform="translate(847.610625 105.49125) scale(0.24 -0.24)">
      <use xlink:href="#DejaVuSans-55"/>
      <use xlink:href="#DejaVuSans-4e" transform="translate(73.193359 0)"/>
      <use xlink:href="#DejaVuSans-47" transform="translate(147.998047 0)"/>
      <use xlink:href="#DejaVuSans-20" transform="translate(225.488281 0)"/>
      <use xlink:href="#DejaVuSans-28" transform="translate(257.275391 0)"/>
      <use xlink:href="#DejaVuSans-4d" transform="translate(296.289062 0)"/>
      <use xlink:href="#DejaVuSans-29" transform="translate(382.568359 0)"/>
     </g>
    </g>
   </g>
  </g>
 </g>
</svg>
