<?xml version="1.0" encoding="utf-8" standalone="no"?>
<!DOCTYPE svg PUBLIC "-//W3C//DTD SVG 1.1//EN"
  "http://www.w3.org/Graphics/SVG/1.1/DTD/svg11.dtd">
<svg xmlns:xlink="http://www.w3.org/1999/xlink" width="680.445312pt" height="259.40875pt" viewBox="0 0 680.445312 259.40875" xmlns="http://www.w3.org/2000/svg" version="1.1">
 <metadata>
  <rdf:RDF xmlns:dc="http://purl.org/dc/elements/1.1/" xmlns:cc="http://creativecommons.org/ns#" xmlns:rdf="http://www.w3.org/1999/02/22-rdf-syntax-ns#">
   <cc:Work>
    <dc:type rdf:resource="http://purl.org/dc/dcmitype/StillImage"/>
    <dc:date>2025-07-17T15:24:39.866120</dc:date>
    <dc:format>image/svg+xml</dc:format>
    <dc:creator>
     <cc:Agent>
      <dc:title>Matplotlib v3.10.1, https://matplotlib.org/</dc:title>
     </cc:Agent>
    </dc:creator>
   </cc:Work>
  </rdf:RDF>
 </metadata>
 <defs>
  <style type="text/css">*{stroke-linejoin: round; stroke-linecap: butt}</style>
 </defs>
 <g id="figure_1">
  <g id="patch_1">
   <path d="M 0 259.40875 
L 680.445312 259.40875 
L 680.445312 0 
L 0 0 
z
" style="fill: #ffffff"/>
  </g>
  <g id="axes_1">
   <g id="patch_2">
    <path d="M 57.113125 208.8 
L 329.913125 208.8 
L 329.913125 7.2 
L 57.113125 7.2 
z
" style="fill: #ffffff"/>
   </g>
   <g id="matplotlib.axis_1">
    <g id="xtick_1">
     <g id="line2d_1">
      <path d="M 57.113125 208.8 
L 57.113125 7.2 
" clip-path="url(#p5dcda5f923)" style="fill: none; stroke-dasharray: 0.8,1.32; stroke-dashoffset: 0; stroke: #b0b0b0; stroke-opacity: 0.6; stroke-width: 0.8"/>
     </g>
     <g id="line2d_2">
      <defs>
       <path id="m89b1f3f2e8" d="M 0 0 
L 0 3.5 
" style="stroke: #000000; stroke-width: 0.8"/>
      </defs>
      <g>
       <use xlink:href="#m89b1f3f2e8" x="57.113125" y="208.8" style="stroke: #000000; stroke-width: 0.8"/>
      </g>
     </g>
     <g id="text_1">
      <!-- 0.7 -->
      <g transform="translate(45.980937 226.437813) scale(0.14 -0.14)">
       <defs>
        <path id="DejaVuSans-30" d="M 2034 4250 
Q 1547 4250 1301 3770 
Q 1056 3291 1056 2328 
Q 1056 1369 1301 889 
Q 1547 409 2034 409 
Q 2525 409 2770 889 
Q 3016 1369 3016 2328 
Q 3016 3291 2770 3770 
Q 2525 4250 2034 4250 
z
M 2034 4750 
Q 2819 4750 3233 4129 
Q 3647 3509 3647 2328 
Q 3647 1150 3233 529 
Q 2819 -91 2034 -91 
Q 1250 -91 836 529 
Q 422 1150 422 2328 
Q 422 3509 836 4129 
Q 1250 4750 2034 4750 
z
" transform="scale(0.015625)"/>
        <path id="DejaVuSans-2e" d="M 684 794 
L 1344 794 
L 1344 0 
L 684 0 
L 684 794 
z
" transform="scale(0.015625)"/>
        <path id="DejaVuSans-37" d="M 525 4666 
L 3525 4666 
L 3525 4397 
L 1831 0 
L 1172 0 
L 2766 4134 
L 525 4134 
L 525 4666 
z
" transform="scale(0.015625)"/>
       </defs>
       <use xlink:href="#DejaVuSans-30"/>
       <use xlink:href="#DejaVuSans-2e" transform="translate(63.623047 0)"/>
       <use xlink:href="#DejaVuSans-37" transform="translate(95.410156 0)"/>
      </g>
     </g>
    </g>
    <g id="xtick_2">
     <g id="line2d_3">
      <path d="M 145.113125 208.8 
L 145.113125 7.2 
" clip-path="url(#p5dcda5f923)" style="fill: none; stroke-dasharray: 0.8,1.32; stroke-dashoffset: 0; stroke: #b0b0b0; stroke-opacity: 0.6; stroke-width: 0.8"/>
     </g>
     <g id="line2d_4">
      <g>
       <use xlink:href="#m89b1f3f2e8" x="145.113125" y="208.8" style="stroke: #000000; stroke-width: 0.8"/>
      </g>
     </g>
     <g id="text_2">
      <!-- 0.8 -->
      <g transform="translate(133.980937 226.437813) scale(0.14 -0.14)">
       <defs>
        <path id="DejaVuSans-38" d="M 2034 2216 
Q 1584 2216 1326 1975 
Q 1069 1734 1069 1313 
Q 1069 891 1326 650 
Q 1584 409 2034 409 
Q 2484 409 2743 651 
Q 3003 894 3003 1313 
Q 3003 1734 2745 1975 
Q 2488 2216 2034 2216 
z
M 1403 2484 
Q 997 2584 770 2862 
Q 544 3141 544 3541 
Q 544 4100 942 4425 
Q 1341 4750 2034 4750 
Q 2731 4750 3128 4425 
Q 3525 4100 3525 3541 
Q 3525 3141 3298 2862 
Q 3072 2584 2669 2484 
Q 3125 2378 3379 2068 
Q 3634 1759 3634 1313 
Q 3634 634 3220 271 
Q 2806 -91 2034 -91 
Q 1263 -91 848 271 
Q 434 634 434 1313 
Q 434 1759 690 2068 
Q 947 2378 1403 2484 
z
M 1172 3481 
Q 1172 3119 1398 2916 
Q 1625 2713 2034 2713 
Q 2441 2713 2670 2916 
Q 2900 3119 2900 3481 
Q 2900 3844 2670 4047 
Q 2441 4250 2034 4250 
Q 1625 4250 1398 4047 
Q 1172 3844 1172 3481 
z
" transform="scale(0.015625)"/>
       </defs>
       <use xlink:href="#DejaVuSans-30"/>
       <use xlink:href="#DejaVuSans-2e" transform="translate(63.623047 0)"/>
       <use xlink:href="#DejaVuSans-38" transform="translate(95.410156 0)"/>
      </g>
     </g>
    </g>
    <g id="xtick_3">
     <g id="line2d_5">
      <path d="M 233.113125 208.8 
L 233.113125 7.2 
" clip-path="url(#p5dcda5f923)" style="fill: none; stroke-dasharray: 0.8,1.32; stroke-dashoffset: 0; stroke: #b0b0b0; stroke-opacity: 0.6; stroke-width: 0.8"/>
     </g>
     <g id="line2d_6">
      <g>
       <use xlink:href="#m89b1f3f2e8" x="233.113125" y="208.8" style="stroke: #000000; stroke-width: 0.8"/>
      </g>
     </g>
     <g id="text_3">
      <!-- 0.9 -->
      <g transform="translate(221.980937 226.437813) scale(0.14 -0.14)">
       <defs>
        <path id="DejaVuSans-39" d="M 703 97 
L 703 672 
Q 941 559 1184 500 
Q 1428 441 1663 441 
Q 2288 441 2617 861 
Q 2947 1281 2994 2138 
Q 2813 1869 2534 1725 
Q 2256 1581 1919 1581 
Q 1219 1581 811 2004 
Q 403 2428 403 3163 
Q 403 3881 828 4315 
Q 1253 4750 1959 4750 
Q 2769 4750 3195 4129 
Q 3622 3509 3622 2328 
Q 3622 1225 3098 567 
Q 2575 -91 1691 -91 
Q 1453 -91 1209 -44 
Q 966 3 703 97 
z
M 1959 2075 
Q 2384 2075 2632 2365 
Q 2881 2656 2881 3163 
Q 2881 3666 2632 3958 
Q 2384 4250 1959 4250 
Q 1534 4250 1286 3958 
Q 1038 3666 1038 3163 
Q 1038 2656 1286 2365 
Q 1534 2075 1959 2075 
z
" transform="scale(0.015625)"/>
       </defs>
       <use xlink:href="#DejaVuSans-30"/>
       <use xlink:href="#DejaVuSans-2e" transform="translate(63.623047 0)"/>
       <use xlink:href="#DejaVuSans-39" transform="translate(95.410156 0)"/>
      </g>
     </g>
    </g>
    <g id="xtick_4">
     <g id="line2d_7">
      <path d="M 321.113125 208.8 
L 321.113125 7.2 
" clip-path="url(#p5dcda5f923)" style="fill: none; stroke-dasharray: 0.8,1.32; stroke-dashoffset: 0; stroke: #b0b0b0; stroke-opacity: 0.6; stroke-width: 0.8"/>
     </g>
     <g id="line2d_8">
      <g>
       <use xlink:href="#m89b1f3f2e8" x="321.113125" y="208.8" style="stroke: #000000; stroke-width: 0.8"/>
      </g>
     </g>
     <g id="text_4">
      <!-- 1.0 -->
      <g transform="translate(309.980937 226.437813) scale(0.14 -0.14)">
       <defs>
        <path id="DejaVuSans-31" d="M 794 531 
L 1825 531 
L 1825 4091 
L 703 3866 
L 703 4441 
L 1819 4666 
L 2450 4666 
L 2450 531 
L 3481 531 
L 3481 0 
L 794 0 
L 794 531 
z
" transform="scale(0.015625)"/>
       </defs>
       <use xlink:href="#DejaVuSans-31"/>
       <use xlink:href="#DejaVuSans-2e" transform="translate(63.623047 0)"/>
       <use xlink:href="#DejaVuSans-30" transform="translate(95.410156 0)"/>
      </g>
     </g>
    </g>
    <g id="text_5">
     <!-- (a) Recall@10 (Milvus) -->
     <g transform="translate(101.381875 247.30875) scale(0.2 -0.2)">
      <defs>
       <path id="LinLibertineO-28" d="M 282 1613 
C 282 1325 307 -154 1638 -1306 
C 1702 -1293 1754 -1248 1773 -1197 
C 1562 -954 813 -70 813 1613 
C 813 3296 1568 4179 1773 4410 
C 1747 4474 1709 4518 1638 4525 
C 877 3872 282 2803 282 1613 
z
" transform="scale(0.015625)"/>
       <path id="LinLibertineO-61" d="M 1875 1491 
L 1875 646 
C 1875 563 1837 518 1786 480 
C 1619 346 1402 198 1222 198 
C 902 198 762 454 762 653 
C 762 941 896 1235 1370 1357 
L 1875 1491 
z
M 1875 307 
C 1914 109 1978 -64 2304 -64 
C 2547 -64 2778 45 2912 173 
C 2899 250 2874 301 2803 346 
C 2752 301 2643 243 2566 243 
C 2381 243 2374 493 2374 787 
L 2374 1728 
C 2374 2637 1875 2810 1408 2810 
C 883 2810 352 2464 352 2099 
C 352 1946 429 1869 576 1869 
C 762 1869 877 2003 877 2086 
C 877 2131 870 2176 858 2202 
C 851 2221 845 2259 845 2330 
C 845 2528 1114 2598 1357 2598 
C 1574 2598 1875 2490 1875 1766 
C 1875 1722 1856 1696 1837 1690 
L 1286 1555 
C 672 1402 230 1062 230 627 
C 230 102 589 -64 1037 -64 
C 1254 -64 1453 -13 1734 205 
L 1862 307 
L 1875 307 
z
" transform="scale(0.015625)"/>
       <path id="LinLibertineO-29" d="M 1626 1613 
C 1626 1901 1600 3379 269 4531 
C 205 4518 154 4474 134 4422 
C 346 4179 1094 3296 1094 1613 
C 1094 -70 339 -954 134 -1184 
C 154 -1254 192 -1299 269 -1299 
C 1030 -646 1626 422 1626 1613 
z
" transform="scale(0.015625)"/>
       <path id="LinLibertineO-20" transform="scale(0.015625)"/>
       <path id="LinLibertineO-52" d="M 1741 3955 
C 2131 3955 2592 3814 2592 3059 
C 2592 2259 2138 2080 1517 2080 
L 1210 2080 
L 1210 3546 
C 1210 3731 1286 3955 1741 3955 
z
M 1210 781 
L 1210 1862 
C 1747 1862 1862 1766 1958 1619 
L 2643 506 
C 2822 205 3104 -64 3488 -64 
C 3584 -64 3693 -51 3757 -19 
C 3776 19 3776 83 3750 134 
C 3462 134 3302 346 3136 627 
L 2330 1971 
C 2605 2061 3181 2394 3181 3066 
C 3181 3386 3072 3648 2842 3866 
C 2534 4154 2138 4173 1734 4173 
C 1434 4173 1165 4128 934 4128 
C 710 4128 410 4134 109 4141 
C 70 4102 70 3968 109 3930 
C 557 3910 666 3878 666 3347 
L 666 781 
C 666 250 557 218 109 198 
C 70 160 70 26 109 -13 
C 397 -6 691 0 941 0 
C 1178 0 1485 -6 1766 -13 
C 1805 26 1805 160 1766 198 
C 1318 218 1210 250 1210 781 
z
" transform="scale(0.015625)"/>
       <path id="LinLibertineO-65" d="M 794 1805 
C 915 2528 1363 2586 1517 2586 
C 1760 2586 2048 2451 2048 1914 
C 2048 1856 2022 1824 1952 1824 
L 794 1805 
z
M 2470 595 
C 2234 352 2048 250 1677 250 
C 1446 250 1178 384 979 710 
C 851 922 774 1216 774 1587 
L 2477 1574 
C 2554 1574 2598 1613 2598 1683 
C 2598 2221 2406 2797 1517 2797 
C 960 2797 237 2266 237 1293 
C 237 934 326 589 538 346 
C 755 90 1056 -64 1517 -64 
C 2003 -64 2349 160 2605 493 
C 2586 557 2547 589 2470 595 
z
" transform="scale(0.015625)"/>
       <path id="LinLibertineO-63" d="M 2547 582 
C 2522 640 2470 666 2413 672 
C 2195 390 1920 250 1645 250 
C 1178 250 787 723 787 1472 
C 787 2176 1094 2598 1517 2598 
C 1894 2598 1946 2374 1971 2150 
C 1990 1978 2080 1920 2214 1920 
C 2349 1920 2528 2003 2528 2202 
C 2528 2554 2163 2810 1549 2810 
C 915 2810 237 2240 237 1331 
C 237 506 698 -64 1504 -64 
C 1888 -64 2227 58 2547 582 
z
" transform="scale(0.015625)"/>
       <path id="LinLibertineO-6c" d="M 608 781 
C 608 250 538 218 147 198 
C 109 160 109 26 147 -13 
C 371 -6 608 0 864 0 
C 1120 0 1363 -6 1574 -13 
C 1613 26 1613 160 1574 198 
C 1184 218 1114 250 1114 781 
L 1114 3731 
C 1114 4147 1139 4403 1139 4403 
C 1139 4448 1114 4467 1056 4467 
C 896 4403 416 4314 160 4294 
C 147 4243 160 4141 198 4102 
C 570 4077 608 4058 608 3578 
L 608 781 
z
" transform="scale(0.015625)"/>
       <path id="LinLibertineO-40" d="M 3642 2022 
C 3642 1805 3533 1478 3450 1280 
C 3251 813 2938 448 2714 448 
C 2310 448 2214 730 2214 1037 
C 2214 1434 2323 1843 2650 2170 
C 2842 2368 3117 2426 3226 2426 
C 3456 2426 3642 2266 3642 2022 
z
M 3731 474 
C 3731 512 3776 730 3814 902 
L 4198 2554 
L 4102 2586 
L 3763 2502 
L 3731 2349 
C 3667 2515 3450 2624 3238 2624 
C 2560 2624 1747 1894 1747 979 
C 1747 723 1888 186 2528 186 
C 2752 186 3098 371 3379 845 
L 3392 838 
C 3341 678 3296 531 3296 435 
C 3296 333 3341 173 3526 173 
C 4922 173 5370 1075 5370 1805 
C 5370 3002 4378 3910 3002 3910 
C 1562 3910 378 2803 378 1427 
C 378 64 1376 -1011 2906 -1011 
C 3629 -1011 4013 -787 4397 -493 
L 4314 -378 
C 3968 -653 3571 -800 3027 -800 
C 1376 -800 890 582 890 1542 
C 890 3059 1965 3712 2938 3712 
C 3738 3712 4858 3078 4858 1760 
C 4858 698 4454 397 3802 397 
C 3789 397 3731 410 3731 474 
z
" transform="scale(0.015625)"/>
       <path id="LinLibertineO-31" d="M 1843 781 
L 1843 3002 
C 1843 3386 1850 3776 1862 3859 
C 1862 3885 1843 3891 1824 3891 
C 1466 3667 1133 3514 570 3251 
C 576 3174 608 3117 666 3078 
C 954 3200 1101 3238 1222 3238 
C 1325 3238 1350 3085 1350 2867 
L 1350 781 
C 1350 250 1178 218 730 198 
C 691 160 691 26 730 -13 
C 1043 -6 1267 0 1619 0 
C 1920 0 2080 -6 2400 -13 
C 2438 26 2438 160 2400 198 
C 1952 218 1843 250 1843 781 
z
" transform="scale(0.015625)"/>
       <path id="LinLibertineO-30" d="M 1485 3680 
C 1594 3680 1696 3642 1773 3571 
C 1971 3405 2144 2918 2144 2061 
C 2144 1472 2125 1069 2035 742 
C 1894 218 1581 160 1466 160 
C 870 160 806 1254 806 1811 
C 806 3386 1197 3680 1485 3680 
z
M 1459 -64 
C 1952 -64 2701 435 2701 1939 
C 2701 2573 2547 3117 2266 3488 
C 2093 3706 1830 3904 1485 3904 
C 851 3904 250 3149 250 1882 
C 250 1197 454 550 806 205 
C 992 19 1210 -64 1459 -64 
z
" transform="scale(0.015625)"/>
       <path id="LinLibertineO-4d" d="M 4237 742 
C 4269 224 4250 218 3834 198 
C 3795 160 3795 26 3834 -13 
C 4070 -6 4326 0 4518 0 
C 4710 0 4998 -6 5216 -13 
C 5254 26 5254 160 5216 198 
C 4781 218 4755 243 4723 774 
L 4531 3469 
C 4506 3814 4538 3904 4973 3930 
C 5011 3968 5011 4102 4973 4141 
L 4134 4128 
L 2778 883 
C 2752 819 2733 794 2720 794 
C 2707 794 2688 826 2669 877 
L 1357 4128 
L 429 4141 
C 390 4102 390 3968 429 3930 
C 870 3904 909 3891 864 3411 
L 602 774 
C 570 390 493 230 128 198 
C 90 160 90 26 128 -13 
C 320 -6 525 0 678 0 
C 832 0 1088 -6 1280 -13 
C 1318 26 1318 160 1280 198 
C 858 230 819 422 858 787 
L 1101 3354 
L 1114 3354 
L 2438 32 
C 2451 -19 2496 -64 2534 -64 
C 2573 -64 2598 -19 2624 32 
L 4064 3418 
L 4077 3418 
L 4237 742 
z
" transform="scale(0.015625)"/>
       <path id="LinLibertineO-69" d="M 576 3834 
C 576 3667 730 3501 883 3501 
C 1062 3501 1216 3667 1216 3808 
C 1216 3962 1082 4141 909 4141 
C 755 4141 576 3987 576 3834 
z
M 1158 781 
L 1158 2054 
C 1158 2374 1184 2784 1184 2784 
C 1184 2810 1152 2829 1101 2829 
C 915 2758 666 2701 224 2643 
C 211 2605 224 2502 237 2464 
C 582 2426 653 2394 653 2029 
L 653 781 
C 653 250 582 230 192 198 
C 154 160 154 26 192 -13 
C 403 -6 653 0 909 0 
C 1165 0 1408 -6 1619 -13 
C 1658 26 1658 160 1619 198 
C 1229 224 1158 250 1158 781 
z
" transform="scale(0.015625)"/>
       <path id="LinLibertineO-76" d="M 2080 2547 
C 2426 2522 2458 2438 2323 2118 
L 1811 864 
C 1702 608 1670 614 1574 883 
L 1107 2118 
C 998 2426 966 2502 1312 2547 
C 1350 2586 1350 2720 1312 2758 
C 1101 2752 877 2746 666 2746 
C 454 2746 262 2752 70 2758 
C 32 2720 32 2586 70 2547 
C 410 2502 454 2400 582 2080 
L 1402 58 
C 1440 -38 1478 -77 1562 -77 
C 1626 -77 1664 -38 1715 70 
L 2566 2074 
C 2688 2349 2758 2515 3117 2547 
C 3155 2586 3155 2720 3117 2758 
C 2989 2752 2835 2746 2669 2746 
C 2458 2746 2240 2752 2080 2758 
C 2042 2720 2042 2586 2080 2547 
z
" transform="scale(0.015625)"/>
       <path id="LinLibertineO-75" d="M 1389 -64 
C 1638 -64 1939 64 2253 320 
C 2285 346 2342 358 2349 314 
C 2362 147 2419 -64 2419 -64 
C 2470 -83 2496 -83 2541 -64 
C 2682 51 2906 147 3296 192 
C 3334 230 3334 326 3296 365 
C 2886 397 2829 518 2829 832 
L 2829 2061 
C 2829 2253 2854 2720 2854 2720 
C 2854 2739 2835 2758 2803 2758 
C 2771 2752 2675 2746 2579 2746 
C 2374 2746 2144 2752 1926 2758 
C 1888 2720 1888 2586 1926 2547 
C 2240 2528 2323 2451 2323 2029 
L 2323 794 
C 2323 672 2310 621 2221 544 
C 1984 339 1741 237 1581 237 
C 1389 237 1069 326 1069 896 
L 1069 2061 
C 1069 2253 1094 2720 1094 2720 
C 1094 2739 1075 2758 1043 2758 
C 1011 2752 915 2746 819 2746 
C 614 2746 384 2752 166 2758 
C 128 2720 128 2586 166 2547 
C 474 2522 563 2451 563 2035 
L 563 806 
C 563 365 755 -64 1389 -64 
z
" transform="scale(0.015625)"/>
       <path id="LinLibertineO-73" d="M 307 883 
C 333 570 352 269 352 0 
C 416 13 480 19 512 19 
C 557 19 595 19 640 6 
C 813 -38 986 -64 1222 -64 
C 1581 -64 2240 109 2240 742 
C 2240 1178 1926 1434 1491 1594 
C 1101 1734 851 1837 851 2189 
C 851 2451 1082 2598 1299 2598 
C 1440 2598 1811 2547 1894 2003 
C 1933 1965 2061 1971 2099 2010 
C 2118 2240 2131 2477 2138 2688 
C 1939 2720 1632 2810 1299 2810 
C 826 2810 397 2502 397 2093 
C 397 1626 608 1427 1101 1222 
C 1632 1005 1754 870 1754 595 
C 1754 282 1446 147 1210 147 
C 960 147 819 230 755 301 
C 614 448 544 730 506 890 
C 467 928 346 922 307 883 
z
" transform="scale(0.015625)"/>
      </defs>
      <use xlink:href="#LinLibertineO-28"/>
      <use xlink:href="#LinLibertineO-61" transform="translate(29.799988 0)"/>
      <use xlink:href="#LinLibertineO-29" transform="translate(75.499985 0)"/>
      <use xlink:href="#LinLibertineO-20" transform="translate(105.299973 0)"/>
      <use xlink:href="#LinLibertineO-52" transform="translate(130.299957 0)"/>
      <use xlink:href="#LinLibertineO-65" transform="translate(188.999954 0)"/>
      <use xlink:href="#LinLibertineO-63" transform="translate(233.699951 0)"/>
      <use xlink:href="#LinLibertineO-61" transform="translate(276.499939 0)"/>
      <use xlink:href="#LinLibertineO-6c" transform="translate(322.199936 0)"/>
      <use xlink:href="#LinLibertineO-6c" transform="translate(348.59993 0)"/>
      <use xlink:href="#LinLibertineO-40" transform="translate(374.999924 0)"/>
      <use xlink:href="#LinLibertineO-31" transform="translate(464.499908 0)"/>
      <use xlink:href="#LinLibertineO-30" transform="translate(510.999893 0)"/>
      <use xlink:href="#LinLibertineO-20" transform="translate(557.499878 0)"/>
      <use xlink:href="#LinLibertineO-28" transform="translate(582.499863 0)"/>
      <use xlink:href="#LinLibertineO-4d" transform="translate(612.29985 0)"/>
      <use xlink:href="#LinLibertineO-69" transform="translate(696.199844 0)"/>
      <use xlink:href="#LinLibertineO-6c" transform="translate(723.299835 0)"/>
      <use xlink:href="#LinLibertineO-76" transform="translate(749.699829 0)"/>
      <use xlink:href="#LinLibertineO-75" transform="translate(799.399826 0)"/>
      <use xlink:href="#LinLibertineO-73" transform="translate(852.499817 0)"/>
      <use xlink:href="#LinLibertineO-29" transform="translate(891.499802 0)"/>
     </g>
    </g>
   </g>
   <g id="matplotlib.axis_2">
    <g id="ytick_1">
     <g id="line2d_9">
      <path d="M 57.113125 182.546149 
L 329.913125 182.546149 
" clip-path="url(#p5dcda5f923)" style="fill: none; stroke-dasharray: 0.8,1.32; stroke-dashoffset: 0; stroke: #b0b0b0; stroke-opacity: 0.6; stroke-width: 0.8"/>
     </g>
     <g id="line2d_10">
      <defs>
       <path id="mebbd5abfd8" d="M 0 0 
L -3.5 0 
" style="stroke: #000000; stroke-width: 0.8"/>
      </defs>
      <g>
       <use xlink:href="#mebbd5abfd8" x="57.113125" y="182.546149" style="stroke: #000000; stroke-width: 0.8"/>
      </g>
     </g>
     <g id="text_6">
      <!-- 10² -->
      <g transform="translate(26.685 187.865056) scale(0.14 -0.14)">
       <defs>
        <path id="DejaVuSans-b2" d="M 838 2444 
L 2163 2444 
L 2163 2088 
L 294 2088 
L 294 2431 
Q 400 2528 597 2703 
Q 1672 3656 1672 3950 
Q 1672 4156 1509 4282 
Q 1347 4409 1081 4409 
Q 919 4409 728 4354 
Q 538 4300 313 4191 
L 313 4575 
Q 553 4663 761 4706 
Q 969 4750 1147 4750 
Q 1600 4750 1872 4544 
Q 2144 4338 2144 4000 
Q 2144 3566 1109 2678 
Q 934 2528 838 2444 
z
" transform="scale(0.015625)"/>
       </defs>
       <use xlink:href="#DejaVuSans-31"/>
       <use xlink:href="#DejaVuSans-30" transform="translate(63.623047 0)"/>
       <use xlink:href="#DejaVuSans-b2" transform="translate(127.246094 0)"/>
      </g>
     </g>
    </g>
    <g id="ytick_2">
     <g id="line2d_11">
      <path d="M 57.113125 33.453851 
L 329.913125 33.453851 
" clip-path="url(#p5dcda5f923)" style="fill: none; stroke-dasharray: 0.8,1.32; stroke-dashoffset: 0; stroke: #b0b0b0; stroke-opacity: 0.6; stroke-width: 0.8"/>
     </g>
     <g id="line2d_12">
      <g>
       <use xlink:href="#mebbd5abfd8" x="57.113125" y="33.453851" style="stroke: #000000; stroke-width: 0.8"/>
      </g>
     </g>
     <g id="text_7">
      <!-- 10³ -->
      <g transform="translate(26.685 38.772757) scale(0.14 -0.14)">
       <defs>
        <path id="DejaVuSans-b3" d="M 1638 3500 
Q 1925 3444 2083 3273 
Q 2241 3103 2241 2847 
Q 2241 2459 1944 2250 
Q 1647 2041 1094 2041 
Q 916 2041 720 2073 
Q 525 2106 306 2169 
L 306 2547 
Q 469 2463 655 2422 
Q 841 2381 1050 2381 
Q 1391 2381 1578 2504 
Q 1766 2628 1766 2847 
Q 1766 3078 1592 3197 
Q 1419 3316 1081 3316 
L 813 3316 
L 813 3653 
L 1106 3653 
Q 1400 3653 1551 3751 
Q 1703 3850 1703 4038 
Q 1703 4219 1547 4314 
Q 1391 4409 1094 4409 
Q 969 4409 809 4381 
Q 650 4353 397 4281 
L 397 4641 
Q 625 4694 825 4722 
Q 1025 4750 1197 4750 
Q 1647 4750 1911 4565 
Q 2175 4381 2175 4072 
Q 2175 3856 2034 3706 
Q 1894 3556 1638 3500 
z
" transform="scale(0.015625)"/>
       </defs>
       <use xlink:href="#DejaVuSans-31"/>
       <use xlink:href="#DejaVuSans-30" transform="translate(63.623047 0)"/>
       <use xlink:href="#DejaVuSans-b3" transform="translate(127.246094 0)"/>
      </g>
     </g>
    </g>
    <g id="text_8">
     <!-- QPS -->
     <g transform="translate(19.3575 124.2) rotate(-90) scale(0.16 -0.16)">
      <defs>
       <path id="DejaVuSans-51" d="M 2522 4238 
Q 1834 4238 1429 3725 
Q 1025 3213 1025 2328 
Q 1025 1447 1429 934 
Q 1834 422 2522 422 
Q 3209 422 3611 934 
Q 4013 1447 4013 2328 
Q 4013 3213 3611 3725 
Q 3209 4238 2522 4238 
z
M 3406 84 
L 4238 -825 
L 3475 -825 
L 2784 -78 
Q 2681 -84 2626 -87 
Q 2572 -91 2522 -91 
Q 1538 -91 948 567 
Q 359 1225 359 2328 
Q 359 3434 948 4092 
Q 1538 4750 2522 4750 
Q 3503 4750 4090 4092 
Q 4678 3434 4678 2328 
Q 4678 1516 4351 937 
Q 4025 359 3406 84 
z
" transform="scale(0.015625)"/>
       <path id="DejaVuSans-50" d="M 1259 4147 
L 1259 2394 
L 2053 2394 
Q 2494 2394 2734 2622 
Q 2975 2850 2975 3272 
Q 2975 3691 2734 3919 
Q 2494 4147 2053 4147 
L 1259 4147 
z
M 628 4666 
L 2053 4666 
Q 2838 4666 3239 4311 
Q 3641 3956 3641 3272 
Q 3641 2581 3239 2228 
Q 2838 1875 2053 1875 
L 1259 1875 
L 1259 0 
L 628 0 
L 628 4666 
z
" transform="scale(0.015625)"/>
       <path id="DejaVuSans-53" d="M 3425 4513 
L 3425 3897 
Q 3066 4069 2747 4153 
Q 2428 4238 2131 4238 
Q 1616 4238 1336 4038 
Q 1056 3838 1056 3469 
Q 1056 3159 1242 3001 
Q 1428 2844 1947 2747 
L 2328 2669 
Q 3034 2534 3370 2195 
Q 3706 1856 3706 1288 
Q 3706 609 3251 259 
Q 2797 -91 1919 -91 
Q 1588 -91 1214 -16 
Q 841 59 441 206 
L 441 856 
Q 825 641 1194 531 
Q 1563 422 1919 422 
Q 2459 422 2753 634 
Q 3047 847 3047 1241 
Q 3047 1584 2836 1778 
Q 2625 1972 2144 2069 
L 1759 2144 
Q 1053 2284 737 2584 
Q 422 2884 422 3419 
Q 422 4038 858 4394 
Q 1294 4750 2059 4750 
Q 2388 4750 2728 4690 
Q 3069 4631 3425 4513 
z
" transform="scale(0.015625)"/>
      </defs>
      <use xlink:href="#DejaVuSans-51"/>
      <use xlink:href="#DejaVuSans-50" transform="translate(78.710938 0)"/>
      <use xlink:href="#DejaVuSans-53" transform="translate(139.013672 0)"/>
     </g>
    </g>
   </g>
   <g id="line2d_13">
    <path d="M 102.609125 92.583227 
L 155.937125 93.954813 
L 218.153125 94.615845 
L 277.905125 96.967688 
L 312.137125 99.302477 
" clip-path="url(#p5dcda5f923)" style="fill: none; stroke: #e74c3c; stroke-width: 1.2; stroke-linecap: square"/>
    <defs>
     <path id="m4e8490f1a9" d="M 0 4 
C 1.060812 4 2.078319 3.578535 2.828427 2.828427 
C 3.578535 2.078319 4 1.060812 4 0 
C 4 -1.060812 3.578535 -2.078319 2.828427 -2.828427 
C 2.078319 -3.578535 1.060812 -4 0 -4 
C -1.060812 -4 -2.078319 -3.578535 -2.828427 -2.828427 
C -3.578535 -2.078319 -4 -1.060812 -4 0 
C -4 1.060812 -3.578535 2.078319 -2.828427 2.828427 
C -2.078319 3.578535 -1.060812 4 0 4 
z
" style="stroke: #e74c3c; stroke-opacity: 0.8"/>
    </defs>
    <g clip-path="url(#p5dcda5f923)">
     <use xlink:href="#m4e8490f1a9" x="102.609125" y="92.583227" style="fill: #ffffff; fill-opacity: 0.8; stroke: #e74c3c; stroke-opacity: 0.8"/>
     <use xlink:href="#m4e8490f1a9" x="155.937125" y="93.954813" style="fill: #ffffff; fill-opacity: 0.8; stroke: #e74c3c; stroke-opacity: 0.8"/>
     <use xlink:href="#m4e8490f1a9" x="218.153125" y="94.615845" style="fill: #ffffff; fill-opacity: 0.8; stroke: #e74c3c; stroke-opacity: 0.8"/>
     <use xlink:href="#m4e8490f1a9" x="277.905125" y="96.967688" style="fill: #ffffff; fill-opacity: 0.8; stroke: #e74c3c; stroke-opacity: 0.8"/>
     <use xlink:href="#m4e8490f1a9" x="312.137125" y="99.302477" style="fill: #ffffff; fill-opacity: 0.8; stroke: #e74c3c; stroke-opacity: 0.8"/>
    </g>
   </g>
   <g id="line2d_14">
    <path d="M 130.065125 100.493103 
L 164.473125 101.507541 
L 221.849125 101.905134 
L 250.449125 102.617215 
L 282.657125 111.253678 
L 307.385125 117.584102 
L 319.353125 134.391751 
" clip-path="url(#p5dcda5f923)" style="fill: none; stroke-dasharray: 4.44,1.92; stroke-dashoffset: 0; stroke: #f39c12; stroke-width: 1.2"/>
    <defs>
     <path id="mf5b5641d48" d="M -4 4 
L 4 4 
L 4 -4 
L -4 -4 
z
" style="stroke: #f39c12; stroke-opacity: 0.8; stroke-linejoin: miter"/>
    </defs>
    <g clip-path="url(#p5dcda5f923)">
     <use xlink:href="#mf5b5641d48" x="130.065125" y="100.493103" style="fill: #ffffff; fill-opacity: 0.8; stroke: #f39c12; stroke-opacity: 0.8; stroke-linejoin: miter"/>
     <use xlink:href="#mf5b5641d48" x="164.473125" y="101.507541" style="fill: #ffffff; fill-opacity: 0.8; stroke: #f39c12; stroke-opacity: 0.8; stroke-linejoin: miter"/>
     <use xlink:href="#mf5b5641d48" x="221.849125" y="101.905134" style="fill: #ffffff; fill-opacity: 0.8; stroke: #f39c12; stroke-opacity: 0.8; stroke-linejoin: miter"/>
     <use xlink:href="#mf5b5641d48" x="250.449125" y="102.617215" style="fill: #ffffff; fill-opacity: 0.8; stroke: #f39c12; stroke-opacity: 0.8; stroke-linejoin: miter"/>
     <use xlink:href="#mf5b5641d48" x="282.657125" y="111.253678" style="fill: #ffffff; fill-opacity: 0.8; stroke: #f39c12; stroke-opacity: 0.8; stroke-linejoin: miter"/>
     <use xlink:href="#mf5b5641d48" x="307.385125" y="117.584102" style="fill: #ffffff; fill-opacity: 0.8; stroke: #f39c12; stroke-opacity: 0.8; stroke-linejoin: miter"/>
     <use xlink:href="#mf5b5641d48" x="319.353125" y="134.391751" style="fill: #ffffff; fill-opacity: 0.8; stroke: #f39c12; stroke-opacity: 0.8; stroke-linejoin: miter"/>
    </g>
   </g>
   <g id="line2d_15">
    <path d="M 70.753125 98.344675 
L 151.537125 103.283887 
L 186.649125 108.313579 
L 239.273125 110.653601 
L 267.521125 111.6814 
L 294.713125 122.710699 
L 320.057125 147.740102 
" clip-path="url(#p5dcda5f923)" style="fill: none; stroke-dasharray: 7.68,1.92,1.2,1.92; stroke-dashoffset: 0; stroke: #2ecc71; stroke-width: 1.2"/>
    <defs>
     <path id="meeb553853e" d="M 0 -4 
L -4 4 
L 4 4 
z
" style="stroke: #2ecc71; stroke-opacity: 0.8; stroke-linejoin: miter"/>
    </defs>
    <g clip-path="url(#p5dcda5f923)">
     <use xlink:href="#meeb553853e" x="70.753125" y="98.344675" style="fill: #ffffff; fill-opacity: 0.8; stroke: #2ecc71; stroke-opacity: 0.8; stroke-linejoin: miter"/>
     <use xlink:href="#meeb553853e" x="151.537125" y="103.283887" style="fill: #ffffff; fill-opacity: 0.8; stroke: #2ecc71; stroke-opacity: 0.8; stroke-linejoin: miter"/>
     <use xlink:href="#meeb553853e" x="186.649125" y="108.313579" style="fill: #ffffff; fill-opacity: 0.8; stroke: #2ecc71; stroke-opacity: 0.8; stroke-linejoin: miter"/>
     <use xlink:href="#meeb553853e" x="239.273125" y="110.653601" style="fill: #ffffff; fill-opacity: 0.8; stroke: #2ecc71; stroke-opacity: 0.8; stroke-linejoin: miter"/>
     <use xlink:href="#meeb553853e" x="267.521125" y="111.6814" style="fill: #ffffff; fill-opacity: 0.8; stroke: #2ecc71; stroke-opacity: 0.8; stroke-linejoin: miter"/>
     <use xlink:href="#meeb553853e" x="294.713125" y="122.710699" style="fill: #ffffff; fill-opacity: 0.8; stroke: #2ecc71; stroke-opacity: 0.8; stroke-linejoin: miter"/>
     <use xlink:href="#meeb553853e" x="320.057125" y="147.740102" style="fill: #ffffff; fill-opacity: 0.8; stroke: #2ecc71; stroke-opacity: 0.8; stroke-linejoin: miter"/>
    </g>
   </g>
   <g id="line2d_16">
    <path d="M 84.305125 102.211493 
L 162.713125 104.009454 
L 198.617125 107.074542 
L 246.665125 111.475827 
L 273.505125 124.791963 
L 298.321125 131.109152 
L 320.409125 159.246527 
" clip-path="url(#p5dcda5f923)" style="fill: none; stroke: #9b59b6; stroke-width: 1.2; stroke-linecap: square"/>
    <defs>
     <path id="mf4b85f5e2b" d="M -0 5.656854 
L 5.656854 0 
L 0 -5.656854 
L -5.656854 -0 
z
" style="stroke: #9b59b6; stroke-opacity: 0.8; stroke-linejoin: miter"/>
    </defs>
    <g clip-path="url(#p5dcda5f923)">
     <use xlink:href="#mf4b85f5e2b" x="84.305125" y="102.211493" style="fill: #ffffff; fill-opacity: 0.8; stroke: #9b59b6; stroke-opacity: 0.8; stroke-linejoin: miter"/>
     <use xlink:href="#mf4b85f5e2b" x="162.713125" y="104.009454" style="fill: #ffffff; fill-opacity: 0.8; stroke: #9b59b6; stroke-opacity: 0.8; stroke-linejoin: miter"/>
     <use xlink:href="#mf4b85f5e2b" x="198.617125" y="107.074542" style="fill: #ffffff; fill-opacity: 0.8; stroke: #9b59b6; stroke-opacity: 0.8; stroke-linejoin: miter"/>
     <use xlink:href="#mf4b85f5e2b" x="246.665125" y="111.475827" style="fill: #ffffff; fill-opacity: 0.8; stroke: #9b59b6; stroke-opacity: 0.8; stroke-linejoin: miter"/>
     <use xlink:href="#mf4b85f5e2b" x="273.505125" y="124.791963" style="fill: #ffffff; fill-opacity: 0.8; stroke: #9b59b6; stroke-opacity: 0.8; stroke-linejoin: miter"/>
     <use xlink:href="#mf4b85f5e2b" x="298.321125" y="131.109152" style="fill: #ffffff; fill-opacity: 0.8; stroke: #9b59b6; stroke-opacity: 0.8; stroke-linejoin: miter"/>
     <use xlink:href="#mf4b85f5e2b" x="320.409125" y="159.246527" style="fill: #ffffff; fill-opacity: 0.8; stroke: #9b59b6; stroke-opacity: 0.8; stroke-linejoin: miter"/>
    </g>
   </g>
   <g id="line2d_17">
    <path d="M 277.113125 208.8 
L 277.113125 7.2 
" clip-path="url(#p5dcda5f923)" style="fill: none; stroke-dasharray: 5.55,2.4; stroke-dashoffset: 0; stroke: #808080; stroke-opacity: 0.7; stroke-width: 1.5"/>
   </g>
   <g id="patch_3">
    <path d="M 57.113125 208.8 
L 57.113125 7.2 
" style="fill: none; stroke: #000000; stroke-width: 0.8; stroke-linejoin: miter; stroke-linecap: square"/>
   </g>
   <g id="patch_4">
    <path d="M 329.913125 208.8 
L 329.913125 7.2 
" style="fill: none; stroke: #000000; stroke-width: 0.8; stroke-linejoin: miter; stroke-linecap: square"/>
   </g>
   <g id="patch_5">
    <path d="M 57.113125 208.8 
L 329.913125 208.8 
" style="fill: none; stroke: #000000; stroke-width: 0.8; stroke-linejoin: miter; stroke-linecap: square"/>
   </g>
   <g id="patch_6">
    <path d="M 57.113125 7.2 
L 329.913125 7.2 
" style="fill: none; stroke: #000000; stroke-width: 0.8; stroke-linejoin: miter; stroke-linecap: square"/>
   </g>
   <g id="text_9">
    <!-- 1% ≈ 25% ≈ 50% ≈ 75% -->
    <g style="fill: #ff0000" transform="translate(65.297125 188.64) scale(0.16 -0.16)">
     <defs>
      <path id="DejaVuSans-25" d="M 4653 2053 
Q 4381 2053 4226 1822 
Q 4072 1591 4072 1178 
Q 4072 772 4226 539 
Q 4381 306 4653 306 
Q 4919 306 5073 539 
Q 5228 772 5228 1178 
Q 5228 1588 5073 1820 
Q 4919 2053 4653 2053 
z
M 4653 2450 
Q 5147 2450 5437 2106 
Q 5728 1763 5728 1178 
Q 5728 594 5436 251 
Q 5144 -91 4653 -91 
Q 4153 -91 3862 251 
Q 3572 594 3572 1178 
Q 3572 1766 3864 2108 
Q 4156 2450 4653 2450 
z
M 1428 4353 
Q 1159 4353 1004 4120 
Q 850 3888 850 3481 
Q 850 3069 1003 2837 
Q 1156 2606 1428 2606 
Q 1700 2606 1854 2837 
Q 2009 3069 2009 3481 
Q 2009 3884 1853 4118 
Q 1697 4353 1428 4353 
z
M 4250 4750 
L 4750 4750 
L 1831 -91 
L 1331 -91 
L 4250 4750 
z
M 1428 4750 
Q 1922 4750 2215 4408 
Q 2509 4066 2509 3481 
Q 2509 2891 2217 2550 
Q 1925 2209 1428 2209 
Q 931 2209 642 2551 
Q 353 2894 353 3481 
Q 353 4063 643 4406 
Q 934 4750 1428 4750 
z
" transform="scale(0.015625)"/>
      <path id="DejaVuSans-20" transform="scale(0.015625)"/>
      <path id="DejaVuSans-2248" d="M 4684 1947 
L 4684 1388 
Q 4356 1144 4076 1036 
Q 3797 928 3494 928 
Q 3150 928 2694 1113 
Q 2663 1125 2641 1134 
Q 2622 1141 2575 1159 
Q 2091 1350 1797 1350 
Q 1522 1350 1253 1231 
Q 984 1113 678 850 
L 678 1409 
Q 1006 1653 1286 1761 
Q 1566 1869 1869 1869 
Q 2213 1869 2672 1684 
Q 2706 1669 2722 1663 
Q 2741 1656 2788 1638 
Q 3272 1447 3566 1447 
Q 3834 1447 4098 1564 
Q 4363 1681 4684 1947 
z
M 4684 3163 
L 4684 2606 
Q 4356 2359 4076 2251 
Q 3797 2144 3494 2144 
Q 3150 2144 2694 2328 
Q 2663 2341 2641 2350 
Q 2622 2356 2575 2375 
Q 2091 2566 1797 2566 
Q 1522 2566 1253 2447 
Q 984 2328 678 2069 
L 678 2625 
Q 1006 2869 1286 2976 
Q 1566 3084 1869 3084 
Q 2213 3084 2672 2900 
Q 2703 2888 2719 2881 
Q 2741 2872 2788 2853 
Q 3272 2663 3566 2663 
Q 3834 2663 4098 2780 
Q 4363 2897 4684 3163 
z
" transform="scale(0.015625)"/>
      <path id="DejaVuSans-32" d="M 1228 531 
L 3431 531 
L 3431 0 
L 469 0 
L 469 531 
Q 828 903 1448 1529 
Q 2069 2156 2228 2338 
Q 2531 2678 2651 2914 
Q 2772 3150 2772 3378 
Q 2772 3750 2511 3984 
Q 2250 4219 1831 4219 
Q 1534 4219 1204 4116 
Q 875 4013 500 3803 
L 500 4441 
Q 881 4594 1212 4672 
Q 1544 4750 1819 4750 
Q 2544 4750 2975 4387 
Q 3406 4025 3406 3419 
Q 3406 3131 3298 2873 
Q 3191 2616 2906 2266 
Q 2828 2175 2409 1742 
Q 1991 1309 1228 531 
z
" transform="scale(0.015625)"/>
      <path id="DejaVuSans-35" d="M 691 4666 
L 3169 4666 
L 3169 4134 
L 1269 4134 
L 1269 2991 
Q 1406 3038 1543 3061 
Q 1681 3084 1819 3084 
Q 2600 3084 3056 2656 
Q 3513 2228 3513 1497 
Q 3513 744 3044 326 
Q 2575 -91 1722 -91 
Q 1428 -91 1123 -41 
Q 819 9 494 109 
L 494 744 
Q 775 591 1075 516 
Q 1375 441 1709 441 
Q 2250 441 2565 725 
Q 2881 1009 2881 1497 
Q 2881 1984 2565 2268 
Q 2250 2553 1709 2553 
Q 1456 2553 1204 2497 
Q 953 2441 691 2322 
L 691 4666 
z
" transform="scale(0.015625)"/>
     </defs>
     <use xlink:href="#DejaVuSans-31"/>
     <use xlink:href="#DejaVuSans-25" transform="translate(63.623047 0)"/>
     <use xlink:href="#DejaVuSans-20" transform="translate(158.642578 0)"/>
     <use xlink:href="#DejaVuSans-2248" transform="translate(190.429688 0)"/>
     <use xlink:href="#DejaVuSans-20" transform="translate(274.21875 0)"/>
     <use xlink:href="#DejaVuSans-32" transform="translate(306.005859 0)"/>
     <use xlink:href="#DejaVuSans-35" transform="translate(369.628906 0)"/>
     <use xlink:href="#DejaVuSans-25" transform="translate(433.251953 0)"/>
     <use xlink:href="#DejaVuSans-20" transform="translate(528.271484 0)"/>
     <use xlink:href="#DejaVuSans-2248" transform="translate(560.058594 0)"/>
     <use xlink:href="#DejaVuSans-20" transform="translate(643.847656 0)"/>
     <use xlink:href="#DejaVuSans-35" transform="translate(675.634766 0)"/>
     <use xlink:href="#DejaVuSans-30" transform="translate(739.257812 0)"/>
     <use xlink:href="#DejaVuSans-25" transform="translate(802.880859 0)"/>
     <use xlink:href="#DejaVuSans-20" transform="translate(897.900391 0)"/>
     <use xlink:href="#DejaVuSans-2248" transform="translate(929.6875 0)"/>
     <use xlink:href="#DejaVuSans-20" transform="translate(1013.476562 0)"/>
     <use xlink:href="#DejaVuSans-37" transform="translate(1045.263672 0)"/>
     <use xlink:href="#DejaVuSans-35" transform="translate(1108.886719 0)"/>
     <use xlink:href="#DejaVuSans-25" transform="translate(1172.509766 0)"/>
    </g>
   </g>
  </g>
  <g id="axes_2">
   <g id="patch_7">
    <path d="M 398.113125 208.8 
L 670.913125 208.8 
L 670.913125 7.2 
L 398.113125 7.2 
z
" style="fill: #ffffff"/>
   </g>
   <g id="matplotlib.axis_3">
    <g id="xtick_5">
     <g id="line2d_18">
      <path d="M 398.113125 208.8 
L 398.113125 7.2 
" clip-path="url(#pc645c3e5f4)" style="fill: none; stroke-dasharray: 0.8,1.32; stroke-dashoffset: 0; stroke: #b0b0b0; stroke-opacity: 0.6; stroke-width: 0.8"/>
     </g>
     <g id="line2d_19">
      <g>
       <use xlink:href="#m89b1f3f2e8" x="398.113125" y="208.8" style="stroke: #000000; stroke-width: 0.8"/>
      </g>
     </g>
     <g id="text_10">
      <!-- 0.7 -->
      <g transform="translate(386.980937 226.437813) scale(0.14 -0.14)">
       <use xlink:href="#DejaVuSans-30"/>
       <use xlink:href="#DejaVuSans-2e" transform="translate(63.623047 0)"/>
       <use xlink:href="#DejaVuSans-37" transform="translate(95.410156 0)"/>
      </g>
     </g>
    </g>
    <g id="xtick_6">
     <g id="line2d_20">
      <path d="M 486.113125 208.8 
L 486.113125 7.2 
" clip-path="url(#pc645c3e5f4)" style="fill: none; stroke-dasharray: 0.8,1.32; stroke-dashoffset: 0; stroke: #b0b0b0; stroke-opacity: 0.6; stroke-width: 0.8"/>
     </g>
     <g id="line2d_21">
      <g>
       <use xlink:href="#m89b1f3f2e8" x="486.113125" y="208.8" style="stroke: #000000; stroke-width: 0.8"/>
      </g>
     </g>
     <g id="text_11">
      <!-- 0.8 -->
      <g transform="translate(474.980937 226.437813) scale(0.14 -0.14)">
       <use xlink:href="#DejaVuSans-30"/>
       <use xlink:href="#DejaVuSans-2e" transform="translate(63.623047 0)"/>
       <use xlink:href="#DejaVuSans-38" transform="translate(95.410156 0)"/>
      </g>
     </g>
    </g>
    <g id="xtick_7">
     <g id="line2d_22">
      <path d="M 574.113125 208.8 
L 574.113125 7.2 
" clip-path="url(#pc645c3e5f4)" style="fill: none; stroke-dasharray: 0.8,1.32; stroke-dashoffset: 0; stroke: #b0b0b0; stroke-opacity: 0.6; stroke-width: 0.8"/>
     </g>
     <g id="line2d_23">
      <g>
       <use xlink:href="#m89b1f3f2e8" x="574.113125" y="208.8" style="stroke: #000000; stroke-width: 0.8"/>
      </g>
     </g>
     <g id="text_12">
      <!-- 0.9 -->
      <g transform="translate(562.980937 226.437813) scale(0.14 -0.14)">
       <use xlink:href="#DejaVuSans-30"/>
       <use xlink:href="#DejaVuSans-2e" transform="translate(63.623047 0)"/>
       <use xlink:href="#DejaVuSans-39" transform="translate(95.410156 0)"/>
      </g>
     </g>
    </g>
    <g id="xtick_8">
     <g id="line2d_24">
      <path d="M 662.113125 208.8 
L 662.113125 7.2 
" clip-path="url(#pc645c3e5f4)" style="fill: none; stroke-dasharray: 0.8,1.32; stroke-dashoffset: 0; stroke: #b0b0b0; stroke-opacity: 0.6; stroke-width: 0.8"/>
     </g>
     <g id="line2d_25">
      <g>
       <use xlink:href="#m89b1f3f2e8" x="662.113125" y="208.8" style="stroke: #000000; stroke-width: 0.8"/>
      </g>
     </g>
     <g id="text_13">
      <!-- 1.0 -->
      <g transform="translate(650.980937 226.437813) scale(0.14 -0.14)">
       <use xlink:href="#DejaVuSans-31"/>
       <use xlink:href="#DejaVuSans-2e" transform="translate(63.623047 0)"/>
       <use xlink:href="#DejaVuSans-30" transform="translate(95.410156 0)"/>
      </g>
     </g>
    </g>
    <g id="text_14">
     <!-- (b) Recall@10 (ACORN-γ) -->
     <g transform="translate(428.2225 247.50875) scale(0.2 -0.2)">
      <defs>
       <path id="LinLibertineO-62" d="M 1114 2323 
C 1280 2470 1472 2528 1658 2528 
C 2048 2528 2368 2054 2368 1434 
C 2368 704 2074 154 1466 154 
C 1267 154 1133 294 1005 454 
L 1005 2054 
C 1005 2189 1030 2246 1114 2323 
z
M 1069 2522 
C 1024 2483 1005 2496 1005 2554 
L 1005 3731 
C 1005 4147 1030 4403 1030 4403 
C 1030 4448 1005 4467 947 4467 
C 787 4403 307 4314 51 4294 
C 38 4243 51 4141 90 4102 
C 422 4083 499 4115 499 3578 
L 499 454 
C 499 205 493 90 474 0 
C 506 -51 538 -77 614 -77 
C 653 -45 717 19 762 77 
C 832 154 870 154 941 90 
C 1082 -32 1274 -64 1504 -64 
C 2157 -64 2918 531 2918 1549 
C 2918 2330 2342 2810 1786 2810 
C 1510 2810 1267 2701 1069 2522 
z
" transform="scale(0.015625)"/>
       <path id="LinLibertineO-41" d="M 1683 1811 
C 1542 1811 1498 1830 1517 1894 
L 2176 3552 
L 2214 3552 
L 2816 1811 
L 1683 1811 
z
M 992 506 
L 1344 1434 
C 1376 1517 1414 1542 1568 1542 
L 2918 1542 
L 3290 461 
C 3360 237 3117 218 2816 198 
C 2778 160 2778 26 2816 -13 
C 3053 -6 3405 0 3654 0 
C 3917 0 4160 -6 4384 -13 
C 4422 26 4422 160 4384 198 
C 4134 218 3917 237 3808 550 
L 2490 4211 
C 2394 4154 2221 4083 2138 4083 
L 685 653 
C 518 256 320 218 45 198 
C 6 160 6 26 45 -13 
C 211 -6 416 0 614 0 
C 877 0 1197 -6 1434 -13 
C 1472 26 1472 160 1434 198 
C 1190 211 890 237 992 506 
z
" transform="scale(0.015625)"/>
       <path id="LinLibertineO-43" d="M 2285 -64 
C 2906 -64 3475 230 3910 800 
C 3878 858 3834 896 3763 896 
C 3309 397 2874 198 2278 198 
C 1414 198 819 1171 819 2106 
C 819 2656 960 3117 1197 3405 
C 1517 3795 1888 3974 2221 3974 
C 3104 3974 3456 3450 3622 2899 
C 3699 2874 3757 2893 3834 2931 
C 3802 3264 3757 3571 3693 3923 
C 3366 3955 3078 4211 2291 4211 
C 1747 4211 1293 4013 915 3667 
C 486 3277 237 2650 237 1984 
C 237 870 909 -64 2285 -64 
z
" transform="scale(0.015625)"/>
       <path id="LinLibertineO-4f" d="M 2118 3981 
C 2963 3981 3648 3277 3648 1984 
C 3648 838 3098 166 2368 166 
C 1587 166 851 864 851 2093 
C 851 3437 1485 3981 2118 3981 
z
M 4262 2106 
C 4262 3430 3347 4211 2202 4211 
C 960 4211 237 3219 237 1984 
C 237 723 1152 -64 2240 -64 
C 2944 -64 3514 237 3866 742 
C 4122 1101 4262 1568 4262 2106 
z
" transform="scale(0.015625)"/>
       <path id="LinLibertineO-4e" d="M 3558 3277 
L 3558 1184 
C 3558 1062 3558 992 3514 992 
C 3488 992 3392 1107 3206 1344 
L 1011 4128 
L 147 4141 
C 109 4102 109 3968 147 3930 
C 422 3910 614 3686 653 3520 
L 653 851 
C 653 282 544 243 96 198 
C 58 160 58 26 96 -13 
C 371 -6 659 0 813 0 
C 960 0 1254 -6 1523 -13 
C 1562 26 1562 160 1523 198 
C 1075 243 966 269 966 851 
L 966 2810 
C 966 3027 966 3123 1018 3123 
C 1056 3123 1126 3053 1235 2912 
L 3469 90 
C 3539 -6 3622 -64 3725 -64 
C 3814 -64 3872 13 3872 134 
L 3872 3277 
C 3872 3846 3981 3885 4429 3930 
C 4467 3968 4467 4102 4429 4141 
C 4166 4134 3859 4128 3712 4128 
C 3571 4128 3283 4134 3002 4141 
C 2963 4102 2963 3968 3002 3930 
C 3450 3885 3558 3859 3558 3277 
z
" transform="scale(0.015625)"/>
       <path id="LinLibertineO-2d" d="M 1734 1427 
C 1818 1427 1907 1606 1907 1683 
C 1907 1747 1882 1811 1818 1811 
L 416 1811 
C 339 1811 256 1664 256 1549 
C 256 1485 294 1427 352 1427 
L 1734 1427 
z
" transform="scale(0.015625)"/>
       <path id="LinLibertineO-3b3" d="M 1619 -186 
C 1715 -550 1747 -800 1747 -973 
C 1747 -1139 1715 -1254 1626 -1254 
C 1530 -1254 1478 -1075 1478 -819 
C 1478 -672 1530 -448 1619 -186 
z
M 1222 -864 
C 1222 -1133 1344 -1504 1632 -1504 
C 2010 -1504 2086 -1178 2086 -768 
C 2086 -608 2022 -198 1920 230 
C 1907 294 1888 358 1875 422 
C 1933 550 1997 685 2061 813 
L 2752 2125 
C 2893 2387 2989 2573 3168 2790 
L 3136 2803 
C 2989 2758 2918 2758 2829 2758 
C 2778 2758 2547 2765 2477 2790 
C 2458 2618 2381 2355 2298 2138 
C 2125 1670 1946 1165 1779 749 
C 1574 1427 1286 2099 1011 2746 
C 986 2797 954 2829 896 2829 
C 742 2758 422 2675 102 2592 
C 70 2528 83 2458 134 2394 
C 243 2394 301 2400 371 2400 
C 480 2400 582 2413 678 2202 
C 954 1619 1318 845 1523 173 
L 1350 -230 
C 1267 -429 1222 -659 1222 -864 
z
" transform="scale(0.015625)"/>
      </defs>
      <use xlink:href="#LinLibertineO-28"/>
      <use xlink:href="#LinLibertineO-62" transform="translate(29.799988 0)"/>
      <use xlink:href="#LinLibertineO-29" transform="translate(79.099976 0)"/>
      <use xlink:href="#LinLibertineO-20" transform="translate(108.899963 0)"/>
      <use xlink:href="#LinLibertineO-52" transform="translate(133.899948 0)"/>
      <use xlink:href="#LinLibertineO-65" transform="translate(192.599945 0)"/>
      <use xlink:href="#LinLibertineO-63" transform="translate(237.299942 0)"/>
      <use xlink:href="#LinLibertineO-61" transform="translate(280.09993 0)"/>
      <use xlink:href="#LinLibertineO-6c" transform="translate(325.799927 0)"/>
      <use xlink:href="#LinLibertineO-6c" transform="translate(352.199921 0)"/>
      <use xlink:href="#LinLibertineO-40" transform="translate(378.599915 0)"/>
      <use xlink:href="#LinLibertineO-31" transform="translate(468.099899 0)"/>
      <use xlink:href="#LinLibertineO-30" transform="translate(514.599884 0)"/>
      <use xlink:href="#LinLibertineO-20" transform="translate(561.099869 0)"/>
      <use xlink:href="#LinLibertineO-28" transform="translate(586.099854 0)"/>
      <use xlink:href="#LinLibertineO-41" transform="translate(615.899841 0)"/>
      <use xlink:href="#LinLibertineO-43" transform="translate(685.399826 0)"/>
      <use xlink:href="#LinLibertineO-4f" transform="translate(749.999817 0)"/>
      <use xlink:href="#LinLibertineO-52" transform="translate(820.199799 0)"/>
      <use xlink:href="#LinLibertineO-4e" transform="translate(878.899796 0)"/>
      <use xlink:href="#LinLibertineO-2d" transform="translate(948.799789 0)"/>
      <use xlink:href="#LinLibertineO-3b3" transform="translate(982.599777 0)"/>
      <use xlink:href="#LinLibertineO-29" transform="translate(1033.099762 0)"/>
     </g>
    </g>
   </g>
   <g id="matplotlib.axis_4">
    <g id="ytick_3">
     <g id="line2d_26">
      <path d="M 398.113125 198.209885 
L 670.913125 198.209885 
" clip-path="url(#pc645c3e5f4)" style="fill: none; stroke-dasharray: 0.8,1.32; stroke-dashoffset: 0; stroke: #b0b0b0; stroke-opacity: 0.6; stroke-width: 0.8"/>
     </g>
     <g id="line2d_27">
      <g>
       <use xlink:href="#mebbd5abfd8" x="398.113125" y="198.209885" style="stroke: #000000; stroke-width: 0.8"/>
      </g>
     </g>
     <g id="text_15">
      <!-- 10¹ -->
      <g transform="translate(367.685 203.528791) scale(0.14 -0.14)">
       <defs>
        <path id="DejaVuSans-b9" d="M 488 2431 
L 1125 2431 
L 1125 4341 
L 428 4213 
L 428 4575 
L 1147 4697 
L 1575 4697 
L 1575 2431 
L 2216 2431 
L 2216 2088 
L 488 2088 
L 488 2431 
z
" transform="scale(0.015625)"/>
       </defs>
       <use xlink:href="#DejaVuSans-31"/>
       <use xlink:href="#DejaVuSans-30" transform="translate(63.623047 0)"/>
       <use xlink:href="#DejaVuSans-b9" transform="translate(127.246094 0)"/>
      </g>
     </g>
    </g>
    <g id="ytick_4">
     <g id="line2d_28">
      <path d="M 398.113125 138.069962 
L 670.913125 138.069962 
" clip-path="url(#pc645c3e5f4)" style="fill: none; stroke-dasharray: 0.8,1.32; stroke-dashoffset: 0; stroke: #b0b0b0; stroke-opacity: 0.6; stroke-width: 0.8"/>
     </g>
     <g id="line2d_29">
      <g>
       <use xlink:href="#mebbd5abfd8" x="398.113125" y="138.069962" style="stroke: #000000; stroke-width: 0.8"/>
      </g>
     </g>
     <g id="text_16">
      <!-- 10² -->
      <g transform="translate(367.685 143.388868) scale(0.14 -0.14)">
       <use xlink:href="#DejaVuSans-31"/>
       <use xlink:href="#DejaVuSans-30" transform="translate(63.623047 0)"/>
       <use xlink:href="#DejaVuSans-b2" transform="translate(127.246094 0)"/>
      </g>
     </g>
    </g>
    <g id="ytick_5">
     <g id="line2d_30">
      <path d="M 398.113125 77.930038 
L 670.913125 77.930038 
" clip-path="url(#pc645c3e5f4)" style="fill: none; stroke-dasharray: 0.8,1.32; stroke-dashoffset: 0; stroke: #b0b0b0; stroke-opacity: 0.6; stroke-width: 0.8"/>
     </g>
     <g id="line2d_31">
      <g>
       <use xlink:href="#mebbd5abfd8" x="398.113125" y="77.930038" style="stroke: #000000; stroke-width: 0.8"/>
      </g>
     </g>
     <g id="text_17">
      <!-- 10³ -->
      <g transform="translate(367.685 83.248945) scale(0.14 -0.14)">
       <use xlink:href="#DejaVuSans-31"/>
       <use xlink:href="#DejaVuSans-30" transform="translate(63.623047 0)"/>
       <use xlink:href="#DejaVuSans-b3" transform="translate(127.246094 0)"/>
      </g>
     </g>
    </g>
    <g id="ytick_6">
     <g id="line2d_32">
      <path d="M 398.113125 17.790115 
L 670.913125 17.790115 
" clip-path="url(#pc645c3e5f4)" style="fill: none; stroke-dasharray: 0.8,1.32; stroke-dashoffset: 0; stroke: #b0b0b0; stroke-opacity: 0.6; stroke-width: 0.8"/>
     </g>
     <g id="line2d_33">
      <g>
       <use xlink:href="#mebbd5abfd8" x="398.113125" y="17.790115" style="stroke: #000000; stroke-width: 0.8"/>
      </g>
     </g>
     <g id="text_18">
      <!-- 10⁴ -->
      <g transform="translate(367.685 23.109021) scale(0.14 -0.14)">
       <defs>
        <path id="DejaVuSans-2074" d="M 1491 4319 
L 525 3009 
L 1491 3009 
L 1491 4319 
z
M 1422 4697 
L 1941 4697 
L 1941 3009 
L 2363 3009 
L 2363 2669 
L 1941 2669 
L 1941 2088 
L 1491 2088 
L 1491 2669 
L 197 2669 
L 197 3047 
L 1422 4697 
z
" transform="scale(0.015625)"/>
       </defs>
       <use xlink:href="#DejaVuSans-31"/>
       <use xlink:href="#DejaVuSans-30" transform="translate(63.623047 0)"/>
       <use xlink:href="#DejaVuSans-2074" transform="translate(127.246094 0)"/>
      </g>
     </g>
    </g>
   </g>
   <g id="line2d_34">
    <path d="M 434.562725 62.043264 
L 468.539525 65.524986 
L 495.370725 68.251871 
L 559.144325 76.536341 
L 589.205125 83.559348 
L 630.283525 97.582949 
L 655.319525 123.975853 
L 658.408325 140.550407 
" clip-path="url(#pc645c3e5f4)" style="fill: none; stroke: #e74c3c; stroke-width: 1.2; stroke-linecap: square"/>
    <g clip-path="url(#pc645c3e5f4)">
     <use xlink:href="#m4e8490f1a9" x="434.562725" y="62.043264" style="fill: #ffffff; fill-opacity: 0.8; stroke: #e74c3c; stroke-opacity: 0.8"/>
     <use xlink:href="#m4e8490f1a9" x="468.539525" y="65.524986" style="fill: #ffffff; fill-opacity: 0.8; stroke: #e74c3c; stroke-opacity: 0.8"/>
     <use xlink:href="#m4e8490f1a9" x="495.370725" y="68.251871" style="fill: #ffffff; fill-opacity: 0.8; stroke: #e74c3c; stroke-opacity: 0.8"/>
     <use xlink:href="#m4e8490f1a9" x="559.144325" y="76.536341" style="fill: #ffffff; fill-opacity: 0.8; stroke: #e74c3c; stroke-opacity: 0.8"/>
     <use xlink:href="#m4e8490f1a9" x="589.205125" y="83.559348" style="fill: #ffffff; fill-opacity: 0.8; stroke: #e74c3c; stroke-opacity: 0.8"/>
     <use xlink:href="#m4e8490f1a9" x="630.283525" y="97.582949" style="fill: #ffffff; fill-opacity: 0.8; stroke: #e74c3c; stroke-opacity: 0.8"/>
     <use xlink:href="#m4e8490f1a9" x="655.319525" y="123.975853" style="fill: #ffffff; fill-opacity: 0.8; stroke: #e74c3c; stroke-opacity: 0.8"/>
     <use xlink:href="#m4e8490f1a9" x="658.408325" y="140.550407" style="fill: #ffffff; fill-opacity: 0.8; stroke: #e74c3c; stroke-opacity: 0.8"/>
    </g>
   </g>
   <g id="line2d_35">
    <path d="M 460.786725 55.21237 
L 507.954725 59.118322 
L 538.657925 59.96045 
L 560.965925 63.528351 
L 589.354725 79.960032 
L 614.056325 81.224275 
L 640.324325 93.275223 
L 661.796325 143.007971 
" clip-path="url(#pc645c3e5f4)" style="fill: none; stroke-dasharray: 4.44,1.92; stroke-dashoffset: 0; stroke: #f39c12; stroke-width: 1.2"/>
    <g clip-path="url(#pc645c3e5f4)">
     <use xlink:href="#mf5b5641d48" x="460.786725" y="55.21237" style="fill: #ffffff; fill-opacity: 0.8; stroke: #f39c12; stroke-opacity: 0.8; stroke-linejoin: miter"/>
     <use xlink:href="#mf5b5641d48" x="507.954725" y="59.118322" style="fill: #ffffff; fill-opacity: 0.8; stroke: #f39c12; stroke-opacity: 0.8; stroke-linejoin: miter"/>
     <use xlink:href="#mf5b5641d48" x="538.657925" y="59.96045" style="fill: #ffffff; fill-opacity: 0.8; stroke: #f39c12; stroke-opacity: 0.8; stroke-linejoin: miter"/>
     <use xlink:href="#mf5b5641d48" x="560.965925" y="63.528351" style="fill: #ffffff; fill-opacity: 0.8; stroke: #f39c12; stroke-opacity: 0.8; stroke-linejoin: miter"/>
     <use xlink:href="#mf5b5641d48" x="589.354725" y="79.960032" style="fill: #ffffff; fill-opacity: 0.8; stroke: #f39c12; stroke-opacity: 0.8; stroke-linejoin: miter"/>
     <use xlink:href="#mf5b5641d48" x="614.056325" y="81.224275" style="fill: #ffffff; fill-opacity: 0.8; stroke: #f39c12; stroke-opacity: 0.8; stroke-linejoin: miter"/>
     <use xlink:href="#mf5b5641d48" x="640.324325" y="93.275223" style="fill: #ffffff; fill-opacity: 0.8; stroke: #f39c12; stroke-opacity: 0.8; stroke-linejoin: miter"/>
     <use xlink:href="#mf5b5641d48" x="661.796325" y="143.007971" style="fill: #ffffff; fill-opacity: 0.8; stroke: #f39c12; stroke-opacity: 0.8; stroke-linejoin: miter"/>
    </g>
   </g>
   <g id="line2d_36">
    <path d="M 418.925125 48.958192 
L 464.878725 50.034422 
L 496.893125 52.884921 
L 519.183525 56.174391 
L 550.740325 61.441651 
L 579.454725 67.559543 
L 613.985925 78.514184 
L 645.683525 97.868072 
L 660.194725 128.605795 
" clip-path="url(#pc645c3e5f4)" style="fill: none; stroke-dasharray: 7.68,1.92,1.2,1.92; stroke-dashoffset: 0; stroke: #2ecc71; stroke-width: 1.2"/>
    <g clip-path="url(#pc645c3e5f4)">
     <use xlink:href="#meeb553853e" x="418.925125" y="48.958192" style="fill: #ffffff; fill-opacity: 0.8; stroke: #2ecc71; stroke-opacity: 0.8; stroke-linejoin: miter"/>
     <use xlink:href="#meeb553853e" x="464.878725" y="50.034422" style="fill: #ffffff; fill-opacity: 0.8; stroke: #2ecc71; stroke-opacity: 0.8; stroke-linejoin: miter"/>
     <use xlink:href="#meeb553853e" x="496.893125" y="52.884921" style="fill: #ffffff; fill-opacity: 0.8; stroke: #2ecc71; stroke-opacity: 0.8; stroke-linejoin: miter"/>
     <use xlink:href="#meeb553853e" x="519.183525" y="56.174391" style="fill: #ffffff; fill-opacity: 0.8; stroke: #2ecc71; stroke-opacity: 0.8; stroke-linejoin: miter"/>
     <use xlink:href="#meeb553853e" x="550.740325" y="61.441651" style="fill: #ffffff; fill-opacity: 0.8; stroke: #2ecc71; stroke-opacity: 0.8; stroke-linejoin: miter"/>
     <use xlink:href="#meeb553853e" x="579.454725" y="67.559543" style="fill: #ffffff; fill-opacity: 0.8; stroke: #2ecc71; stroke-opacity: 0.8; stroke-linejoin: miter"/>
     <use xlink:href="#meeb553853e" x="613.985925" y="78.514184" style="fill: #ffffff; fill-opacity: 0.8; stroke: #2ecc71; stroke-opacity: 0.8; stroke-linejoin: miter"/>
     <use xlink:href="#meeb553853e" x="645.683525" y="97.868072" style="fill: #ffffff; fill-opacity: 0.8; stroke: #2ecc71; stroke-opacity: 0.8; stroke-linejoin: miter"/>
     <use xlink:href="#meeb553853e" x="660.194725" y="128.605795" style="fill: #ffffff; fill-opacity: 0.8; stroke: #2ecc71; stroke-opacity: 0.8; stroke-linejoin: miter"/>
    </g>
   </g>
   <g id="line2d_37">
    <path d="M 421.785125 55.867677 
L 464.297925 60.71932 
L 493.575525 63.427874 
L 531.001925 66.086338 
L 569.466725 74.091619 
L 604.173925 87.765004 
L 637.842725 111.752543 
L 657.501925 141.073088 
" clip-path="url(#pc645c3e5f4)" style="fill: none; stroke: #9b59b6; stroke-width: 1.2; stroke-linecap: square"/>
    <g clip-path="url(#pc645c3e5f4)">
     <use xlink:href="#mf4b85f5e2b" x="421.785125" y="55.867677" style="fill: #ffffff; fill-opacity: 0.8; stroke: #9b59b6; stroke-opacity: 0.8; stroke-linejoin: miter"/>
     <use xlink:href="#mf4b85f5e2b" x="464.297925" y="60.71932" style="fill: #ffffff; fill-opacity: 0.8; stroke: #9b59b6; stroke-opacity: 0.8; stroke-linejoin: miter"/>
     <use xlink:href="#mf4b85f5e2b" x="493.575525" y="63.427874" style="fill: #ffffff; fill-opacity: 0.8; stroke: #9b59b6; stroke-opacity: 0.8; stroke-linejoin: miter"/>
     <use xlink:href="#mf4b85f5e2b" x="531.001925" y="66.086338" style="fill: #ffffff; fill-opacity: 0.8; stroke: #9b59b6; stroke-opacity: 0.8; stroke-linejoin: miter"/>
     <use xlink:href="#mf4b85f5e2b" x="569.466725" y="74.091619" style="fill: #ffffff; fill-opacity: 0.8; stroke: #9b59b6; stroke-opacity: 0.8; stroke-linejoin: miter"/>
     <use xlink:href="#mf4b85f5e2b" x="604.173925" y="87.765004" style="fill: #ffffff; fill-opacity: 0.8; stroke: #9b59b6; stroke-opacity: 0.8; stroke-linejoin: miter"/>
     <use xlink:href="#mf4b85f5e2b" x="637.842725" y="111.752543" style="fill: #ffffff; fill-opacity: 0.8; stroke: #9b59b6; stroke-opacity: 0.8; stroke-linejoin: miter"/>
     <use xlink:href="#mf4b85f5e2b" x="657.501925" y="141.073088" style="fill: #ffffff; fill-opacity: 0.8; stroke: #9b59b6; stroke-opacity: 0.8; stroke-linejoin: miter"/>
    </g>
   </g>
   <g id="line2d_38">
    <path d="M 618.113125 208.8 
L 618.113125 7.2 
" clip-path="url(#pc645c3e5f4)" style="fill: none; stroke-dasharray: 5.55,2.4; stroke-dashoffset: 0; stroke: #808080; stroke-opacity: 0.7; stroke-width: 1.5"/>
   </g>
   <g id="patch_8">
    <path d="M 398.113125 208.8 
L 398.113125 7.2 
" style="fill: none; stroke: #000000; stroke-width: 0.8; stroke-linejoin: miter; stroke-linecap: square"/>
   </g>
   <g id="patch_9">
    <path d="M 670.913125 208.8 
L 670.913125 7.2 
" style="fill: none; stroke: #000000; stroke-width: 0.8; stroke-linejoin: miter; stroke-linecap: square"/>
   </g>
   <g id="patch_10">
    <path d="M 398.113125 208.8 
L 670.913125 208.8 
" style="fill: none; stroke: #000000; stroke-width: 0.8; stroke-linejoin: miter; stroke-linecap: square"/>
   </g>
   <g id="patch_11">
    <path d="M 398.113125 7.2 
L 670.913125 7.2 
" style="fill: none; stroke: #000000; stroke-width: 0.8; stroke-linejoin: miter; stroke-linecap: square"/>
   </g>
   <g id="text_19">
    <!-- 1% ≈ 25% ≈ 50% ≈ 75% -->
    <g style="fill: #ff0000" transform="translate(406.297125 188.64) scale(0.16 -0.16)">
     <use xlink:href="#DejaVuSans-31"/>
     <use xlink:href="#DejaVuSans-25" transform="translate(63.623047 0)"/>
     <use xlink:href="#DejaVuSans-20" transform="translate(158.642578 0)"/>
     <use xlink:href="#DejaVuSans-2248" transform="translate(190.429688 0)"/>
     <use xlink:href="#DejaVuSans-20" transform="translate(274.21875 0)"/>
     <use xlink:href="#DejaVuSans-32" transform="translate(306.005859 0)"/>
     <use xlink:href="#DejaVuSans-35" transform="translate(369.628906 0)"/>
     <use xlink:href="#DejaVuSans-25" transform="translate(433.251953 0)"/>
     <use xlink:href="#DejaVuSans-20" transform="translate(528.271484 0)"/>
     <use xlink:href="#DejaVuSans-2248" transform="translate(560.058594 0)"/>
     <use xlink:href="#DejaVuSans-20" transform="translate(643.847656 0)"/>
     <use xlink:href="#DejaVuSans-35" transform="translate(675.634766 0)"/>
     <use xlink:href="#DejaVuSans-30" transform="translate(739.257812 0)"/>
     <use xlink:href="#DejaVuSans-25" transform="translate(802.880859 0)"/>
     <use xlink:href="#DejaVuSans-20" transform="translate(897.900391 0)"/>
     <use xlink:href="#DejaVuSans-2248" transform="translate(929.6875 0)"/>
     <use xlink:href="#DejaVuSans-20" transform="translate(1013.476562 0)"/>
     <use xlink:href="#DejaVuSans-37" transform="translate(1045.263672 0)"/>
     <use xlink:href="#DejaVuSans-35" transform="translate(1108.886719 0)"/>
     <use xlink:href="#DejaVuSans-25" transform="translate(1172.509766 0)"/>
    </g>
   </g>
  </g>
 </g>
 <defs>
  <clipPath id="p5dcda5f923">
   <rect x="57.113125" y="7.2" width="272.8" height="201.6"/>
  </clipPath>
  <clipPath id="pc645c3e5f4">
   <rect x="398.113125" y="7.2" width="272.8" height="201.6"/>
  </clipPath>
 </defs>
</svg>
