<?xml version="1.0" encoding="utf-8" standalone="no"?>
<!DOCTYPE svg PUBLIC "-//W3C//DTD SVG 1.1//EN"
  "http://www.w3.org/Graphics/SVG/1.1/DTD/svg11.dtd">
<svg xmlns:xlink="http://www.w3.org/1999/xlink" width="1294.70847pt" height="259.19pt" viewBox="0 0 1294.70847 259.19" xmlns="http://www.w3.org/2000/svg" version="1.1">
 <metadata>
  <rdf:RDF xmlns:dc="http://purl.org/dc/elements/1.1/" xmlns:cc="http://creativecommons.org/ns#" xmlns:rdf="http://www.w3.org/1999/02/22-rdf-syntax-ns#">
   <cc:Work>
    <dc:type rdf:resource="http://purl.org/dc/dcmitype/StillImage"/>
    <dc:date>2025-07-17T15:24:39.377783</dc:date>
    <dc:format>image/svg+xml</dc:format>
    <dc:creator>
     <cc:Agent>
      <dc:title>Matplotlib v3.10.1, https://matplotlib.org/</dc:title>
     </cc:Agent>
    </dc:creator>
   </cc:Work>
  </rdf:RDF>
 </metadata>
 <defs>
  <style type="text/css">*{stroke-linejoin: round; stroke-linecap: butt}</style>
 </defs>
 <g id="figure_1">
  <g id="patch_1">
   <path d="M 0 259.19 
L 1294.70847 259.19 
L 1294.70847 0 
L 0 0 
z
" style="fill: #ffffff"/>
  </g>
  <g id="axes_1">
   <g id="patch_2">
    <path d="M 57.113125 208.8 
L 315.55523 208.8 
L 315.55523 7.2 
L 57.113125 7.2 
z
" style="fill: #ffffff"/>
   </g>
   <g id="matplotlib.axis_1">
    <g id="xtick_1">
     <g id="line2d_1">
      <path d="M 57.113125 208.8 
L 57.113125 7.2 
" clip-path="url(#pa3c055d699)" style="fill: none; stroke-dasharray: 0.8,1.32; stroke-dashoffset: 0; stroke: #b0b0b0; stroke-opacity: 0.6; stroke-width: 0.8"/>
     </g>
     <g id="line2d_2">
      <defs>
       <path id="m12647971b6" d="M 0 0 
L 0 3.5 
" style="stroke: #000000; stroke-width: 0.8"/>
      </defs>
      <g>
       <use xlink:href="#m12647971b6" x="57.113125" y="208.8" style="stroke: #000000; stroke-width: 0.8"/>
      </g>
     </g>
     <g id="text_1">
      <!-- 0.7 -->
      <g transform="translate(45.980938 226.437813) scale(0.14 -0.14)">
       <defs>
        <path id="DejaVuSans-30" d="M 2034 4250 
Q 1547 4250 1301 3770 
Q 1056 3291 1056 2328 
Q 1056 1369 1301 889 
Q 1547 409 2034 409 
Q 2525 409 2770 889 
Q 3016 1369 3016 2328 
Q 3016 3291 2770 3770 
Q 2525 4250 2034 4250 
z
M 2034 4750 
Q 2819 4750 3233 4129 
Q 3647 3509 3647 2328 
Q 3647 1150 3233 529 
Q 2819 -91 2034 -91 
Q 1250 -91 836 529 
Q 422 1150 422 2328 
Q 422 3509 836 4129 
Q 1250 4750 2034 4750 
z
" transform="scale(0.015625)"/>
        <path id="DejaVuSans-2e" d="M 684 794 
L 1344 794 
L 1344 0 
L 684 0 
L 684 794 
z
" transform="scale(0.015625)"/>
        <path id="DejaVuSans-37" d="M 525 4666 
L 3525 4666 
L 3525 4397 
L 1831 0 
L 1172 0 
L 2766 4134 
L 525 4134 
L 525 4666 
z
" transform="scale(0.015625)"/>
       </defs>
       <use xlink:href="#DejaVuSans-30"/>
       <use xlink:href="#DejaVuSans-2e" transform="translate(63.623047 0)"/>
       <use xlink:href="#DejaVuSans-37" transform="translate(95.410156 0)"/>
      </g>
     </g>
    </g>
    <g id="xtick_2">
     <g id="line2d_3">
      <path d="M 140.481546 208.8 
L 140.481546 7.2 
" clip-path="url(#pa3c055d699)" style="fill: none; stroke-dasharray: 0.8,1.32; stroke-dashoffset: 0; stroke: #b0b0b0; stroke-opacity: 0.6; stroke-width: 0.8"/>
     </g>
     <g id="line2d_4">
      <g>
       <use xlink:href="#m12647971b6" x="140.481546" y="208.8" style="stroke: #000000; stroke-width: 0.8"/>
      </g>
     </g>
     <g id="text_2">
      <!-- 0.8 -->
      <g transform="translate(129.349359 226.437813) scale(0.14 -0.14)">
       <defs>
        <path id="DejaVuSans-38" d="M 2034 2216 
Q 1584 2216 1326 1975 
Q 1069 1734 1069 1313 
Q 1069 891 1326 650 
Q 1584 409 2034 409 
Q 2484 409 2743 651 
Q 3003 894 3003 1313 
Q 3003 1734 2745 1975 
Q 2488 2216 2034 2216 
z
M 1403 2484 
Q 997 2584 770 2862 
Q 544 3141 544 3541 
Q 544 4100 942 4425 
Q 1341 4750 2034 4750 
Q 2731 4750 3128 4425 
Q 3525 4100 3525 3541 
Q 3525 3141 3298 2862 
Q 3072 2584 2669 2484 
Q 3125 2378 3379 2068 
Q 3634 1759 3634 1313 
Q 3634 634 3220 271 
Q 2806 -91 2034 -91 
Q 1263 -91 848 271 
Q 434 634 434 1313 
Q 434 1759 690 2068 
Q 947 2378 1403 2484 
z
M 1172 3481 
Q 1172 3119 1398 2916 
Q 1625 2713 2034 2713 
Q 2441 2713 2670 2916 
Q 2900 3119 2900 3481 
Q 2900 3844 2670 4047 
Q 2441 4250 2034 4250 
Q 1625 4250 1398 4047 
Q 1172 3844 1172 3481 
z
" transform="scale(0.015625)"/>
       </defs>
       <use xlink:href="#DejaVuSans-30"/>
       <use xlink:href="#DejaVuSans-2e" transform="translate(63.623047 0)"/>
       <use xlink:href="#DejaVuSans-38" transform="translate(95.410156 0)"/>
      </g>
     </g>
    </g>
    <g id="xtick_3">
     <g id="line2d_5">
      <path d="M 223.849967 208.8 
L 223.849967 7.2 
" clip-path="url(#pa3c055d699)" style="fill: none; stroke-dasharray: 0.8,1.32; stroke-dashoffset: 0; stroke: #b0b0b0; stroke-opacity: 0.6; stroke-width: 0.8"/>
     </g>
     <g id="line2d_6">
      <g>
       <use xlink:href="#m12647971b6" x="223.849967" y="208.8" style="stroke: #000000; stroke-width: 0.8"/>
      </g>
     </g>
     <g id="text_3">
      <!-- 0.9 -->
      <g transform="translate(212.71778 226.437813) scale(0.14 -0.14)">
       <defs>
        <path id="DejaVuSans-39" d="M 703 97 
L 703 672 
Q 941 559 1184 500 
Q 1428 441 1663 441 
Q 2288 441 2617 861 
Q 2947 1281 2994 2138 
Q 2813 1869 2534 1725 
Q 2256 1581 1919 1581 
Q 1219 1581 811 2004 
Q 403 2428 403 3163 
Q 403 3881 828 4315 
Q 1253 4750 1959 4750 
Q 2769 4750 3195 4129 
Q 3622 3509 3622 2328 
Q 3622 1225 3098 567 
Q 2575 -91 1691 -91 
Q 1453 -91 1209 -44 
Q 966 3 703 97 
z
M 1959 2075 
Q 2384 2075 2632 2365 
Q 2881 2656 2881 3163 
Q 2881 3666 2632 3958 
Q 2384 4250 1959 4250 
Q 1534 4250 1286 3958 
Q 1038 3666 1038 3163 
Q 1038 2656 1286 2365 
Q 1534 2075 1959 2075 
z
" transform="scale(0.015625)"/>
       </defs>
       <use xlink:href="#DejaVuSans-30"/>
       <use xlink:href="#DejaVuSans-2e" transform="translate(63.623047 0)"/>
       <use xlink:href="#DejaVuSans-39" transform="translate(95.410156 0)"/>
      </g>
     </g>
    </g>
    <g id="xtick_4">
     <g id="line2d_7">
      <path d="M 307.218388 208.8 
L 307.218388 7.2 
" clip-path="url(#pa3c055d699)" style="fill: none; stroke-dasharray: 0.8,1.32; stroke-dashoffset: 0; stroke: #b0b0b0; stroke-opacity: 0.6; stroke-width: 0.8"/>
     </g>
     <g id="line2d_8">
      <g>
       <use xlink:href="#m12647971b6" x="307.218388" y="208.8" style="stroke: #000000; stroke-width: 0.8"/>
      </g>
     </g>
     <g id="text_4">
      <!-- 1.0 -->
      <g transform="translate(296.086201 226.437813) scale(0.14 -0.14)">
       <defs>
        <path id="DejaVuSans-31" d="M 794 531 
L 1825 531 
L 1825 4091 
L 703 3866 
L 703 4441 
L 1819 4666 
L 2450 4666 
L 2450 531 
L 3481 531 
L 3481 0 
L 794 0 
L 794 531 
z
" transform="scale(0.015625)"/>
       </defs>
       <use xlink:href="#DejaVuSans-31"/>
       <use xlink:href="#DejaVuSans-2e" transform="translate(63.623047 0)"/>
       <use xlink:href="#DejaVuSans-30" transform="translate(95.410156 0)"/>
      </g>
     </g>
    </g>
    <g id="text_5">
     <!-- (a) Recall@10 (NHQ) -->
     <g transform="translate(100.812303 247.30875) scale(0.2 -0.2)">
      <defs>
       <path id="LinLibertineO-28" d="M 282 1613 
C 282 1325 307 -154 1638 -1306 
C 1702 -1293 1754 -1248 1773 -1197 
C 1562 -954 813 -70 813 1613 
C 813 3296 1568 4179 1773 4410 
C 1747 4474 1709 4518 1638 4525 
C 877 3872 282 2803 282 1613 
z
" transform="scale(0.015625)"/>
       <path id="LinLibertineO-61" d="M 1875 1491 
L 1875 646 
C 1875 563 1837 518 1786 480 
C 1619 346 1402 198 1222 198 
C 902 198 762 454 762 653 
C 762 941 896 1235 1370 1357 
L 1875 1491 
z
M 1875 307 
C 1914 109 1978 -64 2304 -64 
C 2547 -64 2778 45 2912 173 
C 2899 250 2874 301 2803 346 
C 2752 301 2643 243 2566 243 
C 2381 243 2374 493 2374 787 
L 2374 1728 
C 2374 2637 1875 2810 1408 2810 
C 883 2810 352 2464 352 2099 
C 352 1946 429 1869 576 1869 
C 762 1869 877 2003 877 2086 
C 877 2131 870 2176 858 2202 
C 851 2221 845 2259 845 2330 
C 845 2528 1114 2598 1357 2598 
C 1574 2598 1875 2490 1875 1766 
C 1875 1722 1856 1696 1837 1690 
L 1286 1555 
C 672 1402 230 1062 230 627 
C 230 102 589 -64 1037 -64 
C 1254 -64 1453 -13 1734 205 
L 1862 307 
L 1875 307 
z
" transform="scale(0.015625)"/>
       <path id="LinLibertineO-29" d="M 1626 1613 
C 1626 1901 1600 3379 269 4531 
C 205 4518 154 4474 134 4422 
C 346 4179 1094 3296 1094 1613 
C 1094 -70 339 -954 134 -1184 
C 154 -1254 192 -1299 269 -1299 
C 1030 -646 1626 422 1626 1613 
z
" transform="scale(0.015625)"/>
       <path id="LinLibertineO-20" transform="scale(0.015625)"/>
       <path id="LinLibertineO-52" d="M 1741 3955 
C 2131 3955 2592 3814 2592 3059 
C 2592 2259 2138 2080 1517 2080 
L 1210 2080 
L 1210 3546 
C 1210 3731 1286 3955 1741 3955 
z
M 1210 781 
L 1210 1862 
C 1747 1862 1862 1766 1958 1619 
L 2643 506 
C 2822 205 3104 -64 3488 -64 
C 3584 -64 3693 -51 3757 -19 
C 3776 19 3776 83 3750 134 
C 3462 134 3302 346 3136 627 
L 2330 1971 
C 2605 2061 3181 2394 3181 3066 
C 3181 3386 3072 3648 2842 3866 
C 2534 4154 2138 4173 1734 4173 
C 1434 4173 1165 4128 934 4128 
C 710 4128 410 4134 109 4141 
C 70 4102 70 3968 109 3930 
C 557 3910 666 3878 666 3347 
L 666 781 
C 666 250 557 218 109 198 
C 70 160 70 26 109 -13 
C 397 -6 691 0 941 0 
C 1178 0 1485 -6 1766 -13 
C 1805 26 1805 160 1766 198 
C 1318 218 1210 250 1210 781 
z
" transform="scale(0.015625)"/>
       <path id="LinLibertineO-65" d="M 794 1805 
C 915 2528 1363 2586 1517 2586 
C 1760 2586 2048 2451 2048 1914 
C 2048 1856 2022 1824 1952 1824 
L 794 1805 
z
M 2470 595 
C 2234 352 2048 250 1677 250 
C 1446 250 1178 384 979 710 
C 851 922 774 1216 774 1587 
L 2477 1574 
C 2554 1574 2598 1613 2598 1683 
C 2598 2221 2406 2797 1517 2797 
C 960 2797 237 2266 237 1293 
C 237 934 326 589 538 346 
C 755 90 1056 -64 1517 -64 
C 2003 -64 2349 160 2605 493 
C 2586 557 2547 589 2470 595 
z
" transform="scale(0.015625)"/>
       <path id="LinLibertineO-63" d="M 2547 582 
C 2522 640 2470 666 2413 672 
C 2195 390 1920 250 1645 250 
C 1178 250 787 723 787 1472 
C 787 2176 1094 2598 1517 2598 
C 1894 2598 1946 2374 1971 2150 
C 1990 1978 2080 1920 2214 1920 
C 2349 1920 2528 2003 2528 2202 
C 2528 2554 2163 2810 1549 2810 
C 915 2810 237 2240 237 1331 
C 237 506 698 -64 1504 -64 
C 1888 -64 2227 58 2547 582 
z
" transform="scale(0.015625)"/>
       <path id="LinLibertineO-6c" d="M 608 781 
C 608 250 538 218 147 198 
C 109 160 109 26 147 -13 
C 371 -6 608 0 864 0 
C 1120 0 1363 -6 1574 -13 
C 1613 26 1613 160 1574 198 
C 1184 218 1114 250 1114 781 
L 1114 3731 
C 1114 4147 1139 4403 1139 4403 
C 1139 4448 1114 4467 1056 4467 
C 896 4403 416 4314 160 4294 
C 147 4243 160 4141 198 4102 
C 570 4077 608 4058 608 3578 
L 608 781 
z
" transform="scale(0.015625)"/>
       <path id="LinLibertineO-40" d="M 3642 2022 
C 3642 1805 3533 1478 3450 1280 
C 3251 813 2938 448 2714 448 
C 2310 448 2214 730 2214 1037 
C 2214 1434 2323 1843 2650 2170 
C 2842 2368 3117 2426 3226 2426 
C 3456 2426 3642 2266 3642 2022 
z
M 3731 474 
C 3731 512 3776 730 3814 902 
L 4198 2554 
L 4102 2586 
L 3763 2502 
L 3731 2349 
C 3667 2515 3450 2624 3238 2624 
C 2560 2624 1747 1894 1747 979 
C 1747 723 1888 186 2528 186 
C 2752 186 3098 371 3379 845 
L 3392 838 
C 3341 678 3296 531 3296 435 
C 3296 333 3341 173 3526 173 
C 4922 173 5370 1075 5370 1805 
C 5370 3002 4378 3910 3002 3910 
C 1562 3910 378 2803 378 1427 
C 378 64 1376 -1011 2906 -1011 
C 3629 -1011 4013 -787 4397 -493 
L 4314 -378 
C 3968 -653 3571 -800 3027 -800 
C 1376 -800 890 582 890 1542 
C 890 3059 1965 3712 2938 3712 
C 3738 3712 4858 3078 4858 1760 
C 4858 698 4454 397 3802 397 
C 3789 397 3731 410 3731 474 
z
" transform="scale(0.015625)"/>
       <path id="LinLibertineO-31" d="M 1843 781 
L 1843 3002 
C 1843 3386 1850 3776 1862 3859 
C 1862 3885 1843 3891 1824 3891 
C 1466 3667 1133 3514 570 3251 
C 576 3174 608 3117 666 3078 
C 954 3200 1101 3238 1222 3238 
C 1325 3238 1350 3085 1350 2867 
L 1350 781 
C 1350 250 1178 218 730 198 
C 691 160 691 26 730 -13 
C 1043 -6 1267 0 1619 0 
C 1920 0 2080 -6 2400 -13 
C 2438 26 2438 160 2400 198 
C 1952 218 1843 250 1843 781 
z
" transform="scale(0.015625)"/>
       <path id="LinLibertineO-30" d="M 1485 3680 
C 1594 3680 1696 3642 1773 3571 
C 1971 3405 2144 2918 2144 2061 
C 2144 1472 2125 1069 2035 742 
C 1894 218 1581 160 1466 160 
C 870 160 806 1254 806 1811 
C 806 3386 1197 3680 1485 3680 
z
M 1459 -64 
C 1952 -64 2701 435 2701 1939 
C 2701 2573 2547 3117 2266 3488 
C 2093 3706 1830 3904 1485 3904 
C 851 3904 250 3149 250 1882 
C 250 1197 454 550 806 205 
C 992 19 1210 -64 1459 -64 
z
" transform="scale(0.015625)"/>
       <path id="LinLibertineO-4e" d="M 3558 3277 
L 3558 1184 
C 3558 1062 3558 992 3514 992 
C 3488 992 3392 1107 3206 1344 
L 1011 4128 
L 147 4141 
C 109 4102 109 3968 147 3930 
C 422 3910 614 3686 653 3520 
L 653 851 
C 653 282 544 243 96 198 
C 58 160 58 26 96 -13 
C 371 -6 659 0 813 0 
C 960 0 1254 -6 1523 -13 
C 1562 26 1562 160 1523 198 
C 1075 243 966 269 966 851 
L 966 2810 
C 966 3027 966 3123 1018 3123 
C 1056 3123 1126 3053 1235 2912 
L 3469 90 
C 3539 -6 3622 -64 3725 -64 
C 3814 -64 3872 13 3872 134 
L 3872 3277 
C 3872 3846 3981 3885 4429 3930 
C 4467 3968 4467 4102 4429 4141 
C 4166 4134 3859 4128 3712 4128 
C 3571 4128 3283 4134 3002 4141 
C 2963 4102 2963 3968 3002 3930 
C 3450 3885 3558 3859 3558 3277 
z
" transform="scale(0.015625)"/>
       <path id="LinLibertineO-48" d="M 3955 781 
L 3955 3347 
C 3955 3878 4064 3910 4512 3930 
C 4550 3968 4550 4102 4512 4141 
C 4250 4134 3923 4128 3680 4128 
C 3437 4128 3136 4134 2854 4141 
C 2816 4102 2816 3968 2854 3930 
C 3302 3910 3411 3878 3411 3347 
L 3411 2323 
L 1222 2323 
L 1222 3347 
C 1222 3878 1331 3910 1779 3930 
C 1818 3968 1818 4102 1779 4141 
C 1536 4134 1274 4128 947 4128 
C 627 4128 365 4134 122 4141 
C 83 4102 83 3968 122 3930 
C 570 3910 678 3878 678 3347 
L 678 781 
C 678 250 570 218 122 198 
C 83 160 83 26 122 -13 
C 403 -6 710 0 954 0 
C 1184 0 1498 -6 1779 -13 
C 1818 26 1818 160 1779 198 
C 1331 218 1222 250 1222 781 
L 1222 2054 
L 3411 2054 
L 3411 781 
C 3411 250 3302 218 2854 198 
C 2816 160 2816 26 2854 -13 
C 3142 -6 3443 0 3686 0 
C 3923 0 4230 -6 4512 -13 
C 4550 26 4550 160 4512 198 
C 4064 218 3955 250 3955 781 
z
" transform="scale(0.015625)"/>
       <path id="LinLibertineO-51" d="M 2118 3981 
C 2963 3981 3648 3277 3648 1984 
C 3648 838 3098 166 2368 166 
C 1587 166 851 864 851 2093 
C 851 3437 1485 3981 2118 3981 
z
M 4262 2106 
C 4262 3430 3347 4211 2202 4211 
C 960 4211 237 3219 237 1984 
C 237 826 1005 64 1978 -51 
C 1587 -256 1229 -557 998 -832 
C 954 -877 915 -928 890 -979 
L 1139 -1107 
C 1210 -1005 1293 -902 1376 -813 
C 1466 -755 1555 -730 1606 -730 
C 1875 -730 2112 -858 2362 -998 
C 2656 -1165 2982 -1338 3437 -1338 
C 3840 -1338 4109 -1171 4358 -813 
L 4250 -736 
C 4109 -909 3878 -973 3693 -973 
C 3424 -973 3168 -864 2893 -736 
C 2592 -589 2272 -448 1907 -448 
C 1869 -448 1824 -454 1779 -461 
C 2093 -230 2406 -96 2618 -38 
C 3149 51 3578 333 3866 742 
C 4122 1101 4262 1568 4262 2106 
z
" transform="scale(0.015625)"/>
      </defs>
      <use xlink:href="#LinLibertineO-28"/>
      <use xlink:href="#LinLibertineO-61" transform="translate(29.799988 0)"/>
      <use xlink:href="#LinLibertineO-29" transform="translate(75.499985 0)"/>
      <use xlink:href="#LinLibertineO-20" transform="translate(105.299973 0)"/>
      <use xlink:href="#LinLibertineO-52" transform="translate(130.299957 0)"/>
      <use xlink:href="#LinLibertineO-65" transform="translate(188.999954 0)"/>
      <use xlink:href="#LinLibertineO-63" transform="translate(233.699951 0)"/>
      <use xlink:href="#LinLibertineO-61" transform="translate(276.499939 0)"/>
      <use xlink:href="#LinLibertineO-6c" transform="translate(322.199936 0)"/>
      <use xlink:href="#LinLibertineO-6c" transform="translate(348.59993 0)"/>
      <use xlink:href="#LinLibertineO-40" transform="translate(374.999924 0)"/>
      <use xlink:href="#LinLibertineO-31" transform="translate(464.499908 0)"/>
      <use xlink:href="#LinLibertineO-30" transform="translate(510.999893 0)"/>
      <use xlink:href="#LinLibertineO-20" transform="translate(557.499878 0)"/>
      <use xlink:href="#LinLibertineO-28" transform="translate(582.499863 0)"/>
      <use xlink:href="#LinLibertineO-4e" transform="translate(612.29985 0)"/>
      <use xlink:href="#LinLibertineO-48" transform="translate(682.199844 0)"/>
      <use xlink:href="#LinLibertineO-51" transform="translate(755.199829 0)"/>
      <use xlink:href="#LinLibertineO-29" transform="translate(825.399811 0)"/>
     </g>
    </g>
   </g>
   <g id="matplotlib.axis_2">
    <g id="ytick_1">
     <g id="line2d_9">
      <path d="M 57.113125 193.707635 
L 315.55523 193.707635 
" clip-path="url(#pa3c055d699)" style="fill: none; stroke-dasharray: 0.8,1.32; stroke-dashoffset: 0; stroke: #b0b0b0; stroke-opacity: 0.6; stroke-width: 0.8"/>
     </g>
     <g id="line2d_10">
      <defs>
       <path id="m289500c16d" d="M 0 0 
L -3.5 0 
" style="stroke: #000000; stroke-width: 0.8"/>
      </defs>
      <g>
       <use xlink:href="#m289500c16d" x="57.113125" y="193.707635" style="stroke: #000000; stroke-width: 0.8"/>
      </g>
     </g>
     <g id="text_6">
      <!-- 10² -->
      <g transform="translate(26.685 199.026541) scale(0.14 -0.14)">
       <defs>
        <path id="DejaVuSans-b2" d="M 838 2444 
L 2163 2444 
L 2163 2088 
L 294 2088 
L 294 2431 
Q 400 2528 597 2703 
Q 1672 3656 1672 3950 
Q 1672 4156 1509 4282 
Q 1347 4409 1081 4409 
Q 919 4409 728 4354 
Q 538 4300 313 4191 
L 313 4575 
Q 553 4663 761 4706 
Q 969 4750 1147 4750 
Q 1600 4750 1872 4544 
Q 2144 4338 2144 4000 
Q 2144 3566 1109 2678 
Q 934 2528 838 2444 
z
" transform="scale(0.015625)"/>
       </defs>
       <use xlink:href="#DejaVuSans-31"/>
       <use xlink:href="#DejaVuSans-30" transform="translate(63.623047 0)"/>
       <use xlink:href="#DejaVuSans-b2" transform="translate(127.246094 0)"/>
      </g>
     </g>
    </g>
    <g id="ytick_2">
     <g id="line2d_11">
      <path d="M 57.113125 108 
L 315.55523 108 
" clip-path="url(#pa3c055d699)" style="fill: none; stroke-dasharray: 0.8,1.32; stroke-dashoffset: 0; stroke: #b0b0b0; stroke-opacity: 0.6; stroke-width: 0.8"/>
     </g>
     <g id="line2d_12">
      <g>
       <use xlink:href="#m289500c16d" x="57.113125" y="108" style="stroke: #000000; stroke-width: 0.8"/>
      </g>
     </g>
     <g id="text_7">
      <!-- 10³ -->
      <g transform="translate(26.685 113.318906) scale(0.14 -0.14)">
       <defs>
        <path id="DejaVuSans-b3" d="M 1638 3500 
Q 1925 3444 2083 3273 
Q 2241 3103 2241 2847 
Q 2241 2459 1944 2250 
Q 1647 2041 1094 2041 
Q 916 2041 720 2073 
Q 525 2106 306 2169 
L 306 2547 
Q 469 2463 655 2422 
Q 841 2381 1050 2381 
Q 1391 2381 1578 2504 
Q 1766 2628 1766 2847 
Q 1766 3078 1592 3197 
Q 1419 3316 1081 3316 
L 813 3316 
L 813 3653 
L 1106 3653 
Q 1400 3653 1551 3751 
Q 1703 3850 1703 4038 
Q 1703 4219 1547 4314 
Q 1391 4409 1094 4409 
Q 969 4409 809 4381 
Q 650 4353 397 4281 
L 397 4641 
Q 625 4694 825 4722 
Q 1025 4750 1197 4750 
Q 1647 4750 1911 4565 
Q 2175 4381 2175 4072 
Q 2175 3856 2034 3706 
Q 1894 3556 1638 3500 
z
" transform="scale(0.015625)"/>
       </defs>
       <use xlink:href="#DejaVuSans-31"/>
       <use xlink:href="#DejaVuSans-30" transform="translate(63.623047 0)"/>
       <use xlink:href="#DejaVuSans-b3" transform="translate(127.246094 0)"/>
      </g>
     </g>
    </g>
    <g id="ytick_3">
     <g id="line2d_13">
      <path d="M 57.113125 22.292365 
L 315.55523 22.292365 
" clip-path="url(#pa3c055d699)" style="fill: none; stroke-dasharray: 0.8,1.32; stroke-dashoffset: 0; stroke: #b0b0b0; stroke-opacity: 0.6; stroke-width: 0.8"/>
     </g>
     <g id="line2d_14">
      <g>
       <use xlink:href="#m289500c16d" x="57.113125" y="22.292365" style="stroke: #000000; stroke-width: 0.8"/>
      </g>
     </g>
     <g id="text_8">
      <!-- 10⁴ -->
      <g transform="translate(26.685 27.611272) scale(0.14 -0.14)">
       <defs>
        <path id="DejaVuSans-2074" d="M 1491 4319 
L 525 3009 
L 1491 3009 
L 1491 4319 
z
M 1422 4697 
L 1941 4697 
L 1941 3009 
L 2363 3009 
L 2363 2669 
L 1941 2669 
L 1941 2088 
L 1491 2088 
L 1491 2669 
L 197 2669 
L 197 3047 
L 1422 4697 
z
" transform="scale(0.015625)"/>
       </defs>
       <use xlink:href="#DejaVuSans-31"/>
       <use xlink:href="#DejaVuSans-30" transform="translate(63.623047 0)"/>
       <use xlink:href="#DejaVuSans-2074" transform="translate(127.246094 0)"/>
      </g>
     </g>
    </g>
    <g id="text_9">
     <!-- QPS -->
     <g transform="translate(19.3575 124.2) rotate(-90) scale(0.16 -0.16)">
      <defs>
       <path id="DejaVuSans-51" d="M 2522 4238 
Q 1834 4238 1429 3725 
Q 1025 3213 1025 2328 
Q 1025 1447 1429 934 
Q 1834 422 2522 422 
Q 3209 422 3611 934 
Q 4013 1447 4013 2328 
Q 4013 3213 3611 3725 
Q 3209 4238 2522 4238 
z
M 3406 84 
L 4238 -825 
L 3475 -825 
L 2784 -78 
Q 2681 -84 2626 -87 
Q 2572 -91 2522 -91 
Q 1538 -91 948 567 
Q 359 1225 359 2328 
Q 359 3434 948 4092 
Q 1538 4750 2522 4750 
Q 3503 4750 4090 4092 
Q 4678 3434 4678 2328 
Q 4678 1516 4351 937 
Q 4025 359 3406 84 
z
" transform="scale(0.015625)"/>
       <path id="DejaVuSans-50" d="M 1259 4147 
L 1259 2394 
L 2053 2394 
Q 2494 2394 2734 2622 
Q 2975 2850 2975 3272 
Q 2975 3691 2734 3919 
Q 2494 4147 2053 4147 
L 1259 4147 
z
M 628 4666 
L 2053 4666 
Q 2838 4666 3239 4311 
Q 3641 3956 3641 3272 
Q 3641 2581 3239 2228 
Q 2838 1875 2053 1875 
L 1259 1875 
L 1259 0 
L 628 0 
L 628 4666 
z
" transform="scale(0.015625)"/>
       <path id="DejaVuSans-53" d="M 3425 4513 
L 3425 3897 
Q 3066 4069 2747 4153 
Q 2428 4238 2131 4238 
Q 1616 4238 1336 4038 
Q 1056 3838 1056 3469 
Q 1056 3159 1242 3001 
Q 1428 2844 1947 2747 
L 2328 2669 
Q 3034 2534 3370 2195 
Q 3706 1856 3706 1288 
Q 3706 609 3251 259 
Q 2797 -91 1919 -91 
Q 1588 -91 1214 -16 
Q 841 59 441 206 
L 441 856 
Q 825 641 1194 531 
Q 1563 422 1919 422 
Q 2459 422 2753 634 
Q 3047 847 3047 1241 
Q 3047 1584 2836 1778 
Q 2625 1972 2144 2069 
L 1759 2144 
Q 1053 2284 737 2584 
Q 422 2884 422 3419 
Q 422 4038 858 4394 
Q 1294 4750 2059 4750 
Q 2388 4750 2728 4690 
Q 3069 4631 3425 4513 
z
" transform="scale(0.015625)"/>
      </defs>
      <use xlink:href="#DejaVuSans-51"/>
      <use xlink:href="#DejaVuSans-50" transform="translate(78.710938 0)"/>
      <use xlink:href="#DejaVuSans-53" transform="translate(139.013672 0)"/>
     </g>
    </g>
   </g>
   <g id="line2d_15">
    <path d="M 72.953125 38.937213 
L 114.295525 47.974235 
L 153.111862 69.226799 
L 179.197841 70.534181 
L 206.459314 73.314385 
L 275.588409 82.175988 
L 299.615188 91.510314 
L 305.759441 117.074446 
" clip-path="url(#pa3c055d699)" style="fill: none; stroke: #e74c3c; stroke-width: 1.2; stroke-linecap: square"/>
    <defs>
     <path id="m8597097293" d="M 0 4 
C 1.060812 4 2.078319 3.578535 2.828427 2.828427 
C 3.578535 2.078319 4 1.060812 4 0 
C 4 -1.060812 3.578535 -2.078319 2.828427 -2.828427 
C 2.078319 -3.578535 1.060812 -4 0 -4 
C -1.060812 -4 -2.078319 -3.578535 -2.828427 -2.828427 
C -3.578535 -2.078319 -4 -1.060812 -4 0 
C -4 1.060812 -3.578535 2.078319 -2.828427 2.828427 
C -2.078319 3.578535 -1.060812 4 0 4 
z
" style="stroke: #e74c3c; stroke-opacity: 0.8"/>
    </defs>
    <g clip-path="url(#pa3c055d699)">
     <use xlink:href="#m8597097293" x="72.953125" y="38.937213" style="fill: #ffffff; fill-opacity: 0.8; stroke: #e74c3c; stroke-opacity: 0.8"/>
     <use xlink:href="#m8597097293" x="114.295525" y="47.974235" style="fill: #ffffff; fill-opacity: 0.8; stroke: #e74c3c; stroke-opacity: 0.8"/>
     <use xlink:href="#m8597097293" x="153.111862" y="69.226799" style="fill: #ffffff; fill-opacity: 0.8; stroke: #e74c3c; stroke-opacity: 0.8"/>
     <use xlink:href="#m8597097293" x="179.197841" y="70.534181" style="fill: #ffffff; fill-opacity: 0.8; stroke: #e74c3c; stroke-opacity: 0.8"/>
     <use xlink:href="#m8597097293" x="206.459314" y="73.314385" style="fill: #ffffff; fill-opacity: 0.8; stroke: #e74c3c; stroke-opacity: 0.8"/>
     <use xlink:href="#m8597097293" x="275.588409" y="82.175988" style="fill: #ffffff; fill-opacity: 0.8; stroke: #e74c3c; stroke-opacity: 0.8"/>
     <use xlink:href="#m8597097293" x="299.615188" y="91.510314" style="fill: #ffffff; fill-opacity: 0.8; stroke: #e74c3c; stroke-opacity: 0.8"/>
     <use xlink:href="#m8597097293" x="305.759441" y="117.074446" style="fill: #ffffff; fill-opacity: 0.8; stroke: #e74c3c; stroke-opacity: 0.8"/>
    </g>
   </g>
   <g id="line2d_16">
    <path d="M 262.96643 27.697322 
L 288.668914 45.059217 
L 306.618136 114.25894 
L 306.809883 145.496084 
" clip-path="url(#pa3c055d699)" style="fill: none; stroke-dasharray: 4.44,1.92; stroke-dashoffset: 0; stroke: #f39c12; stroke-width: 1.2"/>
    <defs>
     <path id="m4c84a0f4f6" d="M -4 4 
L 4 4 
L 4 -4 
L -4 -4 
z
" style="stroke: #f39c12; stroke-opacity: 0.8; stroke-linejoin: miter"/>
    </defs>
    <g clip-path="url(#pa3c055d699)">
     <use xlink:href="#m4c84a0f4f6" x="262.96643" y="27.697322" style="fill: #ffffff; fill-opacity: 0.8; stroke: #f39c12; stroke-opacity: 0.8; stroke-linejoin: miter"/>
     <use xlink:href="#m4c84a0f4f6" x="288.668914" y="45.059217" style="fill: #ffffff; fill-opacity: 0.8; stroke: #f39c12; stroke-opacity: 0.8; stroke-linejoin: miter"/>
     <use xlink:href="#m4c84a0f4f6" x="306.618136" y="114.25894" style="fill: #ffffff; fill-opacity: 0.8; stroke: #f39c12; stroke-opacity: 0.8; stroke-linejoin: miter"/>
     <use xlink:href="#m4c84a0f4f6" x="306.809883" y="145.496084" style="fill: #ffffff; fill-opacity: 0.8; stroke: #f39c12; stroke-opacity: 0.8; stroke-linejoin: miter"/>
    </g>
   </g>
   <g id="line2d_17">
    <path d="M 257.005588 38.670745 
L 285.684325 60.019829 
L 306.267988 121.189547 
" clip-path="url(#pa3c055d699)" style="fill: none; stroke-dasharray: 7.68,1.92,1.2,1.92; stroke-dashoffset: 0; stroke: #2ecc71; stroke-width: 1.2"/>
    <defs>
     <path id="m4d69092842" d="M 0 -4 
L -4 4 
L 4 4 
z
" style="stroke: #2ecc71; stroke-opacity: 0.8; stroke-linejoin: miter"/>
    </defs>
    <g clip-path="url(#pa3c055d699)">
     <use xlink:href="#m4d69092842" x="257.005588" y="38.670745" style="fill: #ffffff; fill-opacity: 0.8; stroke: #2ecc71; stroke-opacity: 0.8; stroke-linejoin: miter"/>
     <use xlink:href="#m4d69092842" x="285.684325" y="60.019829" style="fill: #ffffff; fill-opacity: 0.8; stroke: #2ecc71; stroke-opacity: 0.8; stroke-linejoin: miter"/>
     <use xlink:href="#m4d69092842" x="306.267988" y="121.189547" style="fill: #ffffff; fill-opacity: 0.8; stroke: #2ecc71; stroke-opacity: 0.8; stroke-linejoin: miter"/>
    </g>
   </g>
   <g id="line2d_18">
    <path d="M 252.103525 29.739598 
L 282.124493 48.030899 
L 303.124999 87.629704 
L 306.176283 135.5096 
" clip-path="url(#pa3c055d699)" style="fill: none; stroke: #9b59b6; stroke-width: 1.2; stroke-linecap: square"/>
    <defs>
     <path id="m0adb47add2" d="M -0 5.656854 
L 5.656854 0 
L 0 -5.656854 
L -5.656854 -0 
z
" style="stroke: #9b59b6; stroke-opacity: 0.8; stroke-linejoin: miter"/>
    </defs>
    <g clip-path="url(#pa3c055d699)">
     <use xlink:href="#m0adb47add2" x="252.103525" y="29.739598" style="fill: #ffffff; fill-opacity: 0.8; stroke: #9b59b6; stroke-opacity: 0.8; stroke-linejoin: miter"/>
     <use xlink:href="#m0adb47add2" x="282.124493" y="48.030899" style="fill: #ffffff; fill-opacity: 0.8; stroke: #9b59b6; stroke-opacity: 0.8; stroke-linejoin: miter"/>
     <use xlink:href="#m0adb47add2" x="303.124999" y="87.629704" style="fill: #ffffff; fill-opacity: 0.8; stroke: #9b59b6; stroke-opacity: 0.8; stroke-linejoin: miter"/>
     <use xlink:href="#m0adb47add2" x="306.176283" y="135.5096" style="fill: #ffffff; fill-opacity: 0.8; stroke: #9b59b6; stroke-opacity: 0.8; stroke-linejoin: miter"/>
    </g>
   </g>
   <g id="line2d_19">
    <path d="M 265.534178 208.8 
L 265.534178 7.2 
" clip-path="url(#pa3c055d699)" style="fill: none; stroke-dasharray: 5.55,2.4; stroke-dashoffset: 0; stroke: #808080; stroke-opacity: 0.7; stroke-width: 1.5"/>
   </g>
   <g id="patch_3">
    <path d="M 57.113125 208.8 
L 57.113125 7.2 
" style="fill: none; stroke: #000000; stroke-width: 0.8; stroke-linejoin: miter; stroke-linecap: square"/>
   </g>
   <g id="patch_4">
    <path d="M 315.55523 208.8 
L 315.55523 7.2 
" style="fill: none; stroke: #000000; stroke-width: 0.8; stroke-linejoin: miter; stroke-linecap: square"/>
   </g>
   <g id="patch_5">
    <path d="M 57.113125 208.8 
L 315.55523 208.8 
" style="fill: none; stroke: #000000; stroke-width: 0.8; stroke-linejoin: miter; stroke-linecap: square"/>
   </g>
   <g id="patch_6">
    <path d="M 57.113125 7.2 
L 315.55523 7.2 
" style="fill: none; stroke: #000000; stroke-width: 0.8; stroke-linejoin: miter; stroke-linecap: square"/>
   </g>
   <g id="text_10">
    <!-- 25% ≈ 50% ≈ 75% &gt; 1% -->
    <g style="fill: #ff0000" transform="translate(64.866388 188.64) scale(0.16 -0.16)">
     <defs>
      <path id="DejaVuSans-32" d="M 1228 531 
L 3431 531 
L 3431 0 
L 469 0 
L 469 531 
Q 828 903 1448 1529 
Q 2069 2156 2228 2338 
Q 2531 2678 2651 2914 
Q 2772 3150 2772 3378 
Q 2772 3750 2511 3984 
Q 2250 4219 1831 4219 
Q 1534 4219 1204 4116 
Q 875 4013 500 3803 
L 500 4441 
Q 881 4594 1212 4672 
Q 1544 4750 1819 4750 
Q 2544 4750 2975 4387 
Q 3406 4025 3406 3419 
Q 3406 3131 3298 2873 
Q 3191 2616 2906 2266 
Q 2828 2175 2409 1742 
Q 1991 1309 1228 531 
z
" transform="scale(0.015625)"/>
      <path id="DejaVuSans-35" d="M 691 4666 
L 3169 4666 
L 3169 4134 
L 1269 4134 
L 1269 2991 
Q 1406 3038 1543 3061 
Q 1681 3084 1819 3084 
Q 2600 3084 3056 2656 
Q 3513 2228 3513 1497 
Q 3513 744 3044 326 
Q 2575 -91 1722 -91 
Q 1428 -91 1123 -41 
Q 819 9 494 109 
L 494 744 
Q 775 591 1075 516 
Q 1375 441 1709 441 
Q 2250 441 2565 725 
Q 2881 1009 2881 1497 
Q 2881 1984 2565 2268 
Q 2250 2553 1709 2553 
Q 1456 2553 1204 2497 
Q 953 2441 691 2322 
L 691 4666 
z
" transform="scale(0.015625)"/>
      <path id="DejaVuSans-25" d="M 4653 2053 
Q 4381 2053 4226 1822 
Q 4072 1591 4072 1178 
Q 4072 772 4226 539 
Q 4381 306 4653 306 
Q 4919 306 5073 539 
Q 5228 772 5228 1178 
Q 5228 1588 5073 1820 
Q 4919 2053 4653 2053 
z
M 4653 2450 
Q 5147 2450 5437 2106 
Q 5728 1763 5728 1178 
Q 5728 594 5436 251 
Q 5144 -91 4653 -91 
Q 4153 -91 3862 251 
Q 3572 594 3572 1178 
Q 3572 1766 3864 2108 
Q 4156 2450 4653 2450 
z
M 1428 4353 
Q 1159 4353 1004 4120 
Q 850 3888 850 3481 
Q 850 3069 1003 2837 
Q 1156 2606 1428 2606 
Q 1700 2606 1854 2837 
Q 2009 3069 2009 3481 
Q 2009 3884 1853 4118 
Q 1697 4353 1428 4353 
z
M 4250 4750 
L 4750 4750 
L 1831 -91 
L 1331 -91 
L 4250 4750 
z
M 1428 4750 
Q 1922 4750 2215 4408 
Q 2509 4066 2509 3481 
Q 2509 2891 2217 2550 
Q 1925 2209 1428 2209 
Q 931 2209 642 2551 
Q 353 2894 353 3481 
Q 353 4063 643 4406 
Q 934 4750 1428 4750 
z
" transform="scale(0.015625)"/>
      <path id="DejaVuSans-20" transform="scale(0.015625)"/>
      <path id="DejaVuSans-2248" d="M 4684 1947 
L 4684 1388 
Q 4356 1144 4076 1036 
Q 3797 928 3494 928 
Q 3150 928 2694 1113 
Q 2663 1125 2641 1134 
Q 2622 1141 2575 1159 
Q 2091 1350 1797 1350 
Q 1522 1350 1253 1231 
Q 984 1113 678 850 
L 678 1409 
Q 1006 1653 1286 1761 
Q 1566 1869 1869 1869 
Q 2213 1869 2672 1684 
Q 2706 1669 2722 1663 
Q 2741 1656 2788 1638 
Q 3272 1447 3566 1447 
Q 3834 1447 4098 1564 
Q 4363 1681 4684 1947 
z
M 4684 3163 
L 4684 2606 
Q 4356 2359 4076 2251 
Q 3797 2144 3494 2144 
Q 3150 2144 2694 2328 
Q 2663 2341 2641 2350 
Q 2622 2356 2575 2375 
Q 2091 2566 1797 2566 
Q 1522 2566 1253 2447 
Q 984 2328 678 2069 
L 678 2625 
Q 1006 2869 1286 2976 
Q 1566 3084 1869 3084 
Q 2213 3084 2672 2900 
Q 2703 2888 2719 2881 
Q 2741 2872 2788 2853 
Q 3272 2663 3566 2663 
Q 3834 2663 4098 2780 
Q 4363 2897 4684 3163 
z
" transform="scale(0.015625)"/>
      <path id="DejaVuSans-3e" d="M 678 3150 
L 678 3719 
L 4684 2266 
L 4684 1747 
L 678 294 
L 678 863 
L 3897 2003 
L 678 3150 
z
" transform="scale(0.015625)"/>
     </defs>
     <use xlink:href="#DejaVuSans-32"/>
     <use xlink:href="#DejaVuSans-35" transform="translate(63.623047 0)"/>
     <use xlink:href="#DejaVuSans-25" transform="translate(127.246094 0)"/>
     <use xlink:href="#DejaVuSans-20" transform="translate(222.265625 0)"/>
     <use xlink:href="#DejaVuSans-2248" transform="translate(254.052734 0)"/>
     <use xlink:href="#DejaVuSans-20" transform="translate(337.841797 0)"/>
     <use xlink:href="#DejaVuSans-35" transform="translate(369.628906 0)"/>
     <use xlink:href="#DejaVuSans-30" transform="translate(433.251953 0)"/>
     <use xlink:href="#DejaVuSans-25" transform="translate(496.875 0)"/>
     <use xlink:href="#DejaVuSans-20" transform="translate(591.894531 0)"/>
     <use xlink:href="#DejaVuSans-2248" transform="translate(623.681641 0)"/>
     <use xlink:href="#DejaVuSans-20" transform="translate(707.470703 0)"/>
     <use xlink:href="#DejaVuSans-37" transform="translate(739.257812 0)"/>
     <use xlink:href="#DejaVuSans-35" transform="translate(802.880859 0)"/>
     <use xlink:href="#DejaVuSans-25" transform="translate(866.503906 0)"/>
     <use xlink:href="#DejaVuSans-20" transform="translate(961.523438 0)"/>
     <use xlink:href="#DejaVuSans-3e" transform="translate(993.310547 0)"/>
     <use xlink:href="#DejaVuSans-20" transform="translate(1077.099609 0)"/>
     <use xlink:href="#DejaVuSans-31" transform="translate(1108.886719 0)"/>
     <use xlink:href="#DejaVuSans-25" transform="translate(1172.509766 0)"/>
    </g>
   </g>
  </g>
  <g id="axes_2">
   <g id="patch_7">
    <path d="M 380.165757 208.8 
L 638.607862 208.8 
L 638.607862 7.2 
L 380.165757 7.2 
z
" style="fill: #ffffff"/>
   </g>
   <g id="matplotlib.axis_3">
    <g id="xtick_5">
     <g id="line2d_20">
      <path d="M 380.165757 208.8 
L 380.165757 7.2 
" clip-path="url(#p846e1e5c9c)" style="fill: none; stroke-dasharray: 0.8,1.32; stroke-dashoffset: 0; stroke: #b0b0b0; stroke-opacity: 0.6; stroke-width: 0.8"/>
     </g>
     <g id="line2d_21">
      <g>
       <use xlink:href="#m12647971b6" x="380.165757" y="208.8" style="stroke: #000000; stroke-width: 0.8"/>
      </g>
     </g>
     <g id="text_11">
      <!-- 0.7 -->
      <g transform="translate(369.033569 226.437813) scale(0.14 -0.14)">
       <use xlink:href="#DejaVuSans-30"/>
       <use xlink:href="#DejaVuSans-2e" transform="translate(63.623047 0)"/>
       <use xlink:href="#DejaVuSans-37" transform="translate(95.410156 0)"/>
      </g>
     </g>
    </g>
    <g id="xtick_6">
     <g id="line2d_22">
      <path d="M 463.534178 208.8 
L 463.534178 7.2 
" clip-path="url(#p846e1e5c9c)" style="fill: none; stroke-dasharray: 0.8,1.32; stroke-dashoffset: 0; stroke: #b0b0b0; stroke-opacity: 0.6; stroke-width: 0.8"/>
     </g>
     <g id="line2d_23">
      <g>
       <use xlink:href="#m12647971b6" x="463.534178" y="208.8" style="stroke: #000000; stroke-width: 0.8"/>
      </g>
     </g>
     <g id="text_12">
      <!-- 0.8 -->
      <g transform="translate(452.40199 226.437813) scale(0.14 -0.14)">
       <use xlink:href="#DejaVuSans-30"/>
       <use xlink:href="#DejaVuSans-2e" transform="translate(63.623047 0)"/>
       <use xlink:href="#DejaVuSans-38" transform="translate(95.410156 0)"/>
      </g>
     </g>
    </g>
    <g id="xtick_7">
     <g id="line2d_24">
      <path d="M 546.902599 208.8 
L 546.902599 7.2 
" clip-path="url(#p846e1e5c9c)" style="fill: none; stroke-dasharray: 0.8,1.32; stroke-dashoffset: 0; stroke: #b0b0b0; stroke-opacity: 0.6; stroke-width: 0.8"/>
     </g>
     <g id="line2d_25">
      <g>
       <use xlink:href="#m12647971b6" x="546.902599" y="208.8" style="stroke: #000000; stroke-width: 0.8"/>
      </g>
     </g>
     <g id="text_13">
      <!-- 0.9 -->
      <g transform="translate(535.770411 226.437813) scale(0.14 -0.14)">
       <use xlink:href="#DejaVuSans-30"/>
       <use xlink:href="#DejaVuSans-2e" transform="translate(63.623047 0)"/>
       <use xlink:href="#DejaVuSans-39" transform="translate(95.410156 0)"/>
      </g>
     </g>
    </g>
    <g id="xtick_8">
     <g id="line2d_26">
      <path d="M 630.27102 208.8 
L 630.27102 7.2 
" clip-path="url(#p846e1e5c9c)" style="fill: none; stroke-dasharray: 0.8,1.32; stroke-dashoffset: 0; stroke: #b0b0b0; stroke-opacity: 0.6; stroke-width: 0.8"/>
     </g>
     <g id="line2d_27">
      <g>
       <use xlink:href="#m12647971b6" x="630.27102" y="208.8" style="stroke: #000000; stroke-width: 0.8"/>
      </g>
     </g>
     <g id="text_14">
      <!-- 1.0 -->
      <g transform="translate(619.138832 226.437813) scale(0.14 -0.14)">
       <use xlink:href="#DejaVuSans-31"/>
       <use xlink:href="#DejaVuSans-2e" transform="translate(63.623047 0)"/>
       <use xlink:href="#DejaVuSans-30" transform="translate(95.410156 0)"/>
      </g>
     </g>
    </g>
    <g id="text_15">
     <!-- (b) Recall@10 (FilteredVamana) -->
     <g transform="translate(380.185247 247.30875) scale(0.2 -0.2)">
      <defs>
       <path id="LinLibertineO-62" d="M 1114 2323 
C 1280 2470 1472 2528 1658 2528 
C 2048 2528 2368 2054 2368 1434 
C 2368 704 2074 154 1466 154 
C 1267 154 1133 294 1005 454 
L 1005 2054 
C 1005 2189 1030 2246 1114 2323 
z
M 1069 2522 
C 1024 2483 1005 2496 1005 2554 
L 1005 3731 
C 1005 4147 1030 4403 1030 4403 
C 1030 4448 1005 4467 947 4467 
C 787 4403 307 4314 51 4294 
C 38 4243 51 4141 90 4102 
C 422 4083 499 4115 499 3578 
L 499 454 
C 499 205 493 90 474 0 
C 506 -51 538 -77 614 -77 
C 653 -45 717 19 762 77 
C 832 154 870 154 941 90 
C 1082 -32 1274 -64 1504 -64 
C 2157 -64 2918 531 2918 1549 
C 2918 2330 2342 2810 1786 2810 
C 1510 2810 1267 2701 1069 2522 
z
" transform="scale(0.015625)"/>
       <path id="LinLibertineO-46" d="M 1811 2067 
C 2355 2067 2374 1920 2394 1632 
C 2432 1594 2566 1594 2605 1632 
C 2598 1792 2592 1971 2592 2195 
C 2592 2406 2598 2579 2605 2746 
C 2566 2784 2432 2784 2394 2746 
C 2374 2394 2355 2310 1811 2310 
L 1216 2310 
L 1216 3462 
C 1216 3808 1293 3872 1574 3872 
L 1862 3872 
C 2541 3872 2701 3616 2842 3174 
C 2918 3174 2989 3187 3040 3206 
C 3002 3469 2906 4083 2899 4134 
C 2893 4147 2886 4154 2874 4154 
C 2758 4128 2733 4128 2573 4128 
L 941 4128 
C 736 4128 371 4134 115 4141 
C 77 4102 77 3968 115 3930 
C 563 3910 672 3878 672 3347 
L 672 781 
C 672 250 563 218 115 198 
C 77 160 77 26 115 -13 
C 339 -6 659 0 947 0 
C 1235 0 1549 -6 1773 -13 
C 1811 26 1811 160 1773 198 
C 1325 218 1216 250 1216 781 
L 1216 2067 
L 1811 2067 
z
" transform="scale(0.015625)"/>
       <path id="LinLibertineO-69" d="M 576 3834 
C 576 3667 730 3501 883 3501 
C 1062 3501 1216 3667 1216 3808 
C 1216 3962 1082 4141 909 4141 
C 755 4141 576 3987 576 3834 
z
M 1158 781 
L 1158 2054 
C 1158 2374 1184 2784 1184 2784 
C 1184 2810 1152 2829 1101 2829 
C 915 2758 666 2701 224 2643 
C 211 2605 224 2502 237 2464 
C 582 2426 653 2394 653 2029 
L 653 781 
C 653 250 582 230 192 198 
C 154 160 154 26 192 -13 
C 403 -6 653 0 909 0 
C 1165 0 1408 -6 1619 -13 
C 1658 26 1658 160 1619 198 
C 1229 224 1158 250 1158 781 
z
" transform="scale(0.015625)"/>
       <path id="LinLibertineO-74" d="M 275 2746 
C 186 2746 160 2669 160 2618 
L 160 2534 
C 160 2502 166 2496 192 2496 
L 570 2496 
L 570 570 
C 570 115 768 -64 1062 -64 
C 1357 -64 1677 77 1926 358 
C 1914 422 1875 461 1811 467 
C 1645 339 1453 288 1286 288 
C 1114 288 1075 480 1075 877 
L 1075 2496 
L 1741 2496 
C 1805 2496 1894 2522 1894 2579 
L 1894 2707 
C 1894 2733 1875 2746 1843 2746 
L 1075 2746 
L 1075 2995 
C 1075 3411 1101 3667 1101 3667 
C 1101 3706 1082 3718 1050 3718 
C 1018 3718 966 3693 909 3661 
C 832 3622 768 3597 691 3571 
C 614 3552 550 3526 550 3488 
C 550 3411 570 3456 570 2746 
L 275 2746 
z
" transform="scale(0.015625)"/>
       <path id="LinLibertineO-72" d="M 1126 2291 
C 1114 2547 1101 2707 1075 2778 
C 1056 2803 1050 2829 998 2829 
C 819 2758 653 2701 211 2643 
C 198 2605 211 2502 224 2464 
C 570 2432 640 2400 640 2029 
L 640 781 
C 640 250 563 224 166 198 
C 128 160 128 26 166 -13 
C 390 -6 640 0 896 0 
C 1152 0 1446 -6 1670 -13 
C 1709 26 1709 160 1670 198 
C 1222 230 1146 250 1146 781 
L 1146 1670 
C 1146 1837 1222 1984 1299 2099 
C 1370 2202 1517 2413 1594 2413 
C 1651 2413 1709 2394 1754 2330 
C 1805 2266 1875 2182 1990 2182 
C 2144 2182 2291 2342 2291 2502 
C 2291 2624 2176 2810 1907 2810 
C 1606 2810 1344 2528 1197 2278 
C 1158 2208 1126 2259 1126 2291 
z
" transform="scale(0.015625)"/>
       <path id="LinLibertineO-64" d="M 2208 794 
C 2208 672 2195 621 2106 544 
C 1869 339 1664 237 1504 237 
C 1158 237 800 614 800 1414 
C 800 1875 890 2131 986 2266 
C 1184 2566 1453 2586 1581 2586 
C 1811 2586 1971 2502 2099 2355 
C 2189 2253 2208 2208 2208 2010 
L 2208 794 
z
M 2138 320 
C 2163 346 2227 358 2234 314 
C 2246 154 2304 -64 2304 -64 
C 2355 -83 2387 -83 2426 -64 
C 2566 51 2790 147 3181 192 
C 3219 230 3219 326 3181 365 
C 2771 397 2714 518 2714 832 
L 2714 3731 
C 2714 4147 2739 4403 2739 4403 
C 2739 4448 2714 4467 2656 4467 
C 2496 4403 2016 4314 1760 4294 
C 1747 4243 1760 4141 1798 4102 
C 2131 4083 2208 4115 2208 3578 
L 2208 2758 
C 2208 2714 2195 2701 2150 2701 
C 2125 2701 1862 2810 1651 2810 
C 1229 2810 947 2669 691 2426 
C 416 2150 250 1773 250 1299 
C 250 512 646 -64 1338 -64 
C 1587 -64 1824 64 2138 320 
z
" transform="scale(0.015625)"/>
       <path id="LinLibertineO-56" d="M 2867 3930 
C 3341 3898 3341 3725 3206 3379 
L 2195 813 
L 2163 813 
L 1146 3418 
C 998 3795 1037 3885 1472 3930 
C 1510 3968 1510 4102 1472 4141 
C 1216 4134 928 4128 698 4128 
C 461 4128 243 4134 32 4141 
C -6 4102 0 3968 38 3930 
C 390 3898 435 3789 608 3347 
L 1875 70 
C 1914 -32 1958 -77 2022 -77 
C 2093 -77 2138 -26 2176 70 
L 3494 3334 
C 3616 3635 3725 3885 4128 3930 
C 4166 3968 4166 4102 4128 4141 
C 3936 4134 3712 4128 3565 4128 
C 3418 4128 3130 4134 2867 4141 
C 2829 4102 2829 3968 2867 3930 
z
" transform="scale(0.015625)"/>
       <path id="LinLibertineO-6d" d="M 1088 2291 
C 1075 2477 1062 2707 1037 2778 
C 1018 2803 1011 2829 960 2829 
C 781 2758 614 2701 173 2643 
C 160 2605 173 2502 186 2464 
C 531 2432 602 2400 602 2029 
L 602 781 
C 602 256 518 224 166 198 
C 128 160 128 26 166 -13 
C 358 -6 602 0 858 0 
C 1114 0 1306 -6 1498 -13 
C 1536 26 1536 160 1498 198 
C 1178 230 1107 256 1107 781 
L 1107 1830 
C 1107 1965 1165 2042 1216 2099 
C 1466 2342 1709 2477 1907 2477 
C 2150 2477 2330 2323 2330 1894 
L 2330 781 
C 2330 256 2278 224 1933 198 
C 1901 160 1901 26 1933 -13 
C 2093 -6 2330 0 2586 0 
C 2842 0 3053 -6 3213 -13 
C 3245 26 3245 160 3213 198 
C 2893 224 2835 256 2835 781 
L 2835 1798 
C 2835 1888 2835 1978 2829 2054 
C 3136 2394 3424 2477 3674 2477 
C 3917 2477 4058 2336 4058 1907 
L 4058 781 
C 4058 256 3994 224 3661 198 
C 3629 160 3629 26 3661 -13 
C 3821 -6 4058 0 4314 0 
C 4570 0 4794 -6 4973 -13 
C 5005 26 5005 160 4973 198 
C 4621 224 4563 256 4563 781 
L 4563 1792 
C 4563 2362 4467 2810 3904 2810 
C 3571 2810 3181 2688 2848 2336 
C 2829 2317 2790 2285 2778 2336 
C 2714 2598 2470 2810 2138 2810 
C 1766 2810 1427 2586 1165 2291 
C 1133 2253 1088 2214 1088 2291 
z
" transform="scale(0.015625)"/>
       <path id="LinLibertineO-6e" d="M 1178 2291 
C 1133 2246 1101 2227 1101 2291 
C 1094 2464 1075 2707 1050 2778 
C 1030 2803 1024 2829 973 2829 
C 794 2758 627 2701 186 2643 
C 173 2605 186 2502 198 2464 
C 544 2432 614 2400 614 2029 
L 614 781 
C 614 256 550 230 166 198 
C 128 160 128 26 166 -13 
C 358 -6 614 0 870 0 
C 1126 0 1318 -6 1510 -13 
C 1549 26 1549 160 1510 198 
C 1184 230 1120 256 1120 781 
L 1120 1830 
C 1120 1965 1178 2042 1229 2099 
C 1472 2336 1760 2477 2010 2477 
C 2138 2477 2272 2394 2349 2246 
C 2413 2118 2426 1946 2426 1754 
L 2426 781 
C 2426 256 2362 230 2029 198 
C 1997 160 1997 26 2029 -13 
C 2221 -6 2426 0 2682 0 
C 2938 0 3168 -6 3360 -13 
C 3392 26 3392 160 3360 198 
C 3002 230 2931 256 2931 781 
L 2931 1734 
C 2931 2086 2906 2394 2758 2592 
C 2650 2733 2451 2810 2227 2810 
C 1914 2810 1555 2726 1178 2291 
z
" transform="scale(0.015625)"/>
      </defs>
      <use xlink:href="#LinLibertineO-28"/>
      <use xlink:href="#LinLibertineO-62" transform="translate(29.799988 0)"/>
      <use xlink:href="#LinLibertineO-29" transform="translate(79.099976 0)"/>
      <use xlink:href="#LinLibertineO-20" transform="translate(108.899963 0)"/>
      <use xlink:href="#LinLibertineO-52" transform="translate(133.899948 0)"/>
      <use xlink:href="#LinLibertineO-65" transform="translate(192.599945 0)"/>
      <use xlink:href="#LinLibertineO-63" transform="translate(237.299942 0)"/>
      <use xlink:href="#LinLibertineO-61" transform="translate(280.09993 0)"/>
      <use xlink:href="#LinLibertineO-6c" transform="translate(325.799927 0)"/>
      <use xlink:href="#LinLibertineO-6c" transform="translate(352.199921 0)"/>
      <use xlink:href="#LinLibertineO-40" transform="translate(378.599915 0)"/>
      <use xlink:href="#LinLibertineO-31" transform="translate(468.099899 0)"/>
      <use xlink:href="#LinLibertineO-30" transform="translate(514.599884 0)"/>
      <use xlink:href="#LinLibertineO-20" transform="translate(561.099869 0)"/>
      <use xlink:href="#LinLibertineO-28" transform="translate(586.099854 0)"/>
      <use xlink:href="#LinLibertineO-46" transform="translate(615.899841 0)"/>
      <use xlink:href="#LinLibertineO-69" transform="translate(664.399826 0)"/>
      <use xlink:href="#LinLibertineO-6c" transform="translate(691.499817 0)"/>
      <use xlink:href="#LinLibertineO-74" transform="translate(717.899811 0)"/>
      <use xlink:href="#LinLibertineO-65" transform="translate(749.499802 0)"/>
      <use xlink:href="#LinLibertineO-72" transform="translate(794.199799 0)"/>
      <use xlink:href="#LinLibertineO-65" transform="translate(831.399796 0)"/>
      <use xlink:href="#LinLibertineO-64" transform="translate(876.099792 0)"/>
      <use xlink:href="#LinLibertineO-56" transform="translate(926.699783 0)"/>
      <use xlink:href="#LinLibertineO-61" transform="translate(991.89978 0)"/>
      <use xlink:href="#LinLibertineO-6d" transform="translate(1037.599777 0)"/>
      <use xlink:href="#LinLibertineO-61" transform="translate(1116.599762 0)"/>
      <use xlink:href="#LinLibertineO-6e" transform="translate(1162.299759 0)"/>
      <use xlink:href="#LinLibertineO-61" transform="translate(1216.499756 0)"/>
      <use xlink:href="#LinLibertineO-29" transform="translate(1262.199753 0)"/>
     </g>
    </g>
   </g>
   <g id="matplotlib.axis_4">
    <g id="ytick_4">
     <g id="line2d_28">
      <path d="M 380.165757 193.707635 
L 638.607862 193.707635 
" clip-path="url(#p846e1e5c9c)" style="fill: none; stroke-dasharray: 0.8,1.32; stroke-dashoffset: 0; stroke: #b0b0b0; stroke-opacity: 0.6; stroke-width: 0.8"/>
     </g>
     <g id="line2d_29">
      <g>
       <use xlink:href="#m289500c16d" x="380.165757" y="193.707635" style="stroke: #000000; stroke-width: 0.8"/>
      </g>
     </g>
     <g id="text_16">
      <!-- 10² -->
      <g transform="translate(349.737632 199.026541) scale(0.14 -0.14)">
       <use xlink:href="#DejaVuSans-31"/>
       <use xlink:href="#DejaVuSans-30" transform="translate(63.623047 0)"/>
       <use xlink:href="#DejaVuSans-b2" transform="translate(127.246094 0)"/>
      </g>
     </g>
    </g>
    <g id="ytick_5">
     <g id="line2d_30">
      <path d="M 380.165757 108 
L 638.607862 108 
" clip-path="url(#p846e1e5c9c)" style="fill: none; stroke-dasharray: 0.8,1.32; stroke-dashoffset: 0; stroke: #b0b0b0; stroke-opacity: 0.6; stroke-width: 0.8"/>
     </g>
     <g id="line2d_31">
      <g>
       <use xlink:href="#m289500c16d" x="380.165757" y="108" style="stroke: #000000; stroke-width: 0.8"/>
      </g>
     </g>
     <g id="text_17">
      <!-- 10³ -->
      <g transform="translate(349.737632 113.318906) scale(0.14 -0.14)">
       <use xlink:href="#DejaVuSans-31"/>
       <use xlink:href="#DejaVuSans-30" transform="translate(63.623047 0)"/>
       <use xlink:href="#DejaVuSans-b3" transform="translate(127.246094 0)"/>
      </g>
     </g>
    </g>
    <g id="ytick_6">
     <g id="line2d_32">
      <path d="M 380.165757 22.292365 
L 638.607862 22.292365 
" clip-path="url(#p846e1e5c9c)" style="fill: none; stroke-dasharray: 0.8,1.32; stroke-dashoffset: 0; stroke: #b0b0b0; stroke-opacity: 0.6; stroke-width: 0.8"/>
     </g>
     <g id="line2d_33">
      <g>
       <use xlink:href="#m289500c16d" x="380.165757" y="22.292365" style="stroke: #000000; stroke-width: 0.8"/>
      </g>
     </g>
     <g id="text_18">
      <!-- 10⁴ -->
      <g transform="translate(349.737632 27.611272) scale(0.14 -0.14)">
       <use xlink:href="#DejaVuSans-31"/>
       <use xlink:href="#DejaVuSans-30" transform="translate(63.623047 0)"/>
       <use xlink:href="#DejaVuSans-2074" transform="translate(127.246094 0)"/>
      </g>
     </g>
    </g>
   </g>
   <g id="line2d_34">
    <path d="M 486.460493 74.309584 
L 563.576283 94.603574 
L 591.921546 108.444661 
L 616.51523 132.791138 
L 624.518599 154.271431 
" clip-path="url(#p846e1e5c9c)" style="fill: none; stroke: #e74c3c; stroke-width: 1.2; stroke-linecap: square"/>
    <g clip-path="url(#p846e1e5c9c)">
     <use xlink:href="#m8597097293" x="486.460493" y="74.309584" style="fill: #ffffff; fill-opacity: 0.8; stroke: #e74c3c; stroke-opacity: 0.8"/>
     <use xlink:href="#m8597097293" x="563.576283" y="94.603574" style="fill: #ffffff; fill-opacity: 0.8; stroke: #e74c3c; stroke-opacity: 0.8"/>
     <use xlink:href="#m8597097293" x="591.921546" y="108.444661" style="fill: #ffffff; fill-opacity: 0.8; stroke: #e74c3c; stroke-opacity: 0.8"/>
     <use xlink:href="#m8597097293" x="616.51523" y="132.791138" style="fill: #ffffff; fill-opacity: 0.8; stroke: #e74c3c; stroke-opacity: 0.8"/>
     <use xlink:href="#m8597097293" x="624.518599" y="154.271431" style="fill: #ffffff; fill-opacity: 0.8; stroke: #e74c3c; stroke-opacity: 0.8"/>
    </g>
   </g>
   <g id="line2d_35">
    <path d="M 401.591441 45.534745 
L 504.968283 60.175229 
L 590.587651 84.959765 
L 617.765757 105.192585 
L 629.604072 159.912874 
" clip-path="url(#p846e1e5c9c)" style="fill: none; stroke-dasharray: 4.44,1.92; stroke-dashoffset: 0; stroke: #f39c12; stroke-width: 1.2"/>
    <g clip-path="url(#p846e1e5c9c)">
     <use xlink:href="#m4c84a0f4f6" x="401.591441" y="45.534745" style="fill: #ffffff; fill-opacity: 0.8; stroke: #f39c12; stroke-opacity: 0.8; stroke-linejoin: miter"/>
     <use xlink:href="#m4c84a0f4f6" x="504.968283" y="60.175229" style="fill: #ffffff; fill-opacity: 0.8; stroke: #f39c12; stroke-opacity: 0.8; stroke-linejoin: miter"/>
     <use xlink:href="#m4c84a0f4f6" x="590.587651" y="84.959765" style="fill: #ffffff; fill-opacity: 0.8; stroke: #f39c12; stroke-opacity: 0.8; stroke-linejoin: miter"/>
     <use xlink:href="#m4c84a0f4f6" x="617.765757" y="105.192585" style="fill: #ffffff; fill-opacity: 0.8; stroke: #f39c12; stroke-opacity: 0.8; stroke-linejoin: miter"/>
     <use xlink:href="#m4c84a0f4f6" x="629.604072" y="159.912874" style="fill: #ffffff; fill-opacity: 0.8; stroke: #f39c12; stroke-opacity: 0.8; stroke-linejoin: miter"/>
    </g>
   </g>
   <g id="line2d_36">
    <path d="M 463.117336 49.746278 
L 550.404072 65.720742 
L 609.595651 90.576615 
L 629.604072 152.551972 
" clip-path="url(#p846e1e5c9c)" style="fill: none; stroke-dasharray: 7.68,1.92,1.2,1.92; stroke-dashoffset: 0; stroke: #2ecc71; stroke-width: 1.2"/>
    <g clip-path="url(#p846e1e5c9c)">
     <use xlink:href="#m4d69092842" x="463.117336" y="49.746278" style="fill: #ffffff; fill-opacity: 0.8; stroke: #2ecc71; stroke-opacity: 0.8; stroke-linejoin: miter"/>
     <use xlink:href="#m4d69092842" x="550.404072" y="65.720742" style="fill: #ffffff; fill-opacity: 0.8; stroke: #2ecc71; stroke-opacity: 0.8; stroke-linejoin: miter"/>
     <use xlink:href="#m4d69092842" x="609.595651" y="90.576615" style="fill: #ffffff; fill-opacity: 0.8; stroke: #2ecc71; stroke-opacity: 0.8; stroke-linejoin: miter"/>
     <use xlink:href="#m4d69092842" x="629.604072" y="152.551972" style="fill: #ffffff; fill-opacity: 0.8; stroke: #2ecc71; stroke-opacity: 0.8; stroke-linejoin: miter"/>
    </g>
   </g>
   <g id="line2d_37">
    <path d="M 497.631862 53.152813 
L 572.496704 69.126979 
L 618.182599 94.66986 
L 629.687441 154.792457 
" clip-path="url(#p846e1e5c9c)" style="fill: none; stroke: #9b59b6; stroke-width: 1.2; stroke-linecap: square"/>
    <g clip-path="url(#p846e1e5c9c)">
     <use xlink:href="#m0adb47add2" x="497.631862" y="53.152813" style="fill: #ffffff; fill-opacity: 0.8; stroke: #9b59b6; stroke-opacity: 0.8; stroke-linejoin: miter"/>
     <use xlink:href="#m0adb47add2" x="572.496704" y="69.126979" style="fill: #ffffff; fill-opacity: 0.8; stroke: #9b59b6; stroke-opacity: 0.8; stroke-linejoin: miter"/>
     <use xlink:href="#m0adb47add2" x="618.182599" y="94.66986" style="fill: #ffffff; fill-opacity: 0.8; stroke: #9b59b6; stroke-opacity: 0.8; stroke-linejoin: miter"/>
     <use xlink:href="#m0adb47add2" x="629.687441" y="154.792457" style="fill: #ffffff; fill-opacity: 0.8; stroke: #9b59b6; stroke-opacity: 0.8; stroke-linejoin: miter"/>
    </g>
   </g>
   <g id="line2d_38">
    <path d="M 588.586809 208.8 
L 588.586809 7.2 
" clip-path="url(#p846e1e5c9c)" style="fill: none; stroke-dasharray: 5.55,2.4; stroke-dashoffset: 0; stroke: #808080; stroke-opacity: 0.7; stroke-width: 1.5"/>
   </g>
   <g id="patch_8">
    <path d="M 380.165757 208.8 
L 380.165757 7.2 
" style="fill: none; stroke: #000000; stroke-width: 0.8; stroke-linejoin: miter; stroke-linecap: square"/>
   </g>
   <g id="patch_9">
    <path d="M 638.607862 208.8 
L 638.607862 7.2 
" style="fill: none; stroke: #000000; stroke-width: 0.8; stroke-linejoin: miter; stroke-linecap: square"/>
   </g>
   <g id="patch_10">
    <path d="M 380.165757 208.8 
L 638.607862 208.8 
" style="fill: none; stroke: #000000; stroke-width: 0.8; stroke-linejoin: miter; stroke-linecap: square"/>
   </g>
   <g id="patch_11">
    <path d="M 380.165757 7.2 
L 638.607862 7.2 
" style="fill: none; stroke: #000000; stroke-width: 0.8; stroke-linejoin: miter; stroke-linecap: square"/>
   </g>
   <g id="text_19">
    <!-- 25% ≈ 50% ≈ 75% &gt; 1% -->
    <g style="fill: #ff0000" transform="translate(387.91902 188.64) scale(0.16 -0.16)">
     <use xlink:href="#DejaVuSans-32"/>
     <use xlink:href="#DejaVuSans-35" transform="translate(63.623047 0)"/>
     <use xlink:href="#DejaVuSans-25" transform="translate(127.246094 0)"/>
     <use xlink:href="#DejaVuSans-20" transform="translate(222.265625 0)"/>
     <use xlink:href="#DejaVuSans-2248" transform="translate(254.052734 0)"/>
     <use xlink:href="#DejaVuSans-20" transform="translate(337.841797 0)"/>
     <use xlink:href="#DejaVuSans-35" transform="translate(369.628906 0)"/>
     <use xlink:href="#DejaVuSans-30" transform="translate(433.251953 0)"/>
     <use xlink:href="#DejaVuSans-25" transform="translate(496.875 0)"/>
     <use xlink:href="#DejaVuSans-20" transform="translate(591.894531 0)"/>
     <use xlink:href="#DejaVuSans-2248" transform="translate(623.681641 0)"/>
     <use xlink:href="#DejaVuSans-20" transform="translate(707.470703 0)"/>
     <use xlink:href="#DejaVuSans-37" transform="translate(739.257812 0)"/>
     <use xlink:href="#DejaVuSans-35" transform="translate(802.880859 0)"/>
     <use xlink:href="#DejaVuSans-25" transform="translate(866.503906 0)"/>
     <use xlink:href="#DejaVuSans-20" transform="translate(961.523438 0)"/>
     <use xlink:href="#DejaVuSans-3e" transform="translate(993.310547 0)"/>
     <use xlink:href="#DejaVuSans-20" transform="translate(1077.099609 0)"/>
     <use xlink:href="#DejaVuSans-31" transform="translate(1108.886719 0)"/>
     <use xlink:href="#DejaVuSans-25" transform="translate(1172.509766 0)"/>
    </g>
   </g>
  </g>
  <g id="axes_3">
   <g id="patch_12">
    <path d="M 703.218388 208.8 
L 961.660493 208.8 
L 961.660493 7.2 
L 703.218388 7.2 
z
" style="fill: #ffffff"/>
   </g>
   <g id="matplotlib.axis_5">
    <g id="xtick_9">
     <g id="line2d_39">
      <path d="M 703.218388 208.8 
L 703.218388 7.2 
" clip-path="url(#p9d571d14aa)" style="fill: none; stroke-dasharray: 0.8,1.32; stroke-dashoffset: 0; stroke: #b0b0b0; stroke-opacity: 0.6; stroke-width: 0.8"/>
     </g>
     <g id="line2d_40">
      <g>
       <use xlink:href="#m12647971b6" x="703.218388" y="208.8" style="stroke: #000000; stroke-width: 0.8"/>
      </g>
     </g>
     <g id="text_20">
      <!-- 0.7 -->
      <g transform="translate(692.086201 226.437813) scale(0.14 -0.14)">
       <use xlink:href="#DejaVuSans-30"/>
       <use xlink:href="#DejaVuSans-2e" transform="translate(63.623047 0)"/>
       <use xlink:href="#DejaVuSans-37" transform="translate(95.410156 0)"/>
      </g>
     </g>
    </g>
    <g id="xtick_10">
     <g id="line2d_41">
      <path d="M 786.586809 208.8 
L 786.586809 7.2 
" clip-path="url(#p9d571d14aa)" style="fill: none; stroke-dasharray: 0.8,1.32; stroke-dashoffset: 0; stroke: #b0b0b0; stroke-opacity: 0.6; stroke-width: 0.8"/>
     </g>
     <g id="line2d_42">
      <g>
       <use xlink:href="#m12647971b6" x="786.586809" y="208.8" style="stroke: #000000; stroke-width: 0.8"/>
      </g>
     </g>
     <g id="text_21">
      <!-- 0.8 -->
      <g transform="translate(775.454622 226.437813) scale(0.14 -0.14)">
       <use xlink:href="#DejaVuSans-30"/>
       <use xlink:href="#DejaVuSans-2e" transform="translate(63.623047 0)"/>
       <use xlink:href="#DejaVuSans-38" transform="translate(95.410156 0)"/>
      </g>
     </g>
    </g>
    <g id="xtick_11">
     <g id="line2d_43">
      <path d="M 869.95523 208.8 
L 869.95523 7.2 
" clip-path="url(#p9d571d14aa)" style="fill: none; stroke-dasharray: 0.8,1.32; stroke-dashoffset: 0; stroke: #b0b0b0; stroke-opacity: 0.6; stroke-width: 0.8"/>
     </g>
     <g id="line2d_44">
      <g>
       <use xlink:href="#m12647971b6" x="869.95523" y="208.8" style="stroke: #000000; stroke-width: 0.8"/>
      </g>
     </g>
     <g id="text_22">
      <!-- 0.9 -->
      <g transform="translate(858.823043 226.437813) scale(0.14 -0.14)">
       <use xlink:href="#DejaVuSans-30"/>
       <use xlink:href="#DejaVuSans-2e" transform="translate(63.623047 0)"/>
       <use xlink:href="#DejaVuSans-39" transform="translate(95.410156 0)"/>
      </g>
     </g>
    </g>
    <g id="xtick_12">
     <g id="line2d_45">
      <path d="M 953.323651 208.8 
L 953.323651 7.2 
" clip-path="url(#p9d571d14aa)" style="fill: none; stroke-dasharray: 0.8,1.32; stroke-dashoffset: 0; stroke: #b0b0b0; stroke-opacity: 0.6; stroke-width: 0.8"/>
     </g>
     <g id="line2d_46">
      <g>
       <use xlink:href="#m12647971b6" x="953.323651" y="208.8" style="stroke: #000000; stroke-width: 0.8"/>
      </g>
     </g>
     <g id="text_23">
      <!-- 1.0 -->
      <g transform="translate(942.191464 226.437813) scale(0.14 -0.14)">
       <use xlink:href="#DejaVuSans-31"/>
       <use xlink:href="#DejaVuSans-2e" transform="translate(63.623047 0)"/>
       <use xlink:href="#DejaVuSans-30" transform="translate(95.410156 0)"/>
      </g>
     </g>
    </g>
    <g id="text_24">
     <!-- (c) Recall@10 (VBASE) -->
     <g transform="translate(738.748816 247.30875) scale(0.2 -0.2)">
      <defs>
       <path id="LinLibertineO-42" d="M 1222 3520 
C 1222 3859 1222 3923 1779 3923 
C 2138 3923 2605 3731 2605 3078 
C 2605 2534 2227 2342 1696 2342 
L 1222 2342 
L 1222 3520 
z
M 1222 2125 
L 1664 2125 
C 2541 2125 2906 1632 2906 1056 
C 2906 589 2726 198 1754 198 
C 1306 198 1222 365 1222 755 
L 1222 2125 
z
M 947 4128 
C 717 4128 371 4134 122 4141 
C 83 4102 83 3968 122 3930 
C 570 3910 678 3878 678 3347 
L 678 781 
C 678 250 570 218 122 198 
C 83 160 83 26 122 -13 
C 371 -6 710 0 954 0 
C 1178 0 1350 -13 1888 -13 
C 3162 -13 3501 627 3501 1178 
C 3501 1792 3072 2144 2515 2304 
L 2515 2317 
C 2835 2477 3123 2803 3123 3155 
C 3123 3584 2938 4141 1747 4141 
C 1523 4141 1178 4128 947 4128 
z
" transform="scale(0.015625)"/>
       <path id="LinLibertineO-41" d="M 1683 1811 
C 1542 1811 1498 1830 1517 1894 
L 2176 3552 
L 2214 3552 
L 2816 1811 
L 1683 1811 
z
M 992 506 
L 1344 1434 
C 1376 1517 1414 1542 1568 1542 
L 2918 1542 
L 3290 461 
C 3360 237 3117 218 2816 198 
C 2778 160 2778 26 2816 -13 
C 3053 -6 3405 0 3654 0 
C 3917 0 4160 -6 4384 -13 
C 4422 26 4422 160 4384 198 
C 4134 218 3917 237 3808 550 
L 2490 4211 
C 2394 4154 2221 4083 2138 4083 
L 685 653 
C 518 256 320 218 45 198 
C 6 160 6 26 45 -13 
C 211 -6 416 0 614 0 
C 877 0 1197 -6 1434 -13 
C 1472 26 1472 160 1434 198 
C 1190 211 890 237 992 506 
z
" transform="scale(0.015625)"/>
       <path id="LinLibertineO-53" d="M 2522 4038 
C 2150 4090 2170 4211 1542 4211 
C 896 4211 326 3782 326 3104 
C 326 2426 877 2118 1440 1907 
C 1830 1754 2304 1574 2304 954 
C 2304 435 2010 166 1504 166 
C 902 166 518 435 378 1075 
C 301 1101 230 1088 173 1056 
C 198 563 224 397 301 83 
C 704 83 877 -64 1446 -64 
C 1741 -64 2016 6 2240 141 
C 2605 371 2842 768 2842 1178 
C 2842 1856 2323 2157 1798 2349 
C 1421 2496 781 2733 781 3277 
C 781 3635 1107 3994 1478 3994 
C 2106 3994 2304 3597 2432 3174 
C 2496 3162 2579 3168 2637 3213 
C 2618 3520 2592 3699 2522 4038 
z
" transform="scale(0.015625)"/>
       <path id="LinLibertineO-45" d="M 1798 2310 
L 1216 2310 
L 1216 3462 
C 1216 3744 1293 3872 1638 3872 
L 2118 3872 
C 2598 3872 2701 3616 2842 3174 
C 2918 3162 2989 3174 3053 3206 
C 3021 3469 2925 4083 2912 4134 
C 2912 4147 2906 4154 2886 4154 
C 2778 4134 2726 4128 2573 4128 
L 941 4128 
C 742 4128 371 4134 115 4141 
C 77 4102 77 3968 115 3930 
C 563 3910 672 3878 672 3347 
L 672 781 
C 672 250 563 218 115 198 
C 77 160 77 26 115 -13 
C 352 -6 736 0 947 0 
L 2323 0 
C 2630 0 3142 -13 3142 -13 
C 3232 307 3328 730 3379 1056 
C 3309 1088 3238 1107 3155 1088 
C 3027 627 2803 250 2317 250 
L 1574 250 
C 1306 250 1216 352 1216 653 
L 1216 2067 
L 1798 2067 
C 2342 2067 2362 1920 2381 1632 
C 2419 1594 2554 1594 2592 1632 
C 2586 1798 2579 1971 2579 2195 
C 2579 2374 2586 2592 2592 2746 
C 2554 2784 2419 2784 2381 2746 
C 2362 2394 2342 2310 1798 2310 
z
" transform="scale(0.015625)"/>
      </defs>
      <use xlink:href="#LinLibertineO-28"/>
      <use xlink:href="#LinLibertineO-63" transform="translate(29.799988 0)"/>
      <use xlink:href="#LinLibertineO-29" transform="translate(72.599976 0)"/>
      <use xlink:href="#LinLibertineO-20" transform="translate(102.399963 0)"/>
      <use xlink:href="#LinLibertineO-52" transform="translate(127.399948 0)"/>
      <use xlink:href="#LinLibertineO-65" transform="translate(186.099945 0)"/>
      <use xlink:href="#LinLibertineO-63" transform="translate(230.799942 0)"/>
      <use xlink:href="#LinLibertineO-61" transform="translate(273.59993 0)"/>
      <use xlink:href="#LinLibertineO-6c" transform="translate(319.299927 0)"/>
      <use xlink:href="#LinLibertineO-6c" transform="translate(345.699921 0)"/>
      <use xlink:href="#LinLibertineO-40" transform="translate(372.099915 0)"/>
      <use xlink:href="#LinLibertineO-31" transform="translate(461.599899 0)"/>
      <use xlink:href="#LinLibertineO-30" transform="translate(508.099884 0)"/>
      <use xlink:href="#LinLibertineO-20" transform="translate(554.599869 0)"/>
      <use xlink:href="#LinLibertineO-28" transform="translate(579.599854 0)"/>
      <use xlink:href="#LinLibertineO-56" transform="translate(609.399841 0)"/>
      <use xlink:href="#LinLibertineO-42" transform="translate(674.599838 0)"/>
      <use xlink:href="#LinLibertineO-41" transform="translate(733.399826 0)"/>
      <use xlink:href="#LinLibertineO-53" transform="translate(802.899811 0)"/>
      <use xlink:href="#LinLibertineO-45" transform="translate(851.399796 0)"/>
      <use xlink:href="#LinLibertineO-29" transform="translate(907.099792 0)"/>
     </g>
    </g>
   </g>
   <g id="matplotlib.axis_6">
    <g id="ytick_7">
     <g id="line2d_47">
      <path d="M 703.218388 182.546149 
L 961.660493 182.546149 
" clip-path="url(#p9d571d14aa)" style="fill: none; stroke-dasharray: 0.8,1.32; stroke-dashoffset: 0; stroke: #b0b0b0; stroke-opacity: 0.6; stroke-width: 0.8"/>
     </g>
     <g id="line2d_48">
      <g>
       <use xlink:href="#m289500c16d" x="703.218388" y="182.546149" style="stroke: #000000; stroke-width: 0.8"/>
      </g>
     </g>
     <g id="text_25">
      <!-- 10² -->
      <g transform="translate(672.790263 187.865056) scale(0.14 -0.14)">
       <use xlink:href="#DejaVuSans-31"/>
       <use xlink:href="#DejaVuSans-30" transform="translate(63.623047 0)"/>
       <use xlink:href="#DejaVuSans-b2" transform="translate(127.246094 0)"/>
      </g>
     </g>
    </g>
    <g id="ytick_8">
     <g id="line2d_49">
      <path d="M 703.218388 33.453851 
L 961.660493 33.453851 
" clip-path="url(#p9d571d14aa)" style="fill: none; stroke-dasharray: 0.8,1.32; stroke-dashoffset: 0; stroke: #b0b0b0; stroke-opacity: 0.6; stroke-width: 0.8"/>
     </g>
     <g id="line2d_50">
      <g>
       <use xlink:href="#m289500c16d" x="703.218388" y="33.453851" style="stroke: #000000; stroke-width: 0.8"/>
      </g>
     </g>
     <g id="text_26">
      <!-- 10³ -->
      <g transform="translate(672.790263 38.772757) scale(0.14 -0.14)">
       <use xlink:href="#DejaVuSans-31"/>
       <use xlink:href="#DejaVuSans-30" transform="translate(63.623047 0)"/>
       <use xlink:href="#DejaVuSans-b3" transform="translate(127.246094 0)"/>
      </g>
     </g>
    </g>
   </g>
   <g id="line2d_51">
    <path d="M 776.49923 167.176969 
L 943.90302 174.621103 
" clip-path="url(#p9d571d14aa)" style="fill: none; stroke: #e74c3c; stroke-width: 1.2; stroke-linecap: square"/>
    <g clip-path="url(#p9d571d14aa)">
     <use xlink:href="#m8597097293" x="776.49923" y="167.176969" style="fill: #ffffff; fill-opacity: 0.8; stroke: #e74c3c; stroke-opacity: 0.8"/>
     <use xlink:href="#m8597097293" x="943.90302" y="174.621103" style="fill: #ffffff; fill-opacity: 0.8; stroke: #e74c3c; stroke-opacity: 0.8"/>
    </g>
   </g>
   <g id="line2d_52">
    <path d="M 734.398178 47.554483 
L 911.722809 49.565793 
L 937.650388 73.264407 
L 951.406178 123.652947 
" clip-path="url(#p9d571d14aa)" style="fill: none; stroke-dasharray: 4.44,1.92; stroke-dashoffset: 0; stroke: #f39c12; stroke-width: 1.2"/>
    <g clip-path="url(#p9d571d14aa)">
     <use xlink:href="#m4c84a0f4f6" x="734.398178" y="47.554483" style="fill: #ffffff; fill-opacity: 0.8; stroke: #f39c12; stroke-opacity: 0.8; stroke-linejoin: miter"/>
     <use xlink:href="#m4c84a0f4f6" x="911.722809" y="49.565793" style="fill: #ffffff; fill-opacity: 0.8; stroke: #f39c12; stroke-opacity: 0.8; stroke-linejoin: miter"/>
     <use xlink:href="#m4c84a0f4f6" x="937.650388" y="73.264407" style="fill: #ffffff; fill-opacity: 0.8; stroke: #f39c12; stroke-opacity: 0.8; stroke-linejoin: miter"/>
     <use xlink:href="#m4c84a0f4f6" x="951.406178" y="123.652947" style="fill: #ffffff; fill-opacity: 0.8; stroke: #f39c12; stroke-opacity: 0.8; stroke-linejoin: miter"/>
    </g>
   </g>
   <g id="line2d_53">
    <path d="M 764.660914 41.03143 
L 926.645757 48.141594 
L 949.488704 99.186218 
" clip-path="url(#p9d571d14aa)" style="fill: none; stroke-dasharray: 7.68,1.92,1.2,1.92; stroke-dashoffset: 0; stroke: #2ecc71; stroke-width: 1.2"/>
    <g clip-path="url(#p9d571d14aa)">
     <use xlink:href="#m4d69092842" x="764.660914" y="41.03143" style="fill: #ffffff; fill-opacity: 0.8; stroke: #2ecc71; stroke-opacity: 0.8; stroke-linejoin: miter"/>
     <use xlink:href="#m4d69092842" x="926.645757" y="48.141594" style="fill: #ffffff; fill-opacity: 0.8; stroke: #2ecc71; stroke-opacity: 0.8; stroke-linejoin: miter"/>
     <use xlink:href="#m4d69092842" x="949.488704" y="99.186218" style="fill: #ffffff; fill-opacity: 0.8; stroke: #2ecc71; stroke-opacity: 0.8; stroke-linejoin: miter"/>
    </g>
   </g>
   <g id="line2d_54">
    <path d="M 777.332914 48.509013 
L 931.647862 61.893225 
L 952.156493 123.929936 
" clip-path="url(#p9d571d14aa)" style="fill: none; stroke: #9b59b6; stroke-width: 1.2; stroke-linecap: square"/>
    <g clip-path="url(#p9d571d14aa)">
     <use xlink:href="#m0adb47add2" x="777.332914" y="48.509013" style="fill: #ffffff; fill-opacity: 0.8; stroke: #9b59b6; stroke-opacity: 0.8; stroke-linejoin: miter"/>
     <use xlink:href="#m0adb47add2" x="931.647862" y="61.893225" style="fill: #ffffff; fill-opacity: 0.8; stroke: #9b59b6; stroke-opacity: 0.8; stroke-linejoin: miter"/>
     <use xlink:href="#m0adb47add2" x="952.156493" y="123.929936" style="fill: #ffffff; fill-opacity: 0.8; stroke: #9b59b6; stroke-opacity: 0.8; stroke-linejoin: miter"/>
    </g>
   </g>
   <g id="line2d_55">
    <path d="M 911.639441 208.8 
L 911.639441 7.2 
" clip-path="url(#p9d571d14aa)" style="fill: none; stroke-dasharray: 5.55,2.4; stroke-dashoffset: 0; stroke: #808080; stroke-opacity: 0.7; stroke-width: 1.5"/>
   </g>
   <g id="patch_13">
    <path d="M 703.218388 208.8 
L 703.218388 7.2 
" style="fill: none; stroke: #000000; stroke-width: 0.8; stroke-linejoin: miter; stroke-linecap: square"/>
   </g>
   <g id="patch_14">
    <path d="M 961.660493 208.8 
L 961.660493 7.2 
" style="fill: none; stroke: #000000; stroke-width: 0.8; stroke-linejoin: miter; stroke-linecap: square"/>
   </g>
   <g id="patch_15">
    <path d="M 703.218388 208.8 
L 961.660493 208.8 
" style="fill: none; stroke: #000000; stroke-width: 0.8; stroke-linejoin: miter; stroke-linecap: square"/>
   </g>
   <g id="patch_16">
    <path d="M 703.218388 7.2 
L 961.660493 7.2 
" style="fill: none; stroke: #000000; stroke-width: 0.8; stroke-linejoin: miter; stroke-linecap: square"/>
   </g>
   <g id="text_27">
    <!-- 25% ≈ 50% ≈ 75% &gt; 1% -->
    <g style="fill: #ff0000" transform="translate(710.971651 188.64) scale(0.16 -0.16)">
     <use xlink:href="#DejaVuSans-32"/>
     <use xlink:href="#DejaVuSans-35" transform="translate(63.623047 0)"/>
     <use xlink:href="#DejaVuSans-25" transform="translate(127.246094 0)"/>
     <use xlink:href="#DejaVuSans-20" transform="translate(222.265625 0)"/>
     <use xlink:href="#DejaVuSans-2248" transform="translate(254.052734 0)"/>
     <use xlink:href="#DejaVuSans-20" transform="translate(337.841797 0)"/>
     <use xlink:href="#DejaVuSans-35" transform="translate(369.628906 0)"/>
     <use xlink:href="#DejaVuSans-30" transform="translate(433.251953 0)"/>
     <use xlink:href="#DejaVuSans-25" transform="translate(496.875 0)"/>
     <use xlink:href="#DejaVuSans-20" transform="translate(591.894531 0)"/>
     <use xlink:href="#DejaVuSans-2248" transform="translate(623.681641 0)"/>
     <use xlink:href="#DejaVuSans-20" transform="translate(707.470703 0)"/>
     <use xlink:href="#DejaVuSans-37" transform="translate(739.257812 0)"/>
     <use xlink:href="#DejaVuSans-35" transform="translate(802.880859 0)"/>
     <use xlink:href="#DejaVuSans-25" transform="translate(866.503906 0)"/>
     <use xlink:href="#DejaVuSans-20" transform="translate(961.523438 0)"/>
     <use xlink:href="#DejaVuSans-3e" transform="translate(993.310547 0)"/>
     <use xlink:href="#DejaVuSans-20" transform="translate(1077.099609 0)"/>
     <use xlink:href="#DejaVuSans-31" transform="translate(1108.886719 0)"/>
     <use xlink:href="#DejaVuSans-25" transform="translate(1172.509766 0)"/>
    </g>
   </g>
  </g>
  <g id="axes_4">
   <g id="patch_17">
    <path d="M 1026.27102 208.8 
L 1284.713125 208.8 
L 1284.713125 7.2 
L 1026.27102 7.2 
z
" style="fill: #ffffff"/>
   </g>
   <g id="matplotlib.axis_7">
    <g id="xtick_13">
     <g id="line2d_56">
      <path d="M 1026.27102 208.8 
L 1026.27102 7.2 
" clip-path="url(#p6f00454c4d)" style="fill: none; stroke-dasharray: 0.8,1.32; stroke-dashoffset: 0; stroke: #b0b0b0; stroke-opacity: 0.6; stroke-width: 0.8"/>
     </g>
     <g id="line2d_57">
      <g>
       <use xlink:href="#m12647971b6" x="1026.27102" y="208.8" style="stroke: #000000; stroke-width: 0.8"/>
      </g>
     </g>
     <g id="text_28">
      <!-- 0.7 -->
      <g transform="translate(1015.138832 226.437813) scale(0.14 -0.14)">
       <use xlink:href="#DejaVuSans-30"/>
       <use xlink:href="#DejaVuSans-2e" transform="translate(63.623047 0)"/>
       <use xlink:href="#DejaVuSans-37" transform="translate(95.410156 0)"/>
      </g>
     </g>
    </g>
    <g id="xtick_14">
     <g id="line2d_58">
      <path d="M 1109.639441 208.8 
L 1109.639441 7.2 
" clip-path="url(#p6f00454c4d)" style="fill: none; stroke-dasharray: 0.8,1.32; stroke-dashoffset: 0; stroke: #b0b0b0; stroke-opacity: 0.6; stroke-width: 0.8"/>
     </g>
     <g id="line2d_59">
      <g>
       <use xlink:href="#m12647971b6" x="1109.639441" y="208.8" style="stroke: #000000; stroke-width: 0.8"/>
      </g>
     </g>
     <g id="text_29">
      <!-- 0.8 -->
      <g transform="translate(1098.507253 226.437813) scale(0.14 -0.14)">
       <use xlink:href="#DejaVuSans-30"/>
       <use xlink:href="#DejaVuSans-2e" transform="translate(63.623047 0)"/>
       <use xlink:href="#DejaVuSans-38" transform="translate(95.410156 0)"/>
      </g>
     </g>
    </g>
    <g id="xtick_15">
     <g id="line2d_60">
      <path d="M 1193.007862 208.8 
L 1193.007862 7.2 
" clip-path="url(#p6f00454c4d)" style="fill: none; stroke-dasharray: 0.8,1.32; stroke-dashoffset: 0; stroke: #b0b0b0; stroke-opacity: 0.6; stroke-width: 0.8"/>
     </g>
     <g id="line2d_61">
      <g>
       <use xlink:href="#m12647971b6" x="1193.007862" y="208.8" style="stroke: #000000; stroke-width: 0.8"/>
      </g>
     </g>
     <g id="text_30">
      <!-- 0.9 -->
      <g transform="translate(1181.875674 226.437813) scale(0.14 -0.14)">
       <use xlink:href="#DejaVuSans-30"/>
       <use xlink:href="#DejaVuSans-2e" transform="translate(63.623047 0)"/>
       <use xlink:href="#DejaVuSans-39" transform="translate(95.410156 0)"/>
      </g>
     </g>
    </g>
    <g id="xtick_16">
     <g id="line2d_62">
      <path d="M 1276.376283 208.8 
L 1276.376283 7.2 
" clip-path="url(#p6f00454c4d)" style="fill: none; stroke-dasharray: 0.8,1.32; stroke-dashoffset: 0; stroke: #b0b0b0; stroke-opacity: 0.6; stroke-width: 0.8"/>
     </g>
     <g id="line2d_63">
      <g>
       <use xlink:href="#m12647971b6" x="1276.376283" y="208.8" style="stroke: #000000; stroke-width: 0.8"/>
      </g>
     </g>
     <g id="text_31">
      <!-- 1.0 -->
      <g transform="translate(1265.244095 226.437813) scale(0.14 -0.14)">
       <use xlink:href="#DejaVuSans-31"/>
       <use xlink:href="#DejaVuSans-2e" transform="translate(63.623047 0)"/>
       <use xlink:href="#DejaVuSans-30" transform="translate(95.410156 0)"/>
      </g>
     </g>
    </g>
    <g id="text_32">
     <!-- (d) Recall@10 (PASE) -->
     <g transform="translate(1068.012385 247.30875) scale(0.2 -0.2)">
      <defs>
       <path id="LinLibertineO-50" d="M 1210 3546 
C 1210 3731 1306 3955 1766 3955 
C 2208 3955 2650 3808 2650 2995 
C 2650 2304 2317 2022 1696 2022 
C 1536 2022 1280 2035 1210 2054 
L 1210 3546 
z
M 666 3347 
L 666 781 
C 666 250 557 218 109 198 
C 70 160 70 26 109 -13 
C 397 -6 710 0 941 0 
C 1165 0 1542 -6 1862 -13 
C 1901 26 1901 160 1862 198 
C 1363 224 1210 250 1210 781 
L 1210 1869 
C 1350 1824 1504 1805 1728 1805 
C 2893 1805 3245 2566 3245 3110 
C 3245 3488 2995 4173 1811 4173 
C 1562 4173 1190 4128 934 4128 
C 698 4128 365 4134 109 4141 
C 70 4102 70 3968 109 3930 
C 557 3910 666 3878 666 3347 
z
" transform="scale(0.015625)"/>
      </defs>
      <use xlink:href="#LinLibertineO-28"/>
      <use xlink:href="#LinLibertineO-64" transform="translate(29.799988 0)"/>
      <use xlink:href="#LinLibertineO-29" transform="translate(80.399979 0)"/>
      <use xlink:href="#LinLibertineO-20" transform="translate(110.199966 0)"/>
      <use xlink:href="#LinLibertineO-52" transform="translate(135.199951 0)"/>
      <use xlink:href="#LinLibertineO-65" transform="translate(193.899948 0)"/>
      <use xlink:href="#LinLibertineO-63" transform="translate(238.599945 0)"/>
      <use xlink:href="#LinLibertineO-61" transform="translate(281.399933 0)"/>
      <use xlink:href="#LinLibertineO-6c" transform="translate(327.09993 0)"/>
      <use xlink:href="#LinLibertineO-6c" transform="translate(353.499924 0)"/>
      <use xlink:href="#LinLibertineO-40" transform="translate(379.899918 0)"/>
      <use xlink:href="#LinLibertineO-31" transform="translate(469.399902 0)"/>
      <use xlink:href="#LinLibertineO-30" transform="translate(515.899887 0)"/>
      <use xlink:href="#LinLibertineO-20" transform="translate(562.399872 0)"/>
      <use xlink:href="#LinLibertineO-28" transform="translate(587.399857 0)"/>
      <use xlink:href="#LinLibertineO-50" transform="translate(617.199844 0)"/>
      <use xlink:href="#LinLibertineO-41" transform="translate(671.299835 0)"/>
      <use xlink:href="#LinLibertineO-53" transform="translate(740.79982 0)"/>
      <use xlink:href="#LinLibertineO-45" transform="translate(789.299805 0)"/>
      <use xlink:href="#LinLibertineO-29" transform="translate(844.999802 0)"/>
     </g>
    </g>
   </g>
   <g id="matplotlib.axis_8">
    <g id="ytick_9">
     <g id="line2d_64">
      <path d="M 1026.27102 193.707635 
L 1284.713125 193.707635 
" clip-path="url(#p6f00454c4d)" style="fill: none; stroke-dasharray: 0.8,1.32; stroke-dashoffset: 0; stroke: #b0b0b0; stroke-opacity: 0.6; stroke-width: 0.8"/>
     </g>
     <g id="line2d_65">
      <g>
       <use xlink:href="#m289500c16d" x="1026.27102" y="193.707635" style="stroke: #000000; stroke-width: 0.8"/>
      </g>
     </g>
     <g id="text_33">
      <!-- 10¹ -->
      <g transform="translate(995.842895 199.026541) scale(0.14 -0.14)">
       <defs>
        <path id="DejaVuSans-b9" d="M 488 2431 
L 1125 2431 
L 1125 4341 
L 428 4213 
L 428 4575 
L 1147 4697 
L 1575 4697 
L 1575 2431 
L 2216 2431 
L 2216 2088 
L 488 2088 
L 488 2431 
z
" transform="scale(0.015625)"/>
       </defs>
       <use xlink:href="#DejaVuSans-31"/>
       <use xlink:href="#DejaVuSans-30" transform="translate(63.623047 0)"/>
       <use xlink:href="#DejaVuSans-b9" transform="translate(127.246094 0)"/>
      </g>
     </g>
    </g>
    <g id="ytick_10">
     <g id="line2d_66">
      <path d="M 1026.27102 108 
L 1284.713125 108 
" clip-path="url(#p6f00454c4d)" style="fill: none; stroke-dasharray: 0.8,1.32; stroke-dashoffset: 0; stroke: #b0b0b0; stroke-opacity: 0.6; stroke-width: 0.8"/>
     </g>
     <g id="line2d_67">
      <g>
       <use xlink:href="#m289500c16d" x="1026.27102" y="108" style="stroke: #000000; stroke-width: 0.8"/>
      </g>
     </g>
     <g id="text_34">
      <!-- 10² -->
      <g transform="translate(995.842895 113.318906) scale(0.14 -0.14)">
       <use xlink:href="#DejaVuSans-31"/>
       <use xlink:href="#DejaVuSans-30" transform="translate(63.623047 0)"/>
       <use xlink:href="#DejaVuSans-b2" transform="translate(127.246094 0)"/>
      </g>
     </g>
    </g>
    <g id="ytick_11">
     <g id="line2d_68">
      <path d="M 1026.27102 22.292365 
L 1284.713125 22.292365 
" clip-path="url(#p6f00454c4d)" style="fill: none; stroke-dasharray: 0.8,1.32; stroke-dashoffset: 0; stroke: #b0b0b0; stroke-opacity: 0.6; stroke-width: 0.8"/>
     </g>
     <g id="line2d_69">
      <g>
       <use xlink:href="#m289500c16d" x="1026.27102" y="22.292365" style="stroke: #000000; stroke-width: 0.8"/>
      </g>
     </g>
     <g id="text_35">
      <!-- 10³ -->
      <g transform="translate(995.842895 27.611272) scale(0.14 -0.14)">
       <use xlink:href="#DejaVuSans-31"/>
       <use xlink:href="#DejaVuSans-30" transform="translate(63.623047 0)"/>
       <use xlink:href="#DejaVuSans-b3" transform="translate(127.246094 0)"/>
      </g>
     </g>
    </g>
   </g>
   <g id="line2d_70">
    <path d="M 1240.11102 97.880823 
L 1264.954809 116.595525 
L 1275.709336 169.835919 
" clip-path="url(#p6f00454c4d)" style="fill: none; stroke-dasharray: 4.44,1.92; stroke-dashoffset: 0; stroke: #f39c12; stroke-width: 1.2"/>
    <g clip-path="url(#p6f00454c4d)">
     <use xlink:href="#m4c84a0f4f6" x="1240.11102" y="97.880823" style="fill: #ffffff; fill-opacity: 0.8; stroke: #f39c12; stroke-opacity: 0.8; stroke-linejoin: miter"/>
     <use xlink:href="#m4c84a0f4f6" x="1264.954809" y="116.595525" style="fill: #ffffff; fill-opacity: 0.8; stroke: #f39c12; stroke-opacity: 0.8; stroke-linejoin: miter"/>
     <use xlink:href="#m4c84a0f4f6" x="1275.709336" y="169.835919" style="fill: #ffffff; fill-opacity: 0.8; stroke: #f39c12; stroke-opacity: 0.8; stroke-linejoin: miter"/>
    </g>
   </g>
   <g id="line2d_71">
    <path d="M 1250.448704 101.297407 
L 1273.124914 128.7215 
L 1276.042809 183.913198 
" clip-path="url(#p6f00454c4d)" style="fill: none; stroke-dasharray: 7.68,1.92,1.2,1.92; stroke-dashoffset: 0; stroke: #2ecc71; stroke-width: 1.2"/>
    <g clip-path="url(#p6f00454c4d)">
     <use xlink:href="#m4d69092842" x="1250.448704" y="101.297407" style="fill: #ffffff; fill-opacity: 0.8; stroke: #2ecc71; stroke-opacity: 0.8; stroke-linejoin: miter"/>
     <use xlink:href="#m4d69092842" x="1273.124914" y="128.7215" style="fill: #ffffff; fill-opacity: 0.8; stroke: #2ecc71; stroke-opacity: 0.8; stroke-linejoin: miter"/>
     <use xlink:href="#m4d69092842" x="1276.042809" y="183.913198" style="fill: #ffffff; fill-opacity: 0.8; stroke: #2ecc71; stroke-opacity: 0.8; stroke-linejoin: miter"/>
    </g>
   </g>
   <g id="line2d_72">
    <path d="M 1256.701336 101.188756 
L 1276.126178 178.294066 
" clip-path="url(#p6f00454c4d)" style="fill: none; stroke: #9b59b6; stroke-width: 1.2; stroke-linecap: square"/>
    <g clip-path="url(#p6f00454c4d)">
     <use xlink:href="#m0adb47add2" x="1256.701336" y="101.188756" style="fill: #ffffff; fill-opacity: 0.8; stroke: #9b59b6; stroke-opacity: 0.8; stroke-linejoin: miter"/>
     <use xlink:href="#m0adb47add2" x="1276.126178" y="178.294066" style="fill: #ffffff; fill-opacity: 0.8; stroke: #9b59b6; stroke-opacity: 0.8; stroke-linejoin: miter"/>
    </g>
   </g>
   <g id="line2d_73">
    <path d="M 1234.692072 208.8 
L 1234.692072 7.2 
" clip-path="url(#p6f00454c4d)" style="fill: none; stroke-dasharray: 5.55,2.4; stroke-dashoffset: 0; stroke: #808080; stroke-opacity: 0.7; stroke-width: 1.5"/>
   </g>
   <g id="patch_18">
    <path d="M 1026.27102 208.8 
L 1026.27102 7.2 
" style="fill: none; stroke: #000000; stroke-width: 0.8; stroke-linejoin: miter; stroke-linecap: square"/>
   </g>
   <g id="patch_19">
    <path d="M 1284.713125 208.8 
L 1284.713125 7.2 
" style="fill: none; stroke: #000000; stroke-width: 0.8; stroke-linejoin: miter; stroke-linecap: square"/>
   </g>
   <g id="patch_20">
    <path d="M 1026.27102 208.8 
L 1284.713125 208.8 
" style="fill: none; stroke: #000000; stroke-width: 0.8; stroke-linejoin: miter; stroke-linecap: square"/>
   </g>
   <g id="patch_21">
    <path d="M 1026.27102 7.2 
L 1284.713125 7.2 
" style="fill: none; stroke: #000000; stroke-width: 0.8; stroke-linejoin: miter; stroke-linecap: square"/>
   </g>
   <g id="text_36">
    <!-- 25% ≈ 50% ≈ 75% &gt; 1% -->
    <g style="fill: #ff0000" transform="translate(1034.024283 188.64) scale(0.16 -0.16)">
     <use xlink:href="#DejaVuSans-32"/>
     <use xlink:href="#DejaVuSans-35" transform="translate(63.623047 0)"/>
     <use xlink:href="#DejaVuSans-25" transform="translate(127.246094 0)"/>
     <use xlink:href="#DejaVuSans-20" transform="translate(222.265625 0)"/>
     <use xlink:href="#DejaVuSans-2248" transform="translate(254.052734 0)"/>
     <use xlink:href="#DejaVuSans-20" transform="translate(337.841797 0)"/>
     <use xlink:href="#DejaVuSans-35" transform="translate(369.628906 0)"/>
     <use xlink:href="#DejaVuSans-30" transform="translate(433.251953 0)"/>
     <use xlink:href="#DejaVuSans-25" transform="translate(496.875 0)"/>
     <use xlink:href="#DejaVuSans-20" transform="translate(591.894531 0)"/>
     <use xlink:href="#DejaVuSans-2248" transform="translate(623.681641 0)"/>
     <use xlink:href="#DejaVuSans-20" transform="translate(707.470703 0)"/>
     <use xlink:href="#DejaVuSans-37" transform="translate(739.257812 0)"/>
     <use xlink:href="#DejaVuSans-35" transform="translate(802.880859 0)"/>
     <use xlink:href="#DejaVuSans-25" transform="translate(866.503906 0)"/>
     <use xlink:href="#DejaVuSans-20" transform="translate(961.523438 0)"/>
     <use xlink:href="#DejaVuSans-3e" transform="translate(993.310547 0)"/>
     <use xlink:href="#DejaVuSans-20" transform="translate(1077.099609 0)"/>
     <use xlink:href="#DejaVuSans-31" transform="translate(1108.886719 0)"/>
     <use xlink:href="#DejaVuSans-25" transform="translate(1172.509766 0)"/>
    </g>
   </g>
  </g>
 </g>
 <defs>
  <clipPath id="pa3c055d699">
   <rect x="57.113125" y="7.2" width="258.442105" height="201.6"/>
  </clipPath>
  <clipPath id="p846e1e5c9c">
   <rect x="380.165757" y="7.2" width="258.442105" height="201.6"/>
  </clipPath>
  <clipPath id="p9d571d14aa">
   <rect x="703.218388" y="7.2" width="258.442105" height="201.6"/>
  </clipPath>
  <clipPath id="p6f00454c4d">
   <rect x="1026.27102" y="7.2" width="258.442105" height="201.6"/>
  </clipPath>
 </defs>
</svg>
