<?xml version="1.0" encoding="utf-8" standalone="no"?>
<!DOCTYPE svg PUBLIC "-//W3C//DTD SVG 1.1//EN"
  "http://www.w3.org/Graphics/SVG/1.1/DTD/svg11.dtd">
<svg xmlns:xlink="http://www.w3.org/1999/xlink" width="1985.778047pt" height="352.14025pt" viewBox="0 0 1985.778047 352.14025" xmlns="http://www.w3.org/2000/svg" version="1.1">
 <metadata>
  <rdf:RDF xmlns:dc="http://purl.org/dc/elements/1.1/" xmlns:cc="http://creativecommons.org/ns#" xmlns:rdf="http://www.w3.org/1999/02/22-rdf-syntax-ns#">
   <cc:Work>
    <dc:type rdf:resource="http://purl.org/dc/dcmitype/StillImage"/>
    <dc:date>2025-03-13T16:51:36.632428</dc:date>
    <dc:format>image/svg+xml</dc:format>
    <dc:creator>
     <cc:Agent>
      <dc:title>Matplotlib v3.7.5, https://matplotlib.org/</dc:title>
     </cc:Agent>
    </dc:creator>
   </cc:Work>
  </rdf:RDF>
 </metadata>
 <defs>
  <style type="text/css">*{stroke-linejoin: round; stroke-linecap: butt}</style>
 </defs>
 <g id="figure_1">
  <g id="patch_1">
   <path d="M 0 352.14025 
L 1985.778047 352.14025 
L 1985.778047 0 
L 0 0 
z
" style="fill: #ffffff"/>
  </g>
  <g id="axes_1">
   <g id="patch_2">
    <path d="M 72.75625 318.584 
L 1957.17625 318.584 
L 1957.17625 40.424 
L 72.75625 40.424 
z
" style="fill: #ffffff"/>
   </g>
   <g id="patch_3">
    <path d="M 158.411705 67107.841905 
L 176.587928 67107.841905 
L 176.587928 191.922557 
L 158.411705 191.922557 
z
" clip-path="url(#p0978af1a61)" style="fill: #ff8d00; stroke: #000000; stroke-width: 2; stroke-linejoin: miter"/>
   </g>
   <g id="patch_4">
    <path d="M 453.775341 67107.841905 
L 471.951565 67107.841905 
L 471.951565 129.652356 
L 453.775341 129.652356 
z
" clip-path="url(#p0978af1a61)" style="fill: #ff8d00; stroke: #000000; stroke-width: 2; stroke-linejoin: miter"/>
   </g>
   <g id="patch_5">
    <path d="M 749.138977 67107.841905 
L 767.315201 67107.841905 
L 767.315201 70.756931 
L 749.138977 70.756931 
z
" clip-path="url(#p0978af1a61)" style="fill: #ff8d00; stroke: #000000; stroke-width: 2; stroke-linejoin: miter"/>
   </g>
   <g id="patch_6">
    <path d="M 1044.502614 67107.841905 
L 1062.678837 67107.841905 
L 1062.678837 112.428339 
L 1044.502614 112.428339 
z
" clip-path="url(#p0978af1a61)" style="fill: #ff8d00; stroke: #000000; stroke-width: 2; stroke-linejoin: miter"/>
   </g>
   <g id="patch_7">
    <path d="M 1339.86625 67107.841905 
L 1358.042474 67107.841905 
L 1358.042474 91.198503 
L 1339.86625 91.198503 
z
" clip-path="url(#p0978af1a61)" style="fill: #ff8d00; stroke: #000000; stroke-width: 2; stroke-linejoin: miter"/>
   </g>
   <g id="patch_8">
    <path d="M 1635.229886 67107.841905 
L 1653.40611 67107.841905 
L 1653.40611 113.79766 
L 1635.229886 113.79766 
z
" clip-path="url(#p0978af1a61)" style="fill: #ff8d00; stroke: #000000; stroke-width: 2; stroke-linejoin: miter"/>
   </g>
   <g id="patch_9">
    <path d="M 176.587928 67107.841905 
L 194.764152 67107.841905 
L 194.764152 190.573057 
L 176.587928 190.573057 
z
" clip-path="url(#p0978af1a61)" style="fill: #006400; stroke: #000000; stroke-width: 2; stroke-linejoin: miter"/>
   </g>
   <g id="patch_10">
    <path d="M 471.951565 67107.841905 
L 490.127788 67107.841905 
L 490.127788 129.384496 
L 471.951565 129.384496 
z
" clip-path="url(#p0978af1a61)" style="fill: #006400; stroke: #000000; stroke-width: 2; stroke-linejoin: miter"/>
   </g>
   <g id="patch_11">
    <path d="M 767.315201 67107.841905 
L 785.491425 67107.841905 
L 785.491425 70.37084 
L 767.315201 70.37084 
z
" clip-path="url(#p0978af1a61)" style="fill: #006400; stroke: #000000; stroke-width: 2; stroke-linejoin: miter"/>
   </g>
   <g id="patch_12">
    <path d="M 1062.678837 67107.841905 
L 1080.855061 67107.841905 
L 1080.855061 110.557997 
L 1062.678837 110.557997 
z
" clip-path="url(#p0978af1a61)" style="fill: #006400; stroke: #000000; stroke-width: 2; stroke-linejoin: miter"/>
   </g>
   <g id="patch_13">
    <path d="M 1358.042474 67107.841905 
L 1376.218698 67107.841905 
L 1376.218698 90.422626 
L 1358.042474 90.422626 
z
" clip-path="url(#p0978af1a61)" style="fill: #006400; stroke: #000000; stroke-width: 2; stroke-linejoin: miter"/>
   </g>
   <g id="patch_14">
    <path d="M 1653.40611 67107.841905 
L 1671.582334 67107.841905 
L 1671.582334 112.103222 
L 1653.40611 112.103222 
z
" clip-path="url(#p0978af1a61)" style="fill: #006400; stroke: #000000; stroke-width: 2; stroke-linejoin: miter"/>
   </g>
   <g id="patch_15">
    <path d="M 194.764152 67107.841905 
L 212.940376 67107.841905 
L 212.940376 312.110825 
L 194.764152 312.110825 
z
" clip-path="url(#p0978af1a61)" style="fill: #6696ec; stroke: #000000; stroke-width: 2; stroke-linejoin: miter"/>
   </g>
   <g id="patch_16">
    <path d="M 490.127788 67107.841905 
L 508.304012 67107.841905 
L 508.304012 312.110825 
L 490.127788 312.110825 
z
" clip-path="url(#p0978af1a61)" style="fill: #6696ec; stroke: #000000; stroke-width: 2; stroke-linejoin: miter"/>
   </g>
   <g id="patch_17">
    <path d="M 785.491425 67107.841905 
L 803.667649 67107.841905 
L 803.667649 233.552949 
L 785.491425 233.552949 
z
" clip-path="url(#p0978af1a61)" style="fill: #6696ec; stroke: #000000; stroke-width: 2; stroke-linejoin: miter"/>
   </g>
   <g id="patch_18">
    <path d="M 1080.855061 67107.841905 
L 1099.031285 67107.841905 
L 1099.031285 228.26398 
L 1080.855061 228.26398 
z
" clip-path="url(#p0978af1a61)" style="fill: #6696ec; stroke: #000000; stroke-width: 2; stroke-linejoin: miter"/>
   </g>
   <g id="patch_19">
    <path d="M 1376.218698 67107.841905 
L 1394.394921 67107.841905 
L 1394.394921 233.552949 
L 1376.218698 233.552949 
z
" clip-path="url(#p0978af1a61)" style="fill: #6696ec; stroke: #000000; stroke-width: 2; stroke-linejoin: miter"/>
   </g>
   <g id="patch_20">
    <path d="M 1671.582334 67107.841905 
L 1689.758558 67107.841905 
L 1689.758558 233.552949 
L 1671.582334 233.552949 
z
" clip-path="url(#p0978af1a61)" style="fill: #6696ec; stroke: #000000; stroke-width: 2; stroke-linejoin: miter"/>
   </g>
   <g id="patch_21">
    <path d="M 212.940376 67107.841905 
L 231.1166 67107.841905 
L 231.1166 230.735223 
L 212.940376 230.735223 
z
" clip-path="url(#p0978af1a61)" style="fill: #f08181; stroke: #000000; stroke-width: 2; stroke-linejoin: miter"/>
   </g>
   <g id="patch_22">
    <path d="M 508.304012 67107.841905 
L 526.480236 67107.841905 
L 526.480236 216.033647 
L 508.304012 216.033647 
z
" clip-path="url(#p0978af1a61)" style="fill: #f08181; stroke: #000000; stroke-width: 2; stroke-linejoin: miter"/>
   </g>
   <g id="patch_23">
    <path d="M 803.667649 67107.841905 
L 821.843872 67107.841905 
L 821.843872 147.293243 
L 803.667649 147.293243 
z
" clip-path="url(#p0978af1a61)" style="fill: #f08181; stroke: #000000; stroke-width: 2; stroke-linejoin: miter"/>
   </g>
   <g id="patch_24">
    <path d="M 1099.031285 67107.841905 
L 1117.207509 67107.841905 
L 1117.207509 154.641267 
L 1099.031285 154.641267 
z
" clip-path="url(#p0978af1a61)" style="fill: #f08181; stroke: #000000; stroke-width: 2; stroke-linejoin: miter"/>
   </g>
   <g id="patch_25">
    <path d="M 1394.394921 67107.841905 
L 1412.571145 67107.841905 
L 1412.571145 145.193761 
L 1394.394921 145.193761 
z
" clip-path="url(#p0978af1a61)" style="fill: #f08181; stroke: #000000; stroke-width: 2; stroke-linejoin: miter"/>
   </g>
   <g id="patch_26">
    <path d="M 1689.758558 67107.841905 
L 1707.934781 67107.841905 
L 1707.934781 141.443282 
L 1689.758558 141.443282 
z
" clip-path="url(#p0978af1a61)" style="fill: #f08181; stroke: #000000; stroke-width: 2; stroke-linejoin: miter"/>
   </g>
   <g id="patch_27">
    <path d="M 231.1166 67107.841905 
L 249.292823 67107.841905 
L 249.292823 283.839807 
L 231.1166 283.839807 
z
" clip-path="url(#p0978af1a61)" style="fill: #727272; stroke: #000000; stroke-width: 2; stroke-linejoin: miter"/>
   </g>
   <g id="patch_28">
    <path d="M 526.480236 67107.841905 
L 544.65646 67107.841905 
L 544.65646 275.852404 
L 526.480236 275.852404 
z
" clip-path="url(#p0978af1a61)" style="fill: #727272; stroke: #000000; stroke-width: 2; stroke-linejoin: miter"/>
   </g>
   <g id="patch_29">
    <path d="M 821.843872 67107.841905 
L 840.020096 67107.841905 
L 840.020096 204.73253 
L 821.843872 204.73253 
z
" clip-path="url(#p0978af1a61)" style="fill: #727272; stroke: #000000; stroke-width: 2; stroke-linejoin: miter"/>
   </g>
   <g id="patch_30">
    <path d="M 1117.207509 67107.841905 
L 1135.383733 67107.841905 
L 1135.383733 212.475521 
L 1117.207509 212.475521 
z
" clip-path="url(#p0978af1a61)" style="fill: #727272; stroke: #000000; stroke-width: 2; stroke-linejoin: miter"/>
   </g>
   <g id="patch_31">
    <path d="M 1412.571145 67107.841905 
L 1430.747369 67107.841905 
L 1430.747369 189.103336 
L 1412.571145 189.103336 
z
" clip-path="url(#p0978af1a61)" style="fill: #727272; stroke: #000000; stroke-width: 2; stroke-linejoin: miter"/>
   </g>
   <g id="patch_32">
    <path d="M 1707.934781 67107.841905 
L 1726.111005 67107.841905 
L 1726.111005 192.48044 
L 1707.934781 192.48044 
z
" clip-path="url(#p0978af1a61)" style="fill: #727272; stroke: #000000; stroke-width: 2; stroke-linejoin: miter"/>
   </g>
   <g id="patch_33">
    <path d="M 249.292823 67107.841905 
L 267.469047 67107.841905 
L 267.469047 271.426253 
L 249.292823 271.426253 
z
" clip-path="url(#p0978af1a61)" style="fill: #80ffd5; stroke: #000000; stroke-width: 2; stroke-linejoin: miter"/>
   </g>
   <g id="patch_34">
    <path d="M 544.65646 67107.841905 
L 562.832684 67107.841905 
L 562.832684 253.463644 
L 544.65646 253.463644 
z
" clip-path="url(#p0978af1a61)" style="fill: #80ffd5; stroke: #000000; stroke-width: 2; stroke-linejoin: miter"/>
   </g>
   <g id="patch_35">
    <path d="M 840.020096 67107.841905 
L 858.19632 67107.841905 
L 858.19632 181.523856 
L 840.020096 181.523856 
z
" clip-path="url(#p0978af1a61)" style="fill: #80ffd5; stroke: #000000; stroke-width: 2; stroke-linejoin: miter"/>
   </g>
   <g id="patch_36">
    <path d="M 1135.383733 67107.841905 
L 1153.559956 67107.841905 
L 1153.559956 194.698824 
L 1135.383733 194.698824 
z
" clip-path="url(#p0978af1a61)" style="fill: #80ffd5; stroke: #000000; stroke-width: 2; stroke-linejoin: miter"/>
   </g>
   <g id="patch_37">
    <path d="M 1430.747369 67107.841905 
L 1448.923593 67107.841905 
L 1448.923593 182.842586 
L 1430.747369 182.842586 
z
" clip-path="url(#p0978af1a61)" style="fill: #80ffd5; stroke: #000000; stroke-width: 2; stroke-linejoin: miter"/>
   </g>
   <g id="patch_38">
    <path d="M 1726.111005 67107.841905 
L 1744.287229 67107.841905 
L 1744.287229 174.829521 
L 1726.111005 174.829521 
z
" clip-path="url(#p0978af1a61)" style="fill: #80ffd5; stroke: #000000; stroke-width: 2; stroke-linejoin: miter"/>
   </g>
   <g id="patch_39">
    <path d="M 267.469047 67107.841905 
L 285.645271 67107.841905 
L 285.645271 271.5537 
L 267.469047 271.5537 
z
" clip-path="url(#p0978af1a61)" style="fill: #8c008c; stroke: #000000; stroke-width: 2; stroke-linejoin: miter"/>
   </g>
   <g id="patch_40">
    <path d="M 562.832684 67107.841905 
L 581.008907 67107.841905 
L 581.008907 253.432938 
L 562.832684 253.432938 
z
" clip-path="url(#p0978af1a61)" style="fill: #8c008c; stroke: #000000; stroke-width: 2; stroke-linejoin: miter"/>
   </g>
   <g id="patch_41">
    <path d="M 858.19632 67107.841905 
L 876.372544 67107.841905 
L 876.372544 181.526092 
L 858.19632 181.526092 
z
" clip-path="url(#p0978af1a61)" style="fill: #8c008c; stroke: #000000; stroke-width: 2; stroke-linejoin: miter"/>
   </g>
   <g id="patch_42">
    <path d="M 1153.559956 67107.841905 
L 1171.73618 67107.841905 
L 1171.73618 194.71367 
L 1153.559956 194.71367 
z
" clip-path="url(#p0978af1a61)" style="fill: #8c008c; stroke: #000000; stroke-width: 2; stroke-linejoin: miter"/>
   </g>
   <g id="patch_43">
    <path d="M 1448.923593 67107.841905 
L 1467.099816 67107.841905 
L 1467.099816 182.836021 
L 1448.923593 182.836021 
z
" clip-path="url(#p0978af1a61)" style="fill: #8c008c; stroke: #000000; stroke-width: 2; stroke-linejoin: miter"/>
   </g>
   <g id="patch_44">
    <path d="M 1744.287229 67107.841905 
L 1762.463453 67107.841905 
L 1762.463453 174.82601 
L 1744.287229 174.82601 
z
" clip-path="url(#p0978af1a61)" style="fill: #8c008c; stroke: #000000; stroke-width: 2; stroke-linejoin: miter"/>
   </g>
   <g id="patch_45">
    <path d="M 285.645271 67107.841905 
L 303.821495 67107.841905 
L 303.821495 205.420117 
L 285.645271 205.420117 
z
" clip-path="url(#p0978af1a61)" style="fill: #aeff2b; stroke: #000000; stroke-width: 2; stroke-linejoin: miter"/>
   </g>
   <g id="patch_46">
    <path d="M 581.008907 67107.841905 
L 599.185131 67107.841905 
L 599.185131 205.420117 
L 581.008907 205.420117 
z
" clip-path="url(#p0978af1a61)" style="fill: #aeff2b; stroke: #000000; stroke-width: 2; stroke-linejoin: miter"/>
   </g>
   <g id="patch_47">
    <path d="M 876.372544 67107.841905 
L 894.548767 67107.841905 
L 894.548767 73.979408 
L 876.372544 73.979408 
z
" clip-path="url(#p0978af1a61)" style="fill: #aeff2b; stroke: #000000; stroke-width: 2; stroke-linejoin: miter"/>
   </g>
   <g id="patch_48">
    <path d="M 1171.73618 67107.841905 
L 1189.912404 67107.841905 
L 1189.912404 134.193708 
L 1171.73618 134.193708 
z
" clip-path="url(#p0978af1a61)" style="fill: #aeff2b; stroke: #000000; stroke-width: 2; stroke-linejoin: miter"/>
   </g>
   <g id="patch_49">
    <path d="M 1467.099816 67107.841905 
L 1485.27604 67107.841905 
L 1485.27604 98.107969 
L 1467.099816 98.107969 
z
" clip-path="url(#p0978af1a61)" style="fill: #aeff2b; stroke: #000000; stroke-width: 2; stroke-linejoin: miter"/>
   </g>
   <g id="patch_50">
    <path d="M 1762.463453 67107.841905 
L 1780.639677 67107.841905 
L 1780.639677 132.040362 
L 1762.463453 132.040362 
z
" clip-path="url(#p0978af1a61)" style="fill: #aeff2b; stroke: #000000; stroke-width: 2; stroke-linejoin: miter"/>
   </g>
   <g id="patch_51">
    <path d="M 303.821495 67107.841905 
L 321.997719 67107.841905 
L 321.997719 200.421826 
L 303.821495 200.421826 
z
" clip-path="url(#p0978af1a61)" style="fill: #8c0000; stroke: #000000; stroke-width: 2; stroke-linejoin: miter"/>
   </g>
   <g id="patch_52">
    <path d="M 599.185131 67107.841905 
L 617.361355 67107.841905 
L 617.361355 184.992538 
L 599.185131 184.992538 
z
" clip-path="url(#p0978af1a61)" style="fill: #8c0000; stroke: #000000; stroke-width: 2; stroke-linejoin: miter"/>
   </g>
   <g id="patch_53">
    <path d="M 894.548767 67107.841905 
L 912.724991 67107.841905 
L 912.724991 62.588765 
L 894.548767 62.588765 
z
" clip-path="url(#p0978af1a61)" style="fill: #8c0000; stroke: #000000; stroke-width: 2; stroke-linejoin: miter"/>
   </g>
   <g id="patch_54">
    <path d="M 1189.912404 67107.841905 
L 1208.088628 67107.841905 
L 1208.088628 112.667097 
L 1189.912404 112.667097 
z
" clip-path="url(#p0978af1a61)" style="fill: #8c0000; stroke: #000000; stroke-width: 2; stroke-linejoin: miter"/>
   </g>
   <g id="patch_55">
    <path d="M 1485.27604 67107.841905 
L 1503.452264 67107.841905 
L 1503.452264 73.034757 
L 1485.27604 73.034757 
z
" clip-path="url(#p0978af1a61)" style="fill: #8c0000; stroke: #000000; stroke-width: 2; stroke-linejoin: miter"/>
   </g>
   <g id="patch_56">
    <path d="M 1780.639677 67107.841905 
L 1798.8159 67107.841905 
L 1798.8159 142.764001 
L 1780.639677 142.764001 
z
" clip-path="url(#p0978af1a61)" style="fill: #8c0000; stroke: #000000; stroke-width: 2; stroke-linejoin: miter"/>
   </g>
   <g id="patch_57">
    <path d="M 321.997719 67107.841905 
L 340.173942 67107.841905 
L 340.173942 285.530131 
L 321.997719 285.530131 
z
" clip-path="url(#p0978af1a61)" style="fill: #0000ce; stroke: #000000; stroke-width: 2; stroke-linejoin: miter"/>
   </g>
   <g id="patch_58">
    <path d="M 617.361355 67107.841905 
L 635.537579 67107.841905 
L 635.537579 231.68075 
L 617.361355 231.68075 
z
" clip-path="url(#p0978af1a61)" style="fill: #0000ce; stroke: #000000; stroke-width: 2; stroke-linejoin: miter"/>
   </g>
   <g id="patch_59">
    <path d="M 912.724991 67107.841905 
L 930.901215 67107.841905 
L 930.901215 147.934807 
L 912.724991 147.934807 
z
" clip-path="url(#p0978af1a61)" style="fill: #0000ce; stroke: #000000; stroke-width: 2; stroke-linejoin: miter"/>
   </g>
   <g id="patch_60">
    <path d="M 1208.088628 67107.841905 
L 1226.264851 67107.841905 
L 1226.264851 147.934807 
L 1208.088628 147.934807 
z
" clip-path="url(#p0978af1a61)" style="fill: #0000ce; stroke: #000000; stroke-width: 2; stroke-linejoin: miter"/>
   </g>
   <g id="patch_61">
    <path d="M 1503.452264 67107.841905 
L 1521.628488 67107.841905 
L 1521.628488 121.577338 
L 1503.452264 121.577338 
z
" clip-path="url(#p0978af1a61)" style="fill: #0000ce; stroke: #000000; stroke-width: 2; stroke-linejoin: miter"/>
   </g>
   <g id="patch_62">
    <path d="M 1798.8159 67107.841905 
L 1816.992124 67107.841905 
L 1816.992124 143.884845 
L 1798.8159 143.884845 
z
" clip-path="url(#p0978af1a61)" style="fill: #0000ce; stroke: #000000; stroke-width: 2; stroke-linejoin: miter"/>
   </g>
   <g id="patch_63">
    <path d="M 340.173942 67107.841905 
L 358.350166 67107.841905 
L 358.350166 134.313101 
L 340.173942 134.313101 
z
" clip-path="url(#p0978af1a61)" style="fill: #ffface; stroke: #000000; stroke-width: 2; stroke-linejoin: miter"/>
   </g>
   <g id="patch_64">
    <path clip-path="url(#p0978af1a61)" style="fill: #ffface; stroke: #000000; stroke-width: 2; stroke-linejoin: miter"/>
   </g>
   <g id="patch_65">
    <path clip-path="url(#p0978af1a61)" style="fill: #ffface; stroke: #000000; stroke-width: 2; stroke-linejoin: miter"/>
   </g>
   <g id="patch_66">
    <path d="M 1226.264851 67107.841905 
L 1244.441075 67107.841905 
L 1244.441075 45.712969 
L 1226.264851 45.712969 
z
" clip-path="url(#p0978af1a61)" style="fill: #ffface; stroke: #000000; stroke-width: 2; stroke-linejoin: miter"/>
   </g>
   <g id="patch_67">
    <path d="M 1521.628488 67107.841905 
L 1539.804712 67107.841905 
L 1539.804712 45.841414 
L 1521.628488 45.841414 
z
" clip-path="url(#p0978af1a61)" style="fill: #ffface; stroke: #000000; stroke-width: 2; stroke-linejoin: miter"/>
   </g>
   <g id="patch_68">
    <path d="M 1816.992124 67107.841905 
L 1835.168348 67107.841905 
L 1835.168348 50.21803 
L 1816.992124 50.21803 
z
" clip-path="url(#p0978af1a61)" style="fill: #ffface; stroke: #000000; stroke-width: 2; stroke-linejoin: miter"/>
   </g>
   <g id="patch_69">
    <path d="M 358.350166 67107.841905 
L 376.52639 67107.841905 
L 376.52639 292.003306 
L 358.350166 292.003306 
z
" clip-path="url(#p0978af1a61)" style="fill: #008c8c; stroke: #000000; stroke-width: 2; stroke-linejoin: miter"/>
   </g>
   <g id="patch_70">
    <path d="M 653.713802 67107.841905 
L 671.890026 67107.841905 
L 671.890026 260.133643 
L 653.713802 260.133643 
z
" clip-path="url(#p0978af1a61)" style="fill: #008c8c; stroke: #000000; stroke-width: 2; stroke-linejoin: miter"/>
   </g>
   <g id="patch_71">
    <path d="M 949.077439 67107.841905 
L 967.253663 67107.841905 
L 967.253663 210.680576 
L 949.077439 210.680576 
z
" clip-path="url(#p0978af1a61)" style="fill: #008c8c; stroke: #000000; stroke-width: 2; stroke-linejoin: miter"/>
   </g>
   <g id="patch_72">
    <path d="M 1244.441075 67107.841905 
L 1262.617299 67107.841905 
L 1262.617299 207.361644 
L 1244.441075 207.361644 
z
" clip-path="url(#p0978af1a61)" style="fill: #008c8c; stroke: #000000; stroke-width: 2; stroke-linejoin: miter"/>
   </g>
   <g id="patch_73">
    <path d="M 1539.804712 67107.841905 
L 1557.980935 67107.841905 
L 1557.980935 212.49423 
L 1539.804712 212.49423 
z
" clip-path="url(#p0978af1a61)" style="fill: #008c8c; stroke: #000000; stroke-width: 2; stroke-linejoin: miter"/>
   </g>
   <g id="patch_74">
    <path d="M 1835.168348 67107.841905 
L 1853.344572 67107.841905 
L 1853.344572 213.445431 
L 1835.168348 213.445431 
z
" clip-path="url(#p0978af1a61)" style="fill: #008c8c; stroke: #000000; stroke-width: 2; stroke-linejoin: miter"/>
   </g>
   <g id="patch_75">
    <path d="M 376.52639 67107.841905 
L 394.702614 67107.841905 
L 394.702614 200.669768 
L 376.52639 200.669768 
z
" clip-path="url(#p0978af1a61)" style="fill: #ff4300; stroke: #000000; stroke-width: 2; stroke-linejoin: miter"/>
   </g>
   <g id="patch_76">
    <path d="M 671.890026 67107.841905 
L 690.06625 67107.841905 
L 690.06625 131.313632 
L 671.890026 131.313632 
z
" clip-path="url(#p0978af1a61)" style="fill: #ff4300; stroke: #000000; stroke-width: 2; stroke-linejoin: miter"/>
   </g>
   <g id="patch_77">
    <path d="M 967.253663 67107.841905 
L 985.429886 67107.841905 
L 985.429886 72.768443 
L 967.253663 72.768443 
z
" clip-path="url(#p0978af1a61)" style="fill: #ff4300; stroke: #000000; stroke-width: 2; stroke-linejoin: miter"/>
   </g>
   <g id="patch_78">
    <path d="M 1262.617299 67107.841905 
L 1280.793523 67107.841905 
L 1280.793523 125.311598 
L 1262.617299 125.311598 
z
" clip-path="url(#p0978af1a61)" style="fill: #ff4300; stroke: #000000; stroke-width: 2; stroke-linejoin: miter"/>
   </g>
   <g id="patch_79">
    <path d="M 1557.980935 67107.841905 
L 1576.157159 67107.841905 
L 1576.157159 96.501773 
L 1557.980935 96.501773 
z
" clip-path="url(#p0978af1a61)" style="fill: #ff4300; stroke: #000000; stroke-width: 2; stroke-linejoin: miter"/>
   </g>
   <g id="patch_80">
    <path d="M 1853.344572 67107.841905 
L 1871.520795 67107.841905 
L 1871.520795 125.172909 
L 1853.344572 125.172909 
z
" clip-path="url(#p0978af1a61)" style="fill: #ff4300; stroke: #000000; stroke-width: 2; stroke-linejoin: miter"/>
   </g>
   <g id="matplotlib.axis_1">
    <g id="xtick_1">
     <g id="line2d_1">
      <defs>
       <path id="md5c1fd2e09" d="M 0 0 
L 0 3.5 
" style="stroke: #000000; stroke-width: 0.8"/>
      </defs>
      <g>
       <use xlink:href="#md5c1fd2e09" x="276.557159" y="318.584" style="stroke: #000000; stroke-width: 0.8"/>
      </g>
     </g>
     <g id="text_1">
      <!-- audio -->
      <g transform="translate(248.846222 340.780875) scale(0.2 -0.2)">
       <defs>
        <path id="DejaVuSans-61" d="M 2194 1759 
Q 1497 1759 1228 1600 
Q 959 1441 959 1056 
Q 959 750 1161 570 
Q 1363 391 1709 391 
Q 2188 391 2477 730 
Q 2766 1069 2766 1631 
L 2766 1759 
L 2194 1759 
z
M 3341 1997 
L 3341 0 
L 2766 0 
L 2766 531 
Q 2569 213 2275 61 
Q 1981 -91 1556 -91 
Q 1019 -91 701 211 
Q 384 513 384 1019 
Q 384 1609 779 1909 
Q 1175 2209 1959 2209 
L 2766 2209 
L 2766 2266 
Q 2766 2663 2505 2880 
Q 2244 3097 1772 3097 
Q 1472 3097 1187 3025 
Q 903 2953 641 2809 
L 641 3341 
Q 956 3463 1253 3523 
Q 1550 3584 1831 3584 
Q 2591 3584 2966 3190 
Q 3341 2797 3341 1997 
z
" transform="scale(0.015625)"/>
        <path id="DejaVuSans-75" d="M 544 1381 
L 544 3500 
L 1119 3500 
L 1119 1403 
Q 1119 906 1312 657 
Q 1506 409 1894 409 
Q 2359 409 2629 706 
Q 2900 1003 2900 1516 
L 2900 3500 
L 3475 3500 
L 3475 0 
L 2900 0 
L 2900 538 
Q 2691 219 2414 64 
Q 2138 -91 1772 -91 
Q 1169 -91 856 284 
Q 544 659 544 1381 
z
M 1991 3584 
L 1991 3584 
z
" transform="scale(0.015625)"/>
        <path id="DejaVuSans-64" d="M 2906 2969 
L 2906 4863 
L 3481 4863 
L 3481 0 
L 2906 0 
L 2906 525 
Q 2725 213 2448 61 
Q 2172 -91 1784 -91 
Q 1150 -91 751 415 
Q 353 922 353 1747 
Q 353 2572 751 3078 
Q 1150 3584 1784 3584 
Q 2172 3584 2448 3432 
Q 2725 3281 2906 2969 
z
M 947 1747 
Q 947 1113 1208 752 
Q 1469 391 1925 391 
Q 2381 391 2643 752 
Q 2906 1113 2906 1747 
Q 2906 2381 2643 2742 
Q 2381 3103 1925 3103 
Q 1469 3103 1208 2742 
Q 947 2381 947 1747 
z
" transform="scale(0.015625)"/>
        <path id="DejaVuSans-69" d="M 603 3500 
L 1178 3500 
L 1178 0 
L 603 0 
L 603 3500 
z
M 603 4863 
L 1178 4863 
L 1178 4134 
L 603 4134 
L 603 4863 
z
" transform="scale(0.015625)"/>
        <path id="DejaVuSans-6f" d="M 1959 3097 
Q 1497 3097 1228 2736 
Q 959 2375 959 1747 
Q 959 1119 1226 758 
Q 1494 397 1959 397 
Q 2419 397 2687 759 
Q 2956 1122 2956 1747 
Q 2956 2369 2687 2733 
Q 2419 3097 1959 3097 
z
M 1959 3584 
Q 2709 3584 3137 3096 
Q 3566 2609 3566 1747 
Q 3566 888 3137 398 
Q 2709 -91 1959 -91 
Q 1206 -91 779 398 
Q 353 888 353 1747 
Q 353 2609 779 3096 
Q 1206 3584 1959 3584 
z
" transform="scale(0.015625)"/>
       </defs>
       <use xlink:href="#DejaVuSans-61"/>
       <use xlink:href="#DejaVuSans-75" x="61.279297"/>
       <use xlink:href="#DejaVuSans-64" x="124.658203"/>
       <use xlink:href="#DejaVuSans-69" x="188.134766"/>
       <use xlink:href="#DejaVuSans-6f" x="215.917969"/>
      </g>
     </g>
    </g>
    <g id="xtick_2">
     <g id="line2d_2">
      <g>
       <use xlink:href="#md5c1fd2e09" x="571.920795" y="318.584" style="stroke: #000000; stroke-width: 0.8"/>
      </g>
     </g>
     <g id="text_2">
      <!-- enron -->
      <g transform="translate(543.087983 340.780875) scale(0.2 -0.2)">
       <defs>
        <path id="DejaVuSans-65" d="M 3597 1894 
L 3597 1613 
L 953 1613 
Q 991 1019 1311 708 
Q 1631 397 2203 397 
Q 2534 397 2845 478 
Q 3156 559 3463 722 
L 3463 178 
Q 3153 47 2828 -22 
Q 2503 -91 2169 -91 
Q 1331 -91 842 396 
Q 353 884 353 1716 
Q 353 2575 817 3079 
Q 1281 3584 2069 3584 
Q 2775 3584 3186 3129 
Q 3597 2675 3597 1894 
z
M 3022 2063 
Q 3016 2534 2758 2815 
Q 2500 3097 2075 3097 
Q 1594 3097 1305 2825 
Q 1016 2553 972 2059 
L 3022 2063 
z
" transform="scale(0.015625)"/>
        <path id="DejaVuSans-6e" d="M 3513 2113 
L 3513 0 
L 2938 0 
L 2938 2094 
Q 2938 2591 2744 2837 
Q 2550 3084 2163 3084 
Q 1697 3084 1428 2787 
Q 1159 2491 1159 1978 
L 1159 0 
L 581 0 
L 581 3500 
L 1159 3500 
L 1159 2956 
Q 1366 3272 1645 3428 
Q 1925 3584 2291 3584 
Q 2894 3584 3203 3211 
Q 3513 2838 3513 2113 
z
" transform="scale(0.015625)"/>
        <path id="DejaVuSans-72" d="M 2631 2963 
Q 2534 3019 2420 3045 
Q 2306 3072 2169 3072 
Q 1681 3072 1420 2755 
Q 1159 2438 1159 1844 
L 1159 0 
L 581 0 
L 581 3500 
L 1159 3500 
L 1159 2956 
Q 1341 3275 1631 3429 
Q 1922 3584 2338 3584 
Q 2397 3584 2469 3576 
Q 2541 3569 2628 3553 
L 2631 2963 
z
" transform="scale(0.015625)"/>
       </defs>
       <use xlink:href="#DejaVuSans-65"/>
       <use xlink:href="#DejaVuSans-6e" x="61.523438"/>
       <use xlink:href="#DejaVuSans-72" x="124.902344"/>
       <use xlink:href="#DejaVuSans-6f" x="163.765625"/>
       <use xlink:href="#DejaVuSans-6e" x="224.947266"/>
      </g>
     </g>
    </g>
    <g id="xtick_3">
     <g id="line2d_3">
      <g>
       <use xlink:href="#md5c1fd2e09" x="867.284432" y="318.584" style="stroke: #000000; stroke-width: 0.8"/>
      </g>
     </g>
     <g id="text_3">
      <!-- gist -->
      <g transform="translate(849.028182 340.780875) scale(0.2 -0.2)">
       <defs>
        <path id="DejaVuSans-67" d="M 2906 1791 
Q 2906 2416 2648 2759 
Q 2391 3103 1925 3103 
Q 1463 3103 1205 2759 
Q 947 2416 947 1791 
Q 947 1169 1205 825 
Q 1463 481 1925 481 
Q 2391 481 2648 825 
Q 2906 1169 2906 1791 
z
M 3481 434 
Q 3481 -459 3084 -895 
Q 2688 -1331 1869 -1331 
Q 1566 -1331 1297 -1286 
Q 1028 -1241 775 -1147 
L 775 -588 
Q 1028 -725 1275 -790 
Q 1522 -856 1778 -856 
Q 2344 -856 2625 -561 
Q 2906 -266 2906 331 
L 2906 616 
Q 2728 306 2450 153 
Q 2172 0 1784 0 
Q 1141 0 747 490 
Q 353 981 353 1791 
Q 353 2603 747 3093 
Q 1141 3584 1784 3584 
Q 2172 3584 2450 3431 
Q 2728 3278 2906 2969 
L 2906 3500 
L 3481 3500 
L 3481 434 
z
" transform="scale(0.015625)"/>
        <path id="DejaVuSans-73" d="M 2834 3397 
L 2834 2853 
Q 2591 2978 2328 3040 
Q 2066 3103 1784 3103 
Q 1356 3103 1142 2972 
Q 928 2841 928 2578 
Q 928 2378 1081 2264 
Q 1234 2150 1697 2047 
L 1894 2003 
Q 2506 1872 2764 1633 
Q 3022 1394 3022 966 
Q 3022 478 2636 193 
Q 2250 -91 1575 -91 
Q 1294 -91 989 -36 
Q 684 19 347 128 
L 347 722 
Q 666 556 975 473 
Q 1284 391 1588 391 
Q 1994 391 2212 530 
Q 2431 669 2431 922 
Q 2431 1156 2273 1281 
Q 2116 1406 1581 1522 
L 1381 1569 
Q 847 1681 609 1914 
Q 372 2147 372 2553 
Q 372 3047 722 3315 
Q 1072 3584 1716 3584 
Q 2034 3584 2315 3537 
Q 2597 3491 2834 3397 
z
" transform="scale(0.015625)"/>
        <path id="DejaVuSans-74" d="M 1172 4494 
L 1172 3500 
L 2356 3500 
L 2356 3053 
L 1172 3053 
L 1172 1153 
Q 1172 725 1289 603 
Q 1406 481 1766 481 
L 2356 481 
L 2356 0 
L 1766 0 
Q 1100 0 847 248 
Q 594 497 594 1153 
L 594 3053 
L 172 3053 
L 172 3500 
L 594 3500 
L 594 4494 
L 1172 4494 
z
" transform="scale(0.015625)"/>
       </defs>
       <use xlink:href="#DejaVuSans-67"/>
       <use xlink:href="#DejaVuSans-69" x="63.476562"/>
       <use xlink:href="#DejaVuSans-73" x="91.259766"/>
       <use xlink:href="#DejaVuSans-74" x="143.359375"/>
      </g>
     </g>
    </g>
    <g id="xtick_4">
     <g id="line2d_4">
      <g>
       <use xlink:href="#md5c1fd2e09" x="1162.648068" y="318.584" style="stroke: #000000; stroke-width: 0.8"/>
      </g>
     </g>
     <g id="text_4">
      <!-- glove-100 -->
      <g transform="translate(1112.635568 340.780875) scale(0.2 -0.2)">
       <defs>
        <path id="DejaVuSans-6c" d="M 603 4863 
L 1178 4863 
L 1178 0 
L 603 0 
L 603 4863 
z
" transform="scale(0.015625)"/>
        <path id="DejaVuSans-76" d="M 191 3500 
L 800 3500 
L 1894 563 
L 2988 3500 
L 3597 3500 
L 2284 0 
L 1503 0 
L 191 3500 
z
" transform="scale(0.015625)"/>
        <path id="DejaVuSans-2d" d="M 313 2009 
L 1997 2009 
L 1997 1497 
L 313 1497 
L 313 2009 
z
" transform="scale(0.015625)"/>
        <path id="DejaVuSans-31" d="M 794 531 
L 1825 531 
L 1825 4091 
L 703 3866 
L 703 4441 
L 1819 4666 
L 2450 4666 
L 2450 531 
L 3481 531 
L 3481 0 
L 794 0 
L 794 531 
z
" transform="scale(0.015625)"/>
        <path id="DejaVuSans-30" d="M 2034 4250 
Q 1547 4250 1301 3770 
Q 1056 3291 1056 2328 
Q 1056 1369 1301 889 
Q 1547 409 2034 409 
Q 2525 409 2770 889 
Q 3016 1369 3016 2328 
Q 3016 3291 2770 3770 
Q 2525 4250 2034 4250 
z
M 2034 4750 
Q 2819 4750 3233 4129 
Q 3647 3509 3647 2328 
Q 3647 1150 3233 529 
Q 2819 -91 2034 -91 
Q 1250 -91 836 529 
Q 422 1150 422 2328 
Q 422 3509 836 4129 
Q 1250 4750 2034 4750 
z
" transform="scale(0.015625)"/>
       </defs>
       <use xlink:href="#DejaVuSans-67"/>
       <use xlink:href="#DejaVuSans-6c" x="63.476562"/>
       <use xlink:href="#DejaVuSans-6f" x="91.259766"/>
       <use xlink:href="#DejaVuSans-76" x="152.441406"/>
       <use xlink:href="#DejaVuSans-65" x="211.621094"/>
       <use xlink:href="#DejaVuSans-2d" x="273.144531"/>
       <use xlink:href="#DejaVuSans-31" x="309.228516"/>
       <use xlink:href="#DejaVuSans-30" x="372.851562"/>
       <use xlink:href="#DejaVuSans-30" x="436.474609"/>
      </g>
     </g>
    </g>
    <g id="xtick_5">
     <g id="line2d_5">
      <g>
       <use xlink:href="#md5c1fd2e09" x="1458.011705" y="318.584" style="stroke: #000000; stroke-width: 0.8"/>
      </g>
     </g>
     <g id="text_5">
      <!-- msong -->
      <g transform="translate(1424.257017 340.780875) scale(0.2 -0.2)">
       <defs>
        <path id="DejaVuSans-6d" d="M 3328 2828 
Q 3544 3216 3844 3400 
Q 4144 3584 4550 3584 
Q 5097 3584 5394 3201 
Q 5691 2819 5691 2113 
L 5691 0 
L 5113 0 
L 5113 2094 
Q 5113 2597 4934 2840 
Q 4756 3084 4391 3084 
Q 3944 3084 3684 2787 
Q 3425 2491 3425 1978 
L 3425 0 
L 2847 0 
L 2847 2094 
Q 2847 2600 2669 2842 
Q 2491 3084 2119 3084 
Q 1678 3084 1418 2786 
Q 1159 2488 1159 1978 
L 1159 0 
L 581 0 
L 581 3500 
L 1159 3500 
L 1159 2956 
Q 1356 3278 1631 3431 
Q 1906 3584 2284 3584 
Q 2666 3584 2933 3390 
Q 3200 3197 3328 2828 
z
" transform="scale(0.015625)"/>
       </defs>
       <use xlink:href="#DejaVuSans-6d"/>
       <use xlink:href="#DejaVuSans-73" x="97.412109"/>
       <use xlink:href="#DejaVuSans-6f" x="149.511719"/>
       <use xlink:href="#DejaVuSans-6e" x="210.693359"/>
       <use xlink:href="#DejaVuSans-67" x="274.072266"/>
      </g>
     </g>
    </g>
    <g id="xtick_6">
     <g id="line2d_6">
      <g>
       <use xlink:href="#md5c1fd2e09" x="1753.375341" y="318.584" style="stroke: #000000; stroke-width: 0.8"/>
      </g>
     </g>
     <g id="text_6">
      <!-- sift -->
      <g transform="translate(1738.122216 340.780875) scale(0.2 -0.2)">
       <defs>
        <path id="DejaVuSans-66" d="M 2375 4863 
L 2375 4384 
L 1825 4384 
Q 1516 4384 1395 4259 
Q 1275 4134 1275 3809 
L 1275 3500 
L 2222 3500 
L 2222 3053 
L 1275 3053 
L 1275 0 
L 697 0 
L 697 3053 
L 147 3053 
L 147 3500 
L 697 3500 
L 697 3744 
Q 697 4328 969 4595 
Q 1241 4863 1831 4863 
L 2375 4863 
z
" transform="scale(0.015625)"/>
       </defs>
       <use xlink:href="#DejaVuSans-73"/>
       <use xlink:href="#DejaVuSans-69" x="52.099609"/>
       <use xlink:href="#DejaVuSans-66" x="79.882812"/>
       <use xlink:href="#DejaVuSans-74" x="113.337891"/>
      </g>
     </g>
    </g>
   </g>
   <g id="matplotlib.axis_2">
    <g id="ytick_1">
     <g id="line2d_7">
      <path d="M 72.75625 312.110825 
L 1957.17625 312.110825 
" clip-path="url(#p0978af1a61)" style="fill: none; stroke-dasharray: 2.96,1.28; stroke-dashoffset: 0; stroke: #b0b0b0; stroke-opacity: 0.7; stroke-width: 0.8"/>
     </g>
     <g id="line2d_8">
      <defs>
       <path id="m47aa219bde" d="M 0 0 
L -3.5 0 
" style="stroke: #000000; stroke-width: 0.8"/>
      </defs>
      <g>
       <use xlink:href="#m47aa219bde" x="72.75625" y="312.110825" style="stroke: #000000; stroke-width: 0.8"/>
      </g>
     </g>
     <g id="text_7">
      <!-- $\mathdefault{10^{0}}$ -->
      <g transform="translate(30.55625 319.709262) scale(0.2 -0.2)">
       <use xlink:href="#DejaVuSans-31" transform="translate(0 0.765625)"/>
       <use xlink:href="#DejaVuSans-30" transform="translate(63.623047 0.765625)"/>
       <use xlink:href="#DejaVuSans-30" transform="translate(128.203125 39.046875) scale(0.7)"/>
      </g>
     </g>
    </g>
    <g id="ytick_2">
     <g id="line2d_9">
      <path d="M 72.75625 245.315094 
L 1957.17625 245.315094 
" clip-path="url(#p0978af1a61)" style="fill: none; stroke-dasharray: 2.96,1.28; stroke-dashoffset: 0; stroke: #b0b0b0; stroke-opacity: 0.7; stroke-width: 0.8"/>
     </g>
     <g id="line2d_10">
      <g>
       <use xlink:href="#m47aa219bde" x="72.75625" y="245.315094" style="stroke: #000000; stroke-width: 0.8"/>
      </g>
     </g>
     <g id="text_8">
      <!-- $\mathdefault{10^{1}}$ -->
      <g transform="translate(30.55625 252.913531) scale(0.2 -0.2)">
       <use xlink:href="#DejaVuSans-31" transform="translate(0 0.684375)"/>
       <use xlink:href="#DejaVuSans-30" transform="translate(63.623047 0.684375)"/>
       <use xlink:href="#DejaVuSans-31" transform="translate(128.203125 38.965625) scale(0.7)"/>
      </g>
     </g>
    </g>
    <g id="ytick_3">
     <g id="line2d_11">
      <path d="M 72.75625 178.519363 
L 1957.17625 178.519363 
" clip-path="url(#p0978af1a61)" style="fill: none; stroke-dasharray: 2.96,1.28; stroke-dashoffset: 0; stroke: #b0b0b0; stroke-opacity: 0.7; stroke-width: 0.8"/>
     </g>
     <g id="line2d_12">
      <g>
       <use xlink:href="#m47aa219bde" x="72.75625" y="178.519363" style="stroke: #000000; stroke-width: 0.8"/>
      </g>
     </g>
     <g id="text_9">
      <!-- $\mathdefault{10^{2}}$ -->
      <g transform="translate(30.55625 186.1178) scale(0.2 -0.2)">
       <defs>
        <path id="DejaVuSans-32" d="M 1228 531 
L 3431 531 
L 3431 0 
L 469 0 
L 469 531 
Q 828 903 1448 1529 
Q 2069 2156 2228 2338 
Q 2531 2678 2651 2914 
Q 2772 3150 2772 3378 
Q 2772 3750 2511 3984 
Q 2250 4219 1831 4219 
Q 1534 4219 1204 4116 
Q 875 4013 500 3803 
L 500 4441 
Q 881 4594 1212 4672 
Q 1544 4750 1819 4750 
Q 2544 4750 2975 4387 
Q 3406 4025 3406 3419 
Q 3406 3131 3298 2873 
Q 3191 2616 2906 2266 
Q 2828 2175 2409 1742 
Q 1991 1309 1228 531 
z
" transform="scale(0.015625)"/>
       </defs>
       <use xlink:href="#DejaVuSans-31" transform="translate(0 0.765625)"/>
       <use xlink:href="#DejaVuSans-30" transform="translate(63.623047 0.765625)"/>
       <use xlink:href="#DejaVuSans-32" transform="translate(128.203125 39.046875) scale(0.7)"/>
      </g>
     </g>
    </g>
    <g id="ytick_4">
     <g id="line2d_13">
      <path d="M 72.75625 111.723632 
L 1957.17625 111.723632 
" clip-path="url(#p0978af1a61)" style="fill: none; stroke-dasharray: 2.96,1.28; stroke-dashoffset: 0; stroke: #b0b0b0; stroke-opacity: 0.7; stroke-width: 0.8"/>
     </g>
     <g id="line2d_14">
      <g>
       <use xlink:href="#m47aa219bde" x="72.75625" y="111.723632" style="stroke: #000000; stroke-width: 0.8"/>
      </g>
     </g>
     <g id="text_10">
      <!-- $\mathdefault{10^{3}}$ -->
      <g transform="translate(30.55625 119.322069) scale(0.2 -0.2)">
       <defs>
        <path id="DejaVuSans-33" d="M 2597 2516 
Q 3050 2419 3304 2112 
Q 3559 1806 3559 1356 
Q 3559 666 3084 287 
Q 2609 -91 1734 -91 
Q 1441 -91 1130 -33 
Q 819 25 488 141 
L 488 750 
Q 750 597 1062 519 
Q 1375 441 1716 441 
Q 2309 441 2620 675 
Q 2931 909 2931 1356 
Q 2931 1769 2642 2001 
Q 2353 2234 1838 2234 
L 1294 2234 
L 1294 2753 
L 1863 2753 
Q 2328 2753 2575 2939 
Q 2822 3125 2822 3475 
Q 2822 3834 2567 4026 
Q 2313 4219 1838 4219 
Q 1578 4219 1281 4162 
Q 984 4106 628 3988 
L 628 4550 
Q 988 4650 1302 4700 
Q 1616 4750 1894 4750 
Q 2613 4750 3031 4423 
Q 3450 4097 3450 3541 
Q 3450 3153 3228 2886 
Q 3006 2619 2597 2516 
z
" transform="scale(0.015625)"/>
       </defs>
       <use xlink:href="#DejaVuSans-31" transform="translate(0 0.765625)"/>
       <use xlink:href="#DejaVuSans-30" transform="translate(63.623047 0.765625)"/>
       <use xlink:href="#DejaVuSans-33" transform="translate(128.203125 39.046875) scale(0.7)"/>
      </g>
     </g>
    </g>
    <g id="ytick_5">
     <g id="line2d_15">
      <path d="M 72.75625 44.927901 
L 1957.17625 44.927901 
" clip-path="url(#p0978af1a61)" style="fill: none; stroke-dasharray: 2.96,1.28; stroke-dashoffset: 0; stroke: #b0b0b0; stroke-opacity: 0.7; stroke-width: 0.8"/>
     </g>
     <g id="line2d_16">
      <g>
       <use xlink:href="#m47aa219bde" x="72.75625" y="44.927901" style="stroke: #000000; stroke-width: 0.8"/>
      </g>
     </g>
     <g id="text_11">
      <!-- $\mathdefault{10^{4}}$ -->
      <g transform="translate(30.55625 52.526338) scale(0.2 -0.2)">
       <defs>
        <path id="DejaVuSans-34" d="M 2419 4116 
L 825 1625 
L 2419 1625 
L 2419 4116 
z
M 2253 4666 
L 3047 4666 
L 3047 1625 
L 3713 1625 
L 3713 1100 
L 3047 1100 
L 3047 0 
L 2419 0 
L 2419 1100 
L 313 1100 
L 313 1709 
L 2253 4666 
z
" transform="scale(0.015625)"/>
       </defs>
       <use xlink:href="#DejaVuSans-31" transform="translate(0 0.684375)"/>
       <use xlink:href="#DejaVuSans-30" transform="translate(63.623047 0.684375)"/>
       <use xlink:href="#DejaVuSans-34" transform="translate(128.203125 38.965625) scale(0.7)"/>
      </g>
     </g>
    </g>
    <g id="ytick_6">
     <g id="line2d_17">
      <defs>
       <path id="maef82d187a" d="M 0 0 
L -2 0 
" style="stroke: #000000; stroke-width: 0.6"/>
      </defs>
      <g>
       <use xlink:href="#maef82d187a" x="72.75625" y="318.584" style="stroke: #000000; stroke-width: 0.6"/>
      </g>
     </g>
    </g>
    <g id="ytick_7">
     <g id="line2d_18">
      <g>
       <use xlink:href="#maef82d187a" x="72.75625" y="315.16723" style="stroke: #000000; stroke-width: 0.6"/>
      </g>
     </g>
    </g>
    <g id="ytick_8">
     <g id="line2d_19">
      <g>
       <use xlink:href="#maef82d187a" x="72.75625" y="292.003306" style="stroke: #000000; stroke-width: 0.6"/>
      </g>
     </g>
    </g>
    <g id="ytick_9">
     <g id="line2d_20">
      <g>
       <use xlink:href="#maef82d187a" x="72.75625" y="280.241162" style="stroke: #000000; stroke-width: 0.6"/>
      </g>
     </g>
    </g>
    <g id="ytick_10">
     <g id="line2d_21">
      <g>
       <use xlink:href="#maef82d187a" x="72.75625" y="271.895788" style="stroke: #000000; stroke-width: 0.6"/>
      </g>
     </g>
    </g>
    <g id="ytick_11">
     <g id="line2d_22">
      <g>
       <use xlink:href="#maef82d187a" x="72.75625" y="265.422612" style="stroke: #000000; stroke-width: 0.6"/>
      </g>
     </g>
    </g>
    <g id="ytick_12">
     <g id="line2d_23">
      <g>
       <use xlink:href="#maef82d187a" x="72.75625" y="260.133643" style="stroke: #000000; stroke-width: 0.6"/>
      </g>
     </g>
    </g>
    <g id="ytick_13">
     <g id="line2d_24">
      <g>
       <use xlink:href="#maef82d187a" x="72.75625" y="255.661883" style="stroke: #000000; stroke-width: 0.6"/>
      </g>
     </g>
    </g>
    <g id="ytick_14">
     <g id="line2d_25">
      <g>
       <use xlink:href="#maef82d187a" x="72.75625" y="251.788269" style="stroke: #000000; stroke-width: 0.6"/>
      </g>
     </g>
    </g>
    <g id="ytick_15">
     <g id="line2d_26">
      <g>
       <use xlink:href="#maef82d187a" x="72.75625" y="248.371499" style="stroke: #000000; stroke-width: 0.6"/>
      </g>
     </g>
    </g>
    <g id="ytick_16">
     <g id="line2d_27">
      <g>
       <use xlink:href="#maef82d187a" x="72.75625" y="225.207575" style="stroke: #000000; stroke-width: 0.6"/>
      </g>
     </g>
    </g>
    <g id="ytick_17">
     <g id="line2d_28">
      <g>
       <use xlink:href="#maef82d187a" x="72.75625" y="213.445431" style="stroke: #000000; stroke-width: 0.6"/>
      </g>
     </g>
    </g>
    <g id="ytick_18">
     <g id="line2d_29">
      <g>
       <use xlink:href="#maef82d187a" x="72.75625" y="205.100056" style="stroke: #000000; stroke-width: 0.6"/>
      </g>
     </g>
    </g>
    <g id="ytick_19">
     <g id="line2d_30">
      <g>
       <use xlink:href="#maef82d187a" x="72.75625" y="198.626881" style="stroke: #000000; stroke-width: 0.6"/>
      </g>
     </g>
    </g>
    <g id="ytick_20">
     <g id="line2d_31">
      <g>
       <use xlink:href="#maef82d187a" x="72.75625" y="193.337912" style="stroke: #000000; stroke-width: 0.6"/>
      </g>
     </g>
    </g>
    <g id="ytick_21">
     <g id="line2d_32">
      <g>
       <use xlink:href="#maef82d187a" x="72.75625" y="188.866152" style="stroke: #000000; stroke-width: 0.6"/>
      </g>
     </g>
    </g>
    <g id="ytick_22">
     <g id="line2d_33">
      <g>
       <use xlink:href="#maef82d187a" x="72.75625" y="184.992538" style="stroke: #000000; stroke-width: 0.6"/>
      </g>
     </g>
    </g>
    <g id="ytick_23">
     <g id="line2d_34">
      <g>
       <use xlink:href="#maef82d187a" x="72.75625" y="181.575768" style="stroke: #000000; stroke-width: 0.6"/>
      </g>
     </g>
    </g>
    <g id="ytick_24">
     <g id="line2d_35">
      <g>
       <use xlink:href="#maef82d187a" x="72.75625" y="158.411844" style="stroke: #000000; stroke-width: 0.6"/>
      </g>
     </g>
    </g>
    <g id="ytick_25">
     <g id="line2d_36">
      <g>
       <use xlink:href="#maef82d187a" x="72.75625" y="146.6497" style="stroke: #000000; stroke-width: 0.6"/>
      </g>
     </g>
    </g>
    <g id="ytick_26">
     <g id="line2d_37">
      <g>
       <use xlink:href="#maef82d187a" x="72.75625" y="138.304325" style="stroke: #000000; stroke-width: 0.6"/>
      </g>
     </g>
    </g>
    <g id="ytick_27">
     <g id="line2d_38">
      <g>
       <use xlink:href="#maef82d187a" x="72.75625" y="131.83115" style="stroke: #000000; stroke-width: 0.6"/>
      </g>
     </g>
    </g>
    <g id="ytick_28">
     <g id="line2d_39">
      <g>
       <use xlink:href="#maef82d187a" x="72.75625" y="126.542181" style="stroke: #000000; stroke-width: 0.6"/>
      </g>
     </g>
    </g>
    <g id="ytick_29">
     <g id="line2d_40">
      <g>
       <use xlink:href="#maef82d187a" x="72.75625" y="122.070421" style="stroke: #000000; stroke-width: 0.6"/>
      </g>
     </g>
    </g>
    <g id="ytick_30">
     <g id="line2d_41">
      <g>
       <use xlink:href="#maef82d187a" x="72.75625" y="118.196807" style="stroke: #000000; stroke-width: 0.6"/>
      </g>
     </g>
    </g>
    <g id="ytick_31">
     <g id="line2d_42">
      <g>
       <use xlink:href="#maef82d187a" x="72.75625" y="114.780037" style="stroke: #000000; stroke-width: 0.6"/>
      </g>
     </g>
    </g>
    <g id="ytick_32">
     <g id="line2d_43">
      <g>
       <use xlink:href="#maef82d187a" x="72.75625" y="91.616113" style="stroke: #000000; stroke-width: 0.6"/>
      </g>
     </g>
    </g>
    <g id="ytick_33">
     <g id="line2d_44">
      <g>
       <use xlink:href="#maef82d187a" x="72.75625" y="79.853969" style="stroke: #000000; stroke-width: 0.6"/>
      </g>
     </g>
    </g>
    <g id="ytick_34">
     <g id="line2d_45">
      <g>
       <use xlink:href="#maef82d187a" x="72.75625" y="71.508594" style="stroke: #000000; stroke-width: 0.6"/>
      </g>
     </g>
    </g>
    <g id="ytick_35">
     <g id="line2d_46">
      <g>
       <use xlink:href="#maef82d187a" x="72.75625" y="65.035419" style="stroke: #000000; stroke-width: 0.6"/>
      </g>
     </g>
    </g>
    <g id="ytick_36">
     <g id="line2d_47">
      <g>
       <use xlink:href="#maef82d187a" x="72.75625" y="59.74645" style="stroke: #000000; stroke-width: 0.6"/>
      </g>
     </g>
    </g>
    <g id="ytick_37">
     <g id="line2d_48">
      <g>
       <use xlink:href="#maef82d187a" x="72.75625" y="55.27469" style="stroke: #000000; stroke-width: 0.6"/>
      </g>
     </g>
    </g>
    <g id="ytick_38">
     <g id="line2d_49">
      <g>
       <use xlink:href="#maef82d187a" x="72.75625" y="51.401076" style="stroke: #000000; stroke-width: 0.6"/>
      </g>
     </g>
    </g>
    <g id="ytick_39">
     <g id="line2d_50">
      <g>
       <use xlink:href="#maef82d187a" x="72.75625" y="47.984306" style="stroke: #000000; stroke-width: 0.6"/>
      </g>
     </g>
    </g>
    <g id="text_12">
     <!-- Index Size (MB) -->
     <g transform="translate(22.396875 257.213375) rotate(-90) scale(0.2 -0.2)">
      <defs>
       <path id="DejaVuSans-49" d="M 628 4666 
L 1259 4666 
L 1259 0 
L 628 0 
L 628 4666 
z
" transform="scale(0.015625)"/>
       <path id="DejaVuSans-78" d="M 3513 3500 
L 2247 1797 
L 3578 0 
L 2900 0 
L 1881 1375 
L 863 0 
L 184 0 
L 1544 1831 
L 300 3500 
L 978 3500 
L 1906 2253 
L 2834 3500 
L 3513 3500 
z
" transform="scale(0.015625)"/>
       <path id="DejaVuSans-20" transform="scale(0.015625)"/>
       <path id="DejaVuSans-53" d="M 3425 4513 
L 3425 3897 
Q 3066 4069 2747 4153 
Q 2428 4238 2131 4238 
Q 1616 4238 1336 4038 
Q 1056 3838 1056 3469 
Q 1056 3159 1242 3001 
Q 1428 2844 1947 2747 
L 2328 2669 
Q 3034 2534 3370 2195 
Q 3706 1856 3706 1288 
Q 3706 609 3251 259 
Q 2797 -91 1919 -91 
Q 1588 -91 1214 -16 
Q 841 59 441 206 
L 441 856 
Q 825 641 1194 531 
Q 1563 422 1919 422 
Q 2459 422 2753 634 
Q 3047 847 3047 1241 
Q 3047 1584 2836 1778 
Q 2625 1972 2144 2069 
L 1759 2144 
Q 1053 2284 737 2584 
Q 422 2884 422 3419 
Q 422 4038 858 4394 
Q 1294 4750 2059 4750 
Q 2388 4750 2728 4690 
Q 3069 4631 3425 4513 
z
" transform="scale(0.015625)"/>
       <path id="DejaVuSans-7a" d="M 353 3500 
L 3084 3500 
L 3084 2975 
L 922 459 
L 3084 459 
L 3084 0 
L 275 0 
L 275 525 
L 2438 3041 
L 353 3041 
L 353 3500 
z
" transform="scale(0.015625)"/>
       <path id="DejaVuSans-28" d="M 1984 4856 
Q 1566 4138 1362 3434 
Q 1159 2731 1159 2009 
Q 1159 1288 1364 580 
Q 1569 -128 1984 -844 
L 1484 -844 
Q 1016 -109 783 600 
Q 550 1309 550 2009 
Q 550 2706 781 3412 
Q 1013 4119 1484 4856 
L 1984 4856 
z
" transform="scale(0.015625)"/>
       <path id="DejaVuSans-4d" d="M 628 4666 
L 1569 4666 
L 2759 1491 
L 3956 4666 
L 4897 4666 
L 4897 0 
L 4281 0 
L 4281 4097 
L 3078 897 
L 2444 897 
L 1241 4097 
L 1241 0 
L 628 0 
L 628 4666 
z
" transform="scale(0.015625)"/>
       <path id="DejaVuSans-42" d="M 1259 2228 
L 1259 519 
L 2272 519 
Q 2781 519 3026 730 
Q 3272 941 3272 1375 
Q 3272 1813 3026 2020 
Q 2781 2228 2272 2228 
L 1259 2228 
z
M 1259 4147 
L 1259 2741 
L 2194 2741 
Q 2656 2741 2882 2914 
Q 3109 3088 3109 3444 
Q 3109 3797 2882 3972 
Q 2656 4147 2194 4147 
L 1259 4147 
z
M 628 4666 
L 2241 4666 
Q 2963 4666 3353 4366 
Q 3744 4066 3744 3513 
Q 3744 3084 3544 2831 
Q 3344 2578 2956 2516 
Q 3422 2416 3680 2098 
Q 3938 1781 3938 1306 
Q 3938 681 3513 340 
Q 3088 0 2303 0 
L 628 0 
L 628 4666 
z
" transform="scale(0.015625)"/>
       <path id="DejaVuSans-29" d="M 513 4856 
L 1013 4856 
Q 1481 4119 1714 3412 
Q 1947 2706 1947 2009 
Q 1947 1309 1714 600 
Q 1481 -109 1013 -844 
L 513 -844 
Q 928 -128 1133 580 
Q 1338 1288 1338 2009 
Q 1338 2731 1133 3434 
Q 928 4138 513 4856 
z
" transform="scale(0.015625)"/>
      </defs>
      <use xlink:href="#DejaVuSans-49"/>
      <use xlink:href="#DejaVuSans-6e" x="29.492188"/>
      <use xlink:href="#DejaVuSans-64" x="92.871094"/>
      <use xlink:href="#DejaVuSans-65" x="156.347656"/>
      <use xlink:href="#DejaVuSans-78" x="216.121094"/>
      <use xlink:href="#DejaVuSans-20" x="275.300781"/>
      <use xlink:href="#DejaVuSans-53" x="307.087891"/>
      <use xlink:href="#DejaVuSans-69" x="370.564453"/>
      <use xlink:href="#DejaVuSans-7a" x="398.347656"/>
      <use xlink:href="#DejaVuSans-65" x="450.837891"/>
      <use xlink:href="#DejaVuSans-20" x="512.361328"/>
      <use xlink:href="#DejaVuSans-28" x="544.148438"/>
      <use xlink:href="#DejaVuSans-4d" x="583.162109"/>
      <use xlink:href="#DejaVuSans-42" x="669.441406"/>
      <use xlink:href="#DejaVuSans-29" x="738.044922"/>
     </g>
    </g>
   </g>
   <g id="patch_81">
    <path d="M 72.75625 318.584 
L 72.75625 40.424 
" style="fill: none; stroke: #000000; stroke-width: 0.8; stroke-linejoin: miter; stroke-linecap: square"/>
   </g>
   <g id="patch_82">
    <path d="M 1957.17625 318.584 
L 1957.17625 40.424 
" style="fill: none; stroke: #000000; stroke-width: 0.8; stroke-linejoin: miter; stroke-linecap: square"/>
   </g>
   <g id="patch_83">
    <path d="M 72.75625 318.584 
L 1957.17625 318.584 
" style="fill: none; stroke: #000000; stroke-width: 0.8; stroke-linejoin: miter; stroke-linecap: square"/>
   </g>
   <g id="patch_84">
    <path d="M 72.75625 40.424 
L 1957.17625 40.424 
" style="fill: none; stroke: #000000; stroke-width: 0.8; stroke-linejoin: miter; stroke-linecap: square"/>
   </g>
   <g id="legend_1">
    <g id="patch_85">
     <path d="M 58.154453 26.917344 
L 92.154453 26.917344 
L 92.154453 15.017344 
L 58.154453 15.017344 
z
" style="fill: #ff8d00; stroke: #000000; stroke-width: 2; stroke-linejoin: miter"/>
    </g>
    <g id="text_13">
     <!-- ACORN-1 -->
     <g transform="translate(105.754453 26.917344) scale(0.17 -0.17)">
      <defs>
       <path id="DejaVuSans-41" d="M 2188 4044 
L 1331 1722 
L 3047 1722 
L 2188 4044 
z
M 1831 4666 
L 2547 4666 
L 4325 0 
L 3669 0 
L 3244 1197 
L 1141 1197 
L 716 0 
L 50 0 
L 1831 4666 
z
" transform="scale(0.015625)"/>
       <path id="DejaVuSans-43" d="M 4122 4306 
L 4122 3641 
Q 3803 3938 3442 4084 
Q 3081 4231 2675 4231 
Q 1875 4231 1450 3742 
Q 1025 3253 1025 2328 
Q 1025 1406 1450 917 
Q 1875 428 2675 428 
Q 3081 428 3442 575 
Q 3803 722 4122 1019 
L 4122 359 
Q 3791 134 3420 21 
Q 3050 -91 2638 -91 
Q 1578 -91 968 557 
Q 359 1206 359 2328 
Q 359 3453 968 4101 
Q 1578 4750 2638 4750 
Q 3056 4750 3426 4639 
Q 3797 4528 4122 4306 
z
" transform="scale(0.015625)"/>
       <path id="DejaVuSans-4f" d="M 2522 4238 
Q 1834 4238 1429 3725 
Q 1025 3213 1025 2328 
Q 1025 1447 1429 934 
Q 1834 422 2522 422 
Q 3209 422 3611 934 
Q 4013 1447 4013 2328 
Q 4013 3213 3611 3725 
Q 3209 4238 2522 4238 
z
M 2522 4750 
Q 3503 4750 4090 4092 
Q 4678 3434 4678 2328 
Q 4678 1225 4090 567 
Q 3503 -91 2522 -91 
Q 1538 -91 948 565 
Q 359 1222 359 2328 
Q 359 3434 948 4092 
Q 1538 4750 2522 4750 
z
" transform="scale(0.015625)"/>
       <path id="DejaVuSans-52" d="M 2841 2188 
Q 3044 2119 3236 1894 
Q 3428 1669 3622 1275 
L 4263 0 
L 3584 0 
L 2988 1197 
Q 2756 1666 2539 1819 
Q 2322 1972 1947 1972 
L 1259 1972 
L 1259 0 
L 628 0 
L 628 4666 
L 2053 4666 
Q 2853 4666 3247 4331 
Q 3641 3997 3641 3322 
Q 3641 2881 3436 2590 
Q 3231 2300 2841 2188 
z
M 1259 4147 
L 1259 2491 
L 2053 2491 
Q 2509 2491 2742 2702 
Q 2975 2913 2975 3322 
Q 2975 3731 2742 3939 
Q 2509 4147 2053 4147 
L 1259 4147 
z
" transform="scale(0.015625)"/>
       <path id="DejaVuSans-4e" d="M 628 4666 
L 1478 4666 
L 3547 763 
L 3547 4666 
L 4159 4666 
L 4159 0 
L 3309 0 
L 1241 3903 
L 1241 0 
L 628 0 
L 628 4666 
z
" transform="scale(0.015625)"/>
      </defs>
      <use xlink:href="#DejaVuSans-41"/>
      <use xlink:href="#DejaVuSans-43" x="66.658203"/>
      <use xlink:href="#DejaVuSans-4f" x="136.482422"/>
      <use xlink:href="#DejaVuSans-52" x="215.193359"/>
      <use xlink:href="#DejaVuSans-4e" x="284.675781"/>
      <use xlink:href="#DejaVuSans-2d" x="359.480469"/>
      <use xlink:href="#DejaVuSans-31" x="395.564453"/>
     </g>
    </g>
    <g id="patch_86">
     <path d="M 217.818984 26.917344 
L 251.818984 26.917344 
L 251.818984 15.017344 
L 217.818984 15.017344 
z
" style="fill: #006400; stroke: #000000; stroke-width: 2; stroke-linejoin: miter"/>
    </g>
    <g id="text_14">
     <!-- ACORN-gama -->
     <g transform="translate(265.418984 26.917344) scale(0.17 -0.17)">
      <use xlink:href="#DejaVuSans-41"/>
      <use xlink:href="#DejaVuSans-43" x="66.658203"/>
      <use xlink:href="#DejaVuSans-4f" x="136.482422"/>
      <use xlink:href="#DejaVuSans-52" x="215.193359"/>
      <use xlink:href="#DejaVuSans-4e" x="284.675781"/>
      <use xlink:href="#DejaVuSans-2d" x="359.480469"/>
      <use xlink:href="#DejaVuSans-67" x="395.564453"/>
      <use xlink:href="#DejaVuSans-61" x="459.041016"/>
      <use xlink:href="#DejaVuSans-6d" x="520.320312"/>
      <use xlink:href="#DejaVuSans-61" x="617.732422"/>
     </g>
    </g>
    <g id="patch_87">
     <path d="M 414.854297 26.917344 
L 448.854297 26.917344 
L 448.854297 15.017344 
L 414.854297 15.017344 
z
" style="fill: #6696ec; stroke: #000000; stroke-width: 2; stroke-linejoin: miter"/>
    </g>
    <g id="text_15">
     <!-- CAPS -->
     <g transform="translate(462.454297 26.917344) scale(0.17 -0.17)">
      <defs>
       <path id="DejaVuSans-50" d="M 1259 4147 
L 1259 2394 
L 2053 2394 
Q 2494 2394 2734 2622 
Q 2975 2850 2975 3272 
Q 2975 3691 2734 3919 
Q 2494 4147 2053 4147 
L 1259 4147 
z
M 628 4666 
L 2053 4666 
Q 2838 4666 3239 4311 
Q 3641 3956 3641 3272 
Q 3641 2581 3239 2228 
Q 2838 1875 2053 1875 
L 1259 1875 
L 1259 0 
L 628 0 
L 628 4666 
z
" transform="scale(0.015625)"/>
      </defs>
      <use xlink:href="#DejaVuSans-43"/>
      <use xlink:href="#DejaVuSans-41" x="69.824219"/>
      <use xlink:href="#DejaVuSans-50" x="138.232422"/>
      <use xlink:href="#DejaVuSans-53" x="198.535156"/>
     </g>
    </g>
    <g id="patch_88">
     <path d="M 540.996953 26.917344 
L 574.996953 26.917344 
L 574.996953 15.017344 
L 540.996953 15.017344 
z
" style="fill: #f08181; stroke: #000000; stroke-width: 2; stroke-linejoin: miter"/>
    </g>
    <g id="text_16">
     <!-- FilteredVamana -->
     <g transform="translate(588.596953 26.917344) scale(0.17 -0.17)">
      <defs>
       <path id="DejaVuSans-46" d="M 628 4666 
L 3309 4666 
L 3309 4134 
L 1259 4134 
L 1259 2759 
L 3109 2759 
L 3109 2228 
L 1259 2228 
L 1259 0 
L 628 0 
L 628 4666 
z
" transform="scale(0.015625)"/>
       <path id="DejaVuSans-56" d="M 1831 0 
L 50 4666 
L 709 4666 
L 2188 738 
L 3669 4666 
L 4325 4666 
L 2547 0 
L 1831 0 
z
" transform="scale(0.015625)"/>
      </defs>
      <use xlink:href="#DejaVuSans-46"/>
      <use xlink:href="#DejaVuSans-69" x="50.269531"/>
      <use xlink:href="#DejaVuSans-6c" x="78.052734"/>
      <use xlink:href="#DejaVuSans-74" x="105.835938"/>
      <use xlink:href="#DejaVuSans-65" x="145.044922"/>
      <use xlink:href="#DejaVuSans-72" x="206.568359"/>
      <use xlink:href="#DejaVuSans-65" x="245.431641"/>
      <use xlink:href="#DejaVuSans-64" x="306.955078"/>
      <use xlink:href="#DejaVuSans-56" x="370.431641"/>
      <use xlink:href="#DejaVuSans-61" x="431.089844"/>
      <use xlink:href="#DejaVuSans-6d" x="492.369141"/>
      <use xlink:href="#DejaVuSans-61" x="589.78125"/>
      <use xlink:href="#DejaVuSans-6e" x="651.060547"/>
      <use xlink:href="#DejaVuSans-61" x="714.439453"/>
     </g>
    </g>
    <g id="patch_89">
     <path d="M 754.469141 26.917344 
L 788.469141 26.917344 
L 788.469141 15.017344 
L 754.469141 15.017344 
z
" style="fill: #727272; stroke: #000000; stroke-width: 2; stroke-linejoin: miter"/>
    </g>
    <g id="text_17">
     <!-- NHQ -->
     <g transform="translate(802.069141 26.917344) scale(0.17 -0.17)">
      <defs>
       <path id="DejaVuSans-48" d="M 628 4666 
L 1259 4666 
L 1259 2753 
L 3553 2753 
L 3553 4666 
L 4184 4666 
L 4184 0 
L 3553 0 
L 3553 2222 
L 1259 2222 
L 1259 0 
L 628 0 
L 628 4666 
z
" transform="scale(0.015625)"/>
       <path id="DejaVuSans-51" d="M 2522 4238 
Q 1834 4238 1429 3725 
Q 1025 3213 1025 2328 
Q 1025 1447 1429 934 
Q 1834 422 2522 422 
Q 3209 422 3611 934 
Q 4013 1447 4013 2328 
Q 4013 3213 3611 3725 
Q 3209 4238 2522 4238 
z
M 3406 84 
L 4238 -825 
L 3475 -825 
L 2784 -78 
Q 2681 -84 2626 -87 
Q 2572 -91 2522 -91 
Q 1538 -91 948 567 
Q 359 1225 359 2328 
Q 359 3434 948 4092 
Q 1538 4750 2522 4750 
Q 3503 4750 4090 4092 
Q 4678 3434 4678 2328 
Q 4678 1516 4351 937 
Q 4025 359 3406 84 
z
" transform="scale(0.015625)"/>
      </defs>
      <use xlink:href="#DejaVuSans-4e"/>
      <use xlink:href="#DejaVuSans-48" x="74.804688"/>
      <use xlink:href="#DejaVuSans-51" x="150"/>
     </g>
    </g>
    <g id="patch_90">
     <path d="M 874.953984 26.917344 
L 908.953984 26.917344 
L 908.953984 15.017344 
L 874.953984 15.017344 
z
" style="fill: #80ffd5; stroke: #000000; stroke-width: 2; stroke-linejoin: miter"/>
    </g>
    <g id="text_18">
     <!-- StitchedVamana -->
     <g transform="translate(922.553984 26.917344) scale(0.17 -0.17)">
      <defs>
       <path id="DejaVuSans-63" d="M 3122 3366 
L 3122 2828 
Q 2878 2963 2633 3030 
Q 2388 3097 2138 3097 
Q 1578 3097 1268 2742 
Q 959 2388 959 1747 
Q 959 1106 1268 751 
Q 1578 397 2138 397 
Q 2388 397 2633 464 
Q 2878 531 3122 666 
L 3122 134 
Q 2881 22 2623 -34 
Q 2366 -91 2075 -91 
Q 1284 -91 818 406 
Q 353 903 353 1747 
Q 353 2603 823 3093 
Q 1294 3584 2113 3584 
Q 2378 3584 2631 3529 
Q 2884 3475 3122 3366 
z
" transform="scale(0.015625)"/>
       <path id="DejaVuSans-68" d="M 3513 2113 
L 3513 0 
L 2938 0 
L 2938 2094 
Q 2938 2591 2744 2837 
Q 2550 3084 2163 3084 
Q 1697 3084 1428 2787 
Q 1159 2491 1159 1978 
L 1159 0 
L 581 0 
L 581 4863 
L 1159 4863 
L 1159 2956 
Q 1366 3272 1645 3428 
Q 1925 3584 2291 3584 
Q 2894 3584 3203 3211 
Q 3513 2838 3513 2113 
z
" transform="scale(0.015625)"/>
      </defs>
      <use xlink:href="#DejaVuSans-53"/>
      <use xlink:href="#DejaVuSans-74" x="63.476562"/>
      <use xlink:href="#DejaVuSans-69" x="102.685547"/>
      <use xlink:href="#DejaVuSans-74" x="130.46875"/>
      <use xlink:href="#DejaVuSans-63" x="169.677734"/>
      <use xlink:href="#DejaVuSans-68" x="224.658203"/>
      <use xlink:href="#DejaVuSans-65" x="288.037109"/>
      <use xlink:href="#DejaVuSans-64" x="349.560547"/>
      <use xlink:href="#DejaVuSans-56" x="413.037109"/>
      <use xlink:href="#DejaVuSans-61" x="473.695312"/>
      <use xlink:href="#DejaVuSans-6d" x="534.974609"/>
      <use xlink:href="#DejaVuSans-61" x="632.386719"/>
      <use xlink:href="#DejaVuSans-6e" x="693.666016"/>
      <use xlink:href="#DejaVuSans-61" x="757.044922"/>
     </g>
    </g>
    <g id="patch_91">
     <path d="M 1095.669766 26.917344 
L 1129.669766 26.917344 
L 1129.669766 15.017344 
L 1095.669766 15.017344 
z
" style="fill: #8c008c; stroke: #000000; stroke-width: 2; stroke-linejoin: miter"/>
    </g>
    <g id="text_19">
     <!-- UNG -->
     <g transform="translate(1143.269766 26.917344) scale(0.17 -0.17)">
      <defs>
       <path id="DejaVuSans-55" d="M 556 4666 
L 1191 4666 
L 1191 1831 
Q 1191 1081 1462 751 
Q 1734 422 2344 422 
Q 2950 422 3222 751 
Q 3494 1081 3494 1831 
L 3494 4666 
L 4128 4666 
L 4128 1753 
Q 4128 841 3676 375 
Q 3225 -91 2344 -91 
Q 1459 -91 1007 375 
Q 556 841 556 1753 
L 556 4666 
z
" transform="scale(0.015625)"/>
       <path id="DejaVuSans-47" d="M 3809 666 
L 3809 1919 
L 2778 1919 
L 2778 2438 
L 4434 2438 
L 4434 434 
Q 4069 175 3628 42 
Q 3188 -91 2688 -91 
Q 1594 -91 976 548 
Q 359 1188 359 2328 
Q 359 3472 976 4111 
Q 1594 4750 2688 4750 
Q 3144 4750 3555 4637 
Q 3966 4525 4313 4306 
L 4313 3634 
Q 3963 3931 3569 4081 
Q 3175 4231 2741 4231 
Q 1884 4231 1454 3753 
Q 1025 3275 1025 2328 
Q 1025 1384 1454 906 
Q 1884 428 2741 428 
Q 3075 428 3337 486 
Q 3600 544 3809 666 
z
" transform="scale(0.015625)"/>
      </defs>
      <use xlink:href="#DejaVuSans-55"/>
      <use xlink:href="#DejaVuSans-4e" x="73.193359"/>
      <use xlink:href="#DejaVuSans-47" x="147.998047"/>
     </g>
    </g>
    <g id="patch_92">
     <path d="M 1215.602109 26.917344 
L 1249.602109 26.917344 
L 1249.602109 15.017344 
L 1215.602109 15.017344 
z
" style="fill: #aeff2b; stroke: #000000; stroke-width: 2; stroke-linejoin: miter"/>
    </g>
    <g id="text_20">
     <!-- faiss -->
     <g transform="translate(1263.202109 26.917344) scale(0.17 -0.17)">
      <use xlink:href="#DejaVuSans-66"/>
      <use xlink:href="#DejaVuSans-61" x="35.205078"/>
      <use xlink:href="#DejaVuSans-69" x="96.484375"/>
      <use xlink:href="#DejaVuSans-73" x="124.267578"/>
      <use xlink:href="#DejaVuSans-73" x="176.367188"/>
     </g>
    </g>
    <g id="patch_93">
     <path d="M 1336.039141 26.917344 
L 1370.039141 26.917344 
L 1370.039141 15.017344 
L 1336.039141 15.017344 
z
" style="fill: #8c0000; stroke: #000000; stroke-width: 2; stroke-linejoin: miter"/>
    </g>
    <g id="text_21">
     <!-- milvus -->
     <g transform="translate(1383.639141 26.917344) scale(0.17 -0.17)">
      <use xlink:href="#DejaVuSans-6d"/>
      <use xlink:href="#DejaVuSans-69" x="97.412109"/>
      <use xlink:href="#DejaVuSans-6c" x="125.195312"/>
      <use xlink:href="#DejaVuSans-76" x="152.978516"/>
      <use xlink:href="#DejaVuSans-75" x="212.158203"/>
      <use xlink:href="#DejaVuSans-73" x="275.537109"/>
     </g>
    </g>
    <g id="patch_94">
     <path d="M 1473.335391 26.917344 
L 1507.335391 26.917344 
L 1507.335391 15.017344 
L 1473.335391 15.017344 
z
" style="fill: #0000ce; stroke: #000000; stroke-width: 2; stroke-linejoin: miter"/>
    </g>
    <g id="text_22">
     <!-- parlayivf -->
     <g transform="translate(1520.935391 26.917344) scale(0.17 -0.17)">
      <defs>
       <path id="DejaVuSans-70" d="M 1159 525 
L 1159 -1331 
L 581 -1331 
L 581 3500 
L 1159 3500 
L 1159 2969 
Q 1341 3281 1617 3432 
Q 1894 3584 2278 3584 
Q 2916 3584 3314 3078 
Q 3713 2572 3713 1747 
Q 3713 922 3314 415 
Q 2916 -91 2278 -91 
Q 1894 -91 1617 61 
Q 1341 213 1159 525 
z
M 3116 1747 
Q 3116 2381 2855 2742 
Q 2594 3103 2138 3103 
Q 1681 3103 1420 2742 
Q 1159 2381 1159 1747 
Q 1159 1113 1420 752 
Q 1681 391 2138 391 
Q 2594 391 2855 752 
Q 3116 1113 3116 1747 
z
" transform="scale(0.015625)"/>
       <path id="DejaVuSans-79" d="M 2059 -325 
Q 1816 -950 1584 -1140 
Q 1353 -1331 966 -1331 
L 506 -1331 
L 506 -850 
L 844 -850 
Q 1081 -850 1212 -737 
Q 1344 -625 1503 -206 
L 1606 56 
L 191 3500 
L 800 3500 
L 1894 763 
L 2988 3500 
L 3597 3500 
L 2059 -325 
z
" transform="scale(0.015625)"/>
      </defs>
      <use xlink:href="#DejaVuSans-70"/>
      <use xlink:href="#DejaVuSans-61" x="63.476562"/>
      <use xlink:href="#DejaVuSans-72" x="124.755859"/>
      <use xlink:href="#DejaVuSans-6c" x="165.869141"/>
      <use xlink:href="#DejaVuSans-61" x="193.652344"/>
      <use xlink:href="#DejaVuSans-79" x="254.931641"/>
      <use xlink:href="#DejaVuSans-69" x="314.111328"/>
      <use xlink:href="#DejaVuSans-76" x="341.894531"/>
      <use xlink:href="#DejaVuSans-66" x="401.074219"/>
     </g>
    </g>
    <g id="patch_95">
     <path d="M 1629.105859 26.917344 
L 1663.105859 26.917344 
L 1663.105859 15.017344 
L 1629.105859 15.017344 
z
" style="fill: #ffface; stroke: #000000; stroke-width: 2; stroke-linejoin: miter"/>
    </g>
    <g id="text_23">
     <!-- pase -->
     <g transform="translate(1676.705859 26.917344) scale(0.17 -0.17)">
      <use xlink:href="#DejaVuSans-70"/>
      <use xlink:href="#DejaVuSans-61" x="63.476562"/>
      <use xlink:href="#DejaVuSans-73" x="124.755859"/>
      <use xlink:href="#DejaVuSans-65" x="176.855469"/>
     </g>
    </g>
    <g id="patch_96">
     <path d="M 1751.232266 26.917344 
L 1785.232266 26.917344 
L 1785.232266 15.017344 
L 1751.232266 15.017344 
z
" style="fill: #008c8c; stroke: #000000; stroke-width: 2; stroke-linejoin: miter"/>
    </g>
    <g id="text_24">
     <!-- puck -->
     <g transform="translate(1798.832266 26.917344) scale(0.17 -0.17)">
      <defs>
       <path id="DejaVuSans-6b" d="M 581 4863 
L 1159 4863 
L 1159 1991 
L 2875 3500 
L 3609 3500 
L 1753 1863 
L 3688 0 
L 2938 0 
L 1159 1709 
L 1159 0 
L 581 0 
L 581 4863 
z
" transform="scale(0.015625)"/>
      </defs>
      <use xlink:href="#DejaVuSans-70"/>
      <use xlink:href="#DejaVuSans-75" x="63.476562"/>
      <use xlink:href="#DejaVuSans-63" x="126.855469"/>
      <use xlink:href="#DejaVuSans-6b" x="181.835938"/>
     </g>
    </g>
    <g id="patch_97">
     <path d="M 1873.589766 26.917344 
L 1907.589766 26.917344 
L 1907.589766 15.017344 
L 1873.589766 15.017344 
z
" style="fill: #ff4300; stroke: #000000; stroke-width: 2; stroke-linejoin: miter"/>
    </g>
    <g id="text_25">
     <!-- vbase -->
     <g transform="translate(1921.189766 26.917344) scale(0.17 -0.17)">
      <defs>
       <path id="DejaVuSans-62" d="M 3116 1747 
Q 3116 2381 2855 2742 
Q 2594 3103 2138 3103 
Q 1681 3103 1420 2742 
Q 1159 2381 1159 1747 
Q 1159 1113 1420 752 
Q 1681 391 2138 391 
Q 2594 391 2855 752 
Q 3116 1113 3116 1747 
z
M 1159 2969 
Q 1341 3281 1617 3432 
Q 1894 3584 2278 3584 
Q 2916 3584 3314 3078 
Q 3713 2572 3713 1747 
Q 3713 922 3314 415 
Q 2916 -91 2278 -91 
Q 1894 -91 1617 61 
Q 1341 213 1159 525 
L 1159 0 
L 581 0 
L 581 4863 
L 1159 4863 
L 1159 2969 
z
" transform="scale(0.015625)"/>
      </defs>
      <use xlink:href="#DejaVuSans-76"/>
      <use xlink:href="#DejaVuSans-62" x="59.179688"/>
      <use xlink:href="#DejaVuSans-61" x="122.65625"/>
      <use xlink:href="#DejaVuSans-73" x="183.935547"/>
      <use xlink:href="#DejaVuSans-65" x="236.035156"/>
     </g>
    </g>
   </g>
  </g>
 </g>
 <defs>
  <clipPath id="p0978af1a61">
   <rect x="72.75625" y="40.424" width="1884.42" height="278.16"/>
  </clipPath>
 </defs>
</svg>
