<?xml version="1.0" encoding="utf-8" standalone="no"?>
<!DOCTYPE svg PUBLIC "-//W3C//DTD SVG 1.1//EN"
  "http://www.w3.org/Graphics/SVG/1.1/DTD/svg11.dtd">
<svg xmlns:xlink="http://www.w3.org/1999/xlink" width="1091.246194pt" height="251.19625pt" viewBox="0 0 1091.246194 251.19625" xmlns="http://www.w3.org/2000/svg" version="1.1">
 <metadata>
  <rdf:RDF xmlns:dc="http://purl.org/dc/elements/1.1/" xmlns:cc="http://creativecommons.org/ns#" xmlns:rdf="http://www.w3.org/1999/02/22-rdf-syntax-ns#">
   <cc:Work>
    <dc:type rdf:resource="http://purl.org/dc/dcmitype/StillImage"/>
    <dc:date>2025-07-23T11:15:25.678376</dc:date>
    <dc:format>image/svg+xml</dc:format>
    <dc:creator>
     <cc:Agent>
      <dc:title>Matplotlib v3.10.3, https://matplotlib.org/</dc:title>
     </cc:Agent>
    </dc:creator>
   </cc:Work>
  </rdf:RDF>
 </metadata>
 <defs>
  <style type="text/css">*{stroke-linejoin: round; stroke-linecap: butt}</style>
 </defs>
 <g id="figure_1">
  <g id="patch_1">
   <path d="M 0 251.19625 
L 1091.246194 251.19625 
L 1091.246194 0 
L 0 0 
z
" style="fill: #ffffff"/>
  </g>
  <g id="axes_1">
   <g id="patch_2">
    <path d="M 74.691875 217.64 
L 912.30727 217.64 
L 912.30727 7.2 
L 74.691875 7.2 
z
" style="fill: #ffffff"/>
   </g>
   <g id="patch_3">
    <path d="M 112.765302 142751.968104 
L 121.517814 142751.968104 
L 121.517814 198.780285 
L 112.765302 198.780285 
z
" clip-path="url(#pcddaca83e1)" style="fill: #1f77b4; stroke: #000000; stroke-width: 2; stroke-linejoin: miter"/>
   </g>
   <g id="patch_4">
    <path d="M 244.052982 142751.968104 
L 252.805494 142751.968104 
L 252.805494 73.430067 
L 244.052982 73.430067 
z
" clip-path="url(#pcddaca83e1)" style="fill: #1f77b4; stroke: #000000; stroke-width: 2; stroke-linejoin: miter"/>
   </g>
   <g id="patch_5">
    <path d="M 375.340661 142751.968104 
L 384.093173 142751.968104 
L 384.093173 116.936935 
L 375.340661 116.936935 
z
" clip-path="url(#pcddaca83e1)" style="fill: #1f77b4; stroke: #000000; stroke-width: 2; stroke-linejoin: miter"/>
   </g>
   <g id="patch_6">
    <path d="M 506.628341 142751.968104 
L 515.380853 142751.968104 
L 515.380853 165.035906 
L 506.628341 165.035906 
z
" clip-path="url(#pcddaca83e1)" style="fill: #1f77b4; stroke: #000000; stroke-width: 2; stroke-linejoin: miter"/>
   </g>
   <g id="patch_7">
    <path d="M 637.91602 142751.968104 
L 646.668532 142751.968104 
L 646.668532 96.546397 
L 637.91602 96.546397 
z
" clip-path="url(#pcddaca83e1)" style="fill: #1f77b4; stroke: #000000; stroke-width: 2; stroke-linejoin: miter"/>
   </g>
   <g id="patch_8">
    <path d="M 769.2037 142751.968104 
L 777.956212 142751.968104 
L 777.956212 141.682518 
L 769.2037 141.682518 
z
" clip-path="url(#pcddaca83e1)" style="fill: #1f77b4; stroke: #000000; stroke-width: 2; stroke-linejoin: miter"/>
   </g>
   <g id="patch_9">
    <path d="M 121.517814 142751.968104 
L 130.270326 142751.968104 
L 130.270326 198.210185 
L 121.517814 198.210185 
z
" clip-path="url(#pcddaca83e1)" style="fill: #ff7f0e; stroke: #000000; stroke-width: 2; stroke-linejoin: miter"/>
   </g>
   <g id="patch_10">
    <path d="M 252.805494 142751.968104 
L 261.558005 142751.968104 
L 261.558005 72.60833 
L 252.805494 72.60833 
z
" clip-path="url(#pcddaca83e1)" style="fill: #ff7f0e; stroke: #000000; stroke-width: 2; stroke-linejoin: miter"/>
   </g>
   <g id="patch_11">
    <path d="M 384.093173 142751.968104 
L 392.845685 142751.968104 
L 392.845685 115.285596 
L 384.093173 115.285596 
z
" clip-path="url(#pcddaca83e1)" style="fill: #ff7f0e; stroke: #000000; stroke-width: 2; stroke-linejoin: miter"/>
   </g>
   <g id="patch_12">
    <path d="M 515.380853 142751.968104 
L 524.133364 142751.968104 
L 524.133364 161.429543 
L 515.380853 161.429543 
z
" clip-path="url(#pcddaca83e1)" style="fill: #ff7f0e; stroke: #000000; stroke-width: 2; stroke-linejoin: miter"/>
   </g>
   <g id="patch_13">
    <path d="M 646.668532 142751.968104 
L 655.421044 142751.968104 
L 655.421044 94.929199 
L 646.668532 94.929199 
z
" clip-path="url(#pcddaca83e1)" style="fill: #ff7f0e; stroke: #000000; stroke-width: 2; stroke-linejoin: miter"/>
   </g>
   <g id="patch_14">
    <path d="M 777.956212 142751.968104 
L 786.708723 142751.968104 
L 786.708723 138.452026 
L 777.956212 138.452026 
z
" clip-path="url(#pcddaca83e1)" style="fill: #ff7f0e; stroke: #000000; stroke-width: 2; stroke-linejoin: miter"/>
   </g>
   <g id="patch_15">
    <path d="M 130.270326 142751.968104 
L 139.022838 142751.968104 
L 139.022838 203.738178 
L 130.270326 203.738178 
z
" clip-path="url(#pcddaca83e1)" style="fill: #2ca02c; stroke: #000000; stroke-width: 2; stroke-linejoin: miter"/>
   </g>
   <g id="patch_16">
    <path d="M 261.558005 142751.968104 
L 270.310517 142751.968104 
L 270.310517 80.162537 
L 261.558005 80.162537 
z
" clip-path="url(#pcddaca83e1)" style="fill: #2ca02c; stroke: #000000; stroke-width: 2; stroke-linejoin: miter"/>
   </g>
   <g id="patch_17">
    <path d="M 392.845685 142751.968104 
L 401.598197 142751.968104 
L 401.598197 131.272751 
L 392.845685 131.272751 
z
" clip-path="url(#pcddaca83e1)" style="fill: #2ca02c; stroke: #000000; stroke-width: 2; stroke-linejoin: miter"/>
   </g>
   <g id="patch_18">
    <path d="M 524.133364 142751.968104 
L 532.885876 142751.968104 
L 532.885876 202.546965 
L 524.133364 202.546965 
z
" clip-path="url(#pcddaca83e1)" style="fill: #2ca02c; stroke: #000000; stroke-width: 2; stroke-linejoin: miter"/>
   </g>
   <g id="patch_19">
    <path d="M 655.421044 142751.968104 
L 664.173556 142751.968104 
L 664.173556 118.698123 
L 655.421044 118.698123 
z
" clip-path="url(#pcddaca83e1)" style="fill: #2ca02c; stroke: #000000; stroke-width: 2; stroke-linejoin: miter"/>
   </g>
   <g id="patch_20">
    <path d="M 786.708723 142751.968104 
L 795.461235 142751.968104 
L 795.461235 202.546965 
L 786.708723 202.546965 
z
" clip-path="url(#pcddaca83e1)" style="fill: #2ca02c; stroke: #000000; stroke-width: 2; stroke-linejoin: miter"/>
   </g>
   <g id="patch_21">
    <path d="M 139.022838 142751.968104 
L 147.77535 142751.968104 
L 147.77535 203.774558 
L 139.022838 203.774558 
z
" clip-path="url(#pcddaca83e1)" style="fill: #d62728; stroke: #000000; stroke-width: 2; stroke-linejoin: miter"/>
   </g>
   <g id="patch_22">
    <path d="M 270.310517 142751.968104 
L 279.063029 142751.968104 
L 279.063029 80.288634 
L 270.310517 80.288634 
z
" clip-path="url(#pcddaca83e1)" style="fill: #d62728; stroke: #000000; stroke-width: 2; stroke-linejoin: miter"/>
   </g>
   <g id="patch_23">
    <path d="M 401.598197 142751.968104 
L 410.350709 142751.968104 
L 410.350709 131.642714 
L 401.598197 131.642714 
z
" clip-path="url(#pcddaca83e1)" style="fill: #d62728; stroke: #000000; stroke-width: 2; stroke-linejoin: miter"/>
   </g>
   <g id="patch_24">
    <path d="M 532.885876 142751.968104 
L 541.638388 142751.968104 
L 541.638388 203.862802 
L 532.885876 203.862802 
z
" clip-path="url(#pcddaca83e1)" style="fill: #d62728; stroke: #000000; stroke-width: 2; stroke-linejoin: miter"/>
   </g>
   <g id="patch_25">
    <path d="M 664.173556 142751.968104 
L 672.926068 142751.968104 
L 672.926068 118.987478 
L 664.173556 118.987478 
z
" clip-path="url(#pcddaca83e1)" style="fill: #d62728; stroke: #000000; stroke-width: 2; stroke-linejoin: miter"/>
   </g>
   <g id="patch_26">
    <path d="M 795.461235 142751.968104 
L 804.213747 142751.968104 
L 804.213747 203.862802 
L 795.461235 203.862802 
z
" clip-path="url(#pcddaca83e1)" style="fill: #d62728; stroke: #000000; stroke-width: 2; stroke-linejoin: miter"/>
   </g>
   <g id="patch_27">
    <path d="M 147.77535 142751.968104 
L 156.527862 142751.968104 
L 156.527862 200.540627 
L 147.77535 200.540627 
z
" clip-path="url(#pcddaca83e1)" style="fill: #9467bd; stroke: #000000; stroke-width: 2; stroke-linejoin: miter"/>
   </g>
   <g id="patch_28">
    <path d="M 279.063029 142751.968104 
L 287.815541 142751.968104 
L 287.815541 75.660717 
L 279.063029 75.660717 
z
" clip-path="url(#pcddaca83e1)" style="fill: #9467bd; stroke: #000000; stroke-width: 2; stroke-linejoin: miter"/>
   </g>
   <g id="patch_29">
    <path d="M 410.350709 142751.968104 
L 419.103221 142751.968104 
L 419.103221 120.70023 
L 410.350709 120.70023 
z
" clip-path="url(#pcddaca83e1)" style="fill: #9467bd; stroke: #000000; stroke-width: 2; stroke-linejoin: miter"/>
   </g>
   <g id="patch_30">
    <path d="M 541.638388 142751.968104 
L 550.3909 142751.968104 
L 550.3909 170.57761 
L 541.638388 170.57761 
z
" clip-path="url(#pcddaca83e1)" style="fill: #9467bd; stroke: #000000; stroke-width: 2; stroke-linejoin: miter"/>
   </g>
   <g id="patch_31">
    <path d="M 672.926068 142751.968104 
L 681.67858 142751.968104 
L 681.67858 111.354618 
L 672.926068 111.354618 
z
" clip-path="url(#pcddaca83e1)" style="fill: #9467bd; stroke: #000000; stroke-width: 2; stroke-linejoin: miter"/>
   </g>
   <g id="patch_32">
    <path d="M 804.213747 142751.968104 
L 812.966259 142751.968104 
L 812.966259 177.809958 
L 804.213747 177.809958 
z
" clip-path="url(#pcddaca83e1)" style="fill: #9467bd; stroke: #000000; stroke-width: 2; stroke-linejoin: miter"/>
   </g>
   <g id="patch_33">
    <path d="M 156.527862 142751.968104 
L 165.280374 142751.968104 
L 165.280374 165.76974 
L 156.527862 165.76974 
z
" clip-path="url(#pcddaca83e1)" style="fill: #8c564b; stroke: #000000; stroke-width: 2; stroke-linejoin: miter"/>
   </g>
   <g id="patch_34">
    <path d="M 287.815541 142751.968104 
L 296.568053 142751.968104 
L 296.568053 56.045333 
L 287.815541 56.045333 
z
" clip-path="url(#pcddaca83e1)" style="fill: #8c564b; stroke: #000000; stroke-width: 2; stroke-linejoin: miter"/>
   </g>
   <g id="patch_35">
    <path d="M 419.103221 142751.968104 
L 427.855733 142751.968104 
L 427.855733 78.278085 
L 419.103221 78.278085 
z
" clip-path="url(#pcddaca83e1)" style="fill: #8c564b; stroke: #000000; stroke-width: 2; stroke-linejoin: miter"/>
   </g>
   <g id="patch_36">
    <path d="M 550.3909 142751.968104 
L 559.143412 142751.968104 
L 559.143412 171.755073 
L 550.3909 171.755073 
z
" clip-path="url(#pcddaca83e1)" style="fill: #8c564b; stroke: #000000; stroke-width: 2; stroke-linejoin: miter"/>
   </g>
   <g id="patch_37">
    <path d="M 681.67858 142751.968104 
L 690.431092 142751.968104 
L 690.431092 75.775251 
L 681.67858 75.775251 
z
" clip-path="url(#pcddaca83e1)" style="fill: #8c564b; stroke: #000000; stroke-width: 2; stroke-linejoin: miter"/>
   </g>
   <g id="patch_38">
    <path d="M 812.966259 142751.968104 
L 821.718771 142751.968104 
L 821.718771 170.438263 
L 812.966259 170.438263 
z
" clip-path="url(#pcddaca83e1)" style="fill: #8c564b; stroke: #000000; stroke-width: 2; stroke-linejoin: miter"/>
   </g>
   <g id="patch_39">
    <path d="M 165.280374 142751.968104 
L 174.032886 142751.968104 
L 174.032886 203.429876 
L 165.280374 203.429876 
z
" clip-path="url(#pcddaca83e1)" style="fill: #e377c2; stroke: #000000; stroke-width: 2; stroke-linejoin: miter"/>
   </g>
   <g id="patch_40">
    <path d="M 296.568053 142751.968104 
L 305.320565 142751.968104 
L 305.320565 79.736125 
L 296.568053 79.736125 
z
" clip-path="url(#pcddaca83e1)" style="fill: #e377c2; stroke: #000000; stroke-width: 2; stroke-linejoin: miter"/>
   </g>
   <g id="patch_41">
    <path d="M 427.855733 142751.968104 
L 436.608245 142751.968104 
L 436.608245 129.218157 
L 427.855733 129.218157 
z
" clip-path="url(#pcddaca83e1)" style="fill: #e377c2; stroke: #000000; stroke-width: 2; stroke-linejoin: miter"/>
   </g>
   <g id="patch_42">
    <path d="M 559.143412 142751.968104 
L 567.895924 142751.968104 
L 567.895924 197.096684 
L 559.143412 197.096684 
z
" clip-path="url(#pcddaca83e1)" style="fill: #e377c2; stroke: #000000; stroke-width: 2; stroke-linejoin: miter"/>
   </g>
   <g id="patch_43">
    <path d="M 690.431092 142751.968104 
L 699.183604 142751.968104 
L 699.183604 117.673444 
L 690.431092 117.673444 
z
" clip-path="url(#pcddaca83e1)" style="fill: #e377c2; stroke: #000000; stroke-width: 2; stroke-linejoin: miter"/>
   </g>
   <g id="patch_44">
    <path d="M 821.718771 142751.968104 
L 830.471283 142751.968104 
L 830.471283 198.312416 
L 821.718771 198.312416 
z
" clip-path="url(#pcddaca83e1)" style="fill: #e377c2; stroke: #000000; stroke-width: 2; stroke-linejoin: miter"/>
   </g>
   <g id="patch_45">
    <path clip-path="url(#pcddaca83e1)" style="fill: #7f7f7f; stroke: #000000; stroke-width: 2; stroke-linejoin: miter"/>
   </g>
   <g id="patch_46">
    <path clip-path="url(#pcddaca83e1)" style="fill: #7f7f7f; stroke: #000000; stroke-width: 2; stroke-linejoin: miter"/>
   </g>
   <g id="patch_47">
    <path d="M 436.608245 142751.968104 
L 445.360757 142751.968104 
L 445.360757 20.401068 
L 436.608245 20.401068 
z
" clip-path="url(#pcddaca83e1)" style="fill: #7f7f7f; stroke: #000000; stroke-width: 2; stroke-linejoin: miter"/>
   </g>
   <g id="patch_48">
    <path d="M 567.895924 142751.968104 
L 576.648436 142751.968104 
L 576.648436 29.71605 
L 567.895924 29.71605 
z
" clip-path="url(#pcddaca83e1)" style="fill: #7f7f7f; stroke: #000000; stroke-width: 2; stroke-linejoin: miter"/>
   </g>
   <g id="patch_49">
    <path d="M 699.183604 142751.968104 
L 707.936116 142751.968104 
L 707.936116 18.45679 
L 699.183604 18.45679 
z
" clip-path="url(#pcddaca83e1)" style="fill: #7f7f7f; stroke: #000000; stroke-width: 2; stroke-linejoin: miter"/>
   </g>
   <g id="patch_50">
    <path d="M 830.471283 142751.968104 
L 839.223795 142751.968104 
L 839.223795 29.71605 
L 830.471283 29.71605 
z
" clip-path="url(#pcddaca83e1)" style="fill: #7f7f7f; stroke: #000000; stroke-width: 2; stroke-linejoin: miter"/>
   </g>
   <g id="patch_51">
    <path d="M 182.785398 142751.968104 
L 191.53791 142751.968104 
L 191.53791 203.120648 
L 182.785398 203.120648 
z
" clip-path="url(#pcddaca83e1)" style="fill: #bcbd22; stroke: #000000; stroke-width: 2; stroke-linejoin: miter"/>
   </g>
   <g id="patch_52">
    <path d="M 314.073077 142751.968104 
L 322.825589 142751.968104 
L 322.825589 79.861353 
L 314.073077 79.861353 
z
" clip-path="url(#pcddaca83e1)" style="fill: #bcbd22; stroke: #000000; stroke-width: 2; stroke-linejoin: miter"/>
   </g>
   <g id="patch_53">
    <path d="M 445.360757 142751.968104 
L 454.113269 142751.968104 
L 454.113269 130.661664 
L 445.360757 130.661664 
z
" clip-path="url(#pcddaca83e1)" style="fill: #bcbd22; stroke: #000000; stroke-width: 2; stroke-linejoin: miter"/>
   </g>
   <g id="patch_54">
    <path d="M 576.648436 142751.968104 
L 585.400948 142751.968104 
L 585.400948 200.747146 
L 576.648436 200.747146 
z
" clip-path="url(#pcddaca83e1)" style="fill: #bcbd22; stroke: #000000; stroke-width: 2; stroke-linejoin: miter"/>
   </g>
   <g id="patch_55">
    <path d="M 707.936116 142751.968104 
L 716.688628 142751.968104 
L 716.688628 118.205397 
L 707.936116 118.205397 
z
" clip-path="url(#pcddaca83e1)" style="fill: #bcbd22; stroke: #000000; stroke-width: 2; stroke-linejoin: miter"/>
   </g>
   <g id="patch_56">
    <path d="M 839.223795 142751.968104 
L 847.976307 142751.968104 
L 847.976307 200.652614 
L 839.223795 200.652614 
z
" clip-path="url(#pcddaca83e1)" style="fill: #bcbd22; stroke: #000000; stroke-width: 2; stroke-linejoin: miter"/>
   </g>
   <g id="patch_57">
    <path d="M 191.53791 142751.968104 
L 200.290422 142751.968104 
L 200.290422 202.930331 
L 191.53791 202.930331 
z
" clip-path="url(#pcddaca83e1)" style="fill: #17becf; stroke: #000000; stroke-width: 2; stroke-linejoin: miter"/>
   </g>
   <g id="patch_58">
    <path d="M 322.825589 142751.968104 
L 331.578101 142751.968104 
L 331.578101 78.91453 
L 322.825589 78.91453 
z
" clip-path="url(#pcddaca83e1)" style="fill: #17becf; stroke: #000000; stroke-width: 2; stroke-linejoin: miter"/>
   </g>
   <g id="patch_59">
    <path d="M 454.113269 142751.968104 
L 462.865781 142751.968104 
L 462.865781 128.600347 
L 454.113269 128.600347 
z
" clip-path="url(#pcddaca83e1)" style="fill: #17becf; stroke: #000000; stroke-width: 2; stroke-linejoin: miter"/>
   </g>
   <g id="patch_60">
    <path d="M 585.400948 142751.968104 
L 594.15346 142751.968104 
L 594.15346 191.580632 
L 585.400948 191.580632 
z
" clip-path="url(#pcddaca83e1)" style="fill: #17becf; stroke: #000000; stroke-width: 2; stroke-linejoin: miter"/>
   </g>
   <g id="patch_61">
    <path d="M 716.688628 142751.968104 
L 725.44114 142751.968104 
L 725.44114 73.44511 
L 716.688628 73.44511 
z
" clip-path="url(#pcddaca83e1)" style="fill: #17becf; stroke: #000000; stroke-width: 2; stroke-linejoin: miter"/>
   </g>
   <g id="patch_62">
    <path d="M 847.976307 142751.968104 
L 856.728819 142751.968104 
L 856.728819 147.90056 
L 847.976307 147.90056 
z
" clip-path="url(#pcddaca83e1)" style="fill: #17becf; stroke: #000000; stroke-width: 2; stroke-linejoin: miter"/>
   </g>
   <g id="patch_63">
    <path d="M 200.290422 142751.968104 
L 209.042934 142751.968104 
L 209.042934 202.929351 
L 200.290422 202.929351 
z
" clip-path="url(#pcddaca83e1)" style="fill: #aec7e8; stroke: #000000; stroke-width: 2; stroke-linejoin: miter"/>
   </g>
   <g id="patch_64">
    <path d="M 331.578101 142751.968104 
L 340.330613 142751.968104 
L 340.330613 78.914644 
L 331.578101 78.914644 
z
" clip-path="url(#pcddaca83e1)" style="fill: #aec7e8; stroke: #000000; stroke-width: 2; stroke-linejoin: miter"/>
   </g>
   <g id="patch_65">
    <path d="M 462.865781 142751.968104 
L 471.618293 142751.968104 
L 471.618293 128.59963 
L 462.865781 128.59963 
z
" clip-path="url(#pcddaca83e1)" style="fill: #aec7e8; stroke: #000000; stroke-width: 2; stroke-linejoin: miter"/>
   </g>
   <g id="patch_66">
    <path d="M 594.15346 142751.968104 
L 602.905972 142751.968104 
L 602.905972 191.579231 
L 594.15346 191.579231 
z
" clip-path="url(#pcddaca83e1)" style="fill: #aec7e8; stroke: #000000; stroke-width: 2; stroke-linejoin: miter"/>
   </g>
   <g id="patch_67">
    <path d="M 725.44114 142751.968104 
L 734.193652 142751.968104 
L 734.193652 116.251316 
L 725.44114 116.251316 
z
" clip-path="url(#pcddaca83e1)" style="fill: #aec7e8; stroke: #000000; stroke-width: 2; stroke-linejoin: miter"/>
   </g>
   <g id="patch_68">
    <path d="M 856.728819 142751.968104 
L 865.481331 142751.968104 
L 865.481331 194.313797 
L 856.728819 194.313797 
z
" clip-path="url(#pcddaca83e1)" style="fill: #aec7e8; stroke: #000000; stroke-width: 2; stroke-linejoin: miter"/>
   </g>
   <g id="patch_69">
    <path d="M 209.042934 142751.968104 
L 217.795446 142751.968104 
L 217.795446 202.316065 
L 209.042934 202.316065 
z
" clip-path="url(#pcddaca83e1)" style="fill: #ffbb78; stroke: #000000; stroke-width: 2; stroke-linejoin: miter"/>
   </g>
   <g id="patch_70">
    <path d="M 340.330613 142751.968104 
L 349.083125 142751.968104 
L 349.083125 77.711275 
L 340.330613 77.711275 
z
" clip-path="url(#pcddaca83e1)" style="fill: #ffbb78; stroke: #000000; stroke-width: 2; stroke-linejoin: miter"/>
   </g>
   <g id="patch_71">
    <path d="M 471.618293 142751.968104 
L 480.370805 142751.968104 
L 480.370805 128.224162 
L 471.618293 128.224162 
z
" clip-path="url(#pcddaca83e1)" style="fill: #ffbb78; stroke: #000000; stroke-width: 2; stroke-linejoin: miter"/>
   </g>
   <g id="patch_72">
    <path d="M 602.905972 142751.968104 
L 611.658484 142751.968104 
L 611.658484 189.246443 
L 602.905972 189.246443 
z
" clip-path="url(#pcddaca83e1)" style="fill: #ffbb78; stroke: #000000; stroke-width: 2; stroke-linejoin: miter"/>
   </g>
   <g id="patch_73">
    <path d="M 734.193652 142751.968104 
L 742.946164 142751.968104 
L 742.946164 113.188516 
L 734.193652 113.188516 
z
" clip-path="url(#pcddaca83e1)" style="fill: #ffbb78; stroke: #000000; stroke-width: 2; stroke-linejoin: miter"/>
   </g>
   <g id="patch_74">
    <path d="M 865.481331 142751.968104 
L 874.233843 142751.968104 
L 874.233843 189.246443 
L 865.481331 189.246443 
z
" clip-path="url(#pcddaca83e1)" style="fill: #ffbb78; stroke: #000000; stroke-width: 2; stroke-linejoin: miter"/>
   </g>
   <g id="matplotlib.axis_1">
    <g id="xtick_1">
     <g id="line2d_1">
      <defs>
       <path id="m04f20402e9" d="M 0 0 
L 0 3.5 
" style="stroke: #000000; stroke-width: 0.8"/>
      </defs>
      <g>
       <use xlink:href="#m04f20402e9" x="165.280374" y="217.64" style="stroke: #000000; stroke-width: 0.8"/>
      </g>
     </g>
     <g id="text_1">
      <!-- Enron -->
      <g transform="translate(136.281936 239.836875) scale(0.2 -0.2)">
       <defs>
        <path id="DejaVuSans-45" d="M 628 4666 
L 3578 4666 
L 3578 4134 
L 1259 4134 
L 1259 2753 
L 3481 2753 
L 3481 2222 
L 1259 2222 
L 1259 531 
L 3634 531 
L 3634 0 
L 628 0 
L 628 4666 
z
" transform="scale(0.015625)"/>
        <path id="DejaVuSans-6e" d="M 3513 2113 
L 3513 0 
L 2938 0 
L 2938 2094 
Q 2938 2591 2744 2837 
Q 2550 3084 2163 3084 
Q 1697 3084 1428 2787 
Q 1159 2491 1159 1978 
L 1159 0 
L 581 0 
L 581 3500 
L 1159 3500 
L 1159 2956 
Q 1366 3272 1645 3428 
Q 1925 3584 2291 3584 
Q 2894 3584 3203 3211 
Q 3513 2838 3513 2113 
z
" transform="scale(0.015625)"/>
        <path id="DejaVuSans-72" d="M 2631 2963 
Q 2534 3019 2420 3045 
Q 2306 3072 2169 3072 
Q 1681 3072 1420 2755 
Q 1159 2438 1159 1844 
L 1159 0 
L 581 0 
L 581 3500 
L 1159 3500 
L 1159 2956 
Q 1341 3275 1631 3429 
Q 1922 3584 2338 3584 
Q 2397 3584 2469 3576 
Q 2541 3569 2628 3553 
L 2631 2963 
z
" transform="scale(0.015625)"/>
        <path id="DejaVuSans-6f" d="M 1959 3097 
Q 1497 3097 1228 2736 
Q 959 2375 959 1747 
Q 959 1119 1226 758 
Q 1494 397 1959 397 
Q 2419 397 2687 759 
Q 2956 1122 2956 1747 
Q 2956 2369 2687 2733 
Q 2419 3097 1959 3097 
z
M 1959 3584 
Q 2709 3584 3137 3096 
Q 3566 2609 3566 1747 
Q 3566 888 3137 398 
Q 2709 -91 1959 -91 
Q 1206 -91 779 398 
Q 353 888 353 1747 
Q 353 2609 779 3096 
Q 1206 3584 1959 3584 
z
" transform="scale(0.015625)"/>
       </defs>
       <use xlink:href="#DejaVuSans-45"/>
       <use xlink:href="#DejaVuSans-6e" transform="translate(63.183594 0)"/>
       <use xlink:href="#DejaVuSans-72" transform="translate(126.5625 0)"/>
       <use xlink:href="#DejaVuSans-6f" transform="translate(165.425781 0)"/>
       <use xlink:href="#DejaVuSans-6e" transform="translate(226.607422 0)"/>
      </g>
     </g>
    </g>
    <g id="xtick_2">
     <g id="line2d_2">
      <g>
       <use xlink:href="#m04f20402e9" x="296.568053" y="217.64" style="stroke: #000000; stroke-width: 0.8"/>
      </g>
     </g>
     <g id="text_2">
      <!-- GIST1M -->
      <g transform="translate(258.422741 239.836875) scale(0.2 -0.2)">
       <defs>
        <path id="DejaVuSans-47" d="M 3809 666 
L 3809 1919 
L 2778 1919 
L 2778 2438 
L 4434 2438 
L 4434 434 
Q 4069 175 3628 42 
Q 3188 -91 2688 -91 
Q 1594 -91 976 548 
Q 359 1188 359 2328 
Q 359 3472 976 4111 
Q 1594 4750 2688 4750 
Q 3144 4750 3555 4637 
Q 3966 4525 4313 4306 
L 4313 3634 
Q 3963 3931 3569 4081 
Q 3175 4231 2741 4231 
Q 1884 4231 1454 3753 
Q 1025 3275 1025 2328 
Q 1025 1384 1454 906 
Q 1884 428 2741 428 
Q 3075 428 3337 486 
Q 3600 544 3809 666 
z
" transform="scale(0.015625)"/>
        <path id="DejaVuSans-49" d="M 628 4666 
L 1259 4666 
L 1259 0 
L 628 0 
L 628 4666 
z
" transform="scale(0.015625)"/>
        <path id="DejaVuSans-53" d="M 3425 4513 
L 3425 3897 
Q 3066 4069 2747 4153 
Q 2428 4238 2131 4238 
Q 1616 4238 1336 4038 
Q 1056 3838 1056 3469 
Q 1056 3159 1242 3001 
Q 1428 2844 1947 2747 
L 2328 2669 
Q 3034 2534 3370 2195 
Q 3706 1856 3706 1288 
Q 3706 609 3251 259 
Q 2797 -91 1919 -91 
Q 1588 -91 1214 -16 
Q 841 59 441 206 
L 441 856 
Q 825 641 1194 531 
Q 1563 422 1919 422 
Q 2459 422 2753 634 
Q 3047 847 3047 1241 
Q 3047 1584 2836 1778 
Q 2625 1972 2144 2069 
L 1759 2144 
Q 1053 2284 737 2584 
Q 422 2884 422 3419 
Q 422 4038 858 4394 
Q 1294 4750 2059 4750 
Q 2388 4750 2728 4690 
Q 3069 4631 3425 4513 
z
" transform="scale(0.015625)"/>
        <path id="DejaVuSans-54" d="M -19 4666 
L 3928 4666 
L 3928 4134 
L 2272 4134 
L 2272 0 
L 1638 0 
L 1638 4134 
L -19 4134 
L -19 4666 
z
" transform="scale(0.015625)"/>
        <path id="DejaVuSans-31" d="M 794 531 
L 1825 531 
L 1825 4091 
L 703 3866 
L 703 4441 
L 1819 4666 
L 2450 4666 
L 2450 531 
L 3481 531 
L 3481 0 
L 794 0 
L 794 531 
z
" transform="scale(0.015625)"/>
        <path id="DejaVuSans-4d" d="M 628 4666 
L 1569 4666 
L 2759 1491 
L 3956 4666 
L 4897 4666 
L 4897 0 
L 4281 0 
L 4281 4097 
L 3078 897 
L 2444 897 
L 1241 4097 
L 1241 0 
L 628 0 
L 628 4666 
z
" transform="scale(0.015625)"/>
       </defs>
       <use xlink:href="#DejaVuSans-47"/>
       <use xlink:href="#DejaVuSans-49" transform="translate(77.490234 0)"/>
       <use xlink:href="#DejaVuSans-53" transform="translate(106.982422 0)"/>
       <use xlink:href="#DejaVuSans-54" transform="translate(170.458984 0)"/>
       <use xlink:href="#DejaVuSans-31" transform="translate(231.542969 0)"/>
       <use xlink:href="#DejaVuSans-4d" transform="translate(295.166016 0)"/>
      </g>
     </g>
    </g>
    <g id="xtick_3">
     <g id="line2d_3">
      <g>
       <use xlink:href="#m04f20402e9" x="427.855733" y="217.64" style="stroke: #000000; stroke-width: 0.8"/>
      </g>
     </g>
     <g id="text_3">
      <!-- Msong -->
      <g transform="translate(395.213545 239.836875) scale(0.2 -0.2)">
       <defs>
        <path id="DejaVuSans-73" d="M 2834 3397 
L 2834 2853 
Q 2591 2978 2328 3040 
Q 2066 3103 1784 3103 
Q 1356 3103 1142 2972 
Q 928 2841 928 2578 
Q 928 2378 1081 2264 
Q 1234 2150 1697 2047 
L 1894 2003 
Q 2506 1872 2764 1633 
Q 3022 1394 3022 966 
Q 3022 478 2636 193 
Q 2250 -91 1575 -91 
Q 1294 -91 989 -36 
Q 684 19 347 128 
L 347 722 
Q 666 556 975 473 
Q 1284 391 1588 391 
Q 1994 391 2212 530 
Q 2431 669 2431 922 
Q 2431 1156 2273 1281 
Q 2116 1406 1581 1522 
L 1381 1569 
Q 847 1681 609 1914 
Q 372 2147 372 2553 
Q 372 3047 722 3315 
Q 1072 3584 1716 3584 
Q 2034 3584 2315 3537 
Q 2597 3491 2834 3397 
z
" transform="scale(0.015625)"/>
        <path id="DejaVuSans-67" d="M 2906 1791 
Q 2906 2416 2648 2759 
Q 2391 3103 1925 3103 
Q 1463 3103 1205 2759 
Q 947 2416 947 1791 
Q 947 1169 1205 825 
Q 1463 481 1925 481 
Q 2391 481 2648 825 
Q 2906 1169 2906 1791 
z
M 3481 434 
Q 3481 -459 3084 -895 
Q 2688 -1331 1869 -1331 
Q 1566 -1331 1297 -1286 
Q 1028 -1241 775 -1147 
L 775 -588 
Q 1028 -725 1275 -790 
Q 1522 -856 1778 -856 
Q 2344 -856 2625 -561 
Q 2906 -266 2906 331 
L 2906 616 
Q 2728 306 2450 153 
Q 2172 0 1784 0 
Q 1141 0 747 490 
Q 353 981 353 1791 
Q 353 2603 747 3093 
Q 1141 3584 1784 3584 
Q 2172 3584 2450 3431 
Q 2728 3278 2906 2969 
L 2906 3500 
L 3481 3500 
L 3481 434 
z
" transform="scale(0.015625)"/>
       </defs>
       <use xlink:href="#DejaVuSans-4d"/>
       <use xlink:href="#DejaVuSans-73" transform="translate(86.279297 0)"/>
       <use xlink:href="#DejaVuSans-6f" transform="translate(138.378906 0)"/>
       <use xlink:href="#DejaVuSans-6e" transform="translate(199.560547 0)"/>
       <use xlink:href="#DejaVuSans-67" transform="translate(262.939453 0)"/>
      </g>
     </g>
    </g>
    <g id="xtick_4">
     <g id="line2d_4">
      <g>
       <use xlink:href="#m04f20402e9" x="559.143412" y="217.64" style="stroke: #000000; stroke-width: 0.8"/>
      </g>
     </g>
     <g id="text_4">
      <!-- SIFT1M -->
      <g transform="translate(523.169975 239.836875) scale(0.2 -0.2)">
       <defs>
        <path id="DejaVuSans-46" d="M 628 4666 
L 3309 4666 
L 3309 4134 
L 1259 4134 
L 1259 2759 
L 3109 2759 
L 3109 2228 
L 1259 2228 
L 1259 0 
L 628 0 
L 628 4666 
z
" transform="scale(0.015625)"/>
       </defs>
       <use xlink:href="#DejaVuSans-53"/>
       <use xlink:href="#DejaVuSans-49" transform="translate(63.476562 0)"/>
       <use xlink:href="#DejaVuSans-46" transform="translate(92.96875 0)"/>
       <use xlink:href="#DejaVuSans-54" transform="translate(148.738281 0)"/>
       <use xlink:href="#DejaVuSans-31" transform="translate(209.822266 0)"/>
       <use xlink:href="#DejaVuSans-4d" transform="translate(273.445312 0)"/>
      </g>
     </g>
    </g>
    <g id="xtick_5">
     <g id="line2d_5">
      <g>
       <use xlink:href="#m04f20402e9" x="690.431092" y="217.64" style="stroke: #000000; stroke-width: 0.8"/>
      </g>
     </g>
     <g id="text_5">
      <!-- WIT-Real -->
      <g transform="translate(647.232654 239.836875) scale(0.2 -0.2)">
       <defs>
        <path id="DejaVuSans-57" d="M 213 4666 
L 850 4666 
L 1831 722 
L 2809 4666 
L 3519 4666 
L 4500 722 
L 5478 4666 
L 6119 4666 
L 4947 0 
L 4153 0 
L 3169 4050 
L 2175 0 
L 1381 0 
L 213 4666 
z
" transform="scale(0.015625)"/>
        <path id="DejaVuSans-2d" d="M 313 2009 
L 1997 2009 
L 1997 1497 
L 313 1497 
L 313 2009 
z
" transform="scale(0.015625)"/>
        <path id="DejaVuSans-52" d="M 2841 2188 
Q 3044 2119 3236 1894 
Q 3428 1669 3622 1275 
L 4263 0 
L 3584 0 
L 2988 1197 
Q 2756 1666 2539 1819 
Q 2322 1972 1947 1972 
L 1259 1972 
L 1259 0 
L 628 0 
L 628 4666 
L 2053 4666 
Q 2853 4666 3247 4331 
Q 3641 3997 3641 3322 
Q 3641 2881 3436 2590 
Q 3231 2300 2841 2188 
z
M 1259 4147 
L 1259 2491 
L 2053 2491 
Q 2509 2491 2742 2702 
Q 2975 2913 2975 3322 
Q 2975 3731 2742 3939 
Q 2509 4147 2053 4147 
L 1259 4147 
z
" transform="scale(0.015625)"/>
        <path id="DejaVuSans-65" d="M 3597 1894 
L 3597 1613 
L 953 1613 
Q 991 1019 1311 708 
Q 1631 397 2203 397 
Q 2534 397 2845 478 
Q 3156 559 3463 722 
L 3463 178 
Q 3153 47 2828 -22 
Q 2503 -91 2169 -91 
Q 1331 -91 842 396 
Q 353 884 353 1716 
Q 353 2575 817 3079 
Q 1281 3584 2069 3584 
Q 2775 3584 3186 3129 
Q 3597 2675 3597 1894 
z
M 3022 2063 
Q 3016 2534 2758 2815 
Q 2500 3097 2075 3097 
Q 1594 3097 1305 2825 
Q 1016 2553 972 2059 
L 3022 2063 
z
" transform="scale(0.015625)"/>
        <path id="DejaVuSans-61" d="M 2194 1759 
Q 1497 1759 1228 1600 
Q 959 1441 959 1056 
Q 959 750 1161 570 
Q 1363 391 1709 391 
Q 2188 391 2477 730 
Q 2766 1069 2766 1631 
L 2766 1759 
L 2194 1759 
z
M 3341 1997 
L 3341 0 
L 2766 0 
L 2766 531 
Q 2569 213 2275 61 
Q 1981 -91 1556 -91 
Q 1019 -91 701 211 
Q 384 513 384 1019 
Q 384 1609 779 1909 
Q 1175 2209 1959 2209 
L 2766 2209 
L 2766 2266 
Q 2766 2663 2505 2880 
Q 2244 3097 1772 3097 
Q 1472 3097 1187 3025 
Q 903 2953 641 2809 
L 641 3341 
Q 956 3463 1253 3523 
Q 1550 3584 1831 3584 
Q 2591 3584 2966 3190 
Q 3341 2797 3341 1997 
z
" transform="scale(0.015625)"/>
        <path id="DejaVuSans-6c" d="M 603 4863 
L 1178 4863 
L 1178 0 
L 603 0 
L 603 4863 
z
" transform="scale(0.015625)"/>
       </defs>
       <use xlink:href="#DejaVuSans-57"/>
       <use xlink:href="#DejaVuSans-49" transform="translate(98.876953 0)"/>
       <use xlink:href="#DejaVuSans-54" transform="translate(128.369141 0)"/>
       <use xlink:href="#DejaVuSans-2d" transform="translate(180.328125 0)"/>
       <use xlink:href="#DejaVuSans-52" transform="translate(216.412109 0)"/>
       <use xlink:href="#DejaVuSans-65" transform="translate(281.394531 0)"/>
       <use xlink:href="#DejaVuSans-61" transform="translate(342.917969 0)"/>
       <use xlink:href="#DejaVuSans-6c" transform="translate(404.197266 0)"/>
      </g>
     </g>
    </g>
    <g id="xtick_6">
     <g id="line2d_6">
      <g>
       <use xlink:href="#m04f20402e9" x="821.718771" y="217.64" style="stroke: #000000; stroke-width: 0.8"/>
      </g>
     </g>
     <g id="text_6">
      <!-- YT-Audio-Real -->
      <g transform="translate(753.256271 239.836875) scale(0.2 -0.2)">
       <defs>
        <path id="DejaVuSans-59" d="M -13 4666 
L 666 4666 
L 1959 2747 
L 3244 4666 
L 3922 4666 
L 2272 2222 
L 2272 0 
L 1638 0 
L 1638 2222 
L -13 4666 
z
" transform="scale(0.015625)"/>
        <path id="DejaVuSans-41" d="M 2188 4044 
L 1331 1722 
L 3047 1722 
L 2188 4044 
z
M 1831 4666 
L 2547 4666 
L 4325 0 
L 3669 0 
L 3244 1197 
L 1141 1197 
L 716 0 
L 50 0 
L 1831 4666 
z
" transform="scale(0.015625)"/>
        <path id="DejaVuSans-75" d="M 544 1381 
L 544 3500 
L 1119 3500 
L 1119 1403 
Q 1119 906 1312 657 
Q 1506 409 1894 409 
Q 2359 409 2629 706 
Q 2900 1003 2900 1516 
L 2900 3500 
L 3475 3500 
L 3475 0 
L 2900 0 
L 2900 538 
Q 2691 219 2414 64 
Q 2138 -91 1772 -91 
Q 1169 -91 856 284 
Q 544 659 544 1381 
z
M 1991 3584 
L 1991 3584 
z
" transform="scale(0.015625)"/>
        <path id="DejaVuSans-64" d="M 2906 2969 
L 2906 4863 
L 3481 4863 
L 3481 0 
L 2906 0 
L 2906 525 
Q 2725 213 2448 61 
Q 2172 -91 1784 -91 
Q 1150 -91 751 415 
Q 353 922 353 1747 
Q 353 2572 751 3078 
Q 1150 3584 1784 3584 
Q 2172 3584 2448 3432 
Q 2725 3281 2906 2969 
z
M 947 1747 
Q 947 1113 1208 752 
Q 1469 391 1925 391 
Q 2381 391 2643 752 
Q 2906 1113 2906 1747 
Q 2906 2381 2643 2742 
Q 2381 3103 1925 3103 
Q 1469 3103 1208 2742 
Q 947 2381 947 1747 
z
" transform="scale(0.015625)"/>
        <path id="DejaVuSans-69" d="M 603 3500 
L 1178 3500 
L 1178 0 
L 603 0 
L 603 3500 
z
M 603 4863 
L 1178 4863 
L 1178 4134 
L 603 4134 
L 603 4863 
z
" transform="scale(0.015625)"/>
       </defs>
       <use xlink:href="#DejaVuSans-59"/>
       <use xlink:href="#DejaVuSans-54" transform="translate(61.083984 0)"/>
       <use xlink:href="#DejaVuSans-2d" transform="translate(113.042969 0)"/>
       <use xlink:href="#DejaVuSans-41" transform="translate(146.876953 0)"/>
       <use xlink:href="#DejaVuSans-75" transform="translate(215.285156 0)"/>
       <use xlink:href="#DejaVuSans-64" transform="translate(278.664062 0)"/>
       <use xlink:href="#DejaVuSans-69" transform="translate(342.140625 0)"/>
       <use xlink:href="#DejaVuSans-6f" transform="translate(369.923828 0)"/>
       <use xlink:href="#DejaVuSans-2d" transform="translate(432.980469 0)"/>
       <use xlink:href="#DejaVuSans-52" transform="translate(469.064453 0)"/>
       <use xlink:href="#DejaVuSans-65" transform="translate(534.046875 0)"/>
       <use xlink:href="#DejaVuSans-61" transform="translate(595.570312 0)"/>
       <use xlink:href="#DejaVuSans-6c" transform="translate(656.849609 0)"/>
      </g>
     </g>
    </g>
   </g>
   <g id="matplotlib.axis_2">
    <g id="ytick_1">
     <g id="line2d_7">
      <path d="M 74.691875 160.621642 
L 912.30727 160.621642 
" clip-path="url(#pcddaca83e1)" style="fill: none; stroke-dasharray: 2.96,1.28; stroke-dashoffset: 0; stroke: #b0b0b0; stroke-opacity: 0.7; stroke-width: 0.8"/>
     </g>
     <g id="line2d_8">
      <defs>
       <path id="m0adde803db" d="M 0 0 
L -3.5 0 
" style="stroke: #000000; stroke-width: 0.8"/>
      </defs>
      <g>
       <use xlink:href="#m0adde803db" x="74.691875" y="160.621642" style="stroke: #000000; stroke-width: 0.8"/>
      </g>
     </g>
     <g id="text_7">
      <!-- $\mathdefault{10^{3}}$ -->
      <g transform="translate(32.491875 168.22008) scale(0.2 -0.2)">
       <defs>
        <path id="DejaVuSans-30" d="M 2034 4250 
Q 1547 4250 1301 3770 
Q 1056 3291 1056 2328 
Q 1056 1369 1301 889 
Q 1547 409 2034 409 
Q 2525 409 2770 889 
Q 3016 1369 3016 2328 
Q 3016 3291 2770 3770 
Q 2525 4250 2034 4250 
z
M 2034 4750 
Q 2819 4750 3233 4129 
Q 3647 3509 3647 2328 
Q 3647 1150 3233 529 
Q 2819 -91 2034 -91 
Q 1250 -91 836 529 
Q 422 1150 422 2328 
Q 422 3509 836 4129 
Q 1250 4750 2034 4750 
z
" transform="scale(0.015625)"/>
        <path id="DejaVuSans-33" d="M 2597 2516 
Q 3050 2419 3304 2112 
Q 3559 1806 3559 1356 
Q 3559 666 3084 287 
Q 2609 -91 1734 -91 
Q 1441 -91 1130 -33 
Q 819 25 488 141 
L 488 750 
Q 750 597 1062 519 
Q 1375 441 1716 441 
Q 2309 441 2620 675 
Q 2931 909 2931 1356 
Q 2931 1769 2642 2001 
Q 2353 2234 1838 2234 
L 1294 2234 
L 1294 2753 
L 1863 2753 
Q 2328 2753 2575 2939 
Q 2822 3125 2822 3475 
Q 2822 3834 2567 4026 
Q 2313 4219 1838 4219 
Q 1578 4219 1281 4162 
Q 984 4106 628 3988 
L 628 4550 
Q 988 4650 1302 4700 
Q 1616 4750 1894 4750 
Q 2613 4750 3031 4423 
Q 3450 4097 3450 3541 
Q 3450 3153 3228 2886 
Q 3006 2619 2597 2516 
z
" transform="scale(0.015625)"/>
       </defs>
       <use xlink:href="#DejaVuSans-31" transform="translate(0 0.765625)"/>
       <use xlink:href="#DejaVuSans-30" transform="translate(63.623047 0.765625)"/>
       <use xlink:href="#DejaVuSans-33" transform="translate(128.203125 39.046875) scale(0.7)"/>
      </g>
     </g>
    </g>
    <g id="ytick_2">
     <g id="line2d_9">
      <path d="M 74.691875 18.45679 
L 912.30727 18.45679 
" clip-path="url(#pcddaca83e1)" style="fill: none; stroke-dasharray: 2.96,1.28; stroke-dashoffset: 0; stroke: #b0b0b0; stroke-opacity: 0.7; stroke-width: 0.8"/>
     </g>
     <g id="line2d_10">
      <g>
       <use xlink:href="#m0adde803db" x="74.691875" y="18.45679" style="stroke: #000000; stroke-width: 0.8"/>
      </g>
     </g>
     <g id="text_8">
      <!-- $\mathdefault{10^{4}}$ -->
      <g transform="translate(32.491875 26.055228) scale(0.2 -0.2)">
       <defs>
        <path id="DejaVuSans-34" d="M 2419 4116 
L 825 1625 
L 2419 1625 
L 2419 4116 
z
M 2253 4666 
L 3047 4666 
L 3047 1625 
L 3713 1625 
L 3713 1100 
L 3047 1100 
L 3047 0 
L 2419 0 
L 2419 1100 
L 313 1100 
L 313 1709 
L 2253 4666 
z
" transform="scale(0.015625)"/>
       </defs>
       <use xlink:href="#DejaVuSans-31" transform="translate(0 0.684375)"/>
       <use xlink:href="#DejaVuSans-30" transform="translate(63.623047 0.684375)"/>
       <use xlink:href="#DejaVuSans-34" transform="translate(128.203125 38.965625) scale(0.7)"/>
      </g>
     </g>
    </g>
    <g id="ytick_3">
     <g id="line2d_11">
      <path d="M 74.691875 217.194724 
L 912.30727 217.194724 
" clip-path="url(#pcddaca83e1)" style="fill: none; stroke-dasharray: 0.5,0.825; stroke-dashoffset: 0; stroke: #b0b0b0; stroke-opacity: 0.3; stroke-width: 0.5"/>
     </g>
     <g id="line2d_12">
      <defs>
       <path id="mc7454b1ea4" d="M 0 0 
L -2 0 
" style="stroke: #000000; stroke-width: 0.6"/>
      </defs>
      <g>
       <use xlink:href="#mc7454b1ea4" x="74.691875" y="217.194724" style="stroke: #000000; stroke-width: 0.6"/>
      </g>
     </g>
    </g>
    <g id="ytick_4">
     <g id="line2d_13">
      <path d="M 74.691875 203.417527 
L 912.30727 203.417527 
" clip-path="url(#pcddaca83e1)" style="fill: none; stroke-dasharray: 0.5,0.825; stroke-dashoffset: 0; stroke: #b0b0b0; stroke-opacity: 0.3; stroke-width: 0.5"/>
     </g>
     <g id="line2d_14">
      <g>
       <use xlink:href="#mc7454b1ea4" x="74.691875" y="203.417527" style="stroke: #000000; stroke-width: 0.6"/>
      </g>
     </g>
    </g>
    <g id="ytick_5">
     <g id="line2d_15">
      <path d="M 74.691875 192.160737 
L 912.30727 192.160737 
" clip-path="url(#pcddaca83e1)" style="fill: none; stroke-dasharray: 0.5,0.825; stroke-dashoffset: 0; stroke: #b0b0b0; stroke-opacity: 0.3; stroke-width: 0.5"/>
     </g>
     <g id="line2d_16">
      <g>
       <use xlink:href="#mc7454b1ea4" x="74.691875" y="192.160737" style="stroke: #000000; stroke-width: 0.6"/>
      </g>
     </g>
    </g>
    <g id="ytick_6">
     <g id="line2d_17">
      <path d="M 74.691875 182.643256 
L 912.30727 182.643256 
" clip-path="url(#pcddaca83e1)" style="fill: none; stroke-dasharray: 0.5,0.825; stroke-dashoffset: 0; stroke: #b0b0b0; stroke-opacity: 0.3; stroke-width: 0.5"/>
     </g>
     <g id="line2d_18">
      <g>
       <use xlink:href="#mc7454b1ea4" x="74.691875" y="182.643256" style="stroke: #000000; stroke-width: 0.6"/>
      </g>
     </g>
    </g>
    <g id="ytick_7">
     <g id="line2d_19">
      <path d="M 74.691875 174.39884 
L 912.30727 174.39884 
" clip-path="url(#pcddaca83e1)" style="fill: none; stroke-dasharray: 0.5,0.825; stroke-dashoffset: 0; stroke: #b0b0b0; stroke-opacity: 0.3; stroke-width: 0.5"/>
     </g>
     <g id="line2d_20">
      <g>
       <use xlink:href="#mc7454b1ea4" x="74.691875" y="174.39884" style="stroke: #000000; stroke-width: 0.6"/>
      </g>
     </g>
    </g>
    <g id="ytick_8">
     <g id="line2d_21">
      <path d="M 74.691875 167.126749 
L 912.30727 167.126749 
" clip-path="url(#pcddaca83e1)" style="fill: none; stroke-dasharray: 0.5,0.825; stroke-dashoffset: 0; stroke: #b0b0b0; stroke-opacity: 0.3; stroke-width: 0.5"/>
     </g>
     <g id="line2d_22">
      <g>
       <use xlink:href="#mc7454b1ea4" x="74.691875" y="167.126749" style="stroke: #000000; stroke-width: 0.6"/>
      </g>
     </g>
    </g>
    <g id="ytick_9">
     <g id="line2d_23">
      <path d="M 74.691875 117.825757 
L 912.30727 117.825757 
" clip-path="url(#pcddaca83e1)" style="fill: none; stroke-dasharray: 0.5,0.825; stroke-dashoffset: 0; stroke: #b0b0b0; stroke-opacity: 0.3; stroke-width: 0.5"/>
     </g>
     <g id="line2d_24">
      <g>
       <use xlink:href="#mc7454b1ea4" x="74.691875" y="117.825757" style="stroke: #000000; stroke-width: 0.6"/>
      </g>
     </g>
    </g>
    <g id="ytick_10">
     <g id="line2d_25">
      <path d="M 74.691875 92.79177 
L 912.30727 92.79177 
" clip-path="url(#pcddaca83e1)" style="fill: none; stroke-dasharray: 0.5,0.825; stroke-dashoffset: 0; stroke: #b0b0b0; stroke-opacity: 0.3; stroke-width: 0.5"/>
     </g>
     <g id="line2d_26">
      <g>
       <use xlink:href="#mc7454b1ea4" x="74.691875" y="92.79177" style="stroke: #000000; stroke-width: 0.6"/>
      </g>
     </g>
    </g>
    <g id="ytick_11">
     <g id="line2d_27">
      <path d="M 74.691875 75.029873 
L 912.30727 75.029873 
" clip-path="url(#pcddaca83e1)" style="fill: none; stroke-dasharray: 0.5,0.825; stroke-dashoffset: 0; stroke: #b0b0b0; stroke-opacity: 0.3; stroke-width: 0.5"/>
     </g>
     <g id="line2d_28">
      <g>
       <use xlink:href="#mc7454b1ea4" x="74.691875" y="75.029873" style="stroke: #000000; stroke-width: 0.6"/>
      </g>
     </g>
    </g>
    <g id="ytick_12">
     <g id="line2d_29">
      <path d="M 74.691875 61.252675 
L 912.30727 61.252675 
" clip-path="url(#pcddaca83e1)" style="fill: none; stroke-dasharray: 0.5,0.825; stroke-dashoffset: 0; stroke: #b0b0b0; stroke-opacity: 0.3; stroke-width: 0.5"/>
     </g>
     <g id="line2d_30">
      <g>
       <use xlink:href="#mc7454b1ea4" x="74.691875" y="61.252675" style="stroke: #000000; stroke-width: 0.6"/>
      </g>
     </g>
    </g>
    <g id="ytick_13">
     <g id="line2d_31">
      <path d="M 74.691875 49.995885 
L 912.30727 49.995885 
" clip-path="url(#pcddaca83e1)" style="fill: none; stroke-dasharray: 0.5,0.825; stroke-dashoffset: 0; stroke: #b0b0b0; stroke-opacity: 0.3; stroke-width: 0.5"/>
     </g>
     <g id="line2d_32">
      <g>
       <use xlink:href="#mc7454b1ea4" x="74.691875" y="49.995885" style="stroke: #000000; stroke-width: 0.6"/>
      </g>
     </g>
    </g>
    <g id="ytick_14">
     <g id="line2d_33">
      <path d="M 74.691875 40.478404 
L 912.30727 40.478404 
" clip-path="url(#pcddaca83e1)" style="fill: none; stroke-dasharray: 0.5,0.825; stroke-dashoffset: 0; stroke: #b0b0b0; stroke-opacity: 0.3; stroke-width: 0.5"/>
     </g>
     <g id="line2d_34">
      <g>
       <use xlink:href="#mc7454b1ea4" x="74.691875" y="40.478404" style="stroke: #000000; stroke-width: 0.6"/>
      </g>
     </g>
    </g>
    <g id="ytick_15">
     <g id="line2d_35">
      <path d="M 74.691875 32.233988 
L 912.30727 32.233988 
" clip-path="url(#pcddaca83e1)" style="fill: none; stroke-dasharray: 0.5,0.825; stroke-dashoffset: 0; stroke: #b0b0b0; stroke-opacity: 0.3; stroke-width: 0.5"/>
     </g>
     <g id="line2d_36">
      <g>
       <use xlink:href="#mc7454b1ea4" x="74.691875" y="32.233988" style="stroke: #000000; stroke-width: 0.6"/>
      </g>
     </g>
    </g>
    <g id="ytick_16">
     <g id="line2d_37">
      <path d="M 74.691875 24.961897 
L 912.30727 24.961897 
" clip-path="url(#pcddaca83e1)" style="fill: none; stroke-dasharray: 0.5,0.825; stroke-dashoffset: 0; stroke: #b0b0b0; stroke-opacity: 0.3; stroke-width: 0.5"/>
     </g>
     <g id="line2d_38">
      <g>
       <use xlink:href="#mc7454b1ea4" x="74.691875" y="24.961897" style="stroke: #000000; stroke-width: 0.6"/>
      </g>
     </g>
    </g>
    <g id="text_9">
     <!-- Index Size (MB) -->
     <g transform="translate(23.916563 197.900312) rotate(-90) scale(0.22 -0.22)">
      <defs>
       <path id="DejaVuSans-78" d="M 3513 3500 
L 2247 1797 
L 3578 0 
L 2900 0 
L 1881 1375 
L 863 0 
L 184 0 
L 1544 1831 
L 300 3500 
L 978 3500 
L 1906 2253 
L 2834 3500 
L 3513 3500 
z
" transform="scale(0.015625)"/>
       <path id="DejaVuSans-20" transform="scale(0.015625)"/>
       <path id="DejaVuSans-7a" d="M 353 3500 
L 3084 3500 
L 3084 2975 
L 922 459 
L 3084 459 
L 3084 0 
L 275 0 
L 275 525 
L 2438 3041 
L 353 3041 
L 353 3500 
z
" transform="scale(0.015625)"/>
       <path id="DejaVuSans-28" d="M 1984 4856 
Q 1566 4138 1362 3434 
Q 1159 2731 1159 2009 
Q 1159 1288 1364 580 
Q 1569 -128 1984 -844 
L 1484 -844 
Q 1016 -109 783 600 
Q 550 1309 550 2009 
Q 550 2706 781 3412 
Q 1013 4119 1484 4856 
L 1984 4856 
z
" transform="scale(0.015625)"/>
       <path id="DejaVuSans-42" d="M 1259 2228 
L 1259 519 
L 2272 519 
Q 2781 519 3026 730 
Q 3272 941 3272 1375 
Q 3272 1813 3026 2020 
Q 2781 2228 2272 2228 
L 1259 2228 
z
M 1259 4147 
L 1259 2741 
L 2194 2741 
Q 2656 2741 2882 2914 
Q 3109 3088 3109 3444 
Q 3109 3797 2882 3972 
Q 2656 4147 2194 4147 
L 1259 4147 
z
M 628 4666 
L 2241 4666 
Q 2963 4666 3353 4366 
Q 3744 4066 3744 3513 
Q 3744 3084 3544 2831 
Q 3344 2578 2956 2516 
Q 3422 2416 3680 2098 
Q 3938 1781 3938 1306 
Q 3938 681 3513 340 
Q 3088 0 2303 0 
L 628 0 
L 628 4666 
z
" transform="scale(0.015625)"/>
       <path id="DejaVuSans-29" d="M 513 4856 
L 1013 4856 
Q 1481 4119 1714 3412 
Q 1947 2706 1947 2009 
Q 1947 1309 1714 600 
Q 1481 -109 1013 -844 
L 513 -844 
Q 928 -128 1133 580 
Q 1338 1288 1338 2009 
Q 1338 2731 1133 3434 
Q 928 4138 513 4856 
z
" transform="scale(0.015625)"/>
      </defs>
      <use xlink:href="#DejaVuSans-49"/>
      <use xlink:href="#DejaVuSans-6e" transform="translate(29.492188 0)"/>
      <use xlink:href="#DejaVuSans-64" transform="translate(92.871094 0)"/>
      <use xlink:href="#DejaVuSans-65" transform="translate(156.347656 0)"/>
      <use xlink:href="#DejaVuSans-78" transform="translate(216.121094 0)"/>
      <use xlink:href="#DejaVuSans-20" transform="translate(275.300781 0)"/>
      <use xlink:href="#DejaVuSans-53" transform="translate(307.087891 0)"/>
      <use xlink:href="#DejaVuSans-69" transform="translate(370.564453 0)"/>
      <use xlink:href="#DejaVuSans-7a" transform="translate(398.347656 0)"/>
      <use xlink:href="#DejaVuSans-65" transform="translate(450.837891 0)"/>
      <use xlink:href="#DejaVuSans-20" transform="translate(512.361328 0)"/>
      <use xlink:href="#DejaVuSans-28" transform="translate(544.148438 0)"/>
      <use xlink:href="#DejaVuSans-4d" transform="translate(583.162109 0)"/>
      <use xlink:href="#DejaVuSans-42" transform="translate(669.441406 0)"/>
      <use xlink:href="#DejaVuSans-29" transform="translate(738.044922 0)"/>
     </g>
    </g>
   </g>
   <g id="patch_75">
    <path d="M 74.691875 217.64 
L 74.691875 7.2 
" style="fill: none; stroke: #000000; stroke-width: 0.8; stroke-linejoin: miter; stroke-linecap: square"/>
   </g>
   <g id="patch_76">
    <path d="M 912.30727 217.64 
L 912.30727 7.2 
" style="fill: none; stroke: #000000; stroke-width: 0.8; stroke-linejoin: miter; stroke-linecap: square"/>
   </g>
   <g id="patch_77">
    <path d="M 74.691875 217.64 
L 912.30727 217.64 
" style="fill: none; stroke: #000000; stroke-width: 0.8; stroke-linejoin: miter; stroke-linecap: square"/>
   </g>
   <g id="patch_78">
    <path d="M 74.691875 7.2 
L 912.30727 7.2 
" style="fill: none; stroke: #000000; stroke-width: 0.8; stroke-linejoin: miter; stroke-linecap: square"/>
   </g>
  </g>
  <g id="axes_2">
   <g id="patch_79">
    <path d="M 965.384013 217.64 
L 1084.046194 217.64 
L 1084.046194 7.2 
L 965.384013 7.2 
z
" style="fill: #ffffff"/>
   </g>
   <g id="patch_80">
    <path d="M 970.777748 290838.121666 
L 979.767307 290838.121666 
L 979.767307 39.355999 
L 970.777748 39.355999 
z
" clip-path="url(#pb5d80c7835)" style="fill: #1f77b4; stroke: #000000; stroke-width: 2; stroke-linejoin: miter"/>
   </g>
   <g id="patch_81">
    <path d="M 979.767307 290838.121666 
L 988.756866 290838.121666 
L 988.756866 32.092997 
L 979.767307 32.092997 
z
" clip-path="url(#pb5d80c7835)" style="fill: #ff7f0e; stroke: #000000; stroke-width: 2; stroke-linejoin: miter"/>
   </g>
   <g id="patch_82">
    <path d="M 988.756866 290838.121666 
L 997.746426 290838.121666 
L 997.746426 185.828195 
L 988.756866 185.828195 
z
" clip-path="url(#pb5d80c7835)" style="fill: #2ca02c; stroke: #000000; stroke-width: 2; stroke-linejoin: miter"/>
   </g>
   <g id="patch_83">
    <path d="M 997.746426 290838.121666 
L 1006.735985 290838.121666 
L 1006.735985 189.601461 
L 997.746426 189.601461 
z
" clip-path="url(#pb5d80c7835)" style="fill: #d62728; stroke: #000000; stroke-width: 2; stroke-linejoin: miter"/>
   </g>
   <g id="patch_84">
    <path d="M 1006.735985 290838.121666 
L 1015.725544 290838.121666 
L 1015.725544 30.109155 
L 1006.735985 30.109155 
z
" clip-path="url(#pb5d80c7835)" style="fill: #9467bd; stroke: #000000; stroke-width: 2; stroke-linejoin: miter"/>
   </g>
   <g id="patch_85">
    <path d="M 1015.725544 290838.121666 
L 1024.715103 290838.121666 
L 1024.715103 144.415898 
L 1015.725544 144.415898 
z
" clip-path="url(#pb5d80c7835)" style="fill: #8c564b; stroke: #000000; stroke-width: 2; stroke-linejoin: miter"/>
   </g>
   <g id="patch_86">
    <path d="M 1024.715103 290838.121666 
L 1033.704662 290838.121666 
L 1033.704662 170.118426 
L 1024.715103 170.118426 
z
" clip-path="url(#pb5d80c7835)" style="fill: #e377c2; stroke: #000000; stroke-width: 2; stroke-linejoin: miter"/>
   </g>
   <g id="patch_87">
    <path clip-path="url(#pb5d80c7835)" style="fill: #7f7f7f; stroke: #000000; stroke-width: 2; stroke-linejoin: miter"/>
   </g>
   <g id="patch_88">
    <path d="M 1042.694221 290838.121666 
L 1051.683781 290838.121666 
L 1051.683781 180.945816 
L 1042.694221 180.945816 
z
" clip-path="url(#pb5d80c7835)" style="fill: #bcbd22; stroke: #000000; stroke-width: 2; stroke-linejoin: miter"/>
   </g>
   <g id="patch_89">
    <path d="M 1051.683781 290838.121666 
L 1060.67334 290838.121666 
L 1060.67334 64.836582 
L 1051.683781 64.836582 
z
" clip-path="url(#pb5d80c7835)" style="fill: #17becf; stroke: #000000; stroke-width: 2; stroke-linejoin: miter"/>
   </g>
   <g id="patch_90">
    <path d="M 1060.67334 290838.121666 
L 1069.662899 290838.121666 
L 1069.662899 164.717558 
L 1060.67334 164.717558 
z
" clip-path="url(#pb5d80c7835)" style="fill: #aec7e8; stroke: #000000; stroke-width: 2; stroke-linejoin: miter"/>
   </g>
   <g id="patch_91">
    <path d="M 1069.662899 290838.121666 
L 1078.652458 290838.121666 
L 1078.652458 150.830414 
L 1069.662899 150.830414 
z
" clip-path="url(#pb5d80c7835)" style="fill: #ffbb78; stroke: #000000; stroke-width: 2; stroke-linejoin: miter"/>
   </g>
   <g id="matplotlib.axis_3">
    <g id="xtick_7">
     <g id="line2d_39">
      <g>
       <use xlink:href="#m04f20402e9" x="1024.715103" y="217.64" style="stroke: #000000; stroke-width: 0.8"/>
      </g>
     </g>
     <g id="text_10">
      <!-- Deep100M -->
      <g transform="translate(970.644791 239.836875) scale(0.2 -0.2)">
       <defs>
        <path id="DejaVuSans-44" d="M 1259 4147 
L 1259 519 
L 2022 519 
Q 2988 519 3436 956 
Q 3884 1394 3884 2338 
Q 3884 3275 3436 3711 
Q 2988 4147 2022 4147 
L 1259 4147 
z
M 628 4666 
L 1925 4666 
Q 3281 4666 3915 4102 
Q 4550 3538 4550 2338 
Q 4550 1131 3912 565 
Q 3275 0 1925 0 
L 628 0 
L 628 4666 
z
" transform="scale(0.015625)"/>
        <path id="DejaVuSans-70" d="M 1159 525 
L 1159 -1331 
L 581 -1331 
L 581 3500 
L 1159 3500 
L 1159 2969 
Q 1341 3281 1617 3432 
Q 1894 3584 2278 3584 
Q 2916 3584 3314 3078 
Q 3713 2572 3713 1747 
Q 3713 922 3314 415 
Q 2916 -91 2278 -91 
Q 1894 -91 1617 61 
Q 1341 213 1159 525 
z
M 3116 1747 
Q 3116 2381 2855 2742 
Q 2594 3103 2138 3103 
Q 1681 3103 1420 2742 
Q 1159 2381 1159 1747 
Q 1159 1113 1420 752 
Q 1681 391 2138 391 
Q 2594 391 2855 752 
Q 3116 1113 3116 1747 
z
" transform="scale(0.015625)"/>
       </defs>
       <use xlink:href="#DejaVuSans-44"/>
       <use xlink:href="#DejaVuSans-65" transform="translate(77.001953 0)"/>
       <use xlink:href="#DejaVuSans-65" transform="translate(138.525391 0)"/>
       <use xlink:href="#DejaVuSans-70" transform="translate(200.048828 0)"/>
       <use xlink:href="#DejaVuSans-31" transform="translate(263.525391 0)"/>
       <use xlink:href="#DejaVuSans-30" transform="translate(327.148438 0)"/>
       <use xlink:href="#DejaVuSans-30" transform="translate(390.771484 0)"/>
       <use xlink:href="#DejaVuSans-4d" transform="translate(454.394531 0)"/>
      </g>
     </g>
    </g>
   </g>
   <g id="matplotlib.axis_4">
    <g id="ytick_17">
     <g id="line2d_40">
      <path d="M 965.384013 65.981323 
L 1084.046194 65.981323 
" clip-path="url(#pb5d80c7835)" style="fill: none; stroke-dasharray: 2.96,1.28; stroke-dashoffset: 0; stroke: #b0b0b0; stroke-opacity: 0.7; stroke-width: 0.8"/>
     </g>
     <g id="line2d_41">
      <g>
       <use xlink:href="#m0adde803db" x="965.384013" y="65.981323" style="stroke: #000000; stroke-width: 0.8"/>
      </g>
     </g>
     <g id="text_11">
      <!-- $\mathdefault{10^{5}}$ -->
      <g transform="translate(923.184013 73.579761) scale(0.2 -0.2)">
       <defs>
        <path id="DejaVuSans-35" d="M 691 4666 
L 3169 4666 
L 3169 4134 
L 1269 4134 
L 1269 2991 
Q 1406 3038 1543 3061 
Q 1681 3084 1819 3084 
Q 2600 3084 3056 2656 
Q 3513 2228 3513 1497 
Q 3513 744 3044 326 
Q 2575 -91 1722 -91 
Q 1428 -91 1123 -41 
Q 819 9 494 109 
L 494 744 
Q 775 591 1075 516 
Q 1375 441 1709 441 
Q 2250 441 2565 725 
Q 2881 1009 2881 1497 
Q 2881 1984 2565 2268 
Q 2250 2553 1709 2553 
Q 1456 2553 1204 2497 
Q 953 2441 691 2322 
L 691 4666 
z
" transform="scale(0.015625)"/>
       </defs>
       <use xlink:href="#DejaVuSans-31" transform="translate(0 0.684375)"/>
       <use xlink:href="#DejaVuSans-30" transform="translate(63.623047 0.684375)"/>
       <use xlink:href="#DejaVuSans-35" transform="translate(128.203125 38.965625) scale(0.7)"/>
      </g>
     </g>
    </g>
    <g id="ytick_18">
     <g id="line2d_42">
      <path d="M 965.384013 217.263484 
L 1084.046194 217.263484 
" clip-path="url(#pb5d80c7835)" style="fill: none; stroke-dasharray: 0.5,0.825; stroke-dashoffset: 0; stroke: #b0b0b0; stroke-opacity: 0.3; stroke-width: 0.5"/>
     </g>
     <g id="line2d_43">
      <g>
       <use xlink:href="#mc7454b1ea4" x="965.384013" y="217.263484" style="stroke: #000000; stroke-width: 0.6"/>
      </g>
     </g>
     <g id="text_12">
      <!-- $\mathdefault{3\times10^{4}}$ -->
      <g transform="translate(923.784013 221.062703) scale(0.1 -0.1)">
       <defs>
        <path id="DejaVuSans-d7" d="M 4488 3438 
L 3059 2003 
L 4488 575 
L 4116 197 
L 2681 1631 
L 1247 197 
L 878 575 
L 2303 2003 
L 878 3438 
L 1247 3816 
L 2681 2381 
L 4116 3816 
L 4488 3438 
z
" transform="scale(0.015625)"/>
       </defs>
       <use xlink:href="#DejaVuSans-33" transform="translate(0 0.684375)"/>
       <use xlink:href="#DejaVuSans-d7" transform="translate(83.105469 0.684375)"/>
       <use xlink:href="#DejaVuSans-31" transform="translate(186.376953 0.684375)"/>
       <use xlink:href="#DejaVuSans-30" transform="translate(250 0.684375)"/>
       <use xlink:href="#DejaVuSans-34" transform="translate(314.580078 38.965625) scale(0.7)"/>
      </g>
     </g>
    </g>
    <g id="ytick_19">
     <g id="line2d_44">
      <path d="M 965.384013 181.11552 
L 1084.046194 181.11552 
" clip-path="url(#pb5d80c7835)" style="fill: none; stroke-dasharray: 0.5,0.825; stroke-dashoffset: 0; stroke: #b0b0b0; stroke-opacity: 0.3; stroke-width: 0.5"/>
     </g>
     <g id="line2d_45">
      <g>
       <use xlink:href="#mc7454b1ea4" x="965.384013" y="181.11552" style="stroke: #000000; stroke-width: 0.6"/>
      </g>
     </g>
     <g id="text_13">
      <!-- $\mathdefault{4\times10^{4}}$ -->
      <g transform="translate(923.784013 184.914739) scale(0.1 -0.1)">
       <use xlink:href="#DejaVuSans-34" transform="translate(0 0.684375)"/>
       <use xlink:href="#DejaVuSans-d7" transform="translate(83.105469 0.684375)"/>
       <use xlink:href="#DejaVuSans-31" transform="translate(186.376953 0.684375)"/>
       <use xlink:href="#DejaVuSans-30" transform="translate(250 0.684375)"/>
       <use xlink:href="#DejaVuSans-34" transform="translate(314.580078 38.965625) scale(0.7)"/>
      </g>
     </g>
    </g>
    <g id="ytick_20">
     <g id="line2d_46">
      <path d="M 965.384013 153.076981 
L 1084.046194 153.076981 
" clip-path="url(#pb5d80c7835)" style="fill: none; stroke-dasharray: 0.5,0.825; stroke-dashoffset: 0; stroke: #b0b0b0; stroke-opacity: 0.3; stroke-width: 0.5"/>
     </g>
     <g id="line2d_47">
      <g>
       <use xlink:href="#mc7454b1ea4" x="965.384013" y="153.076981" style="stroke: #000000; stroke-width: 0.6"/>
      </g>
     </g>
    </g>
    <g id="ytick_21">
     <g id="line2d_48">
      <path d="M 965.384013 130.167826 
L 1084.046194 130.167826 
" clip-path="url(#pb5d80c7835)" style="fill: none; stroke-dasharray: 0.5,0.825; stroke-dashoffset: 0; stroke: #b0b0b0; stroke-opacity: 0.3; stroke-width: 0.5"/>
     </g>
     <g id="line2d_49">
      <g>
       <use xlink:href="#mc7454b1ea4" x="965.384013" y="130.167826" style="stroke: #000000; stroke-width: 0.6"/>
      </g>
     </g>
     <g id="text_14">
      <!-- $\mathdefault{6\times10^{4}}$ -->
      <g transform="translate(923.784013 133.967045) scale(0.1 -0.1)">
       <defs>
        <path id="DejaVuSans-36" d="M 2113 2584 
Q 1688 2584 1439 2293 
Q 1191 2003 1191 1497 
Q 1191 994 1439 701 
Q 1688 409 2113 409 
Q 2538 409 2786 701 
Q 3034 994 3034 1497 
Q 3034 2003 2786 2293 
Q 2538 2584 2113 2584 
z
M 3366 4563 
L 3366 3988 
Q 3128 4100 2886 4159 
Q 2644 4219 2406 4219 
Q 1781 4219 1451 3797 
Q 1122 3375 1075 2522 
Q 1259 2794 1537 2939 
Q 1816 3084 2150 3084 
Q 2853 3084 3261 2657 
Q 3669 2231 3669 1497 
Q 3669 778 3244 343 
Q 2819 -91 2113 -91 
Q 1303 -91 875 529 
Q 447 1150 447 2328 
Q 447 3434 972 4092 
Q 1497 4750 2381 4750 
Q 2619 4750 2861 4703 
Q 3103 4656 3366 4563 
z
" transform="scale(0.015625)"/>
       </defs>
       <use xlink:href="#DejaVuSans-36" transform="translate(0 0.684375)"/>
       <use xlink:href="#DejaVuSans-d7" transform="translate(83.105469 0.684375)"/>
       <use xlink:href="#DejaVuSans-31" transform="translate(186.376953 0.684375)"/>
       <use xlink:href="#DejaVuSans-30" transform="translate(250 0.684375)"/>
       <use xlink:href="#DejaVuSans-34" transform="translate(314.580078 38.965625) scale(0.7)"/>
      </g>
     </g>
    </g>
    <g id="ytick_22">
     <g id="line2d_50">
      <path d="M 965.384013 110.798412 
L 1084.046194 110.798412 
" clip-path="url(#pb5d80c7835)" style="fill: none; stroke-dasharray: 0.5,0.825; stroke-dashoffset: 0; stroke: #b0b0b0; stroke-opacity: 0.3; stroke-width: 0.5"/>
     </g>
     <g id="line2d_51">
      <g>
       <use xlink:href="#mc7454b1ea4" x="965.384013" y="110.798412" style="stroke: #000000; stroke-width: 0.6"/>
      </g>
     </g>
    </g>
    <g id="ytick_23">
     <g id="line2d_52">
      <path d="M 965.384013 94.019862 
L 1084.046194 94.019862 
" clip-path="url(#pb5d80c7835)" style="fill: none; stroke-dasharray: 0.5,0.825; stroke-dashoffset: 0; stroke: #b0b0b0; stroke-opacity: 0.3; stroke-width: 0.5"/>
     </g>
     <g id="line2d_53">
      <g>
       <use xlink:href="#mc7454b1ea4" x="965.384013" y="94.019862" style="stroke: #000000; stroke-width: 0.6"/>
      </g>
     </g>
    </g>
    <g id="ytick_24">
     <g id="line2d_54">
      <path d="M 965.384013 79.220133 
L 1084.046194 79.220133 
" clip-path="url(#pb5d80c7835)" style="fill: none; stroke-dasharray: 0.5,0.825; stroke-dashoffset: 0; stroke: #b0b0b0; stroke-opacity: 0.3; stroke-width: 0.5"/>
     </g>
     <g id="line2d_55">
      <g>
       <use xlink:href="#mc7454b1ea4" x="965.384013" y="79.220133" style="stroke: #000000; stroke-width: 0.6"/>
      </g>
     </g>
    </g>
   </g>
   <g id="patch_92">
    <path d="M 965.384013 217.64 
L 965.384013 7.2 
" style="fill: none; stroke: #000000; stroke-width: 0.8; stroke-linejoin: miter; stroke-linecap: square"/>
   </g>
   <g id="patch_93">
    <path d="M 1084.046194 217.64 
L 1084.046194 7.2 
" style="fill: none; stroke: #000000; stroke-width: 0.8; stroke-linejoin: miter; stroke-linecap: square"/>
   </g>
   <g id="patch_94">
    <path d="M 965.384013 217.64 
L 1084.046194 217.64 
" style="fill: none; stroke: #000000; stroke-width: 0.8; stroke-linejoin: miter; stroke-linecap: square"/>
   </g>
   <g id="patch_95">
    <path d="M 965.384013 7.2 
L 1084.046194 7.2 
" style="fill: none; stroke: #000000; stroke-width: 0.8; stroke-linejoin: miter; stroke-linecap: square"/>
   </g>
  </g>
 </g>
 <defs>
  <clipPath id="pcddaca83e1">
   <rect x="74.691875" y="7.2" width="837.615395" height="210.44"/>
  </clipPath>
  <clipPath id="pb5d80c7835">
   <rect x="965.384013" y="7.2" width="118.662181" height="210.44"/>
  </clipPath>
 </defs>
</svg>
