<?xml version="1.0" encoding="utf-8" standalone="no"?>
<!DOCTYPE svg PUBLIC "-//W3C//DTD SVG 1.1//EN"
  "http://www.w3.org/Graphics/SVG/1.1/DTD/svg11.dtd">
<svg xmlns:xlink="http://www.w3.org/1999/xlink" width="567.059971pt" height="281.885pt" viewBox="0 0 567.059971 281.885" xmlns="http://www.w3.org/2000/svg" version="1.1">
 <metadata>
  <rdf:RDF xmlns:dc="http://purl.org/dc/elements/1.1/" xmlns:cc="http://creativecommons.org/ns#" xmlns:rdf="http://www.w3.org/1999/02/22-rdf-syntax-ns#">
   <cc:Work>
    <dc:type rdf:resource="http://purl.org/dc/dcmitype/StillImage"/>
    <dc:date>2025-07-17T09:11:04.179594</dc:date>
    <dc:format>image/svg+xml</dc:format>
    <dc:creator>
     <cc:Agent>
      <dc:title>Matplotlib v3.10.3, https://matplotlib.org/</dc:title>
     </cc:Agent>
    </dc:creator>
   </cc:Work>
  </rdf:RDF>
 </metadata>
 <defs>
  <style type="text/css">*{stroke-linejoin: round; stroke-linecap: butt}</style>
 </defs>
 <g id="figure_1">
  <g id="patch_1">
   <path d="M 0 281.885 
L 567.059971 281.885 
L 567.059971 0 
L 0 0 
z
" style="fill: #ffffff"/>
  </g>
  <g id="axes_1">
   <g id="patch_2">
    <path d="M 72.75625 252.2 
L 559.859971 252.2 
L 559.859971 7.2 
L 72.75625 7.2 
z
" style="fill: #ffffff"/>
   </g>
   <g id="patch_3">
    <path d="M 94.897328 125646.28767 
L 101.606746 125646.28767 
L 101.606746 178.644916 
L 94.897328 178.644916 
z
" clip-path="url(#p9a7f4ef653)" style="fill: #1f77b4; stroke: #000000; stroke-width: 2; stroke-linejoin: miter"/>
   </g>
   <g id="patch_4">
    <path d="M 187.151821 125646.28767 
L 193.861239 125646.28767 
L 193.861239 71.671938 
L 187.151821 71.671938 
z
" clip-path="url(#p9a7f4ef653)" style="fill: #1f77b4; stroke: #000000; stroke-width: 2; stroke-linejoin: miter"/>
   </g>
   <g id="patch_5">
    <path d="M 279.406314 125646.28767 
L 286.115731 125646.28767 
L 286.115731 134.049727 
L 279.406314 134.049727 
z
" clip-path="url(#p9a7f4ef653)" style="fill: #1f77b4; stroke: #000000; stroke-width: 2; stroke-linejoin: miter"/>
   </g>
   <g id="patch_6">
    <path d="M 371.660806 125646.28767 
L 378.370224 125646.28767 
L 378.370224 173.735115 
L 371.660806 173.735115 
z
" clip-path="url(#p9a7f4ef653)" style="fill: #1f77b4; stroke: #000000; stroke-width: 2; stroke-linejoin: miter"/>
   </g>
   <g id="patch_7">
    <path d="M 463.915299 125646.28767 
L 470.624717 125646.28767 
L 470.624717 173.656274 
L 463.915299 173.656274 
z
" clip-path="url(#p9a7f4ef653)" style="fill: #1f77b4; stroke: #000000; stroke-width: 2; stroke-linejoin: miter"/>
   </g>
   <g id="patch_8">
    <path d="M 101.606746 125646.28767 
L 108.316164 125646.28767 
L 108.316164 175.908266 
L 101.606746 175.908266 
z
" clip-path="url(#p9a7f4ef653)" style="fill: #ff7f0e; stroke: #000000; stroke-width: 2; stroke-linejoin: miter"/>
   </g>
   <g id="patch_9">
    <path d="M 193.861239 125646.28767 
L 200.570656 125646.28767 
L 200.570656 71.263684 
L 193.861239 71.263684 
z
" clip-path="url(#p9a7f4ef653)" style="fill: #ff7f0e; stroke: #000000; stroke-width: 2; stroke-linejoin: miter"/>
   </g>
   <g id="patch_10">
    <path d="M 286.115731 125646.28767 
L 292.825149 125646.28767 
L 292.825149 132.665436 
L 286.115731 132.665436 
z
" clip-path="url(#p9a7f4ef653)" style="fill: #ff7f0e; stroke: #000000; stroke-width: 2; stroke-linejoin: miter"/>
   </g>
   <g id="patch_11">
    <path d="M 378.370224 125646.28767 
L 385.079642 125646.28767 
L 385.079642 170.742071 
L 378.370224 170.742071 
z
" clip-path="url(#p9a7f4ef653)" style="fill: #ff7f0e; stroke: #000000; stroke-width: 2; stroke-linejoin: miter"/>
   </g>
   <g id="patch_12">
    <path d="M 470.624717 125646.28767 
L 477.334134 125646.28767 
L 477.334134 170.85419 
L 470.624717 170.85419 
z
" clip-path="url(#p9a7f4ef653)" style="fill: #ff7f0e; stroke: #000000; stroke-width: 2; stroke-linejoin: miter"/>
   </g>
   <g id="patch_13">
    <path d="M 108.316164 125646.28767 
L 115.025581 125646.28767 
L 115.025581 102.006377 
L 108.316164 102.006377 
z
" clip-path="url(#p9a7f4ef653)" style="fill: #2ca02c; stroke: #000000; stroke-width: 2; stroke-linejoin: miter"/>
   </g>
   <g id="patch_14">
    <path d="M 200.570656 125646.28767 
L 207.280074 125646.28767 
L 207.280074 53.846384 
L 200.570656 53.846384 
z
" clip-path="url(#p9a7f4ef653)" style="fill: #2ca02c; stroke: #000000; stroke-width: 2; stroke-linejoin: miter"/>
   </g>
   <g id="patch_15">
    <path d="M 292.825149 125646.28767 
L 299.534567 125646.28767 
L 299.534567 84.998413 
L 292.825149 84.998413 
z
" clip-path="url(#p9a7f4ef653)" style="fill: #2ca02c; stroke: #000000; stroke-width: 2; stroke-linejoin: miter"/>
   </g>
   <g id="patch_16">
    <path d="M 385.079642 125646.28767 
L 391.789059 125646.28767 
L 391.789059 104.001823 
L 385.079642 104.001823 
z
" clip-path="url(#p9a7f4ef653)" style="fill: #2ca02c; stroke: #000000; stroke-width: 2; stroke-linejoin: miter"/>
   </g>
   <g id="patch_17">
    <path d="M 477.334134 125646.28767 
L 484.043552 125646.28767 
L 484.043552 103.231446 
L 477.334134 103.231446 
z
" clip-path="url(#p9a7f4ef653)" style="fill: #2ca02c; stroke: #000000; stroke-width: 2; stroke-linejoin: miter"/>
   </g>
   <g id="patch_18">
    <path d="M 115.025581 125646.28767 
L 121.734999 125646.28767 
L 121.734999 240.078502 
L 115.025581 240.078502 
z
" clip-path="url(#p9a7f4ef653)" style="fill: #d62728; stroke: #000000; stroke-width: 2; stroke-linejoin: miter"/>
   </g>
   <g id="patch_19">
    <path d="M 207.280074 125646.28767 
L 213.989492 125646.28767 
L 213.989492 76.90601 
L 207.280074 76.90601 
z
" clip-path="url(#p9a7f4ef653)" style="fill: #d62728; stroke: #000000; stroke-width: 2; stroke-linejoin: miter"/>
   </g>
   <g id="patch_20">
    <path d="M 299.534567 125646.28767 
L 306.243984 125646.28767 
L 306.243984 153.37873 
L 299.534567 153.37873 
z
" clip-path="url(#p9a7f4ef653)" style="fill: #d62728; stroke: #000000; stroke-width: 2; stroke-linejoin: miter"/>
   </g>
   <g id="patch_21">
    <path d="M 391.789059 125646.28767 
L 398.498477 125646.28767 
L 398.498477 225.805895 
L 391.789059 225.805895 
z
" clip-path="url(#p9a7f4ef653)" style="fill: #d62728; stroke: #000000; stroke-width: 2; stroke-linejoin: miter"/>
   </g>
   <g id="patch_22">
    <path d="M 484.043552 125646.28767 
L 490.75297 125646.28767 
L 490.75297 226.05079 
L 484.043552 226.05079 
z
" clip-path="url(#p9a7f4ef653)" style="fill: #d62728; stroke: #000000; stroke-width: 2; stroke-linejoin: miter"/>
   </g>
   <g id="patch_23">
    <path d="M 121.734999 125646.28767 
L 128.444416 125646.28767 
L 128.444416 227.796684 
L 121.734999 227.796684 
z
" clip-path="url(#p9a7f4ef653)" style="fill: #9467bd; stroke: #000000; stroke-width: 2; stroke-linejoin: miter"/>
   </g>
   <g id="patch_24">
    <path d="M 213.989492 125646.28767 
L 220.698909 125646.28767 
L 220.698909 75.168931 
L 213.989492 75.168931 
z
" clip-path="url(#p9a7f4ef653)" style="fill: #9467bd; stroke: #000000; stroke-width: 2; stroke-linejoin: miter"/>
   </g>
   <g id="patch_25">
    <path d="M 306.243984 125646.28767 
L 312.953402 125646.28767 
L 312.953402 210.867334 
L 306.243984 210.867334 
z
" clip-path="url(#p9a7f4ef653)" style="fill: #9467bd; stroke: #000000; stroke-width: 2; stroke-linejoin: miter"/>
   </g>
   <g id="patch_26">
    <path d="M 398.498477 125646.28767 
L 405.207895 125646.28767 
L 405.207895 219.866928 
L 398.498477 219.866928 
z
" clip-path="url(#p9a7f4ef653)" style="fill: #9467bd; stroke: #000000; stroke-width: 2; stroke-linejoin: miter"/>
   </g>
   <g id="patch_27">
    <path d="M 490.75297 125646.28767 
L 497.462387 125646.28767 
L 497.462387 219.774779 
L 490.75297 219.774779 
z
" clip-path="url(#p9a7f4ef653)" style="fill: #9467bd; stroke: #000000; stroke-width: 2; stroke-linejoin: miter"/>
   </g>
   <g id="patch_28">
    <path d="M 128.444416 125646.28767 
L 135.153834 125646.28767 
L 135.153834 187.794185 
L 128.444416 187.794185 
z
" clip-path="url(#p9a7f4ef653)" style="fill: #8c564b; stroke: #000000; stroke-width: 2; stroke-linejoin: miter"/>
   </g>
   <g id="patch_29">
    <path clip-path="url(#p9a7f4ef653)" style="fill: #8c564b; stroke: #000000; stroke-width: 2; stroke-linejoin: miter"/>
   </g>
   <g id="patch_30">
    <path d="M 312.953402 125646.28767 
L 319.66282 125646.28767 
L 319.66282 189.139358 
L 312.953402 189.139358 
z
" clip-path="url(#p9a7f4ef653)" style="fill: #8c564b; stroke: #000000; stroke-width: 2; stroke-linejoin: miter"/>
   </g>
   <g id="patch_31">
    <path d="M 405.207895 125646.28767 
L 411.917312 125646.28767 
L 411.917312 189.139358 
L 405.207895 189.139358 
z
" clip-path="url(#p9a7f4ef653)" style="fill: #8c564b; stroke: #000000; stroke-width: 2; stroke-linejoin: miter"/>
   </g>
   <g id="patch_32">
    <path d="M 497.462387 125646.28767 
L 504.171805 125646.28767 
L 504.171805 189.139358 
L 497.462387 189.139358 
z
" clip-path="url(#p9a7f4ef653)" style="fill: #8c564b; stroke: #000000; stroke-width: 2; stroke-linejoin: miter"/>
   </g>
   <g id="patch_33">
    <path d="M 135.153834 125646.28767 
L 141.863252 125646.28767 
L 141.863252 168.36798 
L 135.153834 168.36798 
z
" clip-path="url(#p9a7f4ef653)" style="fill: #e377c2; stroke: #000000; stroke-width: 2; stroke-linejoin: miter"/>
   </g>
   <g id="patch_34">
    <path d="M 227.408327 125646.28767 
L 234.117744 125646.28767 
L 234.117744 39.259834 
L 227.408327 39.259834 
z
" clip-path="url(#p9a7f4ef653)" style="fill: #e377c2; stroke: #000000; stroke-width: 2; stroke-linejoin: miter"/>
   </g>
   <g id="patch_35">
    <path d="M 319.66282 125646.28767 
L 326.372237 125646.28767 
L 326.372237 108.952396 
L 319.66282 108.952396 
z
" clip-path="url(#p9a7f4ef653)" style="fill: #e377c2; stroke: #000000; stroke-width: 2; stroke-linejoin: miter"/>
   </g>
   <g id="patch_36">
    <path d="M 411.917312 125646.28767 
L 418.62673 125646.28767 
L 418.62673 161.716282 
L 411.917312 161.716282 
z
" clip-path="url(#p9a7f4ef653)" style="fill: #e377c2; stroke: #000000; stroke-width: 2; stroke-linejoin: miter"/>
   </g>
   <g id="patch_37">
    <path d="M 504.171805 125646.28767 
L 510.881223 125646.28767 
L 510.881223 164.973944 
L 504.171805 164.973944 
z
" clip-path="url(#p9a7f4ef653)" style="fill: #e377c2; stroke: #000000; stroke-width: 2; stroke-linejoin: miter"/>
   </g>
   <g id="patch_38">
    <path d="M 141.863252 125646.28767 
L 148.572669 125646.28767 
L 148.572669 146.485636 
L 141.863252 146.485636 
z
" clip-path="url(#p9a7f4ef653)" style="fill: #7f7f7f; stroke: #000000; stroke-width: 2; stroke-linejoin: miter"/>
   </g>
   <g id="patch_39">
    <path d="M 234.117744 125646.28767 
L 240.827162 125646.28767 
L 240.827162 17.103985 
L 234.117744 17.103985 
z
" clip-path="url(#p9a7f4ef653)" style="fill: #7f7f7f; stroke: #000000; stroke-width: 2; stroke-linejoin: miter"/>
   </g>
   <g id="patch_40">
    <path d="M 326.372237 125646.28767 
L 333.081655 125646.28767 
L 333.081655 85.138538 
L 326.372237 85.138538 
z
" clip-path="url(#p9a7f4ef653)" style="fill: #7f7f7f; stroke: #000000; stroke-width: 2; stroke-linejoin: miter"/>
   </g>
   <g id="patch_41">
    <path d="M 418.62673 125646.28767 
L 425.336147 125646.28767 
L 425.336147 138.378772 
L 418.62673 138.378772 
z
" clip-path="url(#p9a7f4ef653)" style="fill: #7f7f7f; stroke: #000000; stroke-width: 2; stroke-linejoin: miter"/>
   </g>
   <g id="patch_42">
    <path d="M 510.881223 125646.28767 
L 517.59064 125646.28767 
L 517.59064 138.378772 
L 510.881223 138.378772 
z
" clip-path="url(#p9a7f4ef653)" style="fill: #7f7f7f; stroke: #000000; stroke-width: 2; stroke-linejoin: miter"/>
   </g>
   <g id="patch_43">
    <path d="M 148.572669 125646.28767 
L 155.282087 125646.28767 
L 155.282087 181.800673 
L 148.572669 181.800673 
z
" clip-path="url(#p9a7f4ef653)" style="fill: #bcbd22; stroke: #000000; stroke-width: 2; stroke-linejoin: miter"/>
   </g>
   <g id="patch_44">
    <path d="M 240.827162 125646.28767 
L 247.53658 125646.28767 
L 247.53658 64.206295 
L 240.827162 64.206295 
z
" clip-path="url(#p9a7f4ef653)" style="fill: #bcbd22; stroke: #000000; stroke-width: 2; stroke-linejoin: miter"/>
   </g>
   <g id="patch_45">
    <path d="M 333.081655 125646.28767 
L 339.791072 125646.28767 
L 339.791072 136.260115 
L 333.081655 136.260115 
z
" clip-path="url(#p9a7f4ef653)" style="fill: #bcbd22; stroke: #000000; stroke-width: 2; stroke-linejoin: miter"/>
   </g>
   <g id="patch_46">
    <path d="M 425.336147 125646.28767 
L 432.045565 125646.28767 
L 432.045565 178.386446 
L 425.336147 178.386446 
z
" clip-path="url(#p9a7f4ef653)" style="fill: #bcbd22; stroke: #000000; stroke-width: 2; stroke-linejoin: miter"/>
   </g>
   <g id="patch_47">
    <path d="M 517.59064 125646.28767 
L 524.300058 125646.28767 
L 524.300058 178.472466 
L 517.59064 178.472466 
z
" clip-path="url(#p9a7f4ef653)" style="fill: #bcbd22; stroke: #000000; stroke-width: 2; stroke-linejoin: miter"/>
   </g>
   <g id="patch_48">
    <path d="M 155.282087 125646.28767 
L 161.991505 125646.28767 
L 161.991505 83.465989 
L 155.282087 83.465989 
z
" clip-path="url(#p9a7f4ef653)" style="fill: #17becf; stroke: #000000; stroke-width: 2; stroke-linejoin: miter"/>
   </g>
   <g id="patch_49">
    <path d="M 247.53658 125646.28767 
L 254.245997 125646.28767 
L 254.245997 40.862792 
L 247.53658 40.862792 
z
" clip-path="url(#p9a7f4ef653)" style="fill: #17becf; stroke: #000000; stroke-width: 2; stroke-linejoin: miter"/>
   </g>
   <g id="patch_50">
    <path d="M 339.791072 125646.28767 
L 346.50049 125646.28767 
L 346.50049 55.253414 
L 339.791072 55.253414 
z
" clip-path="url(#p9a7f4ef653)" style="fill: #17becf; stroke: #000000; stroke-width: 2; stroke-linejoin: miter"/>
   </g>
   <g id="patch_51">
    <path d="M 432.045565 125646.28767 
L 438.754983 125646.28767 
L 438.754983 83.009666 
L 432.045565 83.009666 
z
" clip-path="url(#p9a7f4ef653)" style="fill: #17becf; stroke: #000000; stroke-width: 2; stroke-linejoin: miter"/>
   </g>
   <g id="patch_52">
    <path d="M 524.300058 125646.28767 
L 531.009475 125646.28767 
L 531.009475 80.308419 
L 524.300058 80.308419 
z
" clip-path="url(#p9a7f4ef653)" style="fill: #17becf; stroke: #000000; stroke-width: 2; stroke-linejoin: miter"/>
   </g>
   <g id="patch_53">
    <path d="M 161.991505 125646.28767 
L 168.700922 125646.28767 
L 168.700922 156.619432 
L 161.991505 156.619432 
z
" clip-path="url(#p9a7f4ef653)" style="fill: #aec7e8; stroke: #000000; stroke-width: 2; stroke-linejoin: miter"/>
   </g>
   <g id="patch_54">
    <path d="M 254.245997 125646.28767 
L 260.955415 125646.28767 
L 260.955415 49.759063 
L 254.245997 49.759063 
z
" clip-path="url(#p9a7f4ef653)" style="fill: #aec7e8; stroke: #000000; stroke-width: 2; stroke-linejoin: miter"/>
   </g>
   <g id="patch_55">
    <path d="M 346.50049 125646.28767 
L 353.209908 125646.28767 
L 353.209908 123.200832 
L 346.50049 123.200832 
z
" clip-path="url(#p9a7f4ef653)" style="fill: #aec7e8; stroke: #000000; stroke-width: 2; stroke-linejoin: miter"/>
   </g>
   <g id="patch_56">
    <path d="M 438.754983 125646.28767 
L 445.4644 125646.28767 
L 445.4644 153.216253 
L 438.754983 153.216253 
z
" clip-path="url(#p9a7f4ef653)" style="fill: #aec7e8; stroke: #000000; stroke-width: 2; stroke-linejoin: miter"/>
   </g>
   <g id="patch_57">
    <path d="M 531.009475 125646.28767 
L 537.718893 125646.28767 
L 537.718893 153.351617 
L 531.009475 153.351617 
z
" clip-path="url(#p9a7f4ef653)" style="fill: #aec7e8; stroke: #000000; stroke-width: 2; stroke-linejoin: miter"/>
   </g>
   <g id="matplotlib.axis_1">
    <g id="xtick_1">
     <g id="line2d_1">
      <defs>
       <path id="ma17515d71b" d="M 0 0 
L 0 3.5 
" style="stroke: #000000; stroke-width: 0.8"/>
      </defs>
      <g>
       <use xlink:href="#ma17515d71b" x="131.799125" y="252.2" style="stroke: #000000; stroke-width: 0.8"/>
      </g>
     </g>
     <g id="text_1">
      <!-- Deep -->
      <g transform="translate(110.715375 271.3575) scale(0.16 -0.16)">
       <defs>
        <path id="DejaVuSans-44" d="M 1259 4147 
L 1259 519 
L 2022 519 
Q 2988 519 3436 956 
Q 3884 1394 3884 2338 
Q 3884 3275 3436 3711 
Q 2988 4147 2022 4147 
L 1259 4147 
z
M 628 4666 
L 1925 4666 
Q 3281 4666 3915 4102 
Q 4550 3538 4550 2338 
Q 4550 1131 3912 565 
Q 3275 0 1925 0 
L 628 0 
L 628 4666 
z
" transform="scale(0.015625)"/>
        <path id="DejaVuSans-65" d="M 3597 1894 
L 3597 1613 
L 953 1613 
Q 991 1019 1311 708 
Q 1631 397 2203 397 
Q 2534 397 2845 478 
Q 3156 559 3463 722 
L 3463 178 
Q 3153 47 2828 -22 
Q 2503 -91 2169 -91 
Q 1331 -91 842 396 
Q 353 884 353 1716 
Q 353 2575 817 3079 
Q 1281 3584 2069 3584 
Q 2775 3584 3186 3129 
Q 3597 2675 3597 1894 
z
M 3022 2063 
Q 3016 2534 2758 2815 
Q 2500 3097 2075 3097 
Q 1594 3097 1305 2825 
Q 1016 2553 972 2059 
L 3022 2063 
z
" transform="scale(0.015625)"/>
        <path id="DejaVuSans-70" d="M 1159 525 
L 1159 -1331 
L 581 -1331 
L 581 3500 
L 1159 3500 
L 1159 2969 
Q 1341 3281 1617 3432 
Q 1894 3584 2278 3584 
Q 2916 3584 3314 3078 
Q 3713 2572 3713 1747 
Q 3713 922 3314 415 
Q 2916 -91 2278 -91 
Q 1894 -91 1617 61 
Q 1341 213 1159 525 
z
M 3116 1747 
Q 3116 2381 2855 2742 
Q 2594 3103 2138 3103 
Q 1681 3103 1420 2742 
Q 1159 2381 1159 1747 
Q 1159 1113 1420 752 
Q 1681 391 2138 391 
Q 2594 391 2855 752 
Q 3116 1113 3116 1747 
z
" transform="scale(0.015625)"/>
       </defs>
       <use xlink:href="#DejaVuSans-44"/>
       <use xlink:href="#DejaVuSans-65" transform="translate(77.001953 0)"/>
       <use xlink:href="#DejaVuSans-65" transform="translate(138.525391 0)"/>
       <use xlink:href="#DejaVuSans-70" transform="translate(200.048828 0)"/>
      </g>
     </g>
    </g>
    <g id="xtick_2">
     <g id="line2d_2">
      <g>
       <use xlink:href="#ma17515d71b" x="224.053618" y="252.2" style="stroke: #000000; stroke-width: 0.8"/>
      </g>
     </g>
     <g id="text_2">
      <!-- WIT -->
      <g transform="translate(208.897368 271.3575) scale(0.16 -0.16)">
       <defs>
        <path id="DejaVuSans-57" d="M 213 4666 
L 850 4666 
L 1831 722 
L 2809 4666 
L 3519 4666 
L 4500 722 
L 5478 4666 
L 6119 4666 
L 4947 0 
L 4153 0 
L 3169 4050 
L 2175 0 
L 1381 0 
L 213 4666 
z
" transform="scale(0.015625)"/>
        <path id="DejaVuSans-49" d="M 628 4666 
L 1259 4666 
L 1259 0 
L 628 0 
L 628 4666 
z
" transform="scale(0.015625)"/>
        <path id="DejaVuSans-54" d="M -19 4666 
L 3928 4666 
L 3928 4134 
L 2272 4134 
L 2272 0 
L 1638 0 
L 1638 4134 
L -19 4134 
L -19 4666 
z
" transform="scale(0.015625)"/>
       </defs>
       <use xlink:href="#DejaVuSans-57"/>
       <use xlink:href="#DejaVuSans-49" transform="translate(98.876953 0)"/>
       <use xlink:href="#DejaVuSans-54" transform="translate(128.369141 0)"/>
      </g>
     </g>
    </g>
    <g id="xtick_3">
     <g id="line2d_3">
      <g>
       <use xlink:href="#ma17515d71b" x="316.308111" y="252.2" style="stroke: #000000; stroke-width: 0.8"/>
      </g>
     </g>
     <g id="text_3">
      <!-- WIT-Real -->
      <g transform="translate(281.749361 271.3575) scale(0.16 -0.16)">
       <defs>
        <path id="DejaVuSans-2d" d="M 313 2009 
L 1997 2009 
L 1997 1497 
L 313 1497 
L 313 2009 
z
" transform="scale(0.015625)"/>
        <path id="DejaVuSans-52" d="M 2841 2188 
Q 3044 2119 3236 1894 
Q 3428 1669 3622 1275 
L 4263 0 
L 3584 0 
L 2988 1197 
Q 2756 1666 2539 1819 
Q 2322 1972 1947 1972 
L 1259 1972 
L 1259 0 
L 628 0 
L 628 4666 
L 2053 4666 
Q 2853 4666 3247 4331 
Q 3641 3997 3641 3322 
Q 3641 2881 3436 2590 
Q 3231 2300 2841 2188 
z
M 1259 4147 
L 1259 2491 
L 2053 2491 
Q 2509 2491 2742 2702 
Q 2975 2913 2975 3322 
Q 2975 3731 2742 3939 
Q 2509 4147 2053 4147 
L 1259 4147 
z
" transform="scale(0.015625)"/>
        <path id="DejaVuSans-61" d="M 2194 1759 
Q 1497 1759 1228 1600 
Q 959 1441 959 1056 
Q 959 750 1161 570 
Q 1363 391 1709 391 
Q 2188 391 2477 730 
Q 2766 1069 2766 1631 
L 2766 1759 
L 2194 1759 
z
M 3341 1997 
L 3341 0 
L 2766 0 
L 2766 531 
Q 2569 213 2275 61 
Q 1981 -91 1556 -91 
Q 1019 -91 701 211 
Q 384 513 384 1019 
Q 384 1609 779 1909 
Q 1175 2209 1959 2209 
L 2766 2209 
L 2766 2266 
Q 2766 2663 2505 2880 
Q 2244 3097 1772 3097 
Q 1472 3097 1187 3025 
Q 903 2953 641 2809 
L 641 3341 
Q 956 3463 1253 3523 
Q 1550 3584 1831 3584 
Q 2591 3584 2966 3190 
Q 3341 2797 3341 1997 
z
" transform="scale(0.015625)"/>
        <path id="DejaVuSans-6c" d="M 603 4863 
L 1178 4863 
L 1178 0 
L 603 0 
L 603 4863 
z
" transform="scale(0.015625)"/>
       </defs>
       <use xlink:href="#DejaVuSans-57"/>
       <use xlink:href="#DejaVuSans-49" transform="translate(98.876953 0)"/>
       <use xlink:href="#DejaVuSans-54" transform="translate(128.369141 0)"/>
       <use xlink:href="#DejaVuSans-2d" transform="translate(180.328125 0)"/>
       <use xlink:href="#DejaVuSans-52" transform="translate(216.412109 0)"/>
       <use xlink:href="#DejaVuSans-65" transform="translate(281.394531 0)"/>
       <use xlink:href="#DejaVuSans-61" transform="translate(342.917969 0)"/>
       <use xlink:href="#DejaVuSans-6c" transform="translate(404.197266 0)"/>
      </g>
     </g>
    </g>
    <g id="xtick_4">
     <g id="line2d_4">
      <g>
       <use xlink:href="#ma17515d71b" x="408.562603" y="252.2" style="stroke: #000000; stroke-width: 0.8"/>
      </g>
     </g>
     <g id="text_4">
      <!-- YT-Audio -->
      <g transform="translate(374.075103 271.3575) scale(0.16 -0.16)">
       <defs>
        <path id="DejaVuSans-59" d="M -13 4666 
L 666 4666 
L 1959 2747 
L 3244 4666 
L 3922 4666 
L 2272 2222 
L 2272 0 
L 1638 0 
L 1638 2222 
L -13 4666 
z
" transform="scale(0.015625)"/>
        <path id="DejaVuSans-41" d="M 2188 4044 
L 1331 1722 
L 3047 1722 
L 2188 4044 
z
M 1831 4666 
L 2547 4666 
L 4325 0 
L 3669 0 
L 3244 1197 
L 1141 1197 
L 716 0 
L 50 0 
L 1831 4666 
z
" transform="scale(0.015625)"/>
        <path id="DejaVuSans-75" d="M 544 1381 
L 544 3500 
L 1119 3500 
L 1119 1403 
Q 1119 906 1312 657 
Q 1506 409 1894 409 
Q 2359 409 2629 706 
Q 2900 1003 2900 1516 
L 2900 3500 
L 3475 3500 
L 3475 0 
L 2900 0 
L 2900 538 
Q 2691 219 2414 64 
Q 2138 -91 1772 -91 
Q 1169 -91 856 284 
Q 544 659 544 1381 
z
M 1991 3584 
L 1991 3584 
z
" transform="scale(0.015625)"/>
        <path id="DejaVuSans-64" d="M 2906 2969 
L 2906 4863 
L 3481 4863 
L 3481 0 
L 2906 0 
L 2906 525 
Q 2725 213 2448 61 
Q 2172 -91 1784 -91 
Q 1150 -91 751 415 
Q 353 922 353 1747 
Q 353 2572 751 3078 
Q 1150 3584 1784 3584 
Q 2172 3584 2448 3432 
Q 2725 3281 2906 2969 
z
M 947 1747 
Q 947 1113 1208 752 
Q 1469 391 1925 391 
Q 2381 391 2643 752 
Q 2906 1113 2906 1747 
Q 2906 2381 2643 2742 
Q 2381 3103 1925 3103 
Q 1469 3103 1208 2742 
Q 947 2381 947 1747 
z
" transform="scale(0.015625)"/>
        <path id="DejaVuSans-69" d="M 603 3500 
L 1178 3500 
L 1178 0 
L 603 0 
L 603 3500 
z
M 603 4863 
L 1178 4863 
L 1178 4134 
L 603 4134 
L 603 4863 
z
" transform="scale(0.015625)"/>
        <path id="DejaVuSans-6f" d="M 1959 3097 
Q 1497 3097 1228 2736 
Q 959 2375 959 1747 
Q 959 1119 1226 758 
Q 1494 397 1959 397 
Q 2419 397 2687 759 
Q 2956 1122 2956 1747 
Q 2956 2369 2687 2733 
Q 2419 3097 1959 3097 
z
M 1959 3584 
Q 2709 3584 3137 3096 
Q 3566 2609 3566 1747 
Q 3566 888 3137 398 
Q 2709 -91 1959 -91 
Q 1206 -91 779 398 
Q 353 888 353 1747 
Q 353 2609 779 3096 
Q 1206 3584 1959 3584 
z
" transform="scale(0.015625)"/>
       </defs>
       <use xlink:href="#DejaVuSans-59"/>
       <use xlink:href="#DejaVuSans-54" transform="translate(61.083984 0)"/>
       <use xlink:href="#DejaVuSans-2d" transform="translate(113.042969 0)"/>
       <use xlink:href="#DejaVuSans-41" transform="translate(146.876953 0)"/>
       <use xlink:href="#DejaVuSans-75" transform="translate(215.285156 0)"/>
       <use xlink:href="#DejaVuSans-64" transform="translate(278.664062 0)"/>
       <use xlink:href="#DejaVuSans-69" transform="translate(342.140625 0)"/>
       <use xlink:href="#DejaVuSans-6f" transform="translate(369.923828 0)"/>
      </g>
     </g>
    </g>
    <g id="xtick_5">
     <g id="line2d_5">
      <g>
       <use xlink:href="#ma17515d71b" x="500.817096" y="252.2" style="stroke: #000000; stroke-width: 0.8"/>
      </g>
     </g>
     <g id="text_5">
      <!-- YT-Audio-Real -->
      <g transform="translate(446.047096 271.3575) scale(0.16 -0.16)">
       <use xlink:href="#DejaVuSans-59"/>
       <use xlink:href="#DejaVuSans-54" transform="translate(61.083984 0)"/>
       <use xlink:href="#DejaVuSans-2d" transform="translate(113.042969 0)"/>
       <use xlink:href="#DejaVuSans-41" transform="translate(146.876953 0)"/>
       <use xlink:href="#DejaVuSans-75" transform="translate(215.285156 0)"/>
       <use xlink:href="#DejaVuSans-64" transform="translate(278.664062 0)"/>
       <use xlink:href="#DejaVuSans-69" transform="translate(342.140625 0)"/>
       <use xlink:href="#DejaVuSans-6f" transform="translate(369.923828 0)"/>
       <use xlink:href="#DejaVuSans-2d" transform="translate(432.980469 0)"/>
       <use xlink:href="#DejaVuSans-52" transform="translate(469.064453 0)"/>
       <use xlink:href="#DejaVuSans-65" transform="translate(534.046875 0)"/>
       <use xlink:href="#DejaVuSans-61" transform="translate(595.570312 0)"/>
       <use xlink:href="#DejaVuSans-6c" transform="translate(656.849609 0)"/>
      </g>
     </g>
    </g>
   </g>
   <g id="matplotlib.axis_2">
    <g id="ytick_1">
     <g id="line2d_6">
      <path d="M 72.75625 191.112964 
L 559.859971 191.112964 
" clip-path="url(#p9a7f4ef653)" style="fill: none; stroke-dasharray: 2.96,1.28; stroke-dashoffset: 0; stroke: #b0b0b0; stroke-opacity: 0.7; stroke-width: 0.8"/>
     </g>
     <g id="line2d_7">
      <defs>
       <path id="ma9ba3cb974" d="M 0 0 
L -3.5 0 
" style="stroke: #000000; stroke-width: 0.8"/>
      </defs>
      <g>
       <use xlink:href="#ma9ba3cb974" x="72.75625" y="191.112964" style="stroke: #000000; stroke-width: 0.8"/>
      </g>
     </g>
     <g id="text_6">
      <!-- $\mathdefault{10^{3}}$ -->
      <g transform="translate(30.55625 198.711401) scale(0.2 -0.2)">
       <defs>
        <path id="DejaVuSans-31" d="M 794 531 
L 1825 531 
L 1825 4091 
L 703 3866 
L 703 4441 
L 1819 4666 
L 2450 4666 
L 2450 531 
L 3481 531 
L 3481 0 
L 794 0 
L 794 531 
z
" transform="scale(0.015625)"/>
        <path id="DejaVuSans-30" d="M 2034 4250 
Q 1547 4250 1301 3770 
Q 1056 3291 1056 2328 
Q 1056 1369 1301 889 
Q 1547 409 2034 409 
Q 2525 409 2770 889 
Q 3016 1369 3016 2328 
Q 3016 3291 2770 3770 
Q 2525 4250 2034 4250 
z
M 2034 4750 
Q 2819 4750 3233 4129 
Q 3647 3509 3647 2328 
Q 3647 1150 3233 529 
Q 2819 -91 2034 -91 
Q 1250 -91 836 529 
Q 422 1150 422 2328 
Q 422 3509 836 4129 
Q 1250 4750 2034 4750 
z
" transform="scale(0.015625)"/>
        <path id="DejaVuSans-33" d="M 2597 2516 
Q 3050 2419 3304 2112 
Q 3559 1806 3559 1356 
Q 3559 666 3084 287 
Q 2609 -91 1734 -91 
Q 1441 -91 1130 -33 
Q 819 25 488 141 
L 488 750 
Q 750 597 1062 519 
Q 1375 441 1716 441 
Q 2309 441 2620 675 
Q 2931 909 2931 1356 
Q 2931 1769 2642 2001 
Q 2353 2234 1838 2234 
L 1294 2234 
L 1294 2753 
L 1863 2753 
Q 2328 2753 2575 2939 
Q 2822 3125 2822 3475 
Q 2822 3834 2567 4026 
Q 2313 4219 1838 4219 
Q 1578 4219 1281 4162 
Q 984 4106 628 3988 
L 628 4550 
Q 988 4650 1302 4700 
Q 1616 4750 1894 4750 
Q 2613 4750 3031 4423 
Q 3450 4097 3450 3541 
Q 3450 3153 3228 2886 
Q 3006 2619 2597 2516 
z
" transform="scale(0.015625)"/>
       </defs>
       <use xlink:href="#DejaVuSans-31" transform="translate(0 0.765625)"/>
       <use xlink:href="#DejaVuSans-30" transform="translate(63.623047 0.765625)"/>
       <use xlink:href="#DejaVuSans-33" transform="translate(128.203125 39.046875) scale(0.7)"/>
      </g>
     </g>
    </g>
    <g id="ytick_2">
     <g id="line2d_8">
      <path d="M 72.75625 66.033029 
L 559.859971 66.033029 
" clip-path="url(#p9a7f4ef653)" style="fill: none; stroke-dasharray: 2.96,1.28; stroke-dashoffset: 0; stroke: #b0b0b0; stroke-opacity: 0.7; stroke-width: 0.8"/>
     </g>
     <g id="line2d_9">
      <g>
       <use xlink:href="#ma9ba3cb974" x="72.75625" y="66.033029" style="stroke: #000000; stroke-width: 0.8"/>
      </g>
     </g>
     <g id="text_7">
      <!-- $\mathdefault{10^{4}}$ -->
      <g transform="translate(30.55625 73.631466) scale(0.2 -0.2)">
       <defs>
        <path id="DejaVuSans-34" d="M 2419 4116 
L 825 1625 
L 2419 1625 
L 2419 4116 
z
M 2253 4666 
L 3047 4666 
L 3047 1625 
L 3713 1625 
L 3713 1100 
L 3047 1100 
L 3047 0 
L 2419 0 
L 2419 1100 
L 313 1100 
L 313 1709 
L 2253 4666 
z
" transform="scale(0.015625)"/>
       </defs>
       <use xlink:href="#DejaVuSans-31" transform="translate(0 0.684375)"/>
       <use xlink:href="#DejaVuSans-30" transform="translate(63.623047 0.684375)"/>
       <use xlink:href="#DejaVuSans-34" transform="translate(128.203125 38.965625) scale(0.7)"/>
      </g>
     </g>
    </g>
    <g id="ytick_3">
     <g id="line2d_10">
      <defs>
       <path id="m284c8df70a" d="M 0 0 
L -2 0 
" style="stroke: #000000; stroke-width: 0.6"/>
      </defs>
      <g>
       <use xlink:href="#m284c8df70a" x="72.75625" y="240.887274" style="stroke: #000000; stroke-width: 0.6"/>
      </g>
     </g>
    </g>
    <g id="ytick_4">
     <g id="line2d_11">
      <g>
       <use xlink:href="#m284c8df70a" x="72.75625" y="228.765776" style="stroke: #000000; stroke-width: 0.6"/>
      </g>
     </g>
    </g>
    <g id="ytick_5">
     <g id="line2d_12">
      <g>
       <use xlink:href="#m284c8df70a" x="72.75625" y="218.861791" style="stroke: #000000; stroke-width: 0.6"/>
      </g>
     </g>
    </g>
    <g id="ytick_6">
     <g id="line2d_13">
      <g>
       <use xlink:href="#m284c8df70a" x="72.75625" y="210.488091" style="stroke: #000000; stroke-width: 0.6"/>
      </g>
     </g>
    </g>
    <g id="ytick_7">
     <g id="line2d_14">
      <g>
       <use xlink:href="#m284c8df70a" x="72.75625" y="203.234462" style="stroke: #000000; stroke-width: 0.6"/>
      </g>
     </g>
    </g>
    <g id="ytick_8">
     <g id="line2d_15">
      <g>
       <use xlink:href="#m284c8df70a" x="72.75625" y="196.836308" style="stroke: #000000; stroke-width: 0.6"/>
      </g>
     </g>
    </g>
    <g id="ytick_9">
     <g id="line2d_16">
      <g>
       <use xlink:href="#m284c8df70a" x="72.75625" y="153.460151" style="stroke: #000000; stroke-width: 0.6"/>
      </g>
     </g>
    </g>
    <g id="ytick_10">
     <g id="line2d_17">
      <g>
       <use xlink:href="#m284c8df70a" x="72.75625" y="131.434668" style="stroke: #000000; stroke-width: 0.6"/>
      </g>
     </g>
    </g>
    <g id="ytick_11">
     <g id="line2d_18">
      <g>
       <use xlink:href="#m284c8df70a" x="72.75625" y="115.807339" style="stroke: #000000; stroke-width: 0.6"/>
      </g>
     </g>
    </g>
    <g id="ytick_12">
     <g id="line2d_19">
      <g>
       <use xlink:href="#m284c8df70a" x="72.75625" y="103.685841" style="stroke: #000000; stroke-width: 0.6"/>
      </g>
     </g>
    </g>
    <g id="ytick_13">
     <g id="line2d_20">
      <g>
       <use xlink:href="#m284c8df70a" x="72.75625" y="93.781856" style="stroke: #000000; stroke-width: 0.6"/>
      </g>
     </g>
    </g>
    <g id="ytick_14">
     <g id="line2d_21">
      <g>
       <use xlink:href="#m284c8df70a" x="72.75625" y="85.408156" style="stroke: #000000; stroke-width: 0.6"/>
      </g>
     </g>
    </g>
    <g id="ytick_15">
     <g id="line2d_22">
      <g>
       <use xlink:href="#m284c8df70a" x="72.75625" y="78.154527" style="stroke: #000000; stroke-width: 0.6"/>
      </g>
     </g>
    </g>
    <g id="ytick_16">
     <g id="line2d_23">
      <g>
       <use xlink:href="#m284c8df70a" x="72.75625" y="71.756373" style="stroke: #000000; stroke-width: 0.6"/>
      </g>
     </g>
    </g>
    <g id="ytick_17">
     <g id="line2d_24">
      <g>
       <use xlink:href="#m284c8df70a" x="72.75625" y="28.380216" style="stroke: #000000; stroke-width: 0.6"/>
      </g>
     </g>
    </g>
    <g id="text_8">
     <!-- Memory Usage (MB) -->
     <g transform="translate(22.396875 231.176563) rotate(-90) scale(0.2 -0.2)">
      <defs>
       <path id="DejaVuSans-4d" d="M 628 4666 
L 1569 4666 
L 2759 1491 
L 3956 4666 
L 4897 4666 
L 4897 0 
L 4281 0 
L 4281 4097 
L 3078 897 
L 2444 897 
L 1241 4097 
L 1241 0 
L 628 0 
L 628 4666 
z
" transform="scale(0.015625)"/>
       <path id="DejaVuSans-6d" d="M 3328 2828 
Q 3544 3216 3844 3400 
Q 4144 3584 4550 3584 
Q 5097 3584 5394 3201 
Q 5691 2819 5691 2113 
L 5691 0 
L 5113 0 
L 5113 2094 
Q 5113 2597 4934 2840 
Q 4756 3084 4391 3084 
Q 3944 3084 3684 2787 
Q 3425 2491 3425 1978 
L 3425 0 
L 2847 0 
L 2847 2094 
Q 2847 2600 2669 2842 
Q 2491 3084 2119 3084 
Q 1678 3084 1418 2786 
Q 1159 2488 1159 1978 
L 1159 0 
L 581 0 
L 581 3500 
L 1159 3500 
L 1159 2956 
Q 1356 3278 1631 3431 
Q 1906 3584 2284 3584 
Q 2666 3584 2933 3390 
Q 3200 3197 3328 2828 
z
" transform="scale(0.015625)"/>
       <path id="DejaVuSans-72" d="M 2631 2963 
Q 2534 3019 2420 3045 
Q 2306 3072 2169 3072 
Q 1681 3072 1420 2755 
Q 1159 2438 1159 1844 
L 1159 0 
L 581 0 
L 581 3500 
L 1159 3500 
L 1159 2956 
Q 1341 3275 1631 3429 
Q 1922 3584 2338 3584 
Q 2397 3584 2469 3576 
Q 2541 3569 2628 3553 
L 2631 2963 
z
" transform="scale(0.015625)"/>
       <path id="DejaVuSans-79" d="M 2059 -325 
Q 1816 -950 1584 -1140 
Q 1353 -1331 966 -1331 
L 506 -1331 
L 506 -850 
L 844 -850 
Q 1081 -850 1212 -737 
Q 1344 -625 1503 -206 
L 1606 56 
L 191 3500 
L 800 3500 
L 1894 763 
L 2988 3500 
L 3597 3500 
L 2059 -325 
z
" transform="scale(0.015625)"/>
       <path id="DejaVuSans-20" transform="scale(0.015625)"/>
       <path id="DejaVuSans-55" d="M 556 4666 
L 1191 4666 
L 1191 1831 
Q 1191 1081 1462 751 
Q 1734 422 2344 422 
Q 2950 422 3222 751 
Q 3494 1081 3494 1831 
L 3494 4666 
L 4128 4666 
L 4128 1753 
Q 4128 841 3676 375 
Q 3225 -91 2344 -91 
Q 1459 -91 1007 375 
Q 556 841 556 1753 
L 556 4666 
z
" transform="scale(0.015625)"/>
       <path id="DejaVuSans-73" d="M 2834 3397 
L 2834 2853 
Q 2591 2978 2328 3040 
Q 2066 3103 1784 3103 
Q 1356 3103 1142 2972 
Q 928 2841 928 2578 
Q 928 2378 1081 2264 
Q 1234 2150 1697 2047 
L 1894 2003 
Q 2506 1872 2764 1633 
Q 3022 1394 3022 966 
Q 3022 478 2636 193 
Q 2250 -91 1575 -91 
Q 1294 -91 989 -36 
Q 684 19 347 128 
L 347 722 
Q 666 556 975 473 
Q 1284 391 1588 391 
Q 1994 391 2212 530 
Q 2431 669 2431 922 
Q 2431 1156 2273 1281 
Q 2116 1406 1581 1522 
L 1381 1569 
Q 847 1681 609 1914 
Q 372 2147 372 2553 
Q 372 3047 722 3315 
Q 1072 3584 1716 3584 
Q 2034 3584 2315 3537 
Q 2597 3491 2834 3397 
z
" transform="scale(0.015625)"/>
       <path id="DejaVuSans-67" d="M 2906 1791 
Q 2906 2416 2648 2759 
Q 2391 3103 1925 3103 
Q 1463 3103 1205 2759 
Q 947 2416 947 1791 
Q 947 1169 1205 825 
Q 1463 481 1925 481 
Q 2391 481 2648 825 
Q 2906 1169 2906 1791 
z
M 3481 434 
Q 3481 -459 3084 -895 
Q 2688 -1331 1869 -1331 
Q 1566 -1331 1297 -1286 
Q 1028 -1241 775 -1147 
L 775 -588 
Q 1028 -725 1275 -790 
Q 1522 -856 1778 -856 
Q 2344 -856 2625 -561 
Q 2906 -266 2906 331 
L 2906 616 
Q 2728 306 2450 153 
Q 2172 0 1784 0 
Q 1141 0 747 490 
Q 353 981 353 1791 
Q 353 2603 747 3093 
Q 1141 3584 1784 3584 
Q 2172 3584 2450 3431 
Q 2728 3278 2906 2969 
L 2906 3500 
L 3481 3500 
L 3481 434 
z
" transform="scale(0.015625)"/>
       <path id="DejaVuSans-28" d="M 1984 4856 
Q 1566 4138 1362 3434 
Q 1159 2731 1159 2009 
Q 1159 1288 1364 580 
Q 1569 -128 1984 -844 
L 1484 -844 
Q 1016 -109 783 600 
Q 550 1309 550 2009 
Q 550 2706 781 3412 
Q 1013 4119 1484 4856 
L 1984 4856 
z
" transform="scale(0.015625)"/>
       <path id="DejaVuSans-42" d="M 1259 2228 
L 1259 519 
L 2272 519 
Q 2781 519 3026 730 
Q 3272 941 3272 1375 
Q 3272 1813 3026 2020 
Q 2781 2228 2272 2228 
L 1259 2228 
z
M 1259 4147 
L 1259 2741 
L 2194 2741 
Q 2656 2741 2882 2914 
Q 3109 3088 3109 3444 
Q 3109 3797 2882 3972 
Q 2656 4147 2194 4147 
L 1259 4147 
z
M 628 4666 
L 2241 4666 
Q 2963 4666 3353 4366 
Q 3744 4066 3744 3513 
Q 3744 3084 3544 2831 
Q 3344 2578 2956 2516 
Q 3422 2416 3680 2098 
Q 3938 1781 3938 1306 
Q 3938 681 3513 340 
Q 3088 0 2303 0 
L 628 0 
L 628 4666 
z
" transform="scale(0.015625)"/>
       <path id="DejaVuSans-29" d="M 513 4856 
L 1013 4856 
Q 1481 4119 1714 3412 
Q 1947 2706 1947 2009 
Q 1947 1309 1714 600 
Q 1481 -109 1013 -844 
L 513 -844 
Q 928 -128 1133 580 
Q 1338 1288 1338 2009 
Q 1338 2731 1133 3434 
Q 928 4138 513 4856 
z
" transform="scale(0.015625)"/>
      </defs>
      <use xlink:href="#DejaVuSans-4d"/>
      <use xlink:href="#DejaVuSans-65" transform="translate(86.279297 0)"/>
      <use xlink:href="#DejaVuSans-6d" transform="translate(147.802734 0)"/>
      <use xlink:href="#DejaVuSans-6f" transform="translate(245.214844 0)"/>
      <use xlink:href="#DejaVuSans-72" transform="translate(306.396484 0)"/>
      <use xlink:href="#DejaVuSans-79" transform="translate(347.509766 0)"/>
      <use xlink:href="#DejaVuSans-20" transform="translate(406.689453 0)"/>
      <use xlink:href="#DejaVuSans-55" transform="translate(438.476562 0)"/>
      <use xlink:href="#DejaVuSans-73" transform="translate(511.669922 0)"/>
      <use xlink:href="#DejaVuSans-61" transform="translate(563.769531 0)"/>
      <use xlink:href="#DejaVuSans-67" transform="translate(625.048828 0)"/>
      <use xlink:href="#DejaVuSans-65" transform="translate(688.525391 0)"/>
      <use xlink:href="#DejaVuSans-20" transform="translate(750.048828 0)"/>
      <use xlink:href="#DejaVuSans-28" transform="translate(781.835938 0)"/>
      <use xlink:href="#DejaVuSans-4d" transform="translate(820.849609 0)"/>
      <use xlink:href="#DejaVuSans-42" transform="translate(907.128906 0)"/>
      <use xlink:href="#DejaVuSans-29" transform="translate(975.732422 0)"/>
     </g>
    </g>
   </g>
   <g id="patch_58">
    <path d="M 72.75625 252.2 
L 72.75625 7.2 
" style="fill: none; stroke: #000000; stroke-width: 0.8; stroke-linejoin: miter; stroke-linecap: square"/>
   </g>
   <g id="patch_59">
    <path d="M 559.859971 252.2 
L 559.859971 7.2 
" style="fill: none; stroke: #000000; stroke-width: 0.8; stroke-linejoin: miter; stroke-linecap: square"/>
   </g>
   <g id="patch_60">
    <path d="M 72.75625 252.2 
L 559.859971 252.2 
" style="fill: none; stroke: #000000; stroke-width: 0.8; stroke-linejoin: miter; stroke-linecap: square"/>
   </g>
   <g id="patch_61">
    <path d="M 72.75625 7.2 
L 559.859971 7.2 
" style="fill: none; stroke: #000000; stroke-width: 0.8; stroke-linejoin: miter; stroke-linecap: square"/>
   </g>
  </g>
 </g>
 <defs>
  <clipPath id="p9a7f4ef653">
   <rect x="72.75625" y="7.2" width="487.103721" height="245"/>
  </clipPath>
 </defs>
</svg>
